<?xml version="1.0" encoding="UTF-8" standalone="no"?><!DOCTYPE svg PUBLIC "-//W3C//DTD SVG 1.1//EN" "http://www.w3.org/Graphics/SVG/1.1/DTD/svg11.dtd"><svg width="100%" height="100%" viewBox="0 0 300 300" version="1.1" xmlns="http://www.w3.org/2000/svg" xmlns:xlink="http://www.w3.org/1999/xlink" xml:space="preserve" style="fill-rule:evenodd;clip-rule:evenodd;stroke-linecap:round;stroke-linejoin:round;stroke-miterlimit:1.5;"><g><path d="M259.157,69.224c0,-15.664 -12.717,-28.381 -28.381,-28.381l-161.552,0c-15.664,0 -28.381,12.717 -28.381,28.381l0,161.552c0,15.664 12.717,28.381 28.381,28.381l161.552,0c15.664,0 28.381,-12.717 28.381,-28.381l0,-161.552Z" style="fill:none;stroke:#fff;stroke-width:5.57px;"/><circle cx="150.082" cy="104.018" r="32.651" style="fill:none;stroke:#fff;stroke-width:5.57px;"/><path d="M194.423,158.881c0,-12.259 -9.953,-22.212 -22.211,-22.212l-44.424,0c-12.258,0 -22.211,9.953 -22.211,22.212l0,47.54c0,12.259 9.953,22.212 22.211,22.212l44.424,0c12.258,0 22.211,-9.953 22.211,-22.212l0,-47.54Z" style="fill:none;stroke:#fff;stroke-width:5.57px;"/></g></svg>