<?xml version="1.0" encoding="UTF-8" standalone="no"?><!DOCTYPE svg PUBLIC "-//W3C//DTD SVG 1.1//EN" "http://www.w3.org/Graphics/SVG/1.1/DTD/svg11.dtd"><svg width="100%" height="100%" viewBox="0 0 120 120" version="1.1" xmlns="http://www.w3.org/2000/svg" xmlns:xlink="http://www.w3.org/1999/xlink" xml:space="preserve" style="fill-rule:evenodd;clip-rule:evenodd;stroke-linecap:round;stroke-linejoin:round;stroke-miterlimit:1.5;"><g><path d="M120.161,15.481c0,-8.633 -7.009,-15.642 -15.642,-15.642l-89.038,0c-8.633,0 -15.642,7.009 -15.642,15.642l0,89.038c0,8.633 7.009,15.642 15.642,15.642l89.038,0c8.633,0 15.642,-7.009 15.642,-15.642l0,-89.038Z" style="fill:#ee3b3f;"/><circle cx="60.045" cy="34.657" r="17.995" style="fill:none;stroke:#fff;stroke-width:5.57px;"/><path d="M84.484,64.895c0,-6.757 -5.486,-12.242 -12.242,-12.242l-24.484,0c-6.756,0 -12.242,5.485 -12.242,12.242l0,26.201c0,6.757 5.486,12.242 12.242,12.242l24.484,0c6.756,0 12.242,-5.485 12.242,-12.242l0,-26.201Z" style="fill:none;stroke:#fff;stroke-width:5.57px;"/></g></svg>