<?xml version="1.0" encoding="UTF-8" standalone="no"?><!DOCTYPE svg PUBLIC "-//W3C//DTD SVG 1.1//EN" "http://www.w3.org/Graphics/SVG/1.1/DTD/svg11.dtd"><svg width="100%" height="100%" viewBox="0 0 300 300" version="1.1" xmlns="http://www.w3.org/2000/svg" xmlns:xlink="http://www.w3.org/1999/xlink" xml:space="preserve" style="fill-rule:evenodd;clip-rule:evenodd;stroke-linecap:round;stroke-linejoin:round;stroke-miterlimit:1.5;"><g><path d="M259.157,69.224c0,-15.664 -12.717,-28.381 -28.381,-28.381l-161.552,0c-15.664,0 -28.381,12.717 -28.381,28.381l0,161.552c0,15.664 12.717,28.381 28.381,28.381l161.552,0c15.664,0 28.381,-12.717 28.381,-28.381l0,-161.552Z" style="fill:none;stroke:#fff;stroke-width:5.57px;"/><path d="M127.038,210.615c7.427,2.851 15.314,4.313 23.268,4.313c35.835,0 64.928,-29.093 64.928,-64.928c0,-35.835 -29.093,-64.928 -64.928,-64.928c-27.295,0 -51.676,17.072 -61.012,42.721l18.914,6.884c6.441,-17.698 23.264,-29.477 42.098,-29.477c24.726,0 44.8,20.074 44.8,44.8c0,24.726 -20.074,44.8 -44.8,44.8c-5.489,0 -10.931,-1.008 -16.055,-2.975l-7.213,18.79Z" style="fill:none;stroke:#fff;stroke-width:5.6px;"/><path d="M85.306,168.958l-14.414,-46.356l55.11,19.89l-40.696,26.466Z" style="fill:none;stroke:#fff;stroke-width:5.6px;"/><path d="M259.157,69.224c0,-15.664 -12.717,-28.381 -28.381,-28.381l-161.552,0c-15.664,0 -28.381,12.717 -28.381,28.381l0,161.552c0,15.664 12.717,28.381 28.381,28.381l161.552,0c15.664,0 28.381,-12.717 28.381,-28.381l0,-161.552Z" style="fill:none;stroke:#fff;stroke-width:5.57px;"/><path d="M127.038,210.615c7.427,2.851 15.314,4.313 23.268,4.313c35.835,0 64.928,-29.093 64.928,-64.928c0,-35.835 -29.093,-64.928 -64.928,-64.928c-27.295,0 -51.676,17.072 -61.012,42.721l18.914,6.884c6.441,-17.698 23.264,-29.477 42.098,-29.477c24.726,0 44.8,20.074 44.8,44.8c0,24.726 -20.074,44.8 -44.8,44.8c-5.489,0 -10.931,-1.008 -16.055,-2.975l-7.213,18.79Z" style="fill:none;stroke:#fff;stroke-width:5.6px;"/><path d="M85.306,168.958l-14.414,-46.356l55.11,19.89l-40.696,26.466Z" style="fill:none;stroke:#fff;stroke-width:5.6px;"/></g></svg>