<?xml version="1.0" encoding="UTF-8" standalone="no"?><!DOCTYPE svg PUBLIC "-//W3C//DTD SVG 1.1//EN" "http://www.w3.org/Graphics/SVG/1.1/DTD/svg11.dtd"><svg width="100%" height="100%" viewBox="0 0 300 300" version="1.1" xmlns="http://www.w3.org/2000/svg" xmlns:xlink="http://www.w3.org/1999/xlink" xml:space="preserve" style="fill-rule:evenodd;clip-rule:evenodd;stroke-linecap:round;stroke-linejoin:round;stroke-miterlimit:1.5;"><g><path d="M259.157,69.224c0,-15.664 -12.717,-28.381 -28.381,-28.381l-161.552,0c-15.664,0 -28.381,12.717 -28.381,28.381l0,161.552c0,15.664 12.717,28.381 28.381,28.381l161.552,0c15.664,0 28.381,-12.717 28.381,-28.381l0,-161.552Z" style="fill:none;stroke:#fff;stroke-width:5.57px;"/><g transform="matrix(1.38742,0,0,1.38742,-181.738,-805.116)"><text x="183.606px" y="725.645px" style="font-family:'Farsan';font-size:116px;fill:none;">1</text><text x="214.346px" y="725.645px" style="font-family:'Farsan';font-size:83px;fill:none;">s</text><text x="183.606px" y="725.645px" style="font-family:'Farsan';font-size:116px;fill:none;stroke:#fff;stroke-width:0.72px;stroke-linecap:butt;stroke-miterlimit:1.41421;">1</text><text x="214.346px" y="725.645px" style="font-family:'Farsan';font-size:83px;fill:none;stroke:#fff;stroke-width:0.72px;stroke-linecap:butt;stroke-miterlimit:1.41421;">s</text></g><path d="M204.446,79.081l22.822,45.645l-45.645,0l22.823,-45.645Z" style="fill:none;stroke:#fff;stroke-width:5.6px;"/><path d="M204.446,217.058l22.822,-45.645l-45.645,0l22.823,45.645Z" style="fill:none;stroke:#fff;stroke-width:5.6px;"/></g></svg>