<?xml version="1.0" encoding="utf-8"?>
<!-- Generator: Adobe Illustrator 17.0.0, SVG Export Plug-In . SVG Version: 6.00 Build 0)  -->
<!DOCTYPE svg PUBLIC "-//W3C//DTD SVG 1.1//EN" "http://www.w3.org/Graphics/SVG/1.1/DTD/svg11.dtd">
<svg version="1.1" id="Ebene_1" xmlns="http://www.w3.org/2000/svg" xmlns:xlink="http://www.w3.org/1999/xlink" x="0px" y="0px"
	 width="362.83px" height="362.83px" viewBox="0 0 362.83 362.83" enable-background="new 0 0 362.83 362.83" xml:space="preserve">
<path fill="#427578" stroke="#010202" stroke-width="2" stroke-miterlimit="10" d="M345,229c0,6.627-3.518,13-9.092,13H28.092
	C22.518,242,17,235.627,17,229v-98c0-6.627,5.518-11,11.092-11h307.815c5.574,0,9.092,4.373,9.092,11V229z"/>
<path fill="#FBBB2E" stroke="#010202" stroke-width="3" stroke-miterlimit="10" d="M237.5,214.745c0,3.449-0.125,7.755-2.437,7.755
	h-106.07c-2.312,0-6.493-4.306-6.493-7.755v-58.286c0-3.449,4.181-4.959,6.493-4.959h106.07c2.312,0,2.437,1.51,2.437,4.959V214.745
	z"/>
<path fill="#4E4C4C" d="M237,168.045c0,0.903,0.375,1.955-1.937,1.955h-106.07c-2.312,0-6.993-1.052-6.993-1.955v-15.267
	c0-0.903,4.681-1.777,6.993-1.777h106.07c2.312,0,1.937,0.874,1.937,1.777V168.045z"/>
<path fill="#C8DCDE" stroke="#010202" stroke-miterlimit="10" d="M207.791,150.546l2.166-10.108l6.738,7.942l19.494-11.07
	c0,0,2.166,16.365,1.925,17.087c-0.241,0.722,11.792-3.129,11.792-3.129s-6.257,8.904-6.979,8.904
	c-0.722,0,16.846,22.381,16.846,22.381l-29.12-6.257l-0.481,6.979l-10.83-7.46c0,0-12.755,7.46-13.958,8.182
	c-1.203,0.722,3.129-11.07,3.129-11.07s-8.423-6.739-12.274-5.054c-3.851,1.685,7.46-9.626,7.46-9.626l-16.124-20.456
	L207.791,150.546z"/>
<g>
	<path fill="#F1F1F1" stroke="#010202" stroke-width="6" stroke-miterlimit="10" d="M231,165.09c0,0.527,0.522,0.91,0.098,0.91
		h-19.476c-0.425,0-1.622-0.383-1.622-0.91v-8.9c0-0.527,1.197-1.19,1.622-1.19h19.476c0.425,0-0.098,0.663-0.098,1.19V165.09z"/>
	<path fill="#54A4DB" d="M227,159.276c0,0.071,0.092-0.276-0.167-0.276h-11.906c-0.26,0-0.927,0.346-0.927,0.276v-1.193
		c0-0.071,0.667-0.082,0.927-0.082h11.906c0.26,0,0.167,0.012,0.167,0.082V159.276z"/>
	<path fill="#54A4DB" d="M227,161.465c0,0.071,0.092-0.465-0.167-0.465h-11.906c-0.26,0-0.927,0.536-0.927,0.465v-1.193
		c0-0.071,0.667-0.272,0.927-0.272h11.906c0.26,0,0.167,0.201,0.167,0.272V161.465z"/>
	<path fill="#54A4DB" d="M227,163.837c0,0.071,0.092-0.837-0.167-0.837h-11.906c-0.26,0-0.927,0.907-0.927,0.837v-1.193
		c0-0.071,0.667-0.643,0.927-0.643h11.906c0.26,0,0.167,0.573,0.167,0.643V163.837z"/>
</g>
<path fill="#4E4C4C" d="M145,162.854c0,0.903,0.336,2.146,0.041,2.146h-13.532c-0.295,0-1.509-1.242-1.509-2.146v-15.267
	c0-0.903,1.214-1.587,1.509-1.587h13.532c0.295,0-0.041,0.684-0.041,1.587V162.854z"/>
<g>
	<circle fill="#4E4C4C" cx="182.253" cy="196.765" r="23.711"/>
	
		<ellipse fill="#4E4C4C" stroke="#FFFFFF" stroke-width="1.4173" stroke-miterlimit="10" cx="182.274" cy="196.519" rx="21.887" ry="21.323"/>
	
		<ellipse fill="#4E4C4C" stroke="#FFFFFF" stroke-width="1.4173" stroke-miterlimit="10" cx="182.292" cy="196.663" rx="17.953" ry="17.49"/>
	<ellipse fill="#F1F1F1" cx="182.423" cy="196.703" rx="14.397" ry="14.025"/>
	<path fill="none" stroke="#89CDD3" stroke-width="11.3386" stroke-miterlimit="10" d="M181.199,188.125
		c-4.932-1.196-9.484,3.986-9.484,9.167"/>
</g>
</svg>
