<?xml version="1.0" encoding="UTF-8" standalone="no"?><!DOCTYPE svg PUBLIC "-//W3C//DTD SVG 1.1//EN" "http://www.w3.org/Graphics/SVG/1.1/DTD/svg11.dtd"><svg width="100%" height="100%" viewBox="0 0 363 150" version="1.1" xmlns="http://www.w3.org/2000/svg" xmlns:xlink="http://www.w3.org/1999/xlink" xml:space="preserve" style="fill-rule:evenodd;clip-rule:evenodd;stroke-miterlimit:10;"><g><path d="M345.415,123c0,6.627 -3.518,13 -9.092,13l-307.816,0c-5.574,0 -11.092,-6.373 -11.092,-13l0,-98c0,-6.627 5.518,-11 11.092,-11l307.815,0c5.574,0 9.092,4.373 9.092,11l0,98l0.001,0Z" style="fill:#427578;fill-rule:nonzero;stroke:#010202;stroke-width:2px;"/><path d="M237.915,108.745c0,3.449 -0.125,7.755 -2.437,7.755l-106.07,0c-2.312,0 -6.493,-4.306 -6.493,-7.755l0,-58.286c0,-3.449 4.181,-4.959 6.493,-4.959l106.07,0c2.312,0 2.437,1.51 2.437,4.959l0,58.286Z" style="fill:#fbbb2e;fill-rule:nonzero;"/><path d="M235.617,44.001l0.137,0.005l0.136,0.007l0.136,0.011l0.134,0.014l0.134,0.019l0.134,0.021l0.132,0.027l0.133,0.03l0.124,0.034l0.072,0.021l0.065,0.021l0.065,0.022l0.065,0.023l0.064,0.025l0.064,0.026l0.064,0.027l0.063,0.029l0.063,0.03l0.062,0.032l0.062,0.033l0.061,0.034l0.061,0.036l0.059,0.038l0.059,0.038l0.058,0.04l0.057,0.042l0.056,0.043l0.055,0.044l0.054,0.045l0.052,0.046l0.052,0.048l0.05,0.049l0.05,0.049l0.047,0.051l0.047,0.051l0.045,0.053l0.044,0.053l0.042,0.054l0.042,0.055l0.039,0.055l0.043,0.062l0.069,0.106l0.067,0.115l0.063,0.115l0.058,0.117l0.053,0.118l0.049,0.118l0.045,0.119l0.042,0.12l0.037,0.12l0.035,0.12l0.032,0.121l0.029,0.121l0.026,0.122l0.024,0.123l0.022,0.123l0.02,0.124l0.018,0.126l0.016,0.126l0.015,0.127l0.013,0.129l0.012,0.13l0.011,0.131l0.01,0.132l0.008,0.135l0.007,0.136l0.007,0.137l0.005,0.139l0.005,0.143l0.008,0.286l0.005,0.296l0.003,0.304l0.002,0.314l0,0.321l0,58.288l0,0.329l-0.002,0.336l-0.003,0.34l-0.005,0.344l-0.007,0.347l-0.011,0.348l-0.006,0.176l-0.007,0.176l-0.008,0.175l-0.009,0.176l-0.01,0.175l-0.011,0.175l-0.012,0.175l-0.013,0.174l-0.015,0.174l-0.016,0.174l-0.017,0.172l-0.019,0.172l-0.02,0.172l-0.022,0.17l-0.024,0.17l-0.026,0.168l-0.027,0.168l-0.029,0.166l-0.032,0.166l-0.033,0.164l-0.036,0.163l-0.039,0.161l-0.04,0.161l-0.044,0.159l-0.047,0.157l-0.05,0.157l-0.051,0.15l-0.03,0.081l-0.029,0.077l-0.03,0.076l-0.03,0.076l-0.032,0.075l-0.033,0.075l-0.034,0.075l-0.036,0.074l-0.036,0.074l-0.038,0.073l-0.039,0.074l-0.04,0.072l-0.042,0.072l-0.043,0.072l-0.045,0.071l-0.047,0.071l-0.048,0.069l-0.05,0.07l-0.052,0.068l-0.053,0.068l-0.055,0.067l-0.058,0.066l-0.059,0.065l-0.061,0.065l-0.064,0.062l-0.065,0.062l-0.068,0.06l-0.07,0.059l-0.072,0.058l-0.074,0.055l-0.076,0.054l-0.079,0.051l-0.08,0.05l-0.083,0.048l-0.084,0.045l-0.086,0.042l-0.088,0.04l-0.089,0.037l-0.091,0.035l-0.093,0.031l-0.093,0.029l-0.095,0.025l-0.095,0.023l-0.096,0.019l-0.097,0.016l-0.097,0.014l-0.097,0.01l-0.098,0.007l-0.098,0.005l-0.087,0.001l-106.092,0l-0.086,-0.001l-0.097,-0.004l-0.095,-0.007l-0.095,-0.009l-0.094,-0.012l-0.094,-0.013l-0.092,-0.016l-0.092,-0.018l-0.09,-0.019l-0.091,-0.022l-0.089,-0.023l-0.089,-0.025l-0.088,-0.027l-0.088,-0.028l-0.087,-0.03l-0.086,-0.031l-0.086,-0.033l-0.086,-0.034l-0.085,-0.036l-0.085,-0.037l-0.084,-0.038l-0.084,-0.039l-0.084,-0.041l-0.083,-0.042l-0.083,-0.043l-0.083,-0.044l-0.082,-0.046l-0.082,-0.046l-0.082,-0.048l-0.081,-0.049l-0.082,-0.05l-0.081,-0.051l-0.08,-0.052l-0.081,-0.053l-0.08,-0.055l-0.08,-0.055l-0.08,-0.056l-0.079,-0.057l-0.08,-0.059l-0.079,-0.059l-0.079,-0.06l-0.078,-0.061l-0.078,-0.062l-0.078,-0.063l-0.078,-0.064l-0.077,-0.065l-0.077,-0.066l-0.079,-0.068l-0.15,-0.134l-0.152,-0.139l-0.149,-0.142l-0.149,-0.146l-0.147,-0.148l-0.145,-0.152l-0.143,-0.155l-0.142,-0.157l-0.139,-0.16l-0.138,-0.163l-0.133,-0.163l-0.069,-0.086l-0.066,-0.085l-0.066,-0.085l-0.065,-0.085l-0.064,-0.087l-0.064,-0.086l-0.063,-0.088l-0.063,-0.088l-0.061,-0.088l-0.061,-0.089l-0.06,-0.09l-0.06,-0.09l-0.059,-0.09l-0.058,-0.092l-0.057,-0.091l-0.056,-0.093l-0.056,-0.092l-0.055,-0.093l-0.054,-0.094l-0.053,-0.094l-0.052,-0.095l-0.051,-0.095l-0.05,-0.096l-0.049,-0.096l-0.049,-0.096l-0.047,-0.097l-0.046,-0.098l-0.046,-0.098l-0.044,-0.098l-0.043,-0.099l-0.042,-0.099l-0.041,-0.099l-0.04,-0.1l-0.038,-0.101l-0.038,-0.101l-0.036,-0.101l-0.035,-0.101l-0.033,-0.103l-0.033,-0.102l-0.031,-0.103l-0.029,-0.103l-0.029,-0.104l-0.027,-0.104l-0.025,-0.104l-0.024,-0.105l-0.022,-0.105l-0.021,-0.106l-0.019,-0.106l-0.018,-0.106l-0.016,-0.107l-0.014,-0.107l-0.013,-0.107l-0.01,-0.108l-0.009,-0.108l-0.007,-0.109l-0.005,-0.108l-0.003,-0.109l-0.001,-0.102l0,-58.3l0.001,-0.102l0.003,-0.108l0.005,-0.108l0.007,-0.107l0.01,-0.107l0.011,-0.106l0.013,-0.105l0.015,-0.105l0.017,-0.103l0.02,-0.103l0.021,-0.102l0.022,-0.101l0.025,-0.101l0.027,-0.099l0.028,-0.099l0.03,-0.098l0.032,-0.096l0.034,-0.096l0.035,-0.094l0.037,-0.094l0.039,-0.092l0.04,-0.092l0.042,-0.09l0.043,-0.089l0.044,-0.088l0.046,-0.087l0.048,-0.086l0.048,-0.084l0.05,-0.084l0.052,-0.082l0.052,-0.081l0.054,-0.08l0.055,-0.079l0.056,-0.078l0.056,-0.076l0.058,-0.075l0.059,-0.074l0.061,-0.073l0.06,-0.072l0.062,-0.071l0.063,-0.07l0.063,-0.068l0.065,-0.067l0.065,-0.067l0.066,-0.065l0.066,-0.064l0.068,-0.063l0.068,-0.062l0.068,-0.061l0.07,-0.06l0.069,-0.059l0.071,-0.057l0.071,-0.057l0.071,-0.056l0.072,-0.055l0.073,-0.054l0.073,-0.053l0.073,-0.052l0.074,-0.051l0.074,-0.05l0.075,-0.049l0.075,-0.048l0.075,-0.047l0.076,-0.047l0.076,-0.045l0.08,-0.047l0.15,-0.085l0.154,-0.083l0.156,-0.08l0.156,-0.077l0.157,-0.073l0.157,-0.071l0.158,-0.067l0.158,-0.064l0.158,-0.062l0.158,-0.058l0.158,-0.055l0.158,-0.053l0.158,-0.049l0.158,-0.047l0.157,-0.044l0.156,-0.042l0.156,-0.038l0.155,-0.036l0.154,-0.034l0.154,-0.03l0.152,-0.028l0.152,-0.026l0.15,-0.022l0.149,-0.02l0.148,-0.018l0.146,-0.015l0.145,-0.012l0.144,-0.01l0.142,-0.006l0.141,-0.005l0.132,-0.001l106.086,0l0.131,0.001Zm-106.201,2.999l-0.088,0.001l-0.084,0.002l-0.087,0.005l-0.09,0.006l-0.093,0.007l-0.097,0.01l-0.098,0.012l-0.101,0.014l-0.103,0.015l-0.105,0.018l-0.107,0.019l-0.108,0.022l-0.109,0.023l-0.11,0.026l-0.112,0.028l-0.111,0.029l-0.113,0.032l-0.112,0.033l-0.113,0.036l-0.113,0.037l-0.113,0.04l-0.112,0.041l-0.111,0.043l-0.111,0.045l-0.111,0.047l-0.109,0.049l-0.107,0.051l-0.107,0.052l-0.105,0.054l-0.103,0.056l-0.105,0.059l-0.047,0.027l-0.049,0.03l-0.049,0.03l-0.048,0.03l-0.048,0.031l-0.048,0.031l-0.046,0.032l-0.046,0.031l-0.046,0.033l-0.044,0.032l-0.045,0.033l-0.043,0.033l-0.043,0.033l-0.042,0.034l-0.041,0.034l-0.041,0.034l-0.04,0.035l-0.039,0.035l-0.039,0.035l-0.037,0.035l-0.037,0.035l-0.036,0.036l-0.035,0.036l-0.035,0.036l-0.034,0.037l-0.033,0.036l-0.032,0.037l-0.031,0.037l-0.031,0.037l-0.029,0.037l-0.029,0.038l-0.028,0.037l-0.028,0.038l-0.026,0.038l-0.026,0.038l-0.024,0.039l-0.024,0.038l-0.024,0.039l-0.022,0.039l-0.022,0.039l-0.021,0.04l-0.02,0.039l-0.019,0.04l-0.018,0.04l-0.018,0.04l-0.017,0.041l-0.016,0.041l-0.016,0.041l-0.014,0.042l-0.014,0.042l-0.013,0.042l-0.013,0.043l-0.011,0.043l-0.011,0.044l-0.01,0.044l-0.009,0.045l-0.009,0.046l-0.007,0.046l-0.007,0.046l-0.006,0.047l-0.005,0.048l-0.004,0.049l-0.004,0.05l-0.002,0.05l-0.001,0.051l-0.001,0.059l0,58.272l0.001,0.06l0.001,0.054l0.003,0.054l0.003,0.056l0.005,0.056l0.005,0.057l0.007,0.057l0.008,0.059l0.009,0.059l0.01,0.06l0.011,0.061l0.012,0.061l0.013,0.062l0.014,0.063l0.016,0.063l0.016,0.064l0.018,0.064l0.018,0.065l0.02,0.065l0.021,0.066l0.022,0.066l0.022,0.067l0.024,0.067l0.025,0.068l0.026,0.067l0.028,0.068l0.028,0.069l0.029,0.068l0.03,0.069l0.031,0.069l0.032,0.069l0.033,0.07l0.034,0.069l0.035,0.07l0.035,0.07l0.037,0.069l0.038,0.07l0.038,0.07l0.039,0.07l0.04,0.069l0.041,0.07l0.042,0.07l0.042,0.069l0.044,0.069l0.044,0.07l0.044,0.069l0.046,0.068l0.046,0.069l0.047,0.068l0.047,0.068l0.048,0.068l0.049,0.068l0.049,0.067l0.05,0.066l0.051,0.067l0.051,0.066l0.051,0.066l0.05,0.062l0.108,0.132l0.107,0.127l0.109,0.125l0.11,0.122l0.112,0.121l0.112,0.117l0.114,0.115l0.114,0.112l0.115,0.109l0.115,0.106l0.117,0.105l0.056,0.047l0.057,0.049l0.058,0.049l0.057,0.047l0.057,0.046l0.057,0.045l0.057,0.045l0.057,0.043l0.056,0.042l0.056,0.042l0.056,0.04l0.056,0.039l0.055,0.038l0.055,0.037l0.054,0.036l0.054,0.035l0.053,0.033l0.053,0.033l0.052,0.031l0.052,0.03l0.051,0.029l0.05,0.028l0.049,0.026l0.049,0.026l0.047,0.024l0.047,0.022l0.046,0.022l0.045,0.02l0.044,0.019l0.042,0.018l0.042,0.016l0.04,0.016l0.039,0.014l0.037,0.013l0.036,0.011l0.035,0.011l0.033,0.009l0.031,0.008l0.03,0.007l0.028,0.006l0.026,0.005l0.024,0.005l0.022,0.003l0.02,0.002l0.018,0.002l0.016,0.001l0.014,0.001l0.023,0l106.048,0l0.021,0l0.008,-0.001l0.006,0l0.006,-0.001l0.004,0l0.003,-0.001l0.002,0l0.001,-0.001l0.001,0l0,0l0.001,0l0.001,-0.001l0.001,-0.001l0.003,-0.001l0.003,-0.003l0.004,-0.002l0.004,-0.004l0.006,-0.005l0.006,-0.005l0.007,-0.007l0.008,-0.008l0.009,-0.009l0.009,-0.01l0.011,-0.012l0.01,-0.013l0.012,-0.015l0.012,-0.016l0.013,-0.018l0.013,-0.019l0.014,-0.021l0.014,-0.022l0.014,-0.024l0.015,-0.025l0.015,-0.027l0.015,-0.028l0.016,-0.031l0.015,-0.031l0.016,-0.033l0.016,-0.034l0.015,-0.037l0.016,-0.037l0.016,-0.039l0.016,-0.04l0.016,-0.042l0.014,-0.039l0.032,-0.094l0.03,-0.095l0.03,-0.1l0.029,-0.105l0.028,-0.109l0.026,-0.113l0.026,-0.117l0.025,-0.121l0.024,-0.125l0.022,-0.128l0.022,-0.131l0.02,-0.135l0.019,-0.137l0.018,-0.14l0.017,-0.143l0.016,-0.145l0.015,-0.147l0.014,-0.149l0.012,-0.151l0.012,-0.153l0.011,-0.155l0.01,-0.156l0.009,-0.157l0.008,-0.158l0.007,-0.16l0.006,-0.16l0.006,-0.16l0.009,-0.326l0.007,-0.325l0.005,-0.326l0.003,-0.326l0.002,-0.324l0,-0.322l0,-58.284l0,-0.314l-0.002,-0.3l-0.003,-0.286l-0.005,-0.272l-0.006,-0.26l-0.005,-0.122l-0.004,-0.12l-0.006,-0.116l-0.006,-0.113l-0.007,-0.109l-0.007,-0.104l-0.009,-0.102l-0.008,-0.097l-0.01,-0.093l-0.01,-0.089l-0.011,-0.085l-0.012,-0.08l-0.012,-0.076l-0.013,-0.072l-0.013,-0.067l-0.014,-0.063l-0.014,-0.059l-0.014,-0.053l-0.014,-0.05l-0.014,-0.044l-0.014,-0.04l-0.013,-0.035l-0.013,-0.031l-0.012,-0.026l-0.011,-0.022l-0.01,-0.019l-0.008,-0.014l-0.011,-0.017l-0.002,-0.003l-0.003,-0.003l-0.002,-0.003l-0.001,-0.002l-0.002,-0.001l-0.001,-0.002l-0.001,-0.001l-0.001,-0.001l0,0l-0.001,-0.001l0,0l-0.001,0l0,-0.001l-0.001,0l0,-0.001l-0.001,0l-0.002,-0.001l-0.002,-0.002l-0.002,-0.001l-0.002,-0.001l-0.004,-0.002l-0.004,-0.002l-0.005,-0.002l-0.005,-0.003l-0.007,-0.003l-0.007,-0.003l-0.008,-0.003l-0.01,-0.003l-0.01,-0.004l-0.011,-0.003l-0.006,-0.002l-0.036,-0.01l-0.033,-0.007l-0.039,-0.008l-0.044,-0.007l-0.049,-0.007l-0.054,-0.006l-0.059,-0.004l-0.065,-0.004l-0.07,-0.002l-0.083,-0.001l-106.054,0Z" style="fill:#010202;"/><path d="M237.415,62.045c0,0.903 0.375,1.955 -1.937,1.955l-106.07,0c-2.312,0 -6.993,-1.052 -6.993,-1.955l0,-15.267c0,-0.903 4.681,-1.777 6.993,-1.777l106.07,0c2.312,0 1.937,0.874 1.937,1.777l0,15.267Z" style="fill:#4e4c4c;fill-rule:nonzero;"/><path d="M208.206,44.546l2.166,-10.108l6.738,7.942l19.494,-11.07c0,0 2.166,16.365 1.925,17.087c-0.241,0.722 11.792,-3.129 11.792,-3.129c0,0 -6.257,8.904 -6.979,8.904c-0.722,0 16.846,22.381 16.846,22.381l-29.12,-6.257l-0.481,6.979l-10.83,-7.46c0,0 -12.755,7.46 -13.958,8.182c-1.203,0.722 3.129,-11.07 3.129,-11.07c0,0 -8.423,-6.739 -12.274,-5.054c-3.851,1.685 7.46,-9.626 7.46,-9.626l-16.124,-20.456l20.216,12.755Z" style="fill:#c8dcde;fill-rule:nonzero;stroke:#010202;stroke-width:1px;"/><path d="M231.415,59.09c0,0.527 0.522,0.91 0.098,0.91l-19.476,0c-0.425,0 -1.622,-0.383 -1.622,-0.91l0,-8.9c0,-0.527 1.197,-1.19 1.622,-1.19l19.476,0c0.425,0 -0.098,0.663 -0.098,1.19l0,8.9Z" style="fill:#f1f1f1;fill-rule:nonzero;"/><path d="M231.69,46.003l0.193,0.016l0.213,0.03l0.232,0.05l0.251,0.075l0.266,0.106l0.276,0.141l0.277,0.179l0.265,0.215l0.243,0.248l0.213,0.271l0.174,0.281l0.137,0.282l0.1,0.27l0.069,0.254l0.045,0.235l0.025,0.213l0.012,0.227l-0.006,0.276l-0.029,0.258l-0.037,0.206l-0.038,0.167l-0.037,0.137l-0.034,0.114l-0.034,0.101l-0.046,0.133l-0.005,0.015l0,8.134l0.056,0.139l0.066,0.191l0.07,0.26l0.061,0.354l0.016,0.402l-0.029,0.345l-0.06,0.316l-0.101,0.336l-0.151,0.345l-0.199,0.333l-0.241,0.306l-0.265,0.262l-0.274,0.213l-0.272,0.168l-0.256,0.126l-0.234,0.09l-0.212,0.065l-0.189,0.045l-0.202,0.035l-0.248,0.026l-0.193,0.006l-19.561,0l-0.149,-0.004l-0.17,-0.012l-0.153,-0.017l-0.143,-0.02l-0.136,-0.023l-0.131,-0.026l-0.129,-0.029l-0.127,-0.031l-0.127,-0.034l-0.127,-0.037l-0.128,-0.04l-0.128,-0.043l-0.131,-0.047l-0.132,-0.051l-0.134,-0.056l-0.137,-0.061l-0.14,-0.066l-0.143,-0.073l-0.148,-0.082l-0.152,-0.09l-0.157,-0.102l-0.148,-0.105l-0.097,-0.074l-0.085,-0.068l-0.087,-0.074l-0.088,-0.079l-0.09,-0.086l-0.091,-0.093l-0.092,-0.1l-0.093,-0.11l-0.093,-0.118l-0.093,-0.129l-0.091,-0.141l-0.089,-0.152l-0.085,-0.164l-0.08,-0.177l-0.072,-0.191l-0.064,-0.202l-0.052,-0.213l-0.039,-0.223l-0.025,-0.231l-0.006,-0.183l0,-9.005l0.006,-0.18l0.023,-0.222l0.036,-0.21l0.045,-0.196l0.054,-0.184l0.06,-0.171l0.065,-0.159l0.067,-0.146l0.071,-0.136l0.072,-0.127l0.072,-0.117l0.072,-0.109l0.073,-0.102l0.073,-0.096l0.072,-0.089l0.071,-0.084l0.071,-0.079l0.081,-0.087l0.127,-0.126l0.136,-0.126l0.134,-0.116l0.132,-0.106l0.131,-0.099l0.13,-0.093l0.129,-0.087l0.129,-0.083l0.128,-0.078l0.129,-0.074l0.129,-0.07l0.131,-0.067l0.132,-0.064l0.135,-0.062l0.137,-0.058l0.143,-0.056l0.149,-0.054l0.159,-0.051l0.171,-0.049l0.189,-0.044l0.19,-0.036l0.14,-0.019l0.13,-0.014l0.143,-0.009l0.12,-0.003l19.549,0l0.139,0.003Zm-18.275,5.997l0,5l15,0l0,-5l-15,0Z" style="fill:#010202;"/><path d="M227.415,53.276c0,0.071 0.092,-0.276 -0.167,-0.276l-11.906,0c-0.26,0 -0.927,0.346 -0.927,0.276l0,-1.193c0,-0.071 0.667,-0.082 0.927,-0.082l11.906,0c0.26,0 0.167,0.012 0.167,0.082l0,1.193Z" style="fill:#54a4db;fill-rule:nonzero;"/><path d="M227.415,55.465c0,0.071 0.092,-0.465 -0.167,-0.465l-11.906,0c-0.26,0 -0.927,0.536 -0.927,0.465l0,-1.193c0,-0.071 0.667,-0.272 0.927,-0.272l11.906,0c0.26,0 0.167,0.201 0.167,0.272l0,1.193Z" style="fill:#54a4db;fill-rule:nonzero;"/><path d="M227.415,57.837c0,0.071 0.092,-0.837 -0.167,-0.837l-11.906,0c-0.26,0 -0.927,0.907 -0.927,0.837l0,-1.193c0,-0.071 0.667,-0.643 0.927,-0.643l11.906,0c0.26,0 0.167,0.573 0.167,0.643l0,1.193Z" style="fill:#54a4db;fill-rule:nonzero;"/><path d="M145.415,56.854c0,0.903 0.336,2.146 0.041,2.146l-13.532,0c-0.295,0 -1.509,-1.242 -1.509,-2.146l0,-15.267c0,-0.903 1.214,-1.587 1.509,-1.587l13.532,0c0.295,0 -0.041,0.684 -0.041,1.587l0,15.267Z" style="fill:#4e4c4c;fill-rule:nonzero;"/><circle cx="182.668" cy="90.765" r="23.711" style="fill:#4e4c4c;"/><ellipse cx="182.689" cy="90.519" rx="21.887" ry="21.323" style="fill:#4e4c4c;stroke:#fff;stroke-width:1.42px;"/><ellipse cx="182.707" cy="90.663" rx="17.953" ry="17.49" style="fill:#4e4c4c;stroke:#fff;stroke-width:1.42px;"/><ellipse cx="182.838" cy="90.703" rx="14.397" ry="14.025" style="fill:#f1f1f1;"/><path d="M180.307,76.282l0.219,0.005l0.22,0.009l0.22,0.013l0.22,0.017l0.221,0.021l0.221,0.026l0.221,0.029l0.221,0.034l0.22,0.039l0.221,0.042l0.22,0.047l0.167,0.039l-2.568,11.044l-0.064,-0.015l-0.01,-0.002l-0.011,-0.002l-0.009,-0.002l-0.009,-0.001l-0.008,-0.001l-0.008,-0.001l-0.008,-0.001l-0.007,0l-0.008,-0.001l-0.007,0l-0.007,0l-0.007,0l-0.007,0l-0.008,0l-0.007,0l-0.008,0.001l-0.009,0.001l-0.008,0.001l-0.009,0.001l-0.01,0.001l-0.01,0.002l-0.011,0.002l-0.012,0.002l-0.012,0.003l-0.012,0.003l-0.014,0.003l-0.014,0.004l-0.015,0.005l-0.016,0.004l-0.016,0.006l-0.017,0.006l-0.018,0.006l-0.019,0.008l-0.02,0.007l-0.02,0.009l-0.021,0.009l-0.022,0.01l-0.022,0.011l-0.023,0.011l-0.024,0.013l-0.025,0.013l-0.025,0.014l-0.026,0.015l-0.027,0.015l-0.027,0.017l-0.027,0.018l-0.029,0.018l-0.028,0.019l-0.03,0.021l-0.029,0.021l-0.03,0.022l-0.031,0.023l-0.031,0.024l-0.031,0.025l-0.032,0.026l-0.032,0.027l-0.032,0.028l-0.032,0.028l-0.032,0.03l-0.033,0.031l-0.033,0.031l-0.033,0.032l-0.033,0.034l-0.032,0.034l-0.034,0.035l-0.033,0.036l-0.033,0.036l-0.032,0.038l-0.033,0.038l-0.033,0.039l-0.032,0.04l-0.032,0.04l-0.032,0.042l-0.032,0.042l-0.032,0.043l-0.031,0.043l-0.031,0.044l-0.03,0.045l-0.031,0.045l-0.03,0.046l-0.029,0.046l-0.029,0.047l-0.029,0.047l-0.028,0.048l-0.027,0.048l-0.028,0.05l-0.026,0.049l-0.026,0.049l-0.026,0.05l-0.025,0.05l-0.024,0.051l-0.024,0.05l-0.023,0.051l-0.023,0.052l-0.022,0.051l-0.022,0.052l-0.02,0.052l-0.02,0.051l-0.02,0.052l-0.019,0.052l-0.018,0.052l-0.017,0.052l-0.017,0.052l-0.016,0.052l-0.015,0.051l-0.014,0.052l-0.014,0.051l-0.013,0.052l-0.013,0.051l-0.012,0.051l-0.011,0.051l-0.01,0.05l-0.01,0.05l-0.008,0.05l-0.009,0.049l-0.007,0.049l-0.007,0.049l-0.006,0.048l-0.006,0.048l-0.004,0.048l-0.004,0.047l-0.004,0.046l-0.003,0.046l-0.002,0.046l-0.001,0.044l-0.001,0.045l-0.001,0.083l-11.338,-0.078l0.001,-0.16l0.004,-0.198l0.007,-0.198l0.009,-0.197l0.012,-0.197l0.015,-0.196l0.017,-0.195l0.019,-0.194l0.022,-0.194l0.025,-0.193l0.027,-0.192l0.029,-0.191l0.031,-0.191l0.034,-0.19l0.037,-0.189l0.038,-0.187l0.041,-0.188l0.043,-0.186l0.045,-0.186l0.047,-0.184l0.05,-0.184l0.051,-0.183l0.054,-0.181l0.056,-0.182l0.058,-0.18l0.059,-0.179l0.062,-0.178l0.064,-0.177l0.066,-0.176l0.068,-0.175l0.07,-0.175l0.072,-0.173l0.073,-0.172l0.076,-0.171l0.078,-0.17l0.079,-0.169l0.082,-0.168l0.083,-0.167l0.085,-0.166l0.087,-0.165l0.089,-0.164l0.09,-0.163l0.093,-0.161l0.094,-0.161l0.096,-0.159l0.098,-0.158l0.1,-0.157l0.101,-0.156l0.104,-0.155l0.105,-0.154l0.107,-0.152l0.109,-0.151l0.11,-0.15l0.113,-0.148l0.114,-0.148l0.116,-0.146l0.118,-0.145l0.12,-0.143l0.121,-0.142l0.123,-0.141l0.125,-0.14l0.127,-0.137l0.129,-0.137l0.131,-0.135l0.132,-0.134l0.134,-0.132l0.137,-0.131l0.138,-0.129l0.14,-0.128l0.141,-0.126l0.144,-0.124l0.145,-0.123l0.148,-0.121l0.149,-0.119l0.151,-0.118l0.153,-0.116l0.156,-0.114l0.157,-0.112l0.158,-0.11l0.161,-0.108l0.163,-0.107l0.165,-0.104l0.166,-0.102l0.169,-0.1l0.171,-0.098l0.172,-0.095l0.175,-0.093l0.176,-0.091l0.179,-0.089l0.18,-0.086l0.182,-0.083l0.184,-0.081l0.186,-0.078l0.188,-0.076l0.19,-0.072l0.191,-0.07l0.194,-0.067l0.195,-0.064l0.197,-0.061l0.198,-0.058l0.201,-0.055l0.202,-0.052l0.203,-0.048l0.205,-0.044l0.207,-0.042l0.208,-0.038l0.209,-0.034l0.211,-0.031l0.212,-0.026l0.214,-0.024l0.214,-0.019l0.215,-0.015l0.216,-0.012l0.218,-0.008l0.218,-0.003l0.219,0Z" style="fill:#89cdd3;"/></g></svg>