<?xml version="1.0" encoding="utf-8"?>
<!-- Generator: Adobe Illustrator 17.0.0, SVG Export Plug-In . SVG Version: 6.00 Build 0)  -->
<!DOCTYPE svg PUBLIC "-//W3C//DTD SVG 1.1//EN" "http://www.w3.org/Graphics/SVG/1.1/DTD/svg11.dtd">
<svg version="1.1" id="Ebene_1" xmlns="http://www.w3.org/2000/svg" xmlns:xlink="http://www.w3.org/1999/xlink" x="0px" y="0px"
	 width="362.83px" height="362.83px" viewBox="0 0 362.83 362.83" enable-background="new 0 0 362.83 362.83" xml:space="preserve">
<path fill="#427578" stroke="#010202" stroke-width="2" stroke-miterlimit="10" d="M297,214.836c0,4.672-2.267,9.164-6.196,9.164
	H73.819C69.89,224,66,219.508,66,214.836v-69.082c0-4.672,3.89-7.754,7.819-7.754h216.985c3.929,0,6.196,3.082,6.196,7.754V214.836z
	"/>
<g>
	<path fill="#4E4C4C" stroke="#FFFFFF" stroke-miterlimit="10" d="M208.5,206.074c0,0.788-0.638,1.426-1.426,1.426h-53.148
		c-0.788,0-1.426-0.638-1.426-1.426v-49.148c0-0.788,0.638-1.426,1.426-1.426h53.148c0.788,0,1.426,0.638,1.426,1.426V206.074z"/>
	<path fill="#4E4C4C" stroke="#FFFFFF" stroke-miterlimit="10" d="M147.5,205.359c0,0.788,1.062,2.141,0.882,2.141h-12.241
		c-0.18,0-0.641-1.354-0.641-2.141v-49.199c0-0.788,0.461-0.659,0.641-0.659h12.241c0.18,0-0.882-0.128-0.882,0.659V205.359z"/>
	<path fill="#4E4C4C" stroke="#FFFFFF" stroke-miterlimit="10" d="M132.5,205.359c0,0.788,0.403,2.141,0.281,2.141h-8.331
		c-0.123,0-0.95-1.354-0.95-2.141v-49.199c0-0.788,0.827-0.659,0.95-0.659h8.331c0.123,0-0.281-0.128-0.281,0.659V205.359z"/>
	<path fill="#4E4C4C" stroke="#FFFFFF" stroke-miterlimit="10" d="M120.5,205.359c0,0.788,0.777,2.141,0.694,2.141h-5.573
		c-0.082,0-1.122-1.354-1.122-2.141v-49.199c0-0.788,1.04-0.659,1.122-0.659h5.573c0.082,0-0.694-0.128-0.694,0.659V205.359z"/>
	<path fill="#4E4C4C" stroke="#FFFFFF" stroke-miterlimit="10" d="M212.5,205.359c0,0.788,0.884,2.141,1.064,2.141h12.241
		c0.18,0-0.306-1.354-0.306-2.141v-49.199c0-0.788,0.486-0.659,0.306-0.659h-12.241c-0.18,0-1.064-0.128-1.064,0.659V205.359z"/>
	<path fill="#4E4C4C" stroke="#FFFFFF" stroke-miterlimit="10" d="M228.5,205.359c0,0.788,0.543,2.141,0.666,2.141h8.331
		c0.123,0,0.003-1.354,0.003-2.141v-49.199c0-0.788,0.119-0.659-0.003-0.659h-8.331c-0.123,0-0.666-0.128-0.666,0.659V205.359z"/>
	<path fill="#4E4C4C" stroke="#FFFFFF" stroke-miterlimit="10" d="M239.5,205.359c0,0.788,1.17,2.141,1.252,2.141h5.573
		c0.082,0-0.825-1.354-0.825-2.141v-49.199c0-0.788,0.907-0.659,0.825-0.659h-5.573c-0.082,0-1.252-0.128-1.252,0.659V205.359z"/>
</g>
</svg>
