<?xml version="1.0" encoding="UTF-8" standalone="no"?><!DOCTYPE svg PUBLIC "-//W3C//DTD SVG 1.1//EN" "http://www.w3.org/Graphics/SVG/1.1/DTD/svg11.dtd"><svg width="100%" height="100%" viewBox="0 0 250 100" version="1.1" xmlns="http://www.w3.org/2000/svg" xmlns:xlink="http://www.w3.org/1999/xlink" xml:space="preserve" style="fill-rule:evenodd;clip-rule:evenodd;stroke-miterlimit:10;"><path d="M240.585,83.421c0,4.672 -2.267,9.164 -6.196,9.164l-216.985,0c-3.929,0 -7.819,-4.492 -7.819,-9.164l0,-69.082c0,-4.672 3.89,-7.754 7.819,-7.754l216.985,0c3.929,0 6.196,3.082 6.196,7.754l0,69.082Z" style="fill:#427578;fill-rule:nonzero;stroke:#010202;stroke-width:2px;"/><g><path d="M152.085,74.659c0,0.788 -0.638,1.426 -1.426,1.426l-53.148,0c-0.788,0 -1.426,-0.638 -1.426,-1.426l0,-49.148c0,-0.788 0.638,-1.426 1.426,-1.426l53.148,0c0.788,0 1.426,0.638 1.426,1.426l0,49.148Z" style="fill:#4e4c4c;fill-rule:nonzero;stroke:#fff;stroke-width:1px;"/><path d="M91.085,73.944c0,0.788 1.062,2.141 0.882,2.141l-12.241,0c-0.18,0 -0.641,-1.354 -0.641,-2.141l0,-49.199c0,-0.788 0.461,-0.659 0.641,-0.659l12.241,0c0.18,0 -0.882,-0.128 -0.882,0.659l0,49.199Z" style="fill:#4e4c4c;fill-rule:nonzero;stroke:#fff;stroke-width:1px;"/><path d="M76.085,73.944c0,0.788 0.403,2.141 0.281,2.141l-8.331,0c-0.123,0 -0.95,-1.354 -0.95,-2.141l0,-49.199c0,-0.788 0.827,-0.659 0.95,-0.659l8.331,0c0.123,0 -0.281,-0.128 -0.281,0.659l0,49.199Z" style="fill:#4e4c4c;fill-rule:nonzero;stroke:#fff;stroke-width:1px;"/><path d="M64.085,73.944c0,0.788 0.777,2.141 0.694,2.141l-5.573,0c-0.082,0 -1.122,-1.354 -1.122,-2.141l0,-49.199c0,-0.788 1.04,-0.659 1.122,-0.659l5.573,0c0.082,0 -0.694,-0.128 -0.694,0.659l0,49.199Z" style="fill:#4e4c4c;fill-rule:nonzero;stroke:#fff;stroke-width:1px;"/><path d="M156.085,73.944c0,0.788 0.884,2.141 1.064,2.141l12.241,0c0.18,0 -0.306,-1.354 -0.306,-2.141l0,-49.199c0,-0.788 0.486,-0.659 0.306,-0.659l-12.241,0c-0.18,0 -1.064,-0.128 -1.064,0.659l0,49.199Z" style="fill:#4e4c4c;fill-rule:nonzero;stroke:#fff;stroke-width:1px;"/><path d="M172.085,73.944c0,0.788 0.543,2.141 0.666,2.141l8.331,0c0.123,0 0.003,-1.354 0.003,-2.141l0,-49.199c0,-0.788 0.119,-0.659 -0.003,-0.659l-8.331,0c-0.123,0 -0.666,-0.128 -0.666,0.659l0,49.199Z" style="fill:#4e4c4c;fill-rule:nonzero;stroke:#fff;stroke-width:1px;"/><path d="M183.085,73.944c0,0.788 1.17,2.141 1.252,2.141l5.573,0c0.082,0 -0.825,-1.354 -0.825,-2.141l0,-49.199c0,-0.788 0.907,-0.659 0.825,-0.659l-5.573,0c-0.082,0 -1.252,-0.128 -1.252,0.659l0,49.199Z" style="fill:#4e4c4c;fill-rule:nonzero;stroke:#fff;stroke-width:1px;"/></g></svg>