<?xml version="1.0" encoding="utf-8"?>
<!-- Generator: Adobe Illustrator 17.0.0, SVG Export Plug-In . SVG Version: 6.00 Build 0)  -->
<!DOCTYPE svg PUBLIC "-//W3C//DTD SVG 1.1//EN" "http://www.w3.org/Graphics/SVG/1.1/DTD/svg11.dtd">
<svg version="1.1" id="Ebene_1" xmlns="http://www.w3.org/2000/svg" xmlns:xlink="http://www.w3.org/1999/xlink" x="0px" y="0px"
	 width="362.83px" height="362.83px" viewBox="0 0 362.83 362.83" enable-background="new 0 0 362.83 362.83" xml:space="preserve">
<path fill="#F0F1EF" stroke="#000000" stroke-width="0.7087" stroke-miterlimit="10" d="M310.928,203.922
	c-10.464,20.401-47.089,35.119-46.938,39.184s31.167,0.753,15.207,16.712c-19.874,19.874-82.315-7.034-82.315-7.034l-0.043-129.527
	c0,0,54.125,6.047,58.801-0.684c4.675-6.73,22.654-23.858,20.245-28.375c-2.691-3.158-76.034-2.56-76.034-2.56l-2.409-4.214
	c15.111-4.371,21.681-17.51,21.681-34.029c0-20.022-15.553-34.328-35.575-34.328s-36.394,14.443-36.394,34.465
	c0,16.339,6.823,28.699,21.681,33.228l-1.807,4.276c0,0-72.214-1.352-74.906,1.807c-4.592,7.227,15.102,22.758,19.778,29.489
	c4.676,6.73,56.633,0.323,56.633,0.323l0.301,129.183c-15.867,6.682-54.968,20.012-79.961,12.208
	c-18.544-18.544,13.413-18.833,14.466-21.995c-33.576-18.82-48.653-41.576-50.288-35.382c-2.767,10.481-22.133,51.794-5.591,64.762
	c6.042-0.02,6.103-24.411,13.752-0.622c7.648,23.789,116.132,49.356,121.972,77.69c0.243-0.131,0.034-0.131,0.276,0
	c5.84-28.335,88.206-36.833,120.88-80.022c6.326-12.145,8.733-3.992,15.056,4.74C334.152,258.463,316.122,230.421,310.928,203.922z
	 M167.305,53.533c0-8.97,7.272-16.242,16.242-16.242c8.97,0,16.242,7.272,16.242,16.242s-7.272,16.242-16.242,16.242
	C174.577,69.776,167.305,62.504,167.305,53.533z"/>
<path fill="#161616" stroke="#000000" stroke-width="1.4173" stroke-miterlimit="10" d="M309.316,214.804
	c-6.714,19.015-34.638,27.358-34.638,27.358s27.385-1.548,9.717,23.226c-15.812,22.173-91.905-8.358-91.905-8.358l0.003-138.873
	c0,0,55.284,6.658,59.135,1.115c3.851-5.543,19.585-18.612,17.369-21.213c-2.217-2.601-77.041,0.155-77.041,0.155l0.037-15.702
	c12.446-3.6,21.555-15.058,21.555-28.664c0-16.491-13.368-29.859-29.859-29.859s-29.859,13.368-29.859,29.859
	c0,13.458,8.906,24.829,21.144,28.559l-0.079,15.188c0,0-74.824-2.756-77.041-0.155c-2.216,2.601,14.833,15.67,18.683,21.213
	c3.851,5.543,57.82-1.115,57.82-1.115l-0.921,138.454c-13.068,5.503-76.091,30.529-91.903,8.357
	c-17.668-24.775,9.717-23.226,9.717-23.226s-27.924-8.344-34.638-27.358c1.424,18.803-16.743,35.617-11.084,47.048
	c-0.463-4.294,14.202-14.202,15.934-2.425c6.31,35.819,117.117,54.036,121.927,77.374c0.2-0.108,0.028,0.932,0.228,1.039
	c4.81-23.338,114.538-41.555,120.849-77.374c1.732-11.777,16.397-1.869,15.934,2.425
	C326.059,250.422,307.892,233.607,309.316,214.804z M170.312,53.848c0-7.388,5.989-13.378,13.378-13.378
	c7.388,0,13.378,5.989,13.378,13.378s-5.989,13.378-13.378,13.378C176.301,67.225,170.312,61.236,170.312,53.848z"/>
<path fill="#F0F1EF" stroke="#000000" stroke-width="0.7087" stroke-miterlimit="10" d="M182.965,36.805
	c-8.49,0-15.373,6.883-15.373,15.373s6.883,15.373,15.373,15.373c8.49,0,15.373-6.883,15.373-15.373S191.455,36.805,182.965,36.805z
	 M182.706,62.809c-5.854,0-10.599-4.745-10.599-10.599c0-5.854,4.745-10.599,10.599-10.599c5.854,0,10.599,4.745,10.599,10.599
	C193.305,58.064,188.56,62.809,182.706,62.809z"/>
</svg>
