<?xml version="1.0" encoding="utf-8"?>
<!-- Generator: Adobe Illustrator 17.0.0, SVG Export Plug-In . SVG Version: 6.00 Build 0)  -->
<!DOCTYPE svg PUBLIC "-//W3C//DTD SVG 1.1//EN" "http://www.w3.org/Graphics/SVG/1.1/DTD/svg11.dtd">
<svg version="1.1" xmlns="http://www.w3.org/2000/svg" xmlns:xlink="http://www.w3.org/1999/xlink" x="0px" y="0px"
	 width="362.83px" height="362.83px" viewBox="0 0 362.83 362.83" enable-background="new 0 0 362.83 362.83" xml:space="preserve">
<g id="Ebene_2" display="none">
	<g display="inline">
		<g>
			<path fill="#3AAA35" d="M26.072,466.715c15.825-11.135,34.411-23.557,48.217-38.572c3.871-4.21,7.587-8.454,11.684-12.456
				c8.26-8.069,16.874-15.767,25.961-22.896c-12.908,9.973-25.816,19.946-38.725,29.918c21.995-16.981,45.115-32.692,68.02-48.411
				c23.527-16.146,47.37-31.831,71.541-46.998c22.943-14.396,46.508-27.755,69.092-42.718c20.737-13.74,41.373-27.85,64.307-37.737
				c-15.236,6.43-30.471,12.859-45.707,19.289c9.206-3.872,18.643-6.986,28.402-9.132c15.236-6.43,30.471-12.859,45.707-19.289
				c28.752-17.01,51.633-39.891,68.643-68.643c25.886-44.19,32.873-98.052,19.289-147.438
				c-13.156-47.827-45.16-89.295-87.932-114.35c-15.236-6.43-30.471-12.859-45.707-19.289c-33.91-9.113-67.821-9.113-101.731,0
				c-6.52,1.434-12.902,3.285-19.195,5.512c-21.782,7.709-43.083,16.992-63.904,27.01c-12.443,5.987-24.234,13.264-35.816,20.752
				c-11.681,7.552-23.143,15.436-34.881,22.901c-12.876,8.189-26.178,15.714-39.188,23.69
				C-33.191,29.147-97.967,74.587-160.1,123.329c-8.126,6.375-15.774,13.345-23.215,20.5c-7.224,6.946-13.277,15.33-21.211,21.481
				c12.908-9.973,25.816-19.946,38.725-29.918c-0.424,0.298-0.847,0.596-1.271,0.894c-12.908,9.973-25.816,19.946-38.725,29.918
				c-23.714,23.874-40.116,52.018-49.207,84.431c-13.584,49.386-6.597,103.247,19.289,147.438
				c25.055,42.772,66.523,74.776,114.35,87.932c16.955,2.278,33.91,4.557,50.865,6.835
				C-35.962,492.731-3.771,484.023,26.072,466.715L26.072,466.715z"/>
		</g>
	</g>
</g>
<g id="Ebene_1">
	<path fill="#F0F1EF" stroke="#000000" stroke-width="0.7087" stroke-miterlimit="10" d="M352.553,183C349,179.5,333,179,330,190
		s2,15.5-33.5,14c-7-16.5-33.75-24.217-49.75-28.5s-58.843-11.093-87.25-9c-41.5,1-65,10-80,15.5c-36.595-24.475-50-33-45.5-46.753
		c2-8.247-5.782-12.322-13.391-11.284s-8.205,6.254-9.061,7.489C2.283,146.87,11.626,161.794,22,170.616
		c7.2,5.678,25.5,26.884,41.5,30.851c-2.091,43.199,105.41,108.346,125.6,109.746c19.813,1.373,80.761-38.435,101.9-83.212
		c19.5,0,32-0.5,49.852-4.852C355.306,217.529,356.106,186.5,352.553,183z"/>
	<g>
		<g>
			<path d="M336.45,196.58c0.94,4.024,0.243,8.819-3.43,11.281c-1.834,1.229-4.649,0.969-6.736,1.139
				c-3.703,0.302-7.414,0.509-11.125,0.692c-14.17,0.7-28.371,0.587-42.554,0.594c-14.352,0.007-28.702,0.171-43.024,1.171
				c-6.851,0.478-13.668,1.254-20.472,2.169c-6.452,0.868-14.716,3.921-21.086,1.7c-6.49-2.263-9.255,8.008-2.826,10.25
				c6.738,2.35,14.184,0.29,20.963-0.834c8.378-1.39,16.845-2.196,25.313-2.788c16.767-1.17,33.598-1.034,50.395-1.041
				c16.529-0.007,32.898-0.79,49.39-1.666c12.681-0.673,17.965-14.692,15.442-25.494C345.141,187.08,334.892,189.911,336.45,196.58
				L336.45,196.58z"/>
		</g>
	</g>
	<g>
		<g>
			<path d="M194.087,217.699c-16.778-5.484-34.005-9.257-51.257-12.898c-8.6-1.815-17.201-3.627-25.768-5.593
				c-0.68-0.156-4.781-2.106-3.472,0.109c-0.758-1.283-1.574-2.205-2.907-2.907c-3.69-1.942-9.47-1.838-13.581-2.668
				c-15.81-3.19-32.058-7.879-44.312-18.735c-5.946-5.268-11.282-11.283-16.852-16.946c-4.084-4.152-14.639-12.734-8.179-18.303
				c5.2-4.484-2.353-11.968-7.516-7.516c-15.442,13.314,5.52,30.572,14.817,40.026c6.004,6.106,11.792,12.103,18.792,17.115
				c7.469,5.347,16.739,8.077,25.413,10.78c4.381,1.365,8.837,2.475,13.315,3.47c2.279,0.507,4.574,0.934,6.87,1.353
				c1.147,0.209,6.336,2.021,4.962-0.303c2.147,3.633,6.014,3.889,9.825,4.776c5.541,1.289,11.104,2.485,16.668,3.671
				c20.276,4.321,40.622,8.369,60.357,14.82C197.796,230.085,200.573,219.819,194.087,217.699L194.087,217.699z"/>
		</g>
	</g>
	<path fill="#010202" stroke="#000000" stroke-miterlimit="10" d="M187.326,299.614c-19.803-1.292-126.136-64.575-112.36-102.028
		s228.594-26.26,214.387,15.498S207.128,300.906,187.326,299.614z"/>
	<path opacity="0.8" fill="#FFFFFF" stroke="#000000" stroke-width="2.126" stroke-miterlimit="10" d="M252.002,247.874
		c-23.467-0.264-60.786-54.054-38.963-52.472s41.958,3.78,61.217,7.046C293.516,205.713,275.47,248.138,252.002,247.874z"/>
	<linearGradient id="SVGID_1_" gradientUnits="userSpaceOnUse" x1="82.5199" y1="246.9477" x2="170.2486" y2="246.9477">
		<stop  offset="0" style="stop-color:#FFFFFF"/>
		<stop  offset="1" style="stop-color:#000000"/>
	</linearGradient>
	<path opacity="0.8" fill="url(#SVGID_1_)" stroke="#000000" stroke-width="2.126" stroke-miterlimit="10" d="M155.684,249.263
		c-33.384-20.503-106.709-55.96-55.575-9.979c0,0,27.446,25.555,41.966,34.85S189.069,269.765,155.684,249.263z"/>
</g>
</svg>
