<?xml version="1.0" encoding="utf-8"?>
<!-- Generator: Adobe Illustrator 17.0.0, SVG Export Plug-In . SVG Version: 6.00 Build 0)  -->
<!DOCTYPE svg PUBLIC "-//W3C//DTD SVG 1.1//EN" "http://www.w3.org/Graphics/SVG/1.1/DTD/svg11.dtd">
<svg version="1.1" id="Ebene_1" xmlns="http://www.w3.org/2000/svg" xmlns:xlink="http://www.w3.org/1999/xlink" x="0px" y="0px"
	 width="362.83px" height="362.83px" viewBox="0 0 362.83 362.83" enable-background="new 0 0 362.83 362.83" xml:space="preserve">
<path fill="#F2F1F0" stroke="#010202" stroke-width="0.7087" stroke-miterlimit="10" d="M338.022,132.626
	c-2.469,0-4.736,0.611-6.541,1.626c-8.422-14.367-22.355-25.495-39.766-29.93c-29.209-7.441-58.828,6.328-72.623,31.627
	c-0.589-0.237-1.231-0.37-1.942-0.37H145.68c-0.671,0-1.324,0.126-1.961,0.338c-14.076-25.784-44.5-39.45-74.01-31.221
	c-17.017,4.746-30.525,15.885-38.669,30.09c-1.915-1.336-4.522-2.161-7.399-2.161c-5.877,0-10.642,3.429-10.642,7.659v24.056
	c0,3.995,4.251,7.272,9.675,7.624c0.325,4.085,1.034,8.198,2.176,12.294c9.581,34.356,45.203,54.441,79.558,44.86
	c28.246-7.877,46.834-33.353,47.236-61.254c21.052-20.551,47.93-5.816,59.626,2.451c1.445,27.486,20.481,52.027,48.557,59.179
	c34.563,8.805,69.723-12.078,78.528-46.645c0.936-3.673,1.516-7.351,1.801-11.004c4.854-0.711,8.507-3.801,8.507-7.504v-24.056
	C348.663,136.055,343.899,132.626,338.022,132.626z M103.212,224.829c-31.985,8.92-65.15-9.781-74.07-41.766
	c-1.067-3.827-1.728-7.671-2.03-11.488c4.171-1.037,2.42-8.631,2.42-11.985l4.751-19.305c0-0.574-0.095-1.131-0.261-1.668
	c7.466-13.992,20.404-25.032,36.884-29.628c27.636-7.707,56.135,5.212,69.136,29.494c-3.104,3.456-5.181,9.656-5.181,16.754
	c14.972,2.263,4.844,19.658,10.819,19.658c0.392-0.553,0.788-1.085,1.186-1.607C144.323,197.059,127.645,218.015,103.212,224.829z
	 M260.927,225.178c-24.813-6.321-42.045-27.23-44.881-51.225c0.719,0.595,1.104,0.942,1.104,0.942c3.688,0-0.343-8.717-0.259-14.633
	c1.663-1.031,3.154-2.912,4.144-5.291c0.976-0.1,2.155-0.027,3.589,0.267c0-6.541-0.553-12.32-2.292-15.893
	c12.536-24.354,40.608-37.756,68.284-30.705c16.578,4.223,29.761,14.968,37.54,28.786c-0.496,0.885-0.775,1.849-0.775,2.861
	l6.452,17.604c0,3.653-2.895,13.156,1.861,13.921c-0.274,3.301-0.809,6.623-1.654,9.939
	C325.84,213.932,293.105,233.375,260.927,225.178z"/>
<path stroke="#010202" stroke-width="0.7087" stroke-miterlimit="10" d="M344.384,161.818c0,3.366-2.652,6.095-5.924,6.095l0,0
	c-3.272,0-5.924-2.729-5.924-6.095v-19.144c0-3.366,2.652-6.095,5.924-6.095l0,0c3.272,0,5.924,2.729,5.924,6.095V161.818z"/>
<path fill="#020304" stroke="#010202" stroke-width="0.7087" stroke-miterlimit="10" d="M275.803,106.917
	c-33.132,0-59.994,26.862-59.994,59.998c0,33.132,26.862,59.994,59.994,59.994c33.136,0,59.998-26.862,59.998-59.994
	C335.802,133.779,308.94,106.917,275.803,106.917z M275.803,222.771c-30.846,0-55.857-25.01-55.857-55.856
	c0-30.851,25.01-55.86,55.857-55.86c30.851,0,55.86,25.01,55.86,55.86C331.664,197.761,306.654,222.771,275.803,222.771z"/>
<path stroke="#010202" stroke-width="0.7087" stroke-miterlimit="10" d="M30.004,161.818c0,3.366-2.652,6.095-5.924,6.095l0,0
	c-3.272,0-5.924-2.729-5.924-6.095v-19.144c0-3.366,2.652-6.095,5.924-6.095l0,0c3.272,0,5.924,2.729,5.924,6.095V161.818z"/>
<linearGradient id="SVGID_1_" gradientUnits="userSpaceOnUse" x1="430.9913" y1="-83.0708" x2="351.5454" y2="-3.6249" gradientTransform="matrix(1 0 0 -1 -116.065 123.565)">
	<stop  offset="0.1043" style="stop-color:#CE679A;stop-opacity:0.7346"/>
	<stop  offset="0.2133" style="stop-color:#CE679A;stop-opacity:0"/>
	<stop  offset="0.5024" style="stop-color:#CE679A"/>
	<stop  offset="0.8246" style="stop-color:#2782C5;stop-opacity:0"/>
</linearGradient>
<circle fill="url(#SVGID_1_)" stroke="#010202" stroke-width="0.7087" stroke-miterlimit="10" cx="275.203" cy="166.913" r="56.177"/>
<path fill="#020304" stroke="#010202" stroke-width="0.7087" stroke-miterlimit="10" d="M87.06,106.917
	c-33.132,0-59.994,26.862-59.994,59.998c0,33.132,26.862,59.994,59.994,59.994c33.136,0,59.998-26.862,59.998-59.994
	C147.058,133.779,120.196,106.917,87.06,106.917z M87.06,222.771c-30.846,0-55.856-25.01-55.856-55.856
	c0-30.851,25.01-55.86,55.856-55.86c30.851,0,55.86,25.01,55.86,55.86C142.92,197.761,117.91,222.771,87.06,222.771z"/>
<linearGradient id="SVGID_2_" gradientUnits="userSpaceOnUse" x1="242.2476" y1="-83.0708" x2="162.8018" y2="-3.6249" gradientTransform="matrix(1 0 0 -1 -116.065 123.565)">
	<stop  offset="0.1043" style="stop-color:#CE679A;stop-opacity:0.7346"/>
	<stop  offset="0.2133" style="stop-color:#CE679A;stop-opacity:0"/>
	<stop  offset="0.5024" style="stop-color:#CE679A"/>
	<stop  offset="0.8246" style="stop-color:#2782C5;stop-opacity:0"/>
</linearGradient>
<circle fill="url(#SVGID_2_)" stroke="#010202" stroke-width="0.7087" stroke-miterlimit="10" cx="86.46" cy="166.913" r="56.177"/>
<path stroke="#010202" stroke-width="0.7087" stroke-miterlimit="10" d="M226.728,152.311c0,6.786-4.844,12.288-10.819,12.288
	c0,0-43.603-24.575-71.469,0c-5.975,0-10.819-5.501-10.819-12.288l0,0c0-6.786,4.844-12.288,10.819-12.288h71.469
	C221.884,140.023,226.728,145.525,226.728,152.311L226.728,152.311z"/>
</svg>
