<?xml version="1.0" encoding="utf-8"?>
<!-- Generator: Adobe Illustrator 17.0.0, SVG Export Plug-In . SVG Version: 6.00 Build 0)  -->
<!DOCTYPE svg PUBLIC "-//W3C//DTD SVG 1.1//EN" "http://www.w3.org/Graphics/SVG/1.1/DTD/svg11.dtd">
<svg version="1.1" xmlns="http://www.w3.org/2000/svg" xmlns:xlink="http://www.w3.org/1999/xlink" x="0px" y="0px"
	 width="362.83px" height="362.83px" viewBox="0 0 362.83 362.83" enable-background="new 0 0 362.83 362.83" xml:space="preserve">
<g id="Ebene_1" display="none">
	
		<image display="inline" overflow="visible" width="486" height="442" xlink:href="../Alt/bunny_ears.png"  transform="matrix(0.4707 0 0 0.4707 58.7551 66.2166)">
	</image>
</g>
<g id="Ebene_2">
	<path fill="#F0F1EF" stroke="#000000" stroke-width="0.7087" stroke-miterlimit="10" d="M191.141,341.629
		c0.557-40.532-5.34-343.638,105.333-321.675c84.377,21.963,41.163,189.431-39.282,318.29
		C247.859,339.824,193.808,344.258,191.141,341.629z"/>
	<path fill="#F0F1EF" stroke="#000000" stroke-width="0.7087" stroke-miterlimit="10" d="M111.116,339.199
		c-13.596-26.658-25.141-55.744-30.556-61.576C7.378,265.95,6.825,177.308,43.304,135.782
		c10.612-12.081,55.168-55.168,112.69-43.899c11.504,21.152,25.238,206.129,10.72,248.362L111.116,339.199z"/>
	<path fill="#FFFFFF" stroke="#000000" stroke-width="1.4173" stroke-miterlimit="10" d="M114.512,335.203l-30.159-65.814
		c0,0-35.036-113.997-32.944-123.933c2.092-9.936,42.88-43.403,99.355-44.971c3.138-0.523,23.532,137.529,12.027,234.718
		C157.04,335.203,114.512,335.203,114.512,335.203z"/>
	<path fill="#CECCC7" stroke="#000000" stroke-width="0.7087" stroke-miterlimit="10" d="M155.471,335.203l-8.367-155.757
		l4.968-68.503c14.38,15.688,14.551,211.075,11.7,224.26H155.471z"/>
	<polyline fill="#AB4694" stroke="#000000" stroke-width="0.7087" stroke-miterlimit="10" points="145.142,335.145 142.397,205.33 
		140.436,171.996 145.205,189.509 152.637,335.145 145.142,335.145 	"/>
	<polygon fill="#D78DBC" stroke="#000000" stroke-width="0.7087" stroke-miterlimit="10" points="127.535,334.458 87.491,239.059 
		137.3,193.564 138.906,209.763 142.398,334.368 	"/>
	<path fill="#FFFFFF" stroke="#000000" stroke-width="1.4173" stroke-miterlimit="10" d="M84.354,269.388
		c-58.044-7.844-75.017-82.515-29.022-134.874c7.304-8.314,59.875-49.195,95.433-34.03
		C158.133,129.926,145.324,275.104,84.354,269.388z"/>
	<path fill="#CECCC7" stroke="#000000" stroke-width="0.7087" stroke-miterlimit="10" d="M69.41,260.801
		c78.313-53.826,62.955-156.619,61.419-161.166c0,0,12.913,0.351,18.041,2.745c2.68,99.29-26.287,149.695-53.926,163.348
		C91.031,267.66,73.593,263.938,69.41,260.801z"/>
	<path fill="#FFFFFF" stroke="#000000" stroke-width="1.4173" stroke-miterlimit="10" d="M198.089,334.458
		c0.492-37.779,2.915-325.199,92.95-308.36c83.159,15.553,33.336,188.252-37.65,308.36
		C245.153,335.93,200.443,336.908,198.089,334.458z"/>
	<path fill="#CECCC7" stroke="#000000" stroke-width="0.7087" stroke-miterlimit="10" d="M249.074,334.458
		c0,0,90.234-180.149,57.515-276.255c-7.602-22.33-49.671-17.594-49.671-17.594s11.5-15.399,32.998-12.158
		c72.226,10.89,41.623,153.259-37.469,304.941C249.074,334.458,249.074,334.458,249.074,334.458z"/>
	<path fill="#D78DBC" stroke="#000000" stroke-width="0.7087" stroke-miterlimit="10" d="M209.071,334.458
		c0,0,18.433-233.059,61.182-263.65c32.16,43.141,9.02,165.113-45.494,263.65C221.621,334.458,209.071,334.458,209.071,334.458z"/>
	<path fill="#AB4694" stroke="#000000" stroke-width="0.7087" stroke-miterlimit="10" d="M226.719,334.458h6.275
		c0,0,122.756-246.786,40.004-263.65C326.282,159.014,226.719,334.458,226.719,334.458z"/>
</g>
</svg>
