<?xml version="1.0" encoding="utf-8"?>
<!-- Generator: Adobe Illustrator 17.0.0, SVG Export Plug-In . SVG Version: 6.00 Build 0)  -->
<!DOCTYPE svg PUBLIC "-//W3C//DTD SVG 1.1//EN" "http://www.w3.org/Graphics/SVG/1.1/DTD/svg11.dtd">
<svg version="1.1" xmlns="http://www.w3.org/2000/svg" xmlns:xlink="http://www.w3.org/1999/xlink" x="0px" y="0px"
	 width="362.83px" height="362.83px" viewBox="0 0 362.83 362.83" enable-background="new 0 0 362.83 362.83" xml:space="preserve">
<g id="Ebene_1" display="none">
	
		<image display="inline" overflow="visible" width="212" height="194" xlink:href="C697BC1B.jpg"  transform="matrix(1.6821 0 0 1.6821 0 51.5)">
	</image>
</g>
<g id="Ebene_2">
	<path fill="#F0F1EF" stroke="#000000" stroke-width="0.7087" stroke-miterlimit="10" d="M356.732,214.101
		c-0.993-3.793-3.87-22.963-25.384-25.949c-21.514-2.986-28.223,7.223-48.223-2.777S264.5,157.5,238.311,146.356
		c-28.248-5.83-42.551,3.368-59.063,5.061c5.376-23.921-19.587-34.889-24.084-36.93c-5.213-2.366-32.956-14.357-49.199,11.747
		c-4.824,1.592-64.215-12.983-89.277,13.63c-21.98,22.13,26.263,60.852,65.745,30.1c15.004,19.433,62.183,79.262,112.885,60.052
		c34.015-11.682,26.68-38.518,18.6-48.507c2.703,0.53,5.336,0.703,7.827,0.325c10.589-0.5,11.714,19.5,12.756,29.083
		c-0.708,15.833,40.333,32.917,46.521,26.062c1.792-4-25.854-31.395-28.188-37.27c-2.333-5.875-1.06-19.085-4.196-26.23
		c-0.079-0.181-0.142-0.321-0.202-0.454c1.898,3.933,13.571,26.453,32.398,36.291C303.833,221.333,310,202,328,204.5
		c0,0,8.884,3.997,12.47,7.137C344.057,214.777,357.725,217.894,356.732,214.101z M174.173,163.841
		c0.191-0.329,0.368-0.654,0.549-0.98c1.719,1.772,3.309,3.516,4.587,5.098C176.247,166.85,173.941,165.467,174.173,163.841z"/>
	<path fill="#CC6A14" stroke="#000000" stroke-width="1.4173" stroke-miterlimit="10" d="M22.184,140.089
		c-22.427,21.198,30.564,60.665,66.962,18.652l-11.953-1.049C77.193,157.692,47.391,131.296,22.184,140.089z"/>
	<path fill="#F28D1E" stroke="#000000" stroke-width="1.4173" stroke-miterlimit="10" d="M21.158,140.985
		c15.241-18.759,83.224-10.294,87.557-11.724c14.59-23.448,39.511-12.677,44.194-10.552c4.683,2.126,34.075,15.023,17.075,44.334
		c-0.586,4.103,16.801,6.498,16.801,6.498l15.952,6.031c0,0,34.293,34-9.966,50.707c-47.19,17.879-95.061-44.544-106.531-59.472
		S51.541,142.405,21.158,140.985z"/>
	<path fill="#69B42D" stroke="#000000" stroke-width="1.4173" stroke-miterlimit="10" d="M349.582,209.864
		c0,0-3.957-16.267-21.104-18.466s-13.076,8.256-42.207,1.466c-24.687-5.754-24.548-37.737-54.811-42.793
		c-36.198-6.375-45.431,11.871-71.139,4.901c0,0,22.557,16.423,20.725,19.72c-1.832,3.297-4.966-3.873-2.802-3.828
		c10.151,0.213,27.273,7.278,40.319,5.586c5.056-0.147,15.326-1.54,19.345,29.897c0.935,7.31,10.698,25.28,39.569,28.798
		c-3.275-3.653-17.513-19.491-24.914-29.97s-0.765-25.303-8.5-32.924c-7.735-7.622-12.274-3.238-29.604-7.817
		s-33.076-0.293-33.076-0.293s21.169-19.585,58.943-2.418c13.071,5.94,22.701,29.434,41.548,41.694
		c24.149,15.709,29.873-9.527,47.483-3.517c0,0,9.892,3.371,11.248,7.804C342.633,208.191,349.582,209.864,349.582,209.864z"/>
	<path fill="#69B42D" stroke="#000000" stroke-width="1.4173" stroke-miterlimit="10" d="M108.943,129.261
		c31.655,1.466,56.463,27.15,56.463,27.15s13.552,10.647,18.205,15.007c-0.879,14.705-19.565,0.636-60.013-11.088
		C101.616,146.261,106.898,135.179,108.943,129.261z"/>
	<path fill="#F0F1EF" stroke="#000000" stroke-width="0.7087" stroke-miterlimit="10" d="M163.237,129.832
		c-6.783-7.931-31.17-12.401-33.148-11.88s-4.072,0.517-3.822,2.696C126.517,122.827,149.134,123.642,163.237,129.832z"/>
	<path fill="#F0F1EF" stroke="#000000" stroke-width="0.7087" stroke-miterlimit="10" d="M98.184,139.387
		c-8.055-6.634-32.848-6.809-34.705-5.953c-1.857,0.856-37.861,2.742-3.297,3.318C94.746,137.328,83.221,135.735,98.184,139.387z"/>
	<path stroke="#000000" stroke-width="0.7087" stroke-miterlimit="10" d="M183.612,171.549c0,0-48.68-20.849-61.379-28.711
		s-13.49-13.005-13.49-13.005s4.749,5.789,19.498,14.353C142.989,152.748,183.612,171.549,183.612,171.549z"/>
</g>
</svg>
