<?xml version="1.0" encoding="utf-8"?>
<!-- Generator: Adobe Illustrator 17.0.0, SVG Export Plug-In . SVG Version: 6.00 Build 0)  -->
<!DOCTYPE svg PUBLIC "-//W3C//DTD SVG 1.1//EN" "http://www.w3.org/Graphics/SVG/1.1/DTD/svg11.dtd">
<svg version="1.1" id="Ebene_1" xmlns="http://www.w3.org/2000/svg" xmlns:xlink="http://www.w3.org/1999/xlink" x="0px" y="0px"
	 width="362.83px" height="362.83px" viewBox="0 0 362.83 362.83" enable-background="new 0 0 362.83 362.83" xml:space="preserve">
<path fill="#F0F1F0" stroke="#000000" stroke-width="0.7087" stroke-miterlimit="10" d="M294.855,108.788
	c5.435-5.629,25.053-44.005-35.845-40.437c0.385-57.484-63.211-21.408-63.211-21.408s-10.792-45.987-59.356,1.982
	c0.385-10.704-37.387-24.579-46.252,11.893c-49.721,4.361-19.272,47.573-19.272,47.573s-73.29,54.105,19.657,68.585
	c-46.989,47.351-24.311,45.962,8.822,47.772c0,0-0.604,1.596,3.774,4.847c-11.282,1.352-20.007,10.429-20.007,21.434
	c0,11.937,10.264,21.614,22.924,21.614s22.924-9.677,22.924-21.614c0-5.275-2.006-10.106-5.335-13.858
	c5.677,0.19,10.387-1.052,11.829-2.565c-1.134,8.918-3.342,50.277,63.374-1.335c1.768,29.253,101.397,35.095,87.878-22.597
	c-1.243-11.556,42.556,2.086,17.344-45.195C341.357,135.786,289.42,114.418,294.855,108.788z"/>
<path fill="#FFFFFF" stroke="#000000" stroke-width="1.4173" stroke-miterlimit="10" d="M287.226,114.072
	c4.989-5.024,22.997-39.272-32.904-36.088c0.354-51.301-58.024-19.105-58.024-19.105s-9.906-41.041-54.486,1.769
	c0.354-9.553-34.319-21.936-42.456,10.614c-45.64,3.892-17.69,42.456-17.69,42.456S14.39,162.003,99.71,174.926
	c-43.133,42.259-22.316,41.019,8.098,42.634c0,0-7.893,8.105,11.607,12.605c13.576,3.133,19.106-8.564,19.106-8.564
	c0.036,0.01,0.072,0.018,0.107,0.028c0,0-7.651,54.795,60.5,3.538c1.623,26.106,93.077,31.32,80.667-20.167
	c-1.141-10.313,39.064,1.862,15.921-40.334C329.912,138.166,282.238,119.097,287.226,114.072z"/>
<image overflow="visible" enable-background="new    " width="803" height="503" xlink:href="FDED2A54.jpg"  transform="matrix(0.2466 0 0 0.2466 -7992.9351 -7832.5786)">
</image>
<ellipse fill="#F0F1F0" stroke="#000000" stroke-width="0.7087" stroke-miterlimit="10" cx="88.415" cy="290.363" rx="20.167" ry="16.364"/>
<ellipse fill="#F0F1F0" stroke="#000000" stroke-width="0.7087" stroke-miterlimit="10" cx="69.479" cy="320.407" rx="14.814" ry="10.825"/>
<ellipse fill="#FFFFFF" stroke="#000000" stroke-width="1.4173" stroke-miterlimit="10" cx="106.165" cy="250.665" rx="17.5" ry="16.5"/>
<ellipse fill="#FFFFFF" stroke="#000000" stroke-width="1.4173" stroke-miterlimit="10" cx="88.727" cy="290.248" rx="13.508" ry="11.25"/>
<ellipse fill="#FFFFFF" stroke="#000000" stroke-width="1.4173" stroke-miterlimit="10" cx="69.794" cy="320.082" rx="9" ry="6.75"/>
</svg>
