<?xml version="1.0" encoding="utf-8"?>
<!-- Generator: Adobe Illustrator 17.0.0, SVG Export Plug-In . SVG Version: 6.00 Build 0)  -->
<!DOCTYPE svg PUBLIC "-//W3C//DTD SVG 1.1//EN" "http://www.w3.org/Graphics/SVG/1.1/DTD/svg11.dtd">
<svg version="1.1" id="Ebene_1" xmlns="http://www.w3.org/2000/svg" xmlns:xlink="http://www.w3.org/1999/xlink" x="0px" y="0px"
	 width="362.83px" height="362.83px" viewBox="0 0 362.83 362.83" enable-background="new 0 0 362.83 362.83" xml:space="preserve">
<path fill="#F0F1F0" stroke="#000000" stroke-width="0.7087" stroke-miterlimit="10" d="M294.855,108.788
	c5.435-5.629,25.053-44.005-35.845-40.437c0.385-57.484-63.211-21.408-63.211-21.408s-10.792-45.987-59.356,1.982
	c0.385-10.704-37.387-24.579-46.252,11.893c-49.721,4.361-19.272,47.573-19.272,47.573s-73.29,54.105,19.657,68.585
	c-46.989,47.351-24.311,45.962,8.822,47.772c0,0-0.604,1.596,3.774,4.847c-11.282,1.352-20.007,10.429-20.007,21.434
	c0,11.937,10.264,21.614,22.924,21.614s22.924-9.677,22.924-21.614c0-5.275-2.006-10.106-5.335-13.858
	c5.677,0.19,10.387-1.052,11.829-2.565c-1.134,8.918-3.342,50.277,63.374-1.335c1.768,29.253,101.397,35.095,87.878-22.597
	c-1.243-11.556,42.556,2.086,17.344-45.195C341.357,135.786,289.42,114.418,294.855,108.788z"/>
<path fill="#FFFFFF" stroke="#000000" stroke-width="1.4173" stroke-miterlimit="10" d="M287.226,114.072
	c4.989-5.024,22.997-39.272-32.904-36.088c0.354-51.301-58.024-19.105-58.024-19.105s-9.906-41.041-54.486,1.769
	c0.354-9.553-34.319-21.936-42.456,10.614c-45.64,3.892-17.69,42.456-17.69,42.456S14.39,162.003,99.71,174.926
	c-43.133,42.259-22.316,41.019,8.098,42.634c0,0-7.893,8.105,11.607,12.605c13.576,3.133,19.106-8.564,19.106-8.564
	c0.036,0.01,0.072,0.018,0.107,0.028c0,0-7.651,54.795,60.5,3.538c1.623,26.106,93.077,31.32,80.667-20.167
	c-1.141-10.313,39.064,1.862,15.921-40.334C329.912,138.166,282.238,119.097,287.226,114.072z"/>
<image overflow="visible" enable-background="new    " width="803" height="503" xlink:href="FDED2A54.jpg"  transform="matrix(0.2466 0 0 0.2466 -7992.9351 -7832.5786)">
</image>
<ellipse fill="#F0F1F0" stroke="#000000" stroke-width="0.7087" stroke-miterlimit="10" cx="88.415" cy="290.363" rx="20.167" ry="16.364"/>
<ellipse fill="#F0F1F0" stroke="#000000" stroke-width="0.7087" stroke-miterlimit="10" cx="69.479" cy="320.407" rx="14.814" ry="10.825"/>
<ellipse fill="#FFFFFF" stroke="#000000" stroke-width="1.4173" stroke-miterlimit="10" cx="106.165" cy="250.665" rx="17.5" ry="16.5"/>
<ellipse fill="#FFFFFF" stroke="#000000" stroke-width="1.4173" stroke-miterlimit="10" cx="88.727" cy="290.248" rx="13.508" ry="11.25"/>
<ellipse fill="#FFFFFF" stroke="#000000" stroke-width="1.4173" stroke-miterlimit="10" cx="69.794" cy="320.082" rx="9" ry="6.75"/>
<g>
	<path d="M141.625,168.023v-0.72c0-0.299-0.15-0.509-0.45-0.63c-0.301-0.059-0.33-0.209-0.09-0.45c0.18-0.3,0.149-0.54-0.09-0.72
		l-0.18-0.09l-0.09-0.09c0-0.059,0.014-0.09,0.045-0.09c0.03,0,0.045-0.029,0.045-0.09c0.12-0.239,0.09-0.45-0.09-0.63
		c-0.241-0.059-0.301-0.239-0.18-0.54c0.059-0.12,0.03-0.3-0.09-0.54c-0.18-0.3-0.211-0.54-0.09-0.72c0-0.12-0.031-0.209-0.09-0.27
		c0-0.059-0.031-0.12-0.09-0.18c-0.061-0.059-0.09-0.12-0.09-0.18c0-0.3-0.061-0.585-0.18-0.855c-0.121-0.27-0.18-0.554-0.18-0.855
		c0-1.02-0.18-2.039-0.54-3.06c-0.121-0.299-0.211-0.63-0.27-0.99c-0.06-0.36-0.09-0.689-0.09-0.99c0-0.36-0.045-0.72-0.135-1.08
		c-0.09-0.36-0.196-0.689-0.315-0.99c0-0.12-0.016-0.225-0.045-0.315c-0.031-0.09-0.045-0.194-0.045-0.315
		c-0.061-0.119-0.09-0.27-0.09-0.45c0-0.18-0.031-0.329-0.09-0.45c-0.061-0.12-0.09-0.239-0.09-0.36c0-0.12-0.031-0.239-0.09-0.36
		c-0.061-0.12-0.09-0.21-0.09-0.27c0-0.059-0.031-0.149-0.09-0.27c-0.121-0.239-0.18-0.419-0.18-0.54c0-0.36-0.031-0.72-0.09-1.08
		c-0.06-0.36-0.15-0.72-0.27-1.08c0-0.36-0.031-0.63-0.09-0.81c0-0.239-0.031-0.419-0.09-0.54c-0.121-0.299-0.211-0.614-0.27-0.945
		c-0.061-0.329-0.061-0.644,0-0.945c0-0.12-0.031-0.21-0.09-0.27c-0.121-0.3-0.195-0.585-0.225-0.855
		c-0.031-0.27-0.045-0.554-0.045-0.855c-0.061-0.059-0.076-0.104-0.045-0.135c0.03-0.029,0.014-0.075-0.045-0.135
		c-0.18-0.3-0.27-0.615-0.27-0.945c0-0.329-0.031-0.644-0.09-0.945c-0.061-0.18-0.09-0.374-0.09-0.585
		c0-0.209-0.031-0.435-0.09-0.675l-0.27-0.81c0-0.059-0.015-0.119-0.045-0.18c-0.031-0.059-0.045-0.12-0.045-0.18
		c-0.061-0.36-0.121-0.72-0.18-1.08c-0.06-0.36-0.031-0.72,0.09-1.08c0.059-0.059,0.029-0.209-0.09-0.45
		c-0.24-0.36-0.301-0.9-0.18-1.62c0.12-0.12,0.12-0.239,0-0.36c-0.241-0.36-0.27-0.66-0.09-0.9c0.18-0.239,0.149-0.54-0.09-0.9
		c-0.24-0.299-0.375-0.599-0.405-0.9c-0.031-0.299-0.076-0.599-0.135-0.9c-0.121-0.419-0.195-0.839-0.225-1.26
		c-0.031-0.419-0.105-0.84-0.225-1.26c-0.121-0.18-0.166-0.374-0.135-0.585c0.03-0.209,0.014-0.435-0.045-0.675v-0.27
		c-0.121-0.18-0.18-0.374-0.18-0.585c0-0.21-0.031-0.435-0.09-0.675c-0.061-0.12-0.061-0.254,0-0.405
		c0.059-0.149,0.059-0.284,0-0.405c0-0.12-0.045-0.254-0.135-0.405c-0.09-0.149-0.135-0.284-0.135-0.405
		c0-0.299,0.059-0.63,0.18-0.99c0-0.12,0.014-0.239,0.045-0.36c0.029-0.12,0.014-0.239-0.045-0.36c-0.121-0.599-0.121-1.049,0-1.35
		c0.059-0.419-0.031-0.81-0.27-1.17c-0.121-0.18-0.18-0.419-0.18-0.72v-0.99c0-0.479,0.014-0.959,0.045-1.44
		c0.03-0.479,0.045-0.959,0.045-1.44v-0.27c-0.121-0.299-0.135-0.599-0.045-0.9c0.09-0.3,0.135-0.599,0.135-0.9
		c1.02-0.3,1.89-0.209,2.61,0.27c0.36,0.36,0.63,0.661,0.81,0.9c0.059,0.061,0.09,0.211,0.09,0.45
		c-0.061,0.301-0.031,0.72,0.09,1.26c0.059,0.061,0.09,0.18,0.09,0.36c-0.061,0.18-0.076,0.36-0.045,0.54
		c0.029,0.18,0.045,0.331,0.045,0.45c0.12,0.6,0.18,1.05,0.18,1.35c0,0.18,0.09,0.36,0.27,0.54c0.12,0.061,0.18,0.18,0.18,0.36
		c0.059,0.121,0.075,0.256,0.045,0.405c-0.031,0.15-0.015,0.286,0.045,0.405v0.63c0.12,0.301,0.225,0.616,0.315,0.945
		c0.09,0.331,0.194,0.675,0.315,1.035v0.63c0,0.301,0.119,0.54,0.36,0.72c0.059,0.061,0.09,0.18,0.09,0.36
		c0.059,0.18,0.09,0.36,0.09,0.54s0.059,0.36,0.18,0.54c0.18,0.301,0.209,0.601,0.09,0.9c-0.121,0.121-0.09,0.24,0.09,0.36
		c0.12,0.121,0.209,0.27,0.27,0.45c0.059,0.18,0.149,0.331,0.27,0.45c0.059,0.061,0.09,0.151,0.09,0.27
		c0.059,0.241,0.104,0.45,0.135,0.63c0.029,0.18,0.104,0.36,0.225,0.54c0.12,0.121,0.18,0.24,0.18,0.36
		c0,0.121,0.029,0.24,0.09,0.36c0.12,0.601,0.209,1.021,0.27,1.26c0,0.06,0.014,0.105,0.045,0.135
		c0.03,0.031,0.045,0.076,0.045,0.135c0.119,0.24,0.149,0.391,0.09,0.45l-0.09,0.09c0.119,0.18,0.165,0.375,0.135,0.585
		c-0.031,0.211,0.014,0.405,0.135,0.585c0.18,0.18,0.18,0.391,0,0.63c-0.061,0.061-0.031,0.24,0.09,0.54
		c0.299,0.36,0.509,0.751,0.63,1.17l-0.27,0.27c0,0.36,0.09,0.63,0.27,0.81c0.18,0.18,0.36,0.36,0.54,0.54
		c0.299,0.301,0.45,0.601,0.45,0.9c0,0.121,0.014,0.211,0.045,0.27c0.029,0.061,0.045,0.15,0.045,0.27c0.12,0.36,0.12,0.63,0,0.81
		v0.18c0.059,0.241,0.09,0.466,0.09,0.675c0,0.211,0.03,0.436,0.09,0.675c0.059,0.36,0.239,0.601,0.54,0.72
		c0.239,0.121,0.329,0.27,0.27,0.45c0,0.121,0,0.256,0,0.405c0,0.15-0.09,0.285-0.27,0.405c0,0.061-0.031,0.09-0.09,0.09
		c0,0.36-0.15,0.63-0.45,0.81c-0.061,0.061-0.09,0.105-0.09,0.135c0,0.031-0.031,0.076-0.09,0.135c0.18,0.301,0.39,0.45,0.63,0.45
		c0.3,0,0.479,0.121,0.54,0.36c0,0.121,0.059,0.241,0.18,0.36l0.09,0.09c0.12,0.24,0.239,0.601,0.36,1.08
		c0.059,0.121,0.12,0.24,0.18,0.36c0.059,0.121,0.149,0.24,0.27,0.36c0.36,0.42,0.479,0.96,0.36,1.62v0.18
		c0.12,0.24,0.18,0.465,0.18,0.675c0,0.211,0,0.436,0,0.675c0.059,0.301,0.135,0.571,0.225,0.81c0.09,0.241,0.165,0.511,0.225,0.81
		c0.059,0.061,0.09,0.121,0.09,0.18c-0.42,0.24-0.42,0.51,0,0.81c0.18,0.121,0.329,0.331,0.45,0.63
		c0.12,0.24,0.194,0.465,0.225,0.675c0.03,0.211,0.104,0.436,0.225,0.675v0.45c0.239,0.36,0.479,0.751,0.72,1.17
		c0.059,0.06,0.09,0.18,0.09,0.36c-0.121,0.24-0.135,0.45-0.045,0.63c0.09,0.18,0.165,0.36,0.225,0.54
		c0.059,0.061,0.09,0.211,0.09,0.45v0.45c0.239,0.601,0.479,0.99,0.72,1.17c0.239,0.18,0.45,0.121,0.63-0.18
		c0.299-0.479,0.569-0.959,0.81-1.44c0.239-0.479,0.509-0.959,0.81-1.44c0.18-0.299,0.329-0.63,0.45-0.99
		c0.12-0.36,0.27-0.72,0.45-1.08l1.08-1.89c0.12-0.119,0.18-0.239,0.18-0.36c0.12-0.419,0.239-0.824,0.36-1.215
		c0.12-0.39,0.239-0.794,0.36-1.215c0.119-0.299,0.225-0.614,0.315-0.945c0.09-0.329,0.194-0.644,0.315-0.945
		c0.12-0.3,0.27-0.585,0.45-0.855c0.18-0.27,0.329-0.554,0.45-0.855c0.12-0.239,0.225-0.479,0.315-0.72
		c0.09-0.239,0.194-0.479,0.315-0.72c0.059-0.12,0.075-0.255,0.045-0.405c-0.031-0.149-0.045-0.284-0.045-0.405
		c0-0.239,0.03-0.45,0.09-0.63c0.059-0.18,0.09-0.36,0.09-0.54c0-0.18,0.059-0.36,0.18-0.54c0.119-0.12,0.194-0.255,0.225-0.405
		c0.03-0.149,0.104-0.284,0.225-0.405c0.059-0.059,0.09-0.12,0.09-0.18c0.059-0.36,0.21-0.644,0.45-0.855
		c0.239-0.209,0.509-0.435,0.81-0.675c0-0.059,0.209-0.149,0.63-0.27c0.36-0.059,0.509-0.3,0.45-0.72l1.35-0.54
		c0.239-0.12,0.599-0.12,1.08,0c0.059,0.061,0.104,0.09,0.135,0.09c0.029,0,0.075,0.031,0.135,0.09c0.479,0.18,0.9,0,1.26-0.54
		c0.419,0.18,0.66,0.45,0.72,0.81c0.059,0.18,0.104,0.346,0.135,0.495c0.029,0.15,0.075,0.315,0.135,0.495
		c0.059,0.121,0.09,0.301,0.09,0.54c0.059,0.121,0.09,0.225,0.09,0.315c0,0.09,0.03,0.196,0.09,0.315v0.18
		c0,0.481-0.031,0.841-0.09,1.08c0.12,0.121,0.225,0.24,0.315,0.36c0.09,0.121,0.104,0.241,0.045,0.36v0.27
		c-0.121,0.121-0.166,0.241-0.135,0.36c0.029,0.121,0.045,0.24,0.045,0.36c0.12,0.18,0.18,0.481,0.18,0.9
		c0,0.301,0.029,0.585,0.09,0.855c0.059,0.27,0.209,0.526,0.45,0.765c0.059,0.121,0.149,0.24,0.27,0.36
		c0.119,0.121,0.119,0.301,0,0.54c-0.061,0,0,0.09,0.18,0.27c0.059,0.121,0.12,0.241,0.18,0.36c0.059,0.121,0.09,0.27,0.09,0.45
		v0.18c0.239,0.301,0.3,0.69,0.18,1.17c0.239,0,0.419,0.18,0.54,0.54c0.059,0.121,0.09,0.24,0.09,0.36
		c0,0.121,0.029,0.241,0.09,0.36c0.059,0.18,0.209,0.45,0.45,0.81c0.12,0.18,0.27,0.331,0.45,0.45c0.119,0.121,0.239,0.18,0.36,0.18
		c0.18-0.059,0.27-0.18,0.27-0.36c0.059-0.18,0.09-0.45,0.09-0.81v-0.54c0-0.18-0.016-0.344-0.045-0.495
		c-0.031-0.149-0.045-0.315-0.045-0.495v-0.27c0-0.479,0-0.93,0-1.35c0-0.419,0.029-0.869,0.09-1.35c0-0.54,0.014-1.08,0.045-1.62
		c0.03-0.54,0.075-1.049,0.135-1.53c0.059-0.299,0.12-0.569,0.18-0.81c0.059-0.239,0.12-0.509,0.18-0.81v-0.99
		c0.059-0.3,0.12-0.554,0.18-0.765c0.059-0.209,0.119-0.464,0.18-0.765c0-0.299,0.03-0.509,0.09-0.63c0-0.299,0-0.63,0-0.99
		c0-0.36,0.029-0.72,0.09-1.08c0.059-0.419,0.12-0.84,0.18-1.26c0.059-0.419,0.149-0.869,0.27-1.35
		c0.059-0.18,0.104-0.374,0.135-0.585c0.029-0.209,0.104-0.405,0.225-0.585v-0.18c-0.121-0.18-0.166-0.345-0.135-0.495
		c0.03-0.149,0.045-0.284,0.045-0.405c0.059-0.419,0.09-0.81,0.09-1.17c0-0.36,0.029-0.75,0.09-1.17c0-0.36,0.014-0.734,0.045-1.125
		c0.03-0.39,0.075-0.794,0.135-1.215c0.12-0.84,0.254-1.695,0.405-2.565c0.149-0.869,0.315-1.755,0.495-2.655
		c0.12-0.599,0.225-1.17,0.315-1.71s0.225-1.109,0.405-1.71c0.36-1.26,0.81-2.399,1.35-3.42l0.54-0.81
		c0.18-0.18,0.27-0.419,0.27-0.72c0-0.599,0.27-1.08,0.81-1.44c0.12-0.059,0.194-0.119,0.225-0.18
		c0.029-0.059,0.104-0.12,0.225-0.18c0.18-0.18,0.389-0.209,0.63-0.09c0.059,0.061,0.104,0.09,0.135,0.09
		c0.03,0,0.075,0.031,0.135,0.09l1.08,0.81c0.12,0.061,0.194,0.121,0.225,0.18c0.029,0.061,0.104,0.121,0.225,0.18
		c0.18,0.301,0.45,0.36,0.81,0.18c0.3-0.12,0.509-0.059,0.63,0.18c0.059,0.061,0.21,0.09,0.45,0.09
		c0.239,0.061,0.329,0.211,0.27,0.45c-0.121,0.121-0.166,0.225-0.135,0.315c0.029,0.09,0.045,0.195,0.045,0.315
		c0.119,0.241,0.209,0.45,0.27,0.63c0.059,0.18,0.09,0.42,0.09,0.72v0.09c0.239,0.36,0.329,0.751,0.27,1.17
		c-0.061,0.061-0.031,0.211,0.09,0.45c0.12,0.24,0.149,0.51,0.09,0.81c0,0.121,0.014,0.211,0.045,0.27
		c0.029,0.061,0.045,0.15,0.045,0.27c0.059,0.18,0.12,0.346,0.18,0.495c0.059,0.151,0.119,0.315,0.18,0.495
		c-0.481,0-0.81-0.029-0.99-0.09c0,0.481,0.119,0.751,0.36,0.81c0.18,0.121,0.329,0.195,0.45,0.225
		c0.119,0.031,0.209,0.135,0.27,0.315c0,0.121,0.014,0.256,0.045,0.405c0.029,0.15-0.016,0.286-0.135,0.405
		c-0.121,0.121-0.166,0.225-0.135,0.315c0.029,0.09-0.016,0.195-0.135,0.315l-0.36,0.36c-0.36,0.36-0.36,0.661,0,0.9
		c0.059,0,0.149,0.061,0.27,0.18c-0.121,0.24-0.211,0.45-0.27,0.63c-0.061,0.121-0.09,0.196-0.09,0.225
		c0,0.031-0.031,0.105-0.09,0.225c-0.061,0.301-0.09,0.571-0.09,0.81c0,0.24-0.031,0.51-0.09,0.81c0,0.121-0.061,0.24-0.18,0.36
		c-0.121,0.481-0.18,0.81-0.18,0.99c-0.06,0.18-0.105,0.346-0.135,0.495c-0.031,0.15-0.135,0.286-0.315,0.405
		c-0.121,0.121-0.241,0.391-0.36,0.81c0,0.18,0.014,0.36,0.045,0.54c0.029,0.18,0.045,0.391,0.045,0.63
		c0,0.121-0.016,0.24-0.045,0.36c-0.031,0.121-0.045,0.24-0.045,0.36v0.18c0,0.481-0.15,1.08-0.45,1.8
		c-0.121,0.121-0.211,0.241-0.27,0.36c0,0.061-0.016,0.105-0.045,0.135c-0.031,0.031-0.045,0.076-0.045,0.135
		c0,0.241-0.031,0.45-0.09,0.63c-0.061,0.18-0.121,0.33-0.18,0.45v0.36c0,0.24,0.014,0.465,0.045,0.675
		c0.029,0.211,0.045,0.436,0.045,0.675c0,0.36-0.09,0.571-0.27,0.63l-0.18,0.18c-0.06,0.36-0.15,0.69-0.27,0.99
		c-0.121,0.301-0.15,0.63-0.09,0.99c0.059,0.121,0.059,0.256,0,0.405c-0.061,0.15-0.09,0.315-0.09,0.495
		c0,0.18,0.029,0.391,0.09,0.63c0.059,0.24,0.12,0.481,0.18,0.72c0,0.36,0,0.72,0,1.08s-0.031,0.72-0.09,1.08
		c0,0.121-0.015,0.211-0.045,0.27c-0.031,0.061-0.045,0.121-0.045,0.18c0,0.06-0.016,0.105-0.045,0.135
		c-0.031,0.031-0.045,0.076-0.045,0.135c0.12,0.301,0.059,0.78-0.18,1.44c-0.121,0.36-0.211,0.661-0.27,0.9
		c0,0.18,0.03,0.301,0.09,0.36c0.12,0.301,0.12,0.63,0,0.99c-0.121,0.18-0.121,0.36,0,0.54v0.36c0,0.36,0.03,0.661,0.09,0.9v0.72
		c-0.18,0.42-0.18,0.81,0,1.17v0.36c-0.121,0.121-0.18,0.27-0.18,0.45c0,0.18-0.061,0.33-0.18,0.45l-0.09,0.18
		c0.059,0.301,0.09,0.571,0.09,0.81c0,0.24,0.029,0.51,0.09,0.81c-0.061,0.06-0.211,0.15-0.45,0.27c0.18,0.301,0.3,0.796,0.36,1.485
		c0.059,0.69,0.029,1.186-0.09,1.485c0.18,0.18,0.3,0.331,0.36,0.45c0.12,0.36,0.18,0.661,0.18,0.9v0.72c0,0.18,0.03,0.33,0.09,0.45
		c0.12,0.301,0.194,0.616,0.225,0.945c0.03,0.331,0.045,0.675,0.045,1.035c-0.121,0.42-0.06,0.751,0.18,0.99
		c0.059,0.121,0.075,0.211,0.045,0.27c-0.031,0.06-0.045,0.15-0.045,0.27c0.059,0.121,0.09,0.27,0.09,0.45v0.27
		c-0.24,0.661-0.391,1.23-0.45,1.71c-0.061,0.121-0.105,0.225-0.135,0.315c-0.031,0.09-0.105,0.166-0.225,0.225
		c-0.121,0-0.18,0.061-0.18,0.18c0,0.24-0.061,0.42-0.18,0.54c-0.121,0.121-0.24,0.24-0.36,0.36c-0.241,0.24-0.36,0.51-0.36,0.81
		c0.059,0.18,0.029,0.331-0.09,0.45c0,0.061-0.015,0.09-0.045,0.09c-0.031,0-0.045,0.031-0.045,0.09v0.09
		c-0.18,0-0.301,0.061-0.36,0.18c-0.061,0.121-0.15,0.241-0.27,0.36c-0.301,0.301-0.69,0.391-1.17,0.27
		c-0.421-0.059-0.781,0.121-1.08,0.54c-0.061,0.061-0.09,0.121-0.09,0.18c-0.24-0.12-0.45-0.254-0.63-0.405
		c-0.18-0.149-0.391-0.284-0.63-0.405c-0.061,0.121-0.121,0.195-0.18,0.225c-0.061,0.031-0.09,0.105-0.09,0.225
		c-0.301,0.661-0.751,0.9-1.35,0.72v-0.27l-0.09-0.09c-0.301,0.061-0.54,0-0.72-0.18c-0.18-0.12-0.42-0.329-0.72-0.63
		c-0.18-0.059-0.27-0.27-0.27-0.63c0.059-0.239-0.061-0.509-0.36-0.81c-0.121-0.059-0.241-0.239-0.36-0.54
		c0-0.239-0.18-0.419-0.54-0.54c-0.061-0.059-0.121-0.09-0.18-0.09c-0.061,0-0.121-0.03-0.18-0.09c-0.18-0.059-0.27-0.149-0.27-0.27
		c-0.061-0.18-0.09-0.36-0.09-0.54c0-0.18-0.031-0.36-0.09-0.54c0-0.3-0.06-0.479-0.18-0.54c-0.301-0.239-0.511-0.63-0.63-1.17
		c-0.061-0.36-0.18-0.689-0.36-0.99c-0.18-0.299-0.36-0.599-0.54-0.9c-0.18-0.3-0.375-0.599-0.585-0.9
		c-0.211-0.3-0.405-0.599-0.585-0.9c-0.061-0.059-0.09-0.149-0.09-0.27v-0.18c-0.36-0.479-0.601-0.84-0.72-1.08
		c-0.061-0.12-0.09-0.209-0.09-0.27c0-0.059-0.031-0.12-0.09-0.18c0-0.239-0.031-0.419-0.09-0.54
		c-0.121-0.119-0.225-0.27-0.315-0.45c-0.09-0.18-0.195-0.329-0.315-0.45c-0.121-0.12-0.18-0.209-0.18-0.27
		c-0.24-0.599-0.48-0.99-0.72-1.17c0-0.18-0.045-0.329-0.135-0.45c-0.09-0.12-0.195-0.239-0.315-0.36
		c-0.36-0.299-0.481-0.689-0.36-1.17v-0.18c-0.18-0.119-0.346-0.239-0.495-0.36c-0.15-0.12-0.285-0.239-0.405-0.36
		c-0.121-0.12-0.27-0.09-0.45,0.09c-0.301,0.241-0.51,0.571-0.63,0.99c-0.121,0.301-0.24,0.54-0.36,0.72
		c-0.121,0.18-0.27,0.391-0.45,0.63c-0.061,0.121-0.135,0.24-0.225,0.36c-0.09,0.121-0.105,0.27-0.045,0.45
		c0,0.121-0.031,0.18-0.09,0.18c-0.18,0.301-0.301,0.571-0.36,0.81c-0.061,0.24-0.151,0.51-0.27,0.81v0.18
		c-0.241,0.36-0.36,0.736-0.36,1.125c0,0.391-0.031,0.765-0.09,1.125c0,0.241-0.061,0.54-0.18,0.9c-0.24,0.42-0.391,0.841-0.45,1.26
		c-0.061,0.121-0.105,0.241-0.135,0.36c-0.031,0.121-0.105,0.241-0.225,0.36c-0.24,0.24-0.301,0.481-0.18,0.72
		c0.059,0.121,0.059,0.256,0,0.405c-0.061,0.15-0.09,0.285-0.09,0.405c-0.061,0.121-0.09,0.241-0.09,0.36v0.18
		c-0.18,0.18-0.256,0.375-0.225,0.585c0.03,0.211-0.015,0.405-0.135,0.585c0.059,0.42-0.121,0.841-0.54,1.26
		c0,0.061-0.031,0.121-0.09,0.18v0.81c0,0.301-0.121,0.511-0.36,0.63c-0.24,0.121-0.42,0.286-0.54,0.495
		c-0.121,0.211-0.24,0.405-0.36,0.585c-0.061,0-0.105,0.031-0.135,0.09c-0.031,0.06-0.076,0.09-0.135,0.09
		c-0.18,0.121-0.36,0.195-0.54,0.225c-0.18,0.031-0.36,0.105-0.54,0.225c-0.18,0.121-0.36,0.121-0.54,0
		c-0.48-0.059-0.841,0.06-1.08,0.36c-0.061,0.24-0.27,0.36-0.63,0.36c-0.121,0-0.36,0.061-0.72,0.18c-0.481,0-0.841,0.031-1.08,0.09
		h-0.36c-0.301,0.121-0.585,0.166-0.855,0.135c-0.27-0.03-0.556-0.045-0.855-0.045c-0.18,0.061-0.45,0.031-0.81-0.09
		c-0.18,0-0.27-0.12-0.27-0.36c-0.121-0.3-0.27-0.479-0.45-0.54c-0.18-0.059-0.331-0.209-0.45-0.45
		c-0.121-0.299-0.241-0.585-0.36-0.855c-0.121-0.27-0.24-0.554-0.36-0.855c-0.061-0.18-0.121-0.344-0.18-0.495
		c-0.06-0.149-0.031-0.344,0.09-0.585c0.12-0.119,0.135-0.194,0.045-0.225C141.76,168.129,141.684,168.084,141.625,168.023z
		 M144.055,145.704l0.27-0.27c0-0.3-0.121-0.39-0.36-0.27c-0.06,0-0.15,0.061-0.27,0.18c0.059,0.061,0.12,0.105,0.18,0.135
		C143.934,145.509,143.995,145.584,144.055,145.704z M174.295,145.434c-0.18,0-0.27,0.15-0.27,0.45c0,0.18,0.09,0.27,0.27,0.27
		c0.18,0,0.27-0.12,0.27-0.36C174.565,145.554,174.475,145.434,174.295,145.434z M177.175,136.073c0.059,0.121,0.18,0.27,0.36,0.45
		c0.239,0.121,0.419,0.121,0.54,0c0.119-0.12,0.119-0.27,0-0.45c-0.121-0.119-0.18-0.209-0.18-0.27
		C177.535,135.924,177.294,136.014,177.175,136.073z M178.525,114.474c0.239,0,0.36-0.09,0.36-0.27
		c0.059-0.239,0.209-0.39,0.45-0.45c0.239-0.18,0.239-0.36,0-0.54c-0.121-0.12-0.211-0.18-0.27-0.18
		c-0.18-0.059-0.346-0.104-0.495-0.135c-0.15-0.029-0.315-0.045-0.495-0.045c-0.36,0-0.54,0.121-0.54,0.36
		c-0.061,0.301,0.014,0.585,0.225,0.855C177.97,114.338,178.224,114.474,178.525,114.474z"/>
	<path d="M185.634,113.213c0.06-0.059,0.12-0.09,0.181-0.09c0.479,0,0.839-0.059,1.08-0.18c0.54-0.18,0.989-0.209,1.351-0.09
		c0.18,0.061,0.479,0.09,0.899,0.09h2.521c0.839,0,1.633,0.061,2.385,0.18c0.749,0.121,1.543,0.24,2.385,0.36
		c0.299,0,0.614,0.031,0.945,0.09c0.328,0.061,0.644,0.121,0.944,0.18c0.3,0.061,0.599,0.105,0.9,0.135
		c0.3,0.031,0.599,0.076,0.899,0.135c0.541,0.121,0.959,0.15,1.26,0.09c0.301,0,0.689,0.061,1.171,0.18
		c0.359,0,0.72,0.016,1.08,0.045c0.359,0.031,0.72,0.076,1.08,0.135h0.09c0.479-0.059,0.914-0.09,1.305-0.09c0.39,0,0.824,0,1.305,0
		h1.44c0.3,0,0.569,0.016,0.81,0.045c0.239,0.031,0.51,0.016,0.811-0.045c0.419-0.059,0.824-0.059,1.215,0
		c0.39,0.061,0.765,0.15,1.125,0.27c0.3,0.061,0.614,0.121,0.945,0.18c0.329,0.061,0.644,0.15,0.944,0.27
		c0.06,0,0.104,0.016,0.136,0.045c0.029,0.031,0.074,0.045,0.135,0.045c0.3,0.121,0.569,0.286,0.81,0.495
		c0.239,0.211,0.51,0.286,0.811,0.225c0.059,0.24,0.014,0.391-0.136,0.45c-0.15,0.061-0.285,0.151-0.404,0.27
		c0,0.18,0.074,0.315,0.225,0.405c0.149,0.09,0.284,0.195,0.405,0.315c0.119,0,0.254,0.016,0.405,0.045
		c0.148,0.031,0.283,0.045,0.404,0.045c0.3-0.12,0.569-0.059,0.811,0.18c0.119,0,0.209,0.031,0.27,0.09
		c0.12,0.061,0.226,0.09,0.315,0.09s0.193,0.031,0.314,0.09c0.181,0.121,0.271,0.331,0.271,0.63c0,0.061,0.09,0.18,0.27,0.36
		c-0.121,0.301-0.166,0.481-0.135,0.54c0.029,0.061,0.194,0.211,0.495,0.45c-0.061,0.36-0.24,0.571-0.54,0.63
		c-0.121,0-0.24,0.016-0.36,0.045c-0.121,0.031-0.24,0.045-0.359,0.045c-0.481,0.241-0.54,0.54-0.181,0.9
		c0.12,0.121,0.181,0.36,0.181,0.72c0,0.241,0,0.465,0,0.675c0,0.211,0.119,0.375,0.359,0.495c0.06,0.42-0.121,0.781-0.54,1.08
		c-0.18,0.121-0.346,0.241-0.495,0.36c-0.15,0.121-0.314,0.211-0.494,0.27c-0.181,0-0.271,0.151-0.271,0.45
		c0,0.301-0.18,0.571-0.54,0.81c-0.18,0.18-0.359,0.211-0.54,0.09c-0.18-0.12-0.33-0.12-0.45,0c-0.061,0.061-0.15,0.09-0.27,0.09
		c-0.301,0.06-0.585,0.121-0.855,0.18c-0.27,0.061-0.555,0.031-0.854-0.09c-0.301-0.12-0.54-0.12-0.72,0
		c-0.302,0.24-0.511,0.15-0.631-0.27c-0.06,0.061-0.105,0.09-0.135,0.09c-0.03,0-0.076,0.031-0.135,0.09
		c-0.36,0.36-0.72,0.391-1.08,0.09c-0.18-0.18-0.36-0.209-0.54-0.09c-0.18,0.06-0.42,0-0.72-0.18c-0.24-0.12-0.421-0.18-0.54-0.18
		c-0.24-0.059-0.45-0.12-0.63-0.18c-0.181-0.059-0.36-0.059-0.54,0c-0.061,0-0.09-0.03-0.09-0.09
		c-0.181-0.18-0.392-0.284-0.63-0.315c-0.241-0.029-0.45-0.104-0.631-0.225c-0.12,0-0.211-0.029-0.27-0.09
		c-0.121-0.18-0.391-0.329-0.811-0.45c-0.06-0.119-0.06-0.225,0-0.315c0.06-0.09,0-0.194-0.18-0.315
		c-0.061,0.061-0.09,0.105-0.09,0.135c0,0.031-0.031,0.076-0.09,0.135c-0.24,0.241-0.45,0.241-0.63,0
		c-0.061-0.12-0.241-0.27-0.54-0.45c-0.601-0.12-0.841,0.09-0.721,0.63c0.06,0.121,0.091,0.225,0.091,0.315s0.029,0.195,0.09,0.315
		c0.059,0.121,0.135,0.225,0.225,0.315s0.194,0.195,0.315,0.315c0.18,0.18,0.209,0.42,0.09,0.72c-0.061,0.24,0.029,0.391,0.27,0.45
		c0.239,0.061,0.39,0.211,0.45,0.45c0.06,0.18,0.09,0.346,0.09,0.495c0,0.15,0.03,0.285,0.091,0.405c0,0.121,0.029,0.211,0.09,0.27
		c0.059,0.061,0.148,0.15,0.27,0.27c-0.061,0.18-0.09,0.375-0.09,0.585c0,0.211-0.061,0.436-0.18,0.675v0.18
		c0.119,0.121,0.148,0.256,0.09,0.405c-0.061,0.15-0.09,0.285-0.09,0.405c0,0.241-0.121,0.601-0.36,1.08
		c-0.061,0.301-0.15,0.69-0.27,1.17c-0.061,0.121-0.091,0.241-0.091,0.36c0,0.121-0.03,0.241-0.09,0.36
		c-0.121,0.18-0.18,0.481-0.18,0.9v0.54c-0.18,0.481-0.211,0.96-0.09,1.44c0,0.24-0.031,0.391-0.09,0.45
		c-0.121,0.18-0.181,0.346-0.181,0.495c0,0.15-0.03,0.315-0.09,0.495c0,0.301-0.061,0.69-0.18,1.17
		c-0.181,0.601-0.24,1.17-0.181,1.71c0.06,0.301,0.12,0.63,0.181,0.99c0.059,0.36,0.119,0.69,0.18,0.99
		c0.06,0.301,0.149,0.601,0.271,0.9c0.119,0.301,0.119,0.6,0,0.9c0,0.061,0.029,0.09,0.09,0.09c0.18,0.42,0.119,0.81-0.181,1.17
		c0.239,0.301,0.3,0.601,0.181,0.9c0,0.121,0.059,0.241,0.18,0.36c0.119,0.061,0.18,0.24,0.18,0.54c-0.12,0.301-0.12,0.54,0,0.72
		v0.18c-0.061,0.301-0.105,0.555-0.135,0.765c-0.031,0.211-0.076,0.465-0.135,0.765v0.18c0.119,0.301,0.149,0.556,0.09,0.765
		c-0.061,0.211-0.121,0.465-0.18,0.765c-0.061,0.241-0.121,0.481-0.181,0.72c-0.06,0.24-0.12,0.481-0.18,0.72
		c-0.061,0.18-0.09,0.346-0.09,0.495c0,0.15-0.031,0.315-0.09,0.495c-0.061,0.301-0.09,0.601-0.09,0.9
		c0,0.301-0.061,0.601-0.181,0.9c-0.121,0.36-0.15,0.661-0.09,0.9c0.12,0.301,0.12,0.6,0,0.9c-0.061,0.18-0.105,0.36-0.135,0.54
		c-0.031,0.18-0.105,0.331-0.225,0.45c-0.181,0-0.181,0.09,0,0.27c0.059,0.42,0.074,0.81,0.045,1.17
		c-0.031,0.36-0.076,0.751-0.136,1.17c-0.061,0.121-0.075,0.256-0.045,0.405c0.03,0.15,0.015,0.315-0.045,0.495
		c0,0.24-0.061,0.601-0.18,1.08c-0.061,0.301-0.105,0.616-0.135,0.945c-0.031,0.331-0.016,0.646,0.045,0.945
		c0,0.481-0.031,0.931-0.09,1.35c-0.061,0.42-0.211,0.841-0.45,1.26c-0.24,0.6-0.45,1.021-0.631,1.26c-0.12,0.301-0.12,0.511,0,0.63
		c0.12,0.121,0.195,0.225,0.226,0.315c0.03,0.09,0.075,0.196,0.136,0.315c-0.121,0.121-0.241,0.18-0.361,0.18s-0.18,0.061-0.18,0.18
		c-0.121,0.36-0.18,0.571-0.18,0.63c-0.359-0.059-0.721-0.059-1.08,0c-0.359,0.061-0.69,0.09-0.99,0.09
		c-0.42,0-0.81-0.014-1.17-0.045c-0.359-0.029-0.72-0.045-1.08-0.045c-0.061,0-0.121,0.031-0.18,0.09
		c-0.301,0.121-0.556,0.151-0.766,0.09c-0.211-0.059-0.465-0.12-0.764-0.18l-0.361-0.18h-0.27c-0.121,0.121-0.225,0.166-0.314,0.135
		c-0.09-0.03-0.195-0.075-0.315-0.135c-0.24,0-0.392-0.09-0.45-0.27c-0.121-0.18-0.121-0.45,0-0.81c0.119-0.36,0.18-0.599,0.18-0.72
		c0-0.419-0.045-0.824-0.135-1.215c-0.09-0.39-0.166-0.794-0.225-1.215c0-0.119-0.016-0.27-0.045-0.45
		c-0.031-0.18-0.045-0.329-0.045-0.45v-0.18c0-0.18-0.031-0.36-0.09-0.54c-0.061-0.18-0.061-0.39,0-0.63
		c0-0.18-0.016-0.374-0.045-0.585c-0.031-0.209-0.045-0.405-0.045-0.585c0-0.299-0.016-0.554-0.045-0.765
		c-0.031-0.21-0.045-0.464-0.045-0.765c0-0.12-0.016-0.209-0.046-0.27c-0.03-0.059-0.045-0.12-0.045-0.18v-0.18
		c0.06-0.419,0.045-0.824-0.045-1.215c-0.09-0.389-0.105-0.794-0.045-1.215c0.06-0.54,0.09-1.064,0.09-1.575
		c0-0.509,0-1.004,0-1.485c0.12-1.319,0.091-2.489-0.09-3.51v-0.36c0.181-0.779,0.21-1.679,0.09-2.7c-0.061-0.3-0.09-0.57-0.09-0.81
		c0-0.239,0-0.509,0-0.81v-0.81c-0.061-0.299-0.09-0.599-0.09-0.9c0-0.3,0-0.599,0-0.9c0-0.12-0.016-0.209-0.046-0.27
		c-0.03-0.059-0.045-0.149-0.045-0.27c0.06-0.3,0.091-0.599,0.091-0.9c0-0.3,0-0.599,0-0.9v-1.53
		c0.06-0.419,0.074-0.824,0.045-1.215c-0.031-0.39-0.016-0.795,0.045-1.215v-0.54c0.06-0.119,0.09-0.239,0.09-0.36
		c-0.061-0.299-0.061-0.554,0-0.765c0.06-0.209,0.12-0.435,0.181-0.675c0.119-0.54,0.238-1.064,0.359-1.575
		c0.119-0.509,0.18-1.064,0.18-1.665c0-0.239,0.015-0.464,0.045-0.675c0.029-0.209,0.075-0.464,0.135-0.765
		c0.06-0.299,0.105-0.554,0.136-0.765c0.029-0.21,0.075-0.464,0.135-0.765c0.12-0.3,0.239-0.75,0.36-1.35
		c0.119-0.36,0.209-0.705,0.27-1.035c0.06-0.329,0.119-0.644,0.18-0.945c0.06-0.299,0.104-0.585,0.136-0.855
		c0.029-0.27,0.045-0.554,0.045-0.855l0.271-1.35l0.27-1.08c0-0.299,0.045-0.554,0.135-0.765c0.09-0.21,0.194-0.435,0.314-0.675
		c0.06-0.12,0.091-0.225,0.091-0.315s0.029-0.194,0.09-0.315c0.12-0.36,0.239-0.599,0.36-0.72c0.359-0.659,0.18-1.08-0.541-1.26
		c-0.24,0-0.539-0.059-0.899-0.18c-0.18-0.12-0.346-0.209-0.495-0.27c-0.15-0.059-0.314-0.149-0.494-0.27
		c-0.121-0.059-0.271-0.119-0.451-0.18c-0.18-0.059-0.359-0.12-0.539-0.18c-0.301-0.12-0.602-0.194-0.9-0.225
		c-0.301-0.029-0.601-0.104-0.9-0.225c-0.301-0.119-0.584-0.239-0.854-0.36c-0.271-0.12-0.526-0.329-0.765-0.63
		c-0.121-0.18-0.271-0.27-0.451-0.27c-0.12,0-0.195-0.014-0.225-0.045c-0.031-0.03-0.076-0.045-0.135-0.045
		c-0.301-0.239-0.57-0.435-0.811-0.585c-0.24-0.149-0.449-0.374-0.629-0.675c-0.061,0-0.105-0.014-0.135-0.045
		c-0.031-0.029-0.076-0.045-0.136-0.045l-0.271-0.27c-0.121-0.239-0.256-0.419-0.404-0.54c-0.15-0.12-0.285-0.27-0.405-0.45
		c-0.12-0.119-0.195-0.209-0.226-0.27C185.648,113.514,185.634,113.393,185.634,113.213z"/>
	<path d="M226.313,157.673c-0.18-0.059-0.256-0.18-0.225-0.36c0.029-0.18-0.016-0.36-0.135-0.54c-0.061,0.121-0.09,0.27-0.09,0.45
		c-0.241-0.18-0.36-0.45-0.36-0.81v-0.63c0-0.3-0.016-0.63-0.045-0.99c-0.031-0.36-0.076-0.72-0.135-1.08
		c0-0.419,0.18-0.63,0.54-0.63c-0.181-0.18-0.271-0.3-0.271-0.36c0.3-0.54,0.345-1.035,0.135-1.485
		c-0.211-0.45-0.436-0.914-0.675-1.395l0.09-0.09c0.239,0,0.42-0.029,0.54-0.09c0.06,0,0.075-0.12,0.045-0.36
		c-0.03-0.239-0.075-0.389-0.135-0.45c-0.061-0.059-0.09-0.149-0.09-0.27c0.06-0.479,0.119-0.975,0.18-1.485
		c0.06-0.509,0.091-1.035,0.091-1.575c-0.121-0.479-0.091-0.959,0.09-1.44c0-0.36,0.029-0.63,0.09-0.81
		c0-0.36,0.014-0.705,0.045-1.035c0.029-0.329,0.074-0.675,0.135-1.035c0-0.18,0.06-0.329,0.18-0.45
		c0.06,0.18,0.104,0.346,0.136,0.495c0.029,0.15-0.016,0.285-0.136,0.405v0.27c0,0.36,0.015,0.72,0.046,1.08
		c0.029,0.36,0.045,0.69,0.045,0.99c-0.302,0.301-0.466,0.526-0.495,0.675c-0.031,0.15,0.074,0.405,0.314,0.765
		c0,0.18,0.03,0.331,0.09,0.45v0.45c-0.06,0.121-0.12,0.256-0.18,0.405c-0.061,0.151-0.121,0.286-0.18,0.405
		c0.119,0.18,0.225,0.331,0.314,0.45c0.091,0.121,0.194,0.241,0.315,0.36c0.18,0.18,0.18,0.27,0,0.27
		c-0.061,0.24-0.031,0.6,0.09,1.08c0.06,0.121,0.074,0.256,0.045,0.405c-0.03,0.15-0.045,0.286-0.045,0.405
		c0.06,0.121,0.074,0.241,0.045,0.36c-0.03,0.121,0.015,0.24,0.135,0.36v0.27c0,0.121,0.06,0.301,0.181,0.54
		c0,0.061,0.014,0.121,0.045,0.18c0.029,0.061,0.045,0.151,0.045,0.27v1.62c0,0.36,0.029,0.63,0.09,0.81
		c0.06,0.121,0.06,0.195,0,0.225c-0.061,0.031-0.09,0.076-0.09,0.135c0.119,0.36,0.239,0.63,0.36,0.81h0.09v-1.71
		c-0.061-0.66-0.105-1.319-0.136-1.98c-0.03-0.66-0.045-1.319-0.045-1.98c-0.061-0.479-0.075-0.93-0.045-1.35
		c0.03-0.419,0.045-0.839,0.045-1.26c0-0.3,0.015-0.615,0.045-0.945c0.03-0.329,0.015-0.644-0.045-0.945c0-0.12,0-0.239,0-0.36
		c0-0.12-0.09-0.209-0.27-0.27c-0.18,0-0.211-0.209-0.09-0.63c0.059-0.36,0.119-0.72,0.18-1.08c0.06-0.36,0.09-0.72,0.09-1.08
		c0-0.18,0.09-0.329,0.271-0.45c0.239,0,0.359-0.12,0.359-0.36v-0.9c0-0.059-0.03-0.104-0.09-0.135
		c-0.061-0.029-0.09-0.074-0.09-0.135c-0.121-0.12-0.301-0.36-0.54-0.72c0.06,0,0.09-0.029,0.09-0.09
		c0.12,0.061,0.271,0.09,0.45,0.09c0.06-0.299-0.031-0.464-0.27-0.495c-0.241-0.03-0.421-0.135-0.54-0.315
		c-0.121,0.241-0.302,0.391-0.54,0.45c-0.121-0.419-0.166-0.839-0.136-1.26c0.03-0.419-0.135-0.779-0.494-1.08
		c0.238-0.059,0.359-0.27,0.359-0.63c0-0.119-0.016-0.254-0.045-0.405c-0.031-0.149,0.014-0.284,0.135-0.405v-0.09
		c0-0.059-0.016-0.09-0.045-0.09c-0.03,0-0.045-0.03-0.045-0.09c-0.121-0.239-0.195-0.45-0.225-0.63
		c-0.031-0.18,0.014-0.419,0.135-0.72c0.059-0.12,0.074-0.254,0.045-0.405c-0.031-0.149-0.045-0.284-0.045-0.405
		c0-0.12,0.014-0.194,0.045-0.225c0.029-0.029,0.045-0.075,0.045-0.135h0.18c0,0.06,0.015,0.105,0.046,0.135
		c0.029,0.031,0.045,0.076,0.045,0.135c0.059,0.18,0.09,0.346,0.09,0.495c0,0.151,0.059,0.286,0.18,0.405c0.12,0,0.12,0.061,0,0.18
		c-0.18,0.301-0.09,0.63,0.271,0.99c-0.241,0.24-0.36,0.481-0.36,0.72c0,0.24,0.18,0.54,0.54,0.9c0-0.12,0.014-0.209,0.045-0.27
		c0.029-0.059,0.045-0.12,0.045-0.18c0-0.12-0.016-0.209-0.045-0.27c-0.031-0.059-0.045-0.149-0.045-0.27
		c0-0.18,0.059-0.45,0.18-0.81h0.09c-0.12-0.239-0.24-0.45-0.359-0.63c0.119-0.059,0.209-0.09,0.27-0.09
		c0.06,0,0.149-0.03,0.271-0.09v-0.18c-0.241-0.3-0.331-0.57-0.271-0.81c0.06-0.239,0.09-0.509,0.09-0.81
		c0.12-0.599,0.181-1.02,0.181-1.26c0.119-0.239,0.18-0.419,0.18-0.54c0-0.059,0.014-0.12,0.045-0.18
		c0.029-0.059,0.045-0.12,0.045-0.18c0-0.419,0.029-0.75,0.09-0.99c0-0.059,0.06-0.149,0.181-0.27
		c-0.301-0.36-0.405-0.734-0.315-1.125c0.09-0.39,0.194-0.794,0.315-1.215c0-0.18,0.029-0.36,0.09-0.54
		c0.059-0.18,0.148-0.39,0.27-0.63c-0.359,0.121-0.601,0.241-0.72,0.36v0.36v0.36c-0.24,0.061-0.301,0.241-0.18,0.54
		c0,0.061-0.061,0.15-0.181,0.27l-0.18-0.09c-0.121-0.18-0.211-0.345-0.27-0.495c-0.061-0.149-0.121-0.315-0.181-0.495
		c-0.121-0.36-0.121-0.689,0-0.99c0.06-0.3,0.104-0.585,0.136-0.855c0.029-0.27,0.164-0.525,0.404-0.765
		c0.06-0.059,0.09-0.135,0.09-0.225c0-0.09,0.03-0.194,0.091-0.315c0.18-0.18,0.329-0.54,0.449-1.08
		c0-0.059,0.045-0.135,0.136-0.225c0.09-0.09,0.193-0.104,0.314-0.045c0.239,0.18,0.36,0.42,0.36,0.72
		c-0.061,0.301-0.121,0.63-0.181,0.99c-0.06,0.36-0.12,0.69-0.18,0.99c0,0.121,0.06,0.36,0.18,0.72
		c0.12-0.239,0.194-0.464,0.226-0.675c0.029-0.209,0.104-0.405,0.225-0.585c0.12-0.299,0.226-0.554,0.315-0.765
		c0.09-0.209,0.194-0.435,0.314-0.675c0.06-0.239,0.12-0.45,0.181-0.63c0.059-0.18,0.148-0.39,0.27-0.63
		c0.06-0.119,0.104-0.225,0.135-0.315c0.03-0.09,0.075-0.194,0.136-0.315l0.09-0.09c-0.061-0.239-0.031-0.45,0.09-0.63
		c0.119-0.18,0.239-0.39,0.36-0.63v-0.09c-0.241,0.061-0.45,0.195-0.63,0.405c-0.181,0.211-0.421,0.256-0.721,0.135
		c0.06-0.239,0.09-0.464,0.09-0.675c0-0.21,0.03-0.435,0.091-0.675c0.238,0,0.389-0.029,0.449-0.09
		c0.06-0.059,0.091-0.18,0.091-0.36c0.059-0.059,0.074-0.135,0.045-0.225c-0.031-0.09-0.016-0.135,0.045-0.135
		c0.18-0.059,0.314-0.149,0.404-0.27c0.091-0.12,0.226-0.209,0.405-0.27c0.3-0.059,0.569-0.36,0.811-0.9
		c-0.421-0.479-0.302-0.81,0.359-0.99c0.3-0.12,0.569-0.225,0.811-0.315c0.238-0.09,0.509-0.194,0.81-0.315
		c0.239-0.119,0.479-0.194,0.72-0.225c0.239-0.03,0.479-0.075,0.721-0.135c0.359,0,0.63,0.031,0.81,0.09h0.36
		c0.299,0,0.614-0.014,0.944-0.045c0.329-0.029,0.645-0.074,0.945-0.135c0.36,0,0.72,0,1.08,0s0.72,0.031,1.08,0.09h0.72
		c0-0.18,0.029-0.299,0.09-0.36c0.06,0,0.091,0.031,0.091,0.09c0.119,0.121,0.238,0.195,0.359,0.225
		c0.12,0.031,0.239,0.076,0.36,0.135c0.3,0,0.749,0.061,1.35,0.18c1.02,0.121,1.994,0.241,2.925,0.36
		c0.93,0.121,1.904,0.241,2.926,0.36c0.54,0.121,1.064,0.256,1.574,0.405c0.51,0.15,1.035,0.286,1.575,0.405
		c0.06,0.061,0.12,0.105,0.181,0.135c0.059,0.031,0.119,0.076,0.18,0.135c0.359,0.481,0.659,1.141,0.899,1.98
		c0.06,0.18,0.136,0.36,0.226,0.54c0.09,0.18,0.074,0.36-0.045,0.54c0.239,0.241,0.314,0.481,0.225,0.72
		c-0.09,0.24-0.076,0.481,0.045,0.72c0.181,0.301,0.149,0.691-0.09,1.17c-0.121,0.121-0.256,0.24-0.405,0.36
		c-0.15,0.121-0.314,0.24-0.495,0.36c-0.06,0-0.15,0.061-0.27,0.18c0,0.121,0.074,0.225,0.225,0.315
		c0.149,0.09,0.104,0.195-0.135,0.315c0.12,0.061,0.239,0.105,0.36,0.135c0.119,0.031,0.239,0.105,0.359,0.225
		c-0.12,0.121-0.256,0.225-0.404,0.315c-0.15,0.09-0.286,0.135-0.405,0.135c-0.301,0.061-0.54,0.166-0.72,0.315
		c-0.181,0.15-0.36,0.286-0.54,0.405c-0.421,0.301-0.826,0.421-1.215,0.36c-0.392-0.059-0.796-0.149-1.216-0.27
		c-0.12,0-0.301-0.12-0.54-0.36c-0.359-0.059-0.735-0.104-1.125-0.135c-0.391-0.029-0.796-0.075-1.215-0.135
		c-0.18-0.059-0.359-0.12-0.54-0.18c-0.18-0.059-0.359-0.03-0.54,0.09h-0.18c-0.121-0.18-0.285-0.27-0.495-0.27
		c-0.211,0-0.405,0-0.585,0c-0.061,0-0.105-0.014-0.135-0.045c-0.031-0.029-0.076-0.045-0.135-0.045
		c-0.121-0.059-0.226-0.12-0.315-0.18c-0.09-0.059-0.195-0.09-0.314-0.09c-0.181-0.059-0.347-0.104-0.495-0.135
		c-0.15-0.03-0.286-0.135-0.405-0.315c-0.121,0.301-0.256,0.466-0.405,0.495c-0.15,0.031-0.346,0.045-0.585,0.045h-0.45
		c-0.18,0.121-0.359,0.121-0.54,0c-0.24,0-0.48-0.059-0.72-0.18c-0.301,0-0.465,0.015-0.495,0.045
		c-0.03,0.031-0.075,0.195-0.135,0.495c0,0.24-0.031,0.45-0.09,0.63c-0.061,0.18-0.121,0.36-0.18,0.54
		c-0.121,0.301-0.241,0.601-0.36,0.9c-0.121,0.301-0.18,0.601-0.18,0.9c0.059,0.121,0.059,0.256,0,0.405
		c-0.061,0.15-0.121,0.285-0.181,0.405c-0.121,0.18-0.24,0.36-0.359,0.54c-0.121,0.18-0.241,0.391-0.36,0.63
		c-0.061,0.061-0.09,0.121-0.09,0.18c0.119,0.301,0.119,0.571,0,0.81c-0.121,0.24-0.121,0.51,0,0.81
		c0.059,0.121,0.074,0.211,0.045,0.27c-0.031,0.06-0.045,0.15-0.045,0.27c0,0.121,0.014,0.24,0.045,0.36
		c0.029,0.121,0.045,0.24,0.045,0.36c0.119,0.36,0.18,0.63,0.18,0.81l0.271,2.97c0.059,0.301,0.074,0.6,0.045,0.9
		c-0.031,0.301-0.076,0.6-0.135,0.9c0.119,0.061,0.27,0.09,0.449,0.09c0.479,0.121,0.93,0.196,1.351,0.225
		c0.419,0.031,0.869,0.076,1.35,0.135c0.66,0.121,1.335,0.256,2.025,0.405c0.688,0.15,1.395,0.166,2.115,0.045
		c0.119,0,0.209-0.014,0.27-0.045c0.06-0.03,0.149-0.045,0.271-0.045c0.419-0.12,0.54-0.03,0.359,0.27c0,0.24-0.061,0.481-0.18,0.72
		c-0.121,0.301-0.256,0.556-0.405,0.765c-0.15,0.211-0.285,0.465-0.405,0.765c-0.18,0.36-0.27,0.81-0.27,1.35
		c0,0.24,0.119,0.54,0.36,0.9c0.299,0.301,0.419,0.601,0.359,0.9c-0.24,0.301-0.57,0.42-0.99,0.36l0.181,0.36
		c0.419,0.42,0.39,0.87-0.09,1.35c-0.421,0.42-0.871,0.63-1.351,0.63c-0.061,0-0.211,0.06-0.45,0.18
		c-0.06-0.299-0.301-0.39-0.72-0.27c-0.18,0.061-0.511,0.15-0.99,0.27h-0.09c-0.301,0-0.585-0.014-0.854-0.045
		c-0.271-0.029-0.556-0.045-0.855-0.045c-0.121,0-0.211-0.014-0.27-0.045c-0.061-0.03-0.15-0.014-0.271,0.045
		c-0.661,0.18-1.291,0.18-1.89,0h-0.271c-0.12,0.42-0.211,0.81-0.27,1.17c-0.061,0.36-0.031,0.751,0.09,1.17
		c0.06,0.241,0.074,0.465,0.045,0.675c-0.031,0.211-0.045,0.465-0.045,0.765c-0.121,0-0.225,0.016-0.314,0.045
		c-0.091,0.031-0.196,0.045-0.315,0.045c-0.121,0.36-0.09,0.661,0.09,0.9c0.06,0.301,0.029,0.51-0.09,0.63
		c-0.421,0.42-0.54,0.871-0.36,1.35c0.12,0.18,0.09,0.36-0.09,0.54c-0.18,0.36-0.24,0.661-0.18,0.9
		c0.119,0.36,0.148,0.735,0.09,1.125c-0.061,0.391-0.15,0.735-0.27,1.035c-0.121,0.481-0.181,0.916-0.181,1.305
		c0,0.391,0,0.796,0,1.215c0.06,0.24,0.09,0.63,0.09,1.17c-0.24,0.18-0.27,0.45-0.09,0.81c0.06,0.18,0.09,0.51,0.09,0.99
		c0.06,0.301,0.091,0.616,0.091,0.945c0,0.33,0,0.645,0,0.945v0.18c-0.121,0.24-0.166,0.481-0.136,0.72
		c0.03,0.241,0.015,0.511-0.045,0.81c-0.121,0.301-0.18,0.63-0.18,0.99c0,0.36-0.031,0.69-0.09,0.99v0.36
		c-0.241,0.121-0.315,0.286-0.226,0.495c0.09,0.211,0.075,0.375-0.045,0.495c0.12,0.301,0.149,0.585,0.09,0.855
		c-0.061,0.27-0.061,0.555,0,0.855c0.06,0.481-0.09,0.9-0.449,1.26c-0.54,0.599-1.261,0.9-2.16,0.9h-1.44
		c-0.121,0-0.211-0.031-0.27-0.09c-0.301-0.121-0.585-0.195-0.855-0.225c-0.27-0.031-0.556-0.105-0.854-0.225
		c-0.061-0.3-0.105-0.585-0.136-0.855s-0.075-0.554-0.135-0.855c-0.121-0.3-0.211-0.585-0.27-0.855
		c-0.061-0.27-0.121-0.554-0.181-0.855h0.181c0,0.121,0.059,0.24,0.18,0.36l0.36,0.18c-0.061-0.239-0.09-0.509-0.09-0.81
		c-0.302,0-0.571-0.03-0.811-0.09c0-0.12,0-0.254,0-0.405c0-0.149-0.031-0.284-0.09-0.405c0.059-0.059,0.104-0.09,0.135-0.09
		c0.029,0,0.074-0.029,0.135-0.09c0.3-0.18,0.329-0.419,0.091-0.72c-0.121-0.12-0.181-0.239-0.181-0.36c0-0.36-0.18-0.509-0.54-0.45
		c-0.121-0.299-0.195-0.644-0.225-1.035c-0.031-0.39,0.014-0.705,0.135-0.945c-0.18-0.12-0.27-0.299-0.27-0.54
		c0-0.239-0.061-0.45-0.181-0.63c0-0.36-0.03-0.63-0.09-0.81c0.3-0.12,0.479-0.27,0.54-0.45c0.06-0.12,0.074-0.21,0.045-0.27
		c-0.03-0.059-0.045-0.149-0.045-0.27c-0.36-0.12-0.601-0.209-0.72-0.27c-0.121-0.059-0.18-0.239-0.18-0.54
		c0.119,0.061,0.238,0.105,0.359,0.135c0.12,0.031,0.271,0.076,0.45,0.135l-0.271-1.35h-0.359c-0.18,0-0.271-0.09-0.271-0.27
		c0-0.239-0.061-0.599-0.18-1.08c0.239,0.121,0.45,0.18,0.63,0.18C226.134,158.274,226.193,158.034,226.313,157.673
		c0.12,0.121,0.239,0.301,0.36,0.54c0-0.12,0.06-0.27,0.18-0.45c0.12-0.18,0.06-0.36-0.18-0.54
		C226.553,157.464,226.434,157.614,226.313,157.673z M225.504,134.273c0.239,0.241,0.3,0.63,0.18,1.17
		c-0.301-0.18-0.42-0.36-0.359-0.54C225.383,134.724,225.443,134.514,225.504,134.273z M226.584,129.503
		c0.239,0.301,0.3,0.63,0.18,0.99c-0.061,0.18-0.09,0.42-0.09,0.72c0,0.301-0.121,0.481-0.36,0.54c0-0.36,0-0.705,0-1.035
		c0-0.329-0.03-0.644-0.09-0.945C226.224,129.593,226.344,129.503,226.584,129.503z M226.584,129.503
		c-0.061-0.12-0.09-0.225-0.09-0.315s-0.031-0.194-0.09-0.315c0.119-0.059,0.238-0.09,0.359-0.09c0.12,0,0.239-0.03,0.36-0.09
		C227.003,129.053,226.823,129.323,226.584,129.503z M227.034,136.793c-0.121-0.12-0.226-0.194-0.315-0.225
		c-0.09-0.029-0.195-0.104-0.314-0.225c0,0.421,0.09,0.69,0.27,0.81C226.853,137.094,226.974,136.974,227.034,136.793z
		 M227.574,137.244h0.09v-0.63h-0.09l-0.181-0.09c-0.12,0.121-0.15,0.211-0.09,0.27c0,0.121,0.029,0.195,0.09,0.225
		C227.453,137.049,227.514,137.124,227.574,137.244z M229.824,119.693c-0.061,0.121-0.09,0.211-0.09,0.27
		c0,0.061-0.031,0.121-0.091,0.18c-0.12,0.121-0.211,0.18-0.27,0.18l-0.18-0.09c0-0.18,0.029-0.299,0.09-0.36
		c0.059-0.059,0.209-0.149,0.45-0.27C229.793,119.603,229.824,119.634,229.824,119.693z M230.184,118.793
		c0.479-0.239,0.99-0.63,1.53-1.17c-0.18-0.059-0.301-0.059-0.36,0c-0.24,0.18-0.48,0.346-0.72,0.495
		C230.394,118.269,230.243,118.494,230.184,118.793z M238.554,115.284v0.09c0.12,0,0.194,0.016,0.226,0.045
		c0.029,0.031,0.074,0.045,0.135,0.045h0.899c0.3,0,0.631,0,0.99,0c0.36,0,0.689,0.031,0.99,0.09c0.72,0,1.409,0.09,2.07,0.27
		c0.599,0.121,1.199,0.211,1.8,0.27c0.599,0.061,1.199,0.09,1.8,0.09h0.72c0.3,0.121,0.57,0.121,0.811,0
		c-0.36-0.18-0.735-0.27-1.125-0.27c-0.392,0-0.735-0.12-1.035-0.36c0-0.119,0.014-0.209,0.045-0.27
		c0.029-0.059,0.045-0.12,0.045-0.18c-0.24-0.12-0.42-0.03-0.54,0.27c-0.301,0-0.616,0.016-0.945,0.045
		c-0.33,0.031-0.645,0.045-0.944,0.045h-0.54c-0.301-0.12-0.601-0.209-0.9-0.27c-0.301-0.059-0.601-0.12-0.899-0.18
		c-0.181-0.059-0.36-0.09-0.54-0.09c-0.181,0-0.36,0.09-0.54,0.27c-0.061,0.061-0.121,0.09-0.181,0.09c-0.24,0-0.48,0-0.72,0
		c-0.24,0-0.48-0.03-0.72-0.09c-0.18-0.059-0.331-0.074-0.45-0.045C238.883,115.179,238.734,115.225,238.554,115.284z"/>
</g>
</svg>
