<?xml version="1.0" encoding="utf-8"?>
<!-- Generator: Adobe Illustrator 17.0.0, SVG Export Plug-In . SVG Version: 6.00 Build 0)  -->
<!DOCTYPE svg PUBLIC "-//W3C//DTD SVG 1.1//EN" "http://www.w3.org/Graphics/SVG/1.1/DTD/svg11.dtd">
<svg version="1.1" id="Ebene_1" xmlns="http://www.w3.org/2000/svg" xmlns:xlink="http://www.w3.org/1999/xlink" x="0px" y="0px"
	 width="362.83px" height="362.83px" viewBox="0 0 362.83 362.83" enable-background="new 0 0 362.83 362.83" xml:space="preserve">
<path fill="#F0F1F0" stroke="#000000" stroke-width="0.7087" stroke-miterlimit="10" d="M294.855,108.788
	c5.435-5.629,25.053-44.005-35.845-40.437c0.385-57.484-63.211-21.408-63.211-21.408s-10.792-45.987-59.356,1.982
	c0.385-10.704-37.387-24.579-46.252,11.893c-49.721,4.361-19.272,47.573-19.272,47.573s-73.29,54.105,19.657,68.585
	c-46.989,47.351-24.311,45.962,8.822,47.772c0,0-0.604,1.596,3.774,4.847c-11.282,1.352-20.007,10.429-20.007,21.434
	c0,11.937,10.264,21.614,22.924,21.614s22.924-9.677,22.924-21.614c0-5.275-2.006-10.106-5.335-13.858
	c5.677,0.19,10.387-1.052,11.829-2.565c-1.134,8.918-3.342,50.277,63.374-1.335c1.768,29.253,101.397,35.095,87.878-22.597
	c-1.243-11.556,42.556,2.086,17.344-45.195C341.357,135.786,289.42,114.418,294.855,108.788z"/>
<path fill="#FFFFFF" stroke="#000000" stroke-width="1.4173" stroke-miterlimit="10" d="M287.226,114.072
	c4.989-5.024,22.997-39.272-32.904-36.088c0.354-51.301-58.024-19.105-58.024-19.105s-9.906-41.041-54.486,1.769
	c0.354-9.553-34.319-21.936-42.456,10.614c-45.64,3.892-17.69,42.456-17.69,42.456S14.39,162.003,99.71,174.926
	c-43.133,42.259-22.316,41.019,8.098,42.634c0,0-7.893,8.105,11.607,12.605c13.576,3.133,19.106-8.564,19.106-8.564
	c0.036,0.01,0.072,0.018,0.107,0.028c0,0-7.651,54.795,60.5,3.538c1.623,26.106,93.077,31.32,80.667-20.167
	c-1.141-10.313,39.064,1.862,15.921-40.334C329.912,138.166,282.238,119.097,287.226,114.072z"/>
<image overflow="visible" enable-background="new    " width="803" height="503" xlink:href="FDED2A54.jpg"  transform="matrix(0.2466 0 0 0.2466 -7992.9351 -7832.5786)">
</image>
<ellipse fill="#F0F1F0" stroke="#000000" stroke-width="0.7087" stroke-miterlimit="10" cx="88.415" cy="290.363" rx="20.167" ry="16.364"/>
<ellipse fill="#F0F1F0" stroke="#000000" stroke-width="0.7087" stroke-miterlimit="10" cx="69.479" cy="320.407" rx="14.814" ry="10.825"/>
<ellipse fill="#FFFFFF" stroke="#000000" stroke-width="1.4173" stroke-miterlimit="10" cx="106.165" cy="250.665" rx="17.5" ry="16.5"/>
<ellipse fill="#FFFFFF" stroke="#000000" stroke-width="1.4173" stroke-miterlimit="10" cx="88.727" cy="290.248" rx="13.508" ry="11.25"/>
<ellipse fill="#FFFFFF" stroke="#000000" stroke-width="1.4173" stroke-miterlimit="10" cx="69.794" cy="320.082" rx="9" ry="6.75"/>
<g>
	<path d="M136.615,169.363c0.18-0.119,0.299-0.135,0.36-0.045c0.059,0.09,0.149,0.166,0.27,0.225c0.18,0.18,0.39,0.211,0.63,0.09
		c0-0.119-0.031-0.209-0.09-0.27c-0.36-0.299-0.706-0.63-1.035-0.99c-0.331-0.36-0.706-0.689-1.125-0.99
		c-0.18-0.119-0.346-0.27-0.495-0.45c-0.15-0.18-0.315-0.36-0.495-0.54l-0.63-0.63l-0.36,0.36c-0.301-0.059-0.51-0.254-0.63-0.585
		c-0.121-0.329-0.09-0.644,0.09-0.945c0.18,0.061,0.329,0.166,0.45,0.315c0.12,0.15,0.299,0.166,0.54,0.045
		c0.059-0.239-0.031-0.479-0.27-0.72c-0.18-0.18-0.346-0.36-0.495-0.54c-0.15-0.18-0.315-0.36-0.495-0.54
		c-0.18-0.18-0.301-0.27-0.36-0.27c-0.061,0-0.241,0.061-0.54,0.18c-0.241-0.299-0.42-0.569-0.54-0.81
		c-0.121-0.239-0.27-0.509-0.45-0.81c-0.121-0.299-0.27-0.585-0.45-0.855c-0.18-0.27-0.36-0.554-0.54-0.855
		c0.299-0.419,0.209-0.869-0.27-1.35c-0.18-0.059-0.211-0.209-0.09-0.45c0.119-0.12,0.194-0.27,0.225-0.45
		c0.03-0.18,0.104-0.329,0.225-0.45c-0.061-0.18-0.18-0.3-0.36-0.36c0-0.059,0.029-0.12,0.09-0.18c0.18-0.239,0.209-0.509,0.09-0.81
		c-0.061-0.059-0.121-0.135-0.18-0.225c-0.061-0.09-0.121-0.135-0.18-0.135c-0.301-0.119-0.495-0.284-0.585-0.495
		c-0.09-0.209-0.195-0.435-0.315-0.675c0-0.12,0.014-0.209,0.045-0.27c0.03-0.059,0.014-0.149-0.045-0.27
		c-0.18-0.299-0.256-0.614-0.225-0.945c0.03-0.329,0.075-0.675,0.135-1.035v-0.27c-0.061-0.299-0.09-0.63-0.09-0.99s0-0.689,0-0.99
		c0-0.18,0.03-0.36,0.09-0.54c0.059-0.18,0.12-0.36,0.18-0.54c0.059-0.18,0.09-0.419,0.09-0.72c-0.061-0.3-0.09-0.554-0.09-0.765
		c0-0.209,0-0.464,0-0.765c0.12-0.659,0.194-1.334,0.225-2.025c0.03-0.689,0.104-1.364,0.225-2.025c0-0.18,0.059-0.45,0.18-0.81
		c0-0.12,0.029-0.239,0.09-0.36c0-0.239,0.059-0.66,0.18-1.26c0.059-0.119,0.09-0.239,0.09-0.36c0-0.12,0.029-0.239,0.09-0.36
		c0-0.059-0.015-0.104-0.045-0.135c-0.031-0.029-0.016-0.104,0.045-0.225c0.059-0.36,0.12-0.734,0.18-1.125
		c0.059-0.39,0.149-0.795,0.27-1.215c0.059-0.239,0.12-0.464,0.18-0.675c0.059-0.209,0.059-0.464,0-0.765
		c0-0.18,0.029-0.374,0.09-0.585c0.059-0.209,0.12-0.405,0.18-0.585c0.059-0.299,0.104-0.615,0.135-0.945
		c0.029-0.329,0.104-0.644,0.225-0.945l0.27-0.81c0.12-0.299,0.194-0.585,0.225-0.855c0.029-0.27,0.135-0.554,0.315-0.855
		c0.059-0.119,0.074-0.254,0.045-0.405c-0.031-0.149-0.016-0.284,0.045-0.405c0.12-0.299,0.209-0.569,0.27-0.81
		c0.059-0.239,0.149-0.48,0.27-0.72c0-0.12,0.12-0.299,0.36-0.54c0.239-0.36,0.329-0.66,0.27-0.9c0-0.18,0.03-0.3,0.09-0.36
		c0.239-0.419,0.45-0.855,0.63-1.305c0.18-0.45,0.45-0.855,0.81-1.215c0.059-0.059,0.09-0.149,0.09-0.27
		c0.059-0.12,0.09-0.225,0.09-0.315c0-0.09,0.03-0.165,0.09-0.225c0.119-0.18,0.254-0.345,0.405-0.495
		c0.149-0.149,0.194-0.345,0.135-0.585c0.36-0.36,0.63-0.66,0.81-0.9c-0.18-0.239-0.211-0.464-0.09-0.675
		c0.12-0.209,0.239-0.405,0.36-0.585c0.3-0.419,0.615-0.824,0.945-1.215c0.329-0.39,0.644-0.794,0.945-1.215
		c0.239-0.3,0.45-0.57,0.63-0.81c0.18-0.239,0.39-0.509,0.63-0.81c0.3-0.479,0.72-0.9,1.26-1.26c0.059,0,0.09-0.029,0.09-0.09
		c0.18-0.419,0.599-0.63,1.26-0.63c0.12,0,0.239-0.014,0.36-0.045c0.12-0.03,0.239-0.045,0.36-0.045c1.08-0.18,2.01,0.031,2.79,0.63
		c0.54,0.36,1.17,0.45,1.89,0.27h0.18c0.72,0,1.454,0.015,2.205,0.045c0.75,0.031,1.454,0.166,2.115,0.405
		c0.12,0,0.209,0.016,0.27,0.045c0.059,0.031,0.149,0.045,0.27,0.045c0.479,0.06,0.9,0.18,1.26,0.36c0.36,0.18,0.75,0.391,1.17,0.63
		c0.36,0.121,0.63,0.241,0.81,0.36c0.18,0.121,0.36,0.225,0.54,0.315c0.18,0.09,0.39,0.195,0.63,0.315
		c0.36,0.24,0.569,0.51,0.63,0.81c0.18,0.301,0.299,0.48,0.36,0.54c0.3,0.18,0.509,0.391,0.63,0.63c0.12,0.24,0.239,0.51,0.36,0.81
		l0.54,1.08c0,0.061,0.014,0.121,0.045,0.18c0.029,0.061,0.045,0.15,0.045,0.27c0.059,0.301,0.104,0.616,0.135,0.945
		c0.03,0.331,0.104,0.646,0.225,0.945v0.27c-0.061,1.021,0.149,2.07,0.63,3.15c0.12,0.24,0.18,0.63,0.18,1.17
		c-0.121,0.42-0.09,0.78,0.09,1.08c0.12,0.121,0.18,0.211,0.18,0.27c0,0.36,0.075,0.706,0.225,1.035
		c0.149,0.33,0.194,0.706,0.135,1.125c-0.061,0.121-0.076,0.211-0.045,0.27c0.03,0.061,0.045,0.151,0.045,0.27
		c0.059,0.061,0.09,0.151,0.09,0.27c-0.121,0.72,0,1.291,0.36,1.71v0.27c-0.121,0.661-0.135,1.276-0.045,1.845
		c0.09,0.571,0.165,1.186,0.225,1.845c0.059,0.301,0.12,0.616,0.18,0.945c0.059,0.331,0.03,0.646-0.09,0.945
		c-0.061,0.121-0.076,0.211-0.045,0.27c0.029,0.061,0.045,0.15,0.045,0.27c0.059,0.601,0.104,1.186,0.135,1.755
		c0.03,0.571,0.045,1.156,0.045,1.755c0,0.301-0.031,0.54-0.09,0.72c0,0.301-0.031,0.601-0.09,0.9c-0.061,0.301-0.09,0.601-0.09,0.9
		c0,0.24,0.03,0.391,0.09,0.45c0.18,0.301,0.239,0.54,0.18,0.72c-0.121,0.301-0.09,0.54,0.09,0.72c0.12,0.241,0.12,0.45,0,0.63
		c-0.121,0.481-0.241,0.841-0.36,1.08c0,0.18-0.06,0.45-0.18,0.81c0,0.301,0,0.585,0,0.855s-0.031,0.556-0.09,0.855
		c0,0.121-0.016,0.256-0.045,0.405c-0.031,0.15-0.045,0.315-0.045,0.495c-0.061,0.24-0.076,0.481-0.045,0.72
		c0.03,0.241,0.194,0.45,0.495,0.63c0.059,0.061,0.104,0.151,0.135,0.27c0.03,0.121,0.075,0.241,0.135,0.36
		c0.12,0.72,0,1.291-0.36,1.71c-0.24,0.36-0.27,0.72-0.09,1.08c0.18,0.24,0.209,0.54,0.09,0.9c-0.06,0.301-0.105,0.571-0.135,0.81
		c-0.031,0.24-0.076,0.481-0.135,0.72c-0.061,0.18-0.09,0.42-0.09,0.72c0.12,0.42,0.03,0.72-0.27,0.9
		c-0.18,0.121-0.346,0.27-0.495,0.45c-0.15,0.18-0.315,0.33-0.495,0.45c-0.061,0.121-0.121,0.211-0.18,0.27
		c-0.061,0.061-0.121,0.15-0.18,0.27c-0.06,0-0.09,0.031-0.09,0.09c-0.42,0.421-0.661,0.871-0.72,1.35
		c0,0.121-0.121,0.301-0.36,0.54c-0.54,0.54-1.066,1.08-1.575,1.62c-0.511,0.54-0.976,1.141-1.395,1.8
		c0,0.061-0.016,0.09-0.045,0.09c-0.031,0-0.045,0.031-0.045,0.09c-0.301,0.18-0.571,0.391-0.81,0.63
		c-0.241,0.241-0.481,0.511-0.72,0.81c-0.241,0.241-0.495,0.405-0.765,0.495c-0.27,0.09-0.555,0.195-0.855,0.315
		c-0.121,0.121-0.24,0.195-0.36,0.225c-0.121,0.031-0.241,0.105-0.36,0.225c-0.481,0.301-0.96,0.48-1.44,0.54
		c-0.36,0-0.706,0.061-1.035,0.18c-0.331,0.121-0.675,0.211-1.035,0.27c-0.36,0.121-0.69,0.18-0.99,0.18c-0.42,0-0.841,0-1.26,0
		c-0.42,0-0.871-0.059-1.35-0.18c-0.42-0.059-0.825-0.075-1.215-0.045c-0.391,0.031-0.796,0.045-1.215,0.045
		c-1.44-0.059-2.851-0.45-4.23-1.17c-0.241-0.12-0.466-0.239-0.675-0.36c-0.211-0.12-0.436-0.239-0.675-0.36
		C136.915,169.633,136.795,169.543,136.615,169.363z M151.285,127.333c-0.061-0.12-0.09-0.329-0.09-0.63
		c0-0.72-0.211-1.499-0.63-2.34c-0.121-0.18-0.256-0.374-0.405-0.585c-0.15-0.209-0.286-0.405-0.405-0.585
		c-0.24-0.36-0.481-0.689-0.72-0.99c-0.241-0.3-0.511-0.599-0.81-0.9c-0.301-0.18-0.54-0.389-0.72-0.63
		c-0.18-0.239-0.391-0.509-0.63-0.81c-0.18-0.18-0.346-0.374-0.495-0.585c-0.15-0.209-0.315-0.405-0.495-0.585
		c-0.36-0.239-0.63-0.239-0.81,0c-0.241,0.301-0.45,0.63-0.63,0.99c-0.18,0.36-0.301,0.78-0.36,1.26c0,0.481-0.121,0.931-0.36,1.35
		c-0.121,0.24-0.241,0.465-0.36,0.675c-0.121,0.211-0.18,0.466-0.18,0.765c-0.061,0.241-0.15,0.661-0.27,1.26
		c-0.061,0.301-0.105,0.6-0.135,0.9c-0.031,0.301-0.076,0.601-0.135,0.9c0,0.061-0.016,0.105-0.045,0.135
		c-0.031,0.031-0.045,0.076-0.045,0.135c-0.18,0.481-0.315,0.945-0.405,1.395c-0.09,0.45-0.195,0.916-0.315,1.395
		c-0.121,0.601-0.24,1.05-0.36,1.35c-0.061,0.301-0.121,0.616-0.18,0.945c-0.061,0.331-0.15,0.675-0.27,1.035
		c-0.121,0.42-0.195,0.825-0.225,1.215c-0.031,0.391-0.105,0.796-0.225,1.215c-0.061,0.36-0.121,0.72-0.18,1.08
		c-0.061,0.36-0.121,0.72-0.18,1.08l-0.27,2.16c0,0.36-0.045,0.72-0.135,1.08c-0.09,0.36-0.076,0.72,0.045,1.08
		c0.12,0.301,0.194,0.601,0.225,0.9c0.029,0.301,0.075,0.6,0.135,0.9c0,0.36,0.03,0.63,0.09,0.81c0.12,0.36,0.209,0.751,0.27,1.17
		c0.059,0.42,0.149,0.81,0.27,1.17c0.059,0.121,0.09,0.27,0.09,0.45c0.059,0.481,0.104,0.96,0.135,1.44
		c0.03,0.481,0.104,0.96,0.225,1.44c0.059,0.36,0.059,0.706,0,1.035c-0.061,0.33-0.061,0.675,0,1.035
		c0.059,0.18,0.075,0.346,0.045,0.495c-0.031,0.15,0.014,0.315,0.135,0.495c0.12,0.061,0.18,0.24,0.18,0.54
		c-0.121,0.481-0.105,0.945,0.045,1.395c0.149,0.45,0.284,0.915,0.405,1.395c0.239,1.021,0.66,2.13,1.26,3.33
		c0.299,0.661,0.63,1.336,0.99,2.025c0.36,0.69,0.839,1.305,1.44,1.845c0.479,0.54,1.02,0.69,1.62,0.45
		c0.419-0.18,0.779-0.419,1.08-0.72c0.299-0.239,0.554-0.479,0.765-0.72c0.209-0.239,0.434-0.479,0.675-0.72
		c0.599-0.479,0.99-1.17,1.17-2.07c0-0.12,0.014-0.225,0.045-0.315c0.03-0.09,0.045-0.194,0.045-0.315
		c0.12-0.54,0.239-1.064,0.36-1.575c0.12-0.509,0.239-1.035,0.36-1.575c0.12-0.599,0.18-1.02,0.18-1.26
		c0.059-0.3,0.119-0.599,0.18-0.9c0.059-0.3,0.09-0.599,0.09-0.9c0.059-0.36,0.09-0.734,0.09-1.125c0-0.389,0-0.765,0-1.125
		c0.12-0.659,0.194-1.274,0.225-1.845c0.029-0.57,0.104-1.155,0.225-1.755c0.119-0.479,0.164-0.93,0.135-1.35
		c-0.031-0.419-0.045-0.84-0.045-1.26c-0.061-1.499-0.061-3,0-4.5v-2.34c-0.061-0.54-0.105-1.064-0.135-1.575
		c-0.031-0.509-0.076-1.004-0.135-1.485c0-0.299,0-0.585,0-0.855s-0.031-0.554-0.09-0.855c0-0.299-0.016-0.569-0.045-0.81
		c-0.031-0.239-0.076-0.509-0.135-0.81l-0.09-0.18c-0.121-0.419-0.256-0.81-0.405-1.17c-0.15-0.36-0.285-0.75-0.405-1.17
		c-0.121-0.239-0.18-0.599-0.18-1.08C151.314,127.934,151.285,127.693,151.285,127.333z"/>
	<path d="M204.204,171.613l-0.539-2.16c-0.061-0.12-0.105-0.27-0.135-0.45c-0.031-0.18-0.076-0.329-0.135-0.45
		c-0.061-0.119-0.092-0.209-0.092-0.27c0-0.059-0.029-0.149-0.09-0.27c-0.061-0.599-0.105-1.17-0.135-1.71
		c-0.031-0.54-0.076-1.109-0.135-1.71c-0.061-0.36-0.076-0.72-0.045-1.08c0.029-0.36,0.014-0.72-0.045-1.08
		c0-0.419-0.031-0.72-0.09-0.9c-0.061-0.72-0.061-1.425,0-2.115c0.059-0.689,0.148-1.395,0.27-2.115
		c0.059-0.72,0.119-1.424,0.18-2.115c0.061-0.689,0.121-1.395,0.182-2.115c0.059-0.36,0.104-0.72,0.135-1.08
		c0.029-0.36,0.045-0.75,0.045-1.17v-0.27c-0.061-0.36-0.09-0.734-0.09-1.125c0-0.389-0.031-0.765-0.09-1.125
		c-0.061-0.18-0.076-0.374-0.047-0.585c0.031-0.209,0.047-0.435,0.047-0.675v-0.9c0-0.12-0.016-0.194-0.047-0.225
		c-0.029-0.029-0.045-0.104-0.045-0.225c-0.061-0.479-0.09-0.914-0.09-1.305c0-0.39,0-0.824,0-1.305c0-0.18-0.016-0.345-0.045-0.495
		c-0.031-0.149-0.045-0.315-0.045-0.495c-0.061-0.54-0.105-1.094-0.135-1.665c-0.031-0.569-0.045-1.125-0.045-1.665
		c-0.061-0.48-0.105-0.99-0.135-1.53c-0.031-0.54-0.076-1.049-0.135-1.53c-0.061-0.72-0.18-1.425-0.359-2.115
		c-0.182-0.689-0.361-1.395-0.541-2.115c-0.24-0.599-0.391-1.229-0.449-1.89c-0.121-0.3-0.195-0.599-0.227-0.9
		c-0.029-0.3-0.074-0.599-0.135-0.9l-0.27-0.54h-0.27c-0.18,0.18-0.359,0.346-0.541,0.495c-0.18,0.151-0.33,0.315-0.449,0.495
		c-0.24,0.42-0.465,0.81-0.676,1.17c-0.211,0.36-0.436,0.751-0.674,1.17l-0.27,0.27c-0.361,0.301-0.662,0.72-0.9,1.26
		c-0.301,0.54-0.781,0.81-1.44,0.81c-0.121-0.059-0.195-0.075-0.226-0.045c-0.03,0.031-0.075,0.015-0.135-0.045
		c-0.301-0.119-0.584-0.149-0.854-0.09c-0.271,0.061-0.556,0.121-0.854,0.18c-0.481,0-0.916,0-1.306,0
		c-0.392,0-0.796-0.03-1.215-0.09h-0.091c-0.6-0.299-1.186-0.554-1.754-0.765c-0.571-0.209-1.096-0.495-1.576-0.855
		c-0.539-0.36-1.05-0.72-1.529-1.08c-0.48-0.36-0.932-0.779-1.35-1.26c-0.18-0.239-0.36-0.464-0.541-0.675
		c-0.18-0.209-0.33-0.405-0.449-0.585c-0.301-0.419-0.571-0.824-0.811-1.215c-0.24-0.39-0.51-0.824-0.81-1.305
		c0-0.059-0.061-0.149-0.18-0.27c-0.42,0-0.72,0.135-0.9,0.405s-0.36,0.495-0.54,0.675c-0.121,0.301-0.211,0.571-0.27,0.81
		c-0.061,0.24-0.15,0.51-0.27,0.81l-0.27,0.81v0.45c0.059,0.301,0.059,0.571,0,0.81c-0.061,0.24-0.15,0.51-0.27,0.81
		c-0.06,0.24-0.09,0.45-0.09,0.63s-0.031,0.391-0.09,0.63c0,0.301-0.031,0.511-0.09,0.63c-0.121,0.6-0.15,1.021-0.09,1.26
		c0,0.301-0.031,0.481-0.09,0.54c-0.18,0.301-0.211,0.661-0.09,1.08v0.81c-0.06,0.301-0.09,0.555-0.09,0.765
		c0,0.211,0,0.466,0,0.765c-0.061,0.241-0.09,0.481-0.09,0.72c0,0.24,0,0.51,0,0.81c0,0.301,0.014,0.585,0.045,0.855
		c0.029,0.27,0.014,0.555-0.045,0.855c0,0.301-0.061,0.69-0.18,1.17c-0.061,0.301,0,0.601,0.18,0.9
		c0.12,0.301,0.18,0.556,0.18,0.765c0,0.211,0,0.436,0,0.675c-0.06,0.481,0.059,0.931,0.36,1.35c-0.061,0.301-0.105,0.63-0.135,0.99
		c-0.031,0.36-0.076,0.72-0.135,1.08c0,0.18-0.061,0.391-0.18,0.63c-0.061,0.121-0.09,0.27-0.09,0.45s-0.031,0.331-0.09,0.45
		c-0.06,0.18-0.09,0.346-0.09,0.495c0,0.151-0.031,0.315-0.09,0.495c-0.121,0.301-0.18,0.585-0.18,0.855s-0.031,0.556-0.09,0.855
		c0,0.18-0.016,0.36-0.045,0.54c-0.031,0.18-0.045,0.36-0.045,0.54c0.119,0.54,0.149,1.066,0.09,1.575
		c-0.061,0.51-0.061,1.035,0,1.575c0,0.301-0.045,0.601-0.135,0.9c-0.09,0.301-0.166,0.6-0.225,0.9
		c-0.061,0.301-0.105,0.555-0.135,0.765c-0.031,0.211-0.076,0.436-0.135,0.675c-0.121,0.601-0.241,1.08-0.36,1.44
		c-0.121,0.24-0.211,0.45-0.27,0.63c-0.06,0.18-0.031,0.391,0.09,0.63c0.12,0.36,0.059,0.691-0.18,0.99
		c-0.061,0.121-0.09,0.27-0.09,0.45l-0.72,0.72c-0.301,0.121-0.72,0.061-1.26-0.18c-0.781-0.419-1.53-0.54-2.25-0.36
		c-0.121-0.12-0.211-0.194-0.27-0.225c-0.061-0.029-0.121-0.104-0.18-0.225c-0.24-0.3-0.601-0.509-1.08-0.63
		c-0.24-0.059-0.45-0.165-0.63-0.315c-0.18-0.149-0.391-0.284-0.63-0.405v-0.18c0.12-0.239,0.165-0.479,0.135-0.72
		c-0.031-0.239-0.015-0.479,0.045-0.72v-1.26c0-0.419,0-0.824,0-1.215c0-0.39,0.03-0.824,0.09-1.305
		c0-0.419,0.014-0.824,0.045-1.215c0.029-0.389,0.075-0.794,0.135-1.215c0.059-0.599,0.12-1.184,0.18-1.755
		c0.059-0.57,0.059-1.155,0-1.755c-0.061-0.36-0.076-0.704-0.045-1.035c0.029-0.329,0.045-0.675,0.045-1.035
		c0-0.12-0.016-0.225-0.045-0.315c-0.031-0.09-0.045-0.194-0.045-0.315l-0.27-4.59c-0.061-0.72-0.076-1.425-0.045-2.115
		c0.029-0.689,0.104-1.364,0.225-2.025l0.27-3.51c0.059-0.72,0.104-1.44,0.135-2.16c0.029-0.72,0.104-1.44,0.225-2.16
		c0.119-0.599,0.254-1.2,0.405-1.8c0.149-0.599,0.284-1.2,0.405-1.8c0.119-0.479,0.18-0.839,0.18-1.08c0.18-0.9,0.36-1.8,0.54-2.7
		s0.419-1.769,0.72-2.61c0.119-0.239,0.18-0.419,0.18-0.54c0.12-0.239,0.239-0.54,0.36-0.9c0.059-0.119,0.09-0.225,0.09-0.315
		c0-0.09,0.059-0.194,0.18-0.315c0.119-0.239,0.239-0.464,0.36-0.675c0.12-0.209,0.239-0.435,0.36-0.675
		c0.12-0.239,0.239-0.464,0.36-0.675c0.12-0.209,0.239-0.435,0.36-0.675c0.119-0.18,0.239-0.345,0.36-0.495
		c0.12-0.149,0.239-0.315,0.36-0.495c0.12-0.239,0.225-0.479,0.315-0.72c0.09-0.239,0.194-0.479,0.315-0.72
		c0.12-0.3,0.284-0.599,0.495-0.9c0.209-0.3,0.495-0.509,0.855-0.63c0.12,0,0.225-0.029,0.315-0.09
		c0.09-0.059,0.194-0.12,0.315-0.18c0-0.299,0.03-0.54,0.09-0.72c0.12,0,0.225-0.014,0.315-0.045c0.09-0.03,0.194-0.045,0.315-0.045
		c0.299,0,0.615-0.014,0.945-0.045c0.329-0.029,0.644-0.014,0.945,0.045c0.299,0.121,0.614,0.166,0.945,0.135
		c0.329-0.029,0.644-0.014,0.944,0.045c0.24,0,0.48,0.031,0.721,0.09c0.239,0.06,0.45,0.09,0.63,0.09
		c0.239,0.301,0.464,0.555,0.675,0.765c0.21,0.211,0.465,0.436,0.766,0.675c0.238,0.121,0.449,0.286,0.63,0.495
		c0.18,0.211,0.39,0.405,0.63,0.585l0.27,0.27c0.42,0.301,0.75,0.646,0.99,1.035c0.239,0.391,0.51,0.765,0.811,1.125
		c0.299,0.36,0.569,0.736,0.81,1.125c0.239,0.391,0.509,0.736,0.81,1.035c0.181,0.18,0.33,0.391,0.451,0.63
		c0.119,0.241,0.238,0.481,0.359,0.72c0.18,0.24,0.39,0.601,0.63,1.08c0.3,0.121,0.599,0.031,0.899-0.27
		c0.48-0.54,0.945-1.08,1.396-1.62s0.914-1.08,1.396-1.62c0.238-0.239,0.494-0.45,0.764-0.63c0.271-0.18,0.555-0.39,0.855-0.63
		c0.6-0.599,1.289-1.08,2.07-1.44c0.059-0.059,0.119-0.104,0.18-0.135c0.059-0.029,0.15-0.104,0.27-0.225
		c0.121-0.059,0.195-0.119,0.227-0.18c0.029-0.059,0.104-0.149,0.225-0.27c0.238-0.12,0.449-0.18,0.629-0.18c0.42,0,0.84,0,1.262,0
		c0.418,0,0.838,0.061,1.26,0.18c0.238,0.121,0.463,0.18,0.674,0.18s0.436,0.031,0.676,0.09c0.479,0.121,0.959,0.256,1.439,0.405
		c0.48,0.15,0.959,0.375,1.439,0.675c0.121,0.36,0.24,0.63,0.361,0.81c0.059,0.121,0.104,0.225,0.135,0.315
		c0.029,0.09,0.104,0.195,0.225,0.315c0.299,0.301,0.541,0.646,0.721,1.035c0.18,0.391,0.389,0.765,0.629,1.125
		c0.18,0.301,0.33,0.616,0.451,0.945c0.119,0.331,0.238,0.646,0.359,0.945c0,0.061,0.014,0.105,0.045,0.135
		c0.029,0.031,0.045,0.076,0.045,0.135c-0.121,0.18-0.15,0.36-0.09,0.54c0.059,0.18,0.119,0.36,0.18,0.54v0.36
		c0.059,0.241,0.09,0.466,0.09,0.675c0,0.211,0.029,0.405,0.09,0.585v1.17v0.45c0.121,0.36,0.227,0.72,0.316,1.08
		c0.09,0.36,0.193,0.72,0.314,1.08c0,0.061,0.014,0.121,0.045,0.18c0.029,0.061,0.045,0.121,0.045,0.18
		c0,0.601,0.119,1.141,0.359,1.62v1.53c0.061,0.18,0.105,0.375,0.135,0.585c0.031,0.211,0.105,0.436,0.227,0.675
		c0,0.121,0.059,0.301,0.18,0.54c0.359,0.301,0.479,0.78,0.359,1.44c0,0.42,0.09,0.751,0.27,0.99c0.121,0.121,0.18,0.27,0.18,0.45
		c0.061,0.061,0.092,0.15,0.092,0.27c0.18,0.18,0.283,0.375,0.314,0.585c0.029,0.211,0.045,0.436,0.045,0.675
		c0,0.24,0.014,0.481,0.045,0.72c0.029,0.241,0.045,0.481,0.045,0.72c0,0.42-0.031,0.72-0.09,0.9c0,0.121,0.029,0.211,0.09,0.27
		c0.119,0.301,0.193,0.616,0.225,0.945c0.029,0.331,0.074,0.646,0.135,0.945c0,0.301,0.029,0.63,0.09,0.99
		c0.061,0.36,0.029,0.69-0.09,0.99v0.09c0.18,0.481,0.256,0.976,0.225,1.485c-0.029,0.511,0.076,1.006,0.316,1.485
		c0.18,0.481,0.238,0.931,0.18,1.35v0.18c0.119,0.301,0.119,0.72,0,1.26c0,0.301,0.029,0.54,0.09,0.72
		c0.18,0.601,0.209,1.08,0.09,1.44c0.059,0.301,0.104,0.556,0.135,0.765c0.029,0.211,0.074,0.436,0.135,0.675
		c0.061,0.241,0.105,0.45,0.135,0.63c0.031,0.18,0.045,0.391,0.045,0.63c0.061,0.18,0.076,0.36,0.047,0.54
		c-0.031,0.18-0.047,0.391-0.047,0.63c-0.059,0.121-0.105,0.27-0.135,0.45c-0.029,0.18-0.076,0.33-0.135,0.45v0.45
		c-0.061,0.121-0.18,0.27-0.359,0.45c0.119,0.241,0.209,0.45,0.27,0.63c-0.18,0.18-0.27,0.391-0.27,0.63
		c0,0.24,0.029,0.481,0.09,0.72c0.119,0.301,0.09,0.661-0.09,1.08c-0.061,0.121-0.105,0.241-0.135,0.36
		c-0.031,0.121-0.016,0.27,0.045,0.45c0,0.121-0.016,0.211-0.045,0.27c-0.031,0.061-0.045,0.15-0.045,0.27
		c-0.301,0.121-0.512,0.241-0.631,0.36c-0.121,0.121-0.18,0.27-0.18,0.45c-0.121,0.061-0.27,0.18-0.449,0.36
		c0,0.061-0.016,0.105-0.045,0.135c-0.031,0.031-0.045,0.105-0.045,0.225c0,0.24-0.031,0.391-0.092,0.45
		c-0.24,0.301-0.404,0.63-0.494,0.99c-0.09,0.36-0.195,0.72-0.314,1.08c-0.121,0.301-0.33,0.54-0.631,0.72
		c-0.301,0.121-0.57,0.301-0.811,0.54c-0.24,0-0.48,0-0.719,0c-0.24,0-0.48,0.09-0.721,0.27c-0.121,0.36-0.24,0.63-0.359,0.81
		c-0.121-0.059-0.195-0.104-0.225-0.135c-0.031-0.029-0.105-0.074-0.227-0.135c-0.359,0.061-0.6,0.301-0.719,0.72
		c-0.121,0.241-0.359,0.54-0.721,0.9c-0.121,0.06-0.195,0.121-0.225,0.18c-0.031,0.061-0.105,0.15-0.225,0.27
		c-0.301,0.36-0.691,0.69-1.17,0.99c-0.301,0.061-0.586,0.09-0.855,0.09S204.505,171.554,204.204,171.613z"/>
	<path d="M244.073,171.793c-0.24-0.12-0.45-0.225-0.63-0.315s-0.42-0.075-0.72,0.045c-0.121,0-0.24,0.016-0.36,0.045
		c-0.121,0.031-0.24-0.014-0.359-0.135c-0.241-0.12-0.45-0.165-0.631-0.135c-0.18,0.031-0.359,0.045-0.54,0.045l-0.18,0.09
		c-0.301-0.239-0.646-0.36-1.035-0.36c-0.391,0-0.765-0.029-1.125-0.09c-0.061-0.059-0.121-0.09-0.18-0.09
		c-0.061,0-0.09-0.014-0.09-0.045c0-0.03-0.031-0.045-0.09-0.045c-0.061,0-0.091-0.029-0.091-0.09
		c-0.12,0.121-0.211,0.135-0.27,0.045c-0.061-0.09-0.15-0.194-0.27-0.315c-0.181,0.18-0.347,0.18-0.495,0
		c-0.15-0.18-0.286-0.209-0.405-0.09c-0.121-0.12-0.18-0.239-0.18-0.36c-0.061,0.06-0.15,0.09-0.271,0.09
		c-0.061,0-0.15-0.059-0.27-0.18c-0.241,0.241-0.45,0.27-0.63,0.09c0-0.059-0.061-0.09-0.181-0.09c-0.24,0-0.48-0.09-0.72-0.27
		c-0.121-0.059-0.225-0.104-0.315-0.135c-0.09-0.03-0.195-0.075-0.314-0.135c-0.301,0-0.69-0.18-1.17-0.54
		c-0.121-0.119-0.241-0.18-0.36-0.18c-0.42-0.059-0.751-0.27-0.99-0.63c-0.121-0.18-0.285-0.345-0.495-0.495
		c-0.211-0.149-0.404-0.315-0.585-0.495c-0.301-0.299-0.57-0.599-0.81-0.9c-0.24-0.3-0.511-0.599-0.81-0.9l-0.54-0.54
		c-0.36-0.36-0.571-0.66-0.631-0.9c-0.12-0.3-0.256-0.525-0.404-0.675c-0.15-0.149-0.286-0.315-0.405-0.495
		c-0.121-0.18-0.225-0.344-0.315-0.495c-0.09-0.149-0.135-0.345-0.135-0.585c0-0.12-0.03-0.225-0.09-0.315
		c-0.061-0.09-0.121-0.194-0.18-0.315c-0.241-0.239-0.405-0.509-0.495-0.81c-0.09-0.299-0.195-0.599-0.315-0.9
		c-0.061-0.059-0.105-0.12-0.135-0.18c-0.031-0.059-0.076-0.12-0.135-0.18c-0.061-0.059-0.09-0.104-0.09-0.135
		c0-0.029-0.031-0.074-0.091-0.135c-0.12-0.36-0.211-0.599-0.27-0.72l-0.09-0.18c0.059-0.3,0.029-0.599-0.09-0.9
		c-0.121-0.3-0.211-0.599-0.271-0.9v-0.27c0.06-0.239,0.06-0.54,0-0.9c-0.121-0.36-0.211-0.734-0.27-1.125
		c-0.061-0.39-0.061-0.794,0-1.215c0-0.3,0-0.554,0-0.765c0-0.209-0.031-0.464-0.09-0.765c0-0.119,0.014-0.27,0.045-0.45
		c0.029-0.18,0.045-0.36,0.045-0.54v-0.81v-1.26v-0.27c0.119-0.3,0.164-0.599,0.135-0.9c-0.031-0.299-0.016-0.599,0.045-0.9
		c0.06-0.239,0.09-0.45,0.09-0.63s0.029-0.39,0.09-0.63l0.54-2.43c0.12-0.299,0.21-0.63,0.271-0.99c0.059-0.36,0.148-0.72,0.27-1.08
		v-0.27c0.239-0.3,0.39-0.644,0.45-1.035c0.06-0.39,0.149-0.734,0.271-1.035l0.54-1.62l0.27-1.08
		c0.059-0.239,0.119-0.464,0.18-0.675c0.06-0.209,0.12-0.435,0.181-0.675c0.059-0.12,0.119-0.209,0.18-0.27
		c0.059-0.059,0.119-0.149,0.18-0.27c0.06-0.239,0.12-0.464,0.181-0.675c0.059-0.209,0.119-0.435,0.18-0.675
		c0.059-0.18,0.135-0.344,0.225-0.495c0.09-0.149,0.165-0.284,0.226-0.405l0.27-0.54v-0.27c0.12-0.12,0.226-0.254,0.315-0.405
		c0.09-0.149,0.164-0.315,0.225-0.495c0.12-0.18,0.21-0.345,0.271-0.495c0.059-0.149,0.148-0.315,0.27-0.495
		c0.12-0.119,0.18-0.254,0.18-0.405c0-0.149,0.06-0.284,0.181-0.405c0.119-0.18,0.239-0.36,0.359-0.54
		c0.12-0.18,0.239-0.329,0.36-0.45c0.119-0.18,0.225-0.36,0.315-0.54c0.09-0.18,0.193-0.39,0.314-0.63
		c0.12-0.12,0.21-0.225,0.271-0.315c0.059-0.09,0.148-0.165,0.27-0.225c0.239-0.18,0.419-0.419,0.54-0.72
		c0.119-0.18,0.225-0.374,0.315-0.585c0.09-0.209,0.254-0.374,0.495-0.495c0.059-0.239,0.164-0.405,0.314-0.495
		c0.149-0.09,0.284-0.225,0.405-0.405c0.119-0.119,0.225-0.239,0.314-0.36c0.091-0.12,0.194-0.239,0.315-0.36
		c0.059-0.18,0.149-0.27,0.27-0.27l0.181-0.18c0.299-0.479,0.63-0.839,0.989-1.08c0.181-0.119,0.329-0.27,0.45-0.45
		c0.12-0.18,0.271-0.329,0.45-0.45c0.119-0.12,0.36-0.299,0.72-0.54c0.239-0.12,0.39-0.239,0.45-0.36
		c0.479-0.299,1.049-0.599,1.71-0.9c0.12,0,0.194-0.03,0.226-0.09c0.029-0.059,0.104-0.119,0.225-0.18
		c0.059-0.059,0.119-0.09,0.18-0.09c0.479-0.12,0.84-0.239,1.08-0.36l0.181-0.18c0.059,0,0.104-0.014,0.135-0.045
		c0.029-0.029,0.074-0.045,0.135-0.045c0.119,0,0.225-0.029,0.315-0.09c0.09-0.059,0.193-0.12,0.314-0.18
		c0.239-0.18,0.479-0.299,0.72-0.36c0.181-0.12,0.345-0.18,0.495-0.18c0.149,0,0.284-0.059,0.405-0.18
		c0.06-0.059,0.149-0.09,0.271-0.09c0.299-0.119,0.614-0.239,0.944-0.36c0.329-0.12,0.645-0.239,0.945-0.36l1.08-0.54
		c0-0.059,0.059-0.09,0.18-0.09c0.419,0.06,0.824,0.135,1.215,0.225c0.39,0.09,0.734,0.315,1.035,0.675
		c0.12,0.121,0.226,0.211,0.315,0.27c0.09,0.061,0.164,0.15,0.225,0.27c0.119,0,0.194,0.061,0.225,0.18
		c0.03,0.121,0.104,0.211,0.226,0.27c-0.061,0.18-0.045,0.315,0.045,0.405c0.09,0.09,0.135,0.195,0.135,0.315
		c0.12,0.061,0.21,0.09,0.271,0.09c0.059,0,0.119,0.031,0.18,0.09c0.059,0,0.09,0.121,0.09,0.36c0,0.18,0.029,0.301,0.09,0.36
		c0.3,0.18,0.51,0.481,0.63,0.9c0.06,0.241,0.165,0.391,0.315,0.45c0.149,0.061,0.315,0.15,0.495,0.27
		c0.059,0.061,0.119,0.09,0.18,0.09c0.06,0,0.12,0.031,0.181,0.09c0.119,0.18,0.359,0.27,0.72,0.27c0,0.121,0.029,0.18,0.09,0.18
		c0.119,0.121,0.18,0.241,0.18,0.36c0,0.121,0.03,0.241,0.09,0.36c0,0.24-0.09,0.45-0.27,0.63c-0.121-0.059-0.24-0.239-0.36-0.54
		c0-0.12-0.121-0.239-0.359-0.36c-0.241-0.18-0.45-0.27-0.63-0.27c0.059,0.24,0.209,0.36,0.449,0.36c0.479,0.54,0.6,1.111,0.36,1.71
		c0.36,0.301,0.419,0.661,0.18,1.08c0,0.061-0.016,0.121-0.045,0.18c-0.03,0.06-0.045,0.121-0.045,0.18
		c0.06,0.241-0.061,0.511-0.359,0.81c-0.241,0.241-0.481,0.301-0.721,0.18c-0.24,0-0.465-0.059-0.675-0.18
		c-0.211-0.12-0.436-0.149-0.675-0.09c-0.061,0-0.121-0.03-0.18-0.09c-0.121-0.119-0.271-0.209-0.45-0.27
		c-0.181-0.059-0.331-0.149-0.45-0.27c-0.301,0.121-0.45,0.211-0.45,0.27c-0.18,0.18-0.391,0.27-0.63,0.27
		c-0.121,0-0.211,0.045-0.27,0.135c-0.061,0.09-0.151,0.166-0.271,0.225c-0.121-0.12-0.27-0.059-0.45,0.18
		c-0.061,0.061-0.15,0.09-0.27,0.09c-0.121-0.059-0.331,0-0.63,0.18c-0.121,0.061-0.211,0.09-0.271,0.09
		c-0.061,0-0.15,0.031-0.27,0.09c-0.121,0-0.271,0.031-0.45,0.09c-0.18,0.061-0.331,0.121-0.45,0.18c0,0.121-0.031,0.18-0.09,0.18
		h-0.45c-0.061,0.06-0.105,0.121-0.135,0.18c-0.031,0.061-0.076,0.121-0.135,0.18c-0.061,0.061-0.121,0.061-0.181,0
		c-0.061-0.059-0.121,0-0.18,0.18c-0.301,0.121-0.54,0.301-0.72,0.54c-0.181,0.241-0.392,0.481-0.63,0.72
		c-0.121,0.18-0.302,0.27-0.54,0.27c-0.181,0-0.331,0.121-0.45,0.36l0.27,0.27c0,0.061-0.03,0.121-0.09,0.18
		c-0.48,0.121-0.87,0.211-1.17,0.27c-0.121,0.061-0.211,0.09-0.27,0.09c-0.061,0-0.15,0.061-0.271,0.18l-0.09,0.18
		c-0.18,0-0.271,0.031-0.271,0.09c0,0.121,0.091,0.18,0.271,0.18l0.09,0.09c0.12,0.301,0.029,0.45-0.27,0.45
		c-0.241-0.059-0.45-0.059-0.63,0c-0.181,0.061-0.36,0.121-0.54,0.18c-0.061,0.061-0.105,0.121-0.136,0.18
		c-0.03,0.06-0.075,0.121-0.135,0.18c-0.121,0.061-0.27,0.09-0.45,0.09c0,0.18-0.03,0.33-0.09,0.45l-0.54,0.81
		c0,0.061-0.031,0.09-0.09,0.09c-0.24,0.121-0.421,0.301-0.54,0.54c-0.121,0.241-0.301,0.42-0.54,0.54
		c-0.121,0.121-0.18,0.211-0.18,0.27c-0.181,0.18-0.24,0.27-0.181,0.27c-0.12,0.121-0.211,0.256-0.27,0.405
		c-0.061,0.15-0.15,0.315-0.271,0.495c-0.06,0.061-0.105,0.121-0.135,0.18c-0.03,0.061-0.076,0.121-0.135,0.18
		c-0.18,0.18-0.315,0.391-0.405,0.63c-0.09,0.24-0.225,0.42-0.404,0.54c-0.061,0-0.091,0.061-0.091,0.18
		c0,0.121-0.045,0.211-0.135,0.27c-0.09,0.061-0.105,0.15-0.045,0.27c-0.061,0.061-0.105,0.121-0.135,0.18
		c-0.031,0.061-0.105,0.15-0.226,0.27c-0.06,0.061-0.15,0.211-0.27,0.45c-0.061,0-0.09,0.061-0.09,0.18
		c0.059,0.121,0.045,0.256-0.045,0.405c-0.09,0.15-0.195,0.285-0.315,0.405c-0.121,0.24-0.18,0.42-0.18,0.54v0.09
		c-0.18,0.121-0.285,0.301-0.315,0.54c-0.03,0.241-0.075,0.45-0.135,0.63c-0.061,0.061-0.09,0.241-0.09,0.54
		c-0.121,0.121-0.24,0.36-0.36,0.72c-0.121,0.121-0.166,0.27-0.135,0.45c0.029,0.18-0.016,0.331-0.135,0.45
		c-0.061,0.18-0.09,0.346-0.09,0.495c0,0.15-0.031,0.315-0.091,0.495c0.181,0.06,0.3,0.15,0.36,0.27
		c0.06,0.121,0.149,0.27,0.271,0.45c0.119,0.241,0.029,0.45-0.271,0.63c-0.121,0-0.18,0.031-0.18,0.09
		c0,0.061-0.031,0.121-0.09,0.18c0.059,0.061,0.119,0.09,0.18,0.09c0.059,0,0.119,0.031,0.18,0.09v0.09
		c-0.061,0.121-0.09,0.241-0.09,0.36c0,0.121-0.061,0.24-0.18,0.36v0.36c0,0.18-0.031,0.301-0.09,0.36
		c-0.061,0-0.091,0.016-0.091,0.045c0,0.031,0.03,0.045,0.091,0.045c0.119,0.121,0.148,0.195,0.09,0.225
		c-0.061,0.031-0.09,0.105-0.09,0.225c0,0.18-0.045,0.346-0.136,0.495c-0.09,0.15-0.075,0.315,0.045,0.495l-0.09,0.09
		c-0.121,0.121-0.18,0.211-0.18,0.27c0.059,0.061,0.09,0.18,0.09,0.36c-0.061,0.241-0.105,0.45-0.135,0.63
		c-0.031,0.18-0.045,0.391-0.045,0.63c0,0.42-0.031,0.72-0.09,0.9c0,0.18,0.029,0.331,0.09,0.45c-0.24,0.18-0.331,0.42-0.271,0.72
		c0.12,0.301,0.12,0.601,0,0.9c-0.061,0.241,0,0.45,0.181,0.63c-0.121,0.18-0.196,0.346-0.226,0.495
		c-0.03,0.151-0.105,0.315-0.225,0.495c0.18,0.18,0.239,0.331,0.18,0.45c-0.121,0.18-0.15,0.36-0.09,0.54
		c0.059,0.18,0.119,0.36,0.18,0.54c0.06,0.18,0.12,0.346,0.181,0.495c0.059,0.151,0.148,0.346,0.27,0.585
		c-0.061,0-0.09,0.121-0.09,0.36c0.119-0.059,0.225-0.045,0.315,0.045c0.09,0.09,0.193,0.195,0.314,0.315
		c0.119,0.121,0.18,0.241,0.18,0.36c0,0.121,0.03,0.241,0.091,0.36c0.238,0.24,0.419,0.45,0.54,0.63
		c-0.121,0.121-0.181,0.211-0.181,0.27c0.12,0.121,0.255,0.24,0.405,0.36c0.149,0.121,0.284,0.241,0.405,0.36
		c0.119,0.121,0.238,0.211,0.359,0.27c0.12,0.061,0.271,0.09,0.45,0.09c0.06,0,0.09,0.031,0.09,0.09c0.06,0.18,0.181,0.27,0.36,0.27
		s0.329,0.061,0.45,0.18c0.238,0.121,0.449,0.24,0.63,0.36c0.18,0.121,0.39,0.24,0.63,0.36c0.239,0.121,0.479,0.211,0.72,0.27
		c0.239,0.061,0.479,0.15,0.72,0.27c0.06,0.061,0.181,0.09,0.36,0.09c0.419,0,0.75,0.031,0.99,0.09h0.09
		c0.3-0.12,0.569-0.135,0.81-0.045c0.239,0.09,0.51,0.076,0.811-0.045c0.119,0,0.225,0.016,0.314,0.045
		c0.091,0.031,0.194,0.045,0.315,0.045c0.3,0,0.554-0.03,0.765-0.09c0.21-0.059,0.435-0.119,0.676-0.18
		c0.059,0,0.148-0.059,0.27-0.18c0.119-0.12,0.239-0.27,0.36-0.45c0.119-0.18,0.239-0.36,0.359-0.54
		c0.06-0.18,0.149-0.27,0.271-0.27c0.3-0.18,0.45-0.479,0.45-0.9c0-0.419,0-0.81,0-1.17c0-0.36-0.031-0.72-0.091-1.08
		c0-0.299,0.03-0.585,0.091-0.855c0.059-0.27,0.119-0.554,0.18-0.855c0.059-0.18,0.09-0.344,0.09-0.495
		c0-0.149,0.029-0.315,0.09-0.495v-0.09c-0.121-0.599-0.24-1.049-0.359-1.35c-0.181-0.239-0.211-0.57-0.091-0.99
		c0.06-0.12,0.03-0.299-0.09-0.54c-0.121-0.239-0.24-0.389-0.359-0.45c-0.121,0-0.181-0.059-0.181-0.18
		c-0.24-0.36-0.42-0.569-0.54-0.63c-0.12-0.12-0.195-0.225-0.225-0.315c-0.031-0.09-0.105-0.194-0.225-0.315
		c-0.061,0-0.091-0.014-0.091-0.045c0-0.029-0.03-0.045-0.09-0.045c-0.18-0.059-0.359-0.149-0.54-0.27
		c-0.18-0.12-0.359-0.209-0.54-0.27c-0.42,0-0.63-0.149-0.63-0.45c-0.121-0.059-0.211-0.12-0.27-0.18
		c-0.061-0.059-0.15-0.12-0.271-0.18l-0.09-0.09c-0.42-0.059-0.81-0.239-1.17-0.54h-0.18c-0.181,0-0.301-0.09-0.36-0.27
		c-0.24-0.36-0.48-0.54-0.72-0.54c-0.121,0-0.24-0.18-0.36-0.54c0-0.059,0.015-0.09,0.045-0.09c0.029,0,0.045-0.029,0.045-0.09
		c0.12-0.239,0.239-0.599,0.36-1.08c0-0.239,0.09-0.45,0.27-0.63c0.181-0.18,0.239-0.36,0.181-0.54c0.059,0,0.09-0.03,0.09-0.09
		c0-0.119,0.029-0.18,0.09-0.18c0.419-0.18,0.659-0.45,0.72-0.81v-0.09c0.181-0.059,0.315-0.165,0.405-0.315
		c0.09-0.149,0.194-0.284,0.315-0.405c0.119-0.12,0.209-0.18,0.27-0.18l0.18-0.18c0.06-0.12,0.149-0.194,0.271-0.225
		c0.119-0.03,0.209-0.104,0.27-0.225c0.181-0.18,0.36-0.27,0.54-0.27c0.06,0,0.091-0.014,0.091-0.045
		c0-0.029,0.029-0.045,0.09-0.045c0.54-0.54,1.109-0.54,1.71,0c0.059,0,0.09,0.016,0.09,0.045c0,0.031,0.029,0.045,0.09,0.045
		c0.239,0.061,0.45,0.166,0.63,0.315c0.18,0.15,0.36,0.315,0.54,0.495c0.06,0,0.104,0.016,0.135,0.045
		c0.03,0.031,0.075,0.045,0.136,0.045l0.18,0.18c0.059,0.18,0.164,0.331,0.314,0.45c0.149,0.121,0.284,0.27,0.405,0.45
		c0.36,0.36,0.6,0.661,0.72,0.9c0.12,0,0.181,0.031,0.181,0.09h0.18c0.12,0.18,0.271,0.27,0.45,0.27s0.329,0.061,0.45,0.18
		c0.72,0.42,1.26,0.81,1.62,1.17c0.18,0.18,0.329,0.301,0.449,0.36c0.239,0.18,0.45,0.391,0.631,0.63
		c0.419,0.42,0.868,0.751,1.35,0.99c0.119,0.06,0.225,0.135,0.314,0.225c0.091,0.09,0.194,0.196,0.315,0.315l0.271,0.27
		c0.299,0.18,0.509,0.481,0.63,0.9c0,0.06,0.029,0.105,0.09,0.135c0.059,0.031,0.09,0.076,0.09,0.135
		c0.059,0.06,0.09,0.121,0.09,0.18c0,0.061,0.029,0.121,0.09,0.18c0.06,0.121,0.12,0.24,0.181,0.36
		c0.059,0.121,0.148,0.241,0.27,0.36c0.119,0.121,0.194,0.241,0.225,0.36c0.03,0.121,0.104,0.24,0.226,0.36v0.27
		c0,0.121,0.029,0.18,0.09,0.18c0.119,0.121,0.18,0.301,0.18,0.54c0,0.301,0.06,0.63,0.181,0.99c0.119,0.301,0.209,0.63,0.27,0.99
		c0.06,0.36,0.149,0.69,0.271,0.99c0,0.121-0.061,0.301-0.181,0.54c0.06,0.121,0.12,0.225,0.181,0.315
		c0.059,0.09,0.029,0.225-0.091,0.405c0.12,0.121,0.136,0.285,0.046,0.495c-0.091,0.211-0.076,0.405,0.045,0.585
		c0.059,0.061,0.09,0.211,0.09,0.45c0,0.24,0.029,0.42,0.09,0.54c0.119,0.121,0.149,0.24,0.09,0.36
		c-0.061,0.121-0.121,0.241-0.18,0.36c0,0.061-0.016,0.121-0.045,0.18c-0.031,0.061-0.045,0.121-0.045,0.18
		c0,0.301-0.121,0.481-0.36,0.54c-0.061,0.061-0.09,0.121-0.09,0.18c0,0.061-0.031,0.15-0.09,0.27
		c-0.121,0.18-0.226,0.375-0.315,0.585c-0.09,0.211-0.195,0.405-0.314,0.585c-0.121,0.18-0.196,0.375-0.226,0.585
		c-0.031,0.211-0.105,0.405-0.225,0.585c0,0.121,0.029,0.225,0.09,0.315c0.059,0.09,0.119,0.195,0.18,0.315v0.18
		c0,0.301-0.045,0.601-0.135,0.9c-0.09,0.301-0.195,0.6-0.315,0.9h-0.09c0,0.24-0.045,0.45-0.135,0.63s-0.195,0.391-0.315,0.63
		c-0.24,0.36-0.391,0.661-0.449,0.9c-0.121,0.24-0.271,0.405-0.45,0.495c-0.18,0.09-0.36,0.225-0.54,0.405
		c-0.18,0.18-0.36,0.211-0.54,0.09c0,0.121-0.031,0.211-0.09,0.27c-0.121,0.121-0.256,0.225-0.405,0.315
		c-0.15,0.09-0.285,0.195-0.405,0.315c-0.301,0.121-0.601,0.27-0.899,0.45c-0.301,0.18-0.601,0.331-0.9,0.45l-0.09,0.09
		c-0.24-0.12-0.466-0.12-0.675,0c-0.211,0.121-0.437,0.18-0.675,0.18h-0.181c-0.301,0.241-0.601,0.211-0.899-0.09
		c-0.061,0.061-0.121,0.09-0.181,0.09c-0.48,0.54-1.05,0.72-1.71,0.54C244.463,171.613,244.254,171.674,244.073,171.793z
		 M228.504,150.914c0.238,0.061,0.359,0.24,0.359,0.54c0,0.121,0.029,0.18,0.09,0.18c0.06,0.18,0.06,0.331,0,0.45
		c0,0.481,0.12,0.931,0.36,1.35c0.119-0.18,0.149-0.329,0.09-0.45c0-0.239,0.029-0.39,0.09-0.45c0.181-0.18,0.149-0.509-0.09-0.99
		v-0.27c0-0.12,0.015-0.27,0.045-0.45c0.029-0.18-0.016-0.329-0.135-0.45c0.119-0.059,0.239-0.149,0.36-0.27
		c-0.181-0.66-0.091-1.139,0.27-1.44v-0.36c0.119-0.119,0.149-0.239,0.09-0.36c-0.061-0.12-0.09-0.239-0.09-0.36
		c0.18-0.18,0.271-0.419,0.271-0.72c0-0.059,0.014-0.104,0.045-0.135c0.029-0.03,0.045-0.075,0.045-0.135
		c0-0.299,0.029-0.569,0.09-0.81c0.059-0.239,0.119-0.48,0.18-0.72c0.06-0.12,0.075-0.225,0.045-0.315s-0.016-0.194,0.045-0.315
		c0.12-0.3,0.226-0.585,0.315-0.855s0.255-0.554,0.495-0.855c0.059-0.059,0.059-0.12,0-0.18c0-0.239,0.045-0.464,0.135-0.675
		c0.09-0.21,0.135-0.435,0.135-0.675c0.06-0.239,0.12-0.479,0.181-0.72c0.059-0.239,0.148-0.45,0.27-0.63
		c-0.061-0.239,0.029-0.479,0.271-0.72c0.059-0.12,0.09-0.254,0.09-0.405c0-0.149,0.059-0.284,0.18-0.405
		c0.3-0.299,0.39-0.599,0.271-0.9c0-0.18,0.059-0.27,0.18-0.27c0.3-0.059,0.45-0.27,0.45-0.63c-0.061-0.3,0.059-0.57,0.359-0.81
		c0.181-0.18,0.271-0.39,0.271-0.63c0-0.18,0.045-0.329,0.135-0.45c0.09-0.12,0.164-0.239,0.225-0.36
		c0.06-0.059,0.12-0.104,0.181-0.135c0.059-0.029,0.119-0.104,0.18-0.225c0.239-0.419,0.21-0.81-0.09-1.17
		c-0.121,0.481-0.271,0.781-0.45,0.9c-0.18,0.301-0.346,0.585-0.495,0.855c-0.15,0.27-0.285,0.556-0.405,0.855
		c-0.06,0.241-0.18,0.481-0.359,0.72c-0.061,0.061-0.09,0.121-0.09,0.18c0,0.06-0.031,0.121-0.09,0.18
		c-0.121,0.121-0.241,0.241-0.36,0.36c-0.121,0.121-0.211,0.301-0.271,0.54l-0.18,0.18c-0.36,0.061-0.48,0.36-0.36,0.9
		c0.12,0.121,0.12,0.241,0,0.36c-0.12,0.121-0.195,0.225-0.225,0.315c-0.031,0.09-0.076,0.195-0.135,0.315
		c0,0.121,0.059,0.24,0.18,0.36c-0.121,0.121-0.18,0.211-0.18,0.27c0,0.061-0.031,0.15-0.09,0.27
		c-0.061,0.121-0.091,0.24-0.091,0.36c0,0.121-0.06,0.241-0.18,0.36c-0.301,0.18-0.391,0.45-0.27,0.81
		c0,0.241-0.045,0.466-0.136,0.675c-0.09,0.211-0.135,0.436-0.135,0.675c0,0.121-0.03,0.196-0.09,0.225
		c-0.061,0.031-0.09,0.076-0.09,0.135l-0.18,0.18c0.119,0.121,0.135,0.241,0.045,0.36c-0.091,0.121-0.166,0.241-0.226,0.36
		c0.12,0,0.181,0.061,0.181,0.18c0,0.601-0.151,1.051-0.45,1.35v0.81c0,0.36-0.031,0.63-0.09,0.81c-0.121,0-0.211-0.075-0.271-0.225
		c-0.061-0.149-0.18-0.135-0.36,0.045c0,0.121,0.015,0.211,0.046,0.27c0.029,0.061,0.045,0.15,0.045,0.27
		c-0.061,0.121-0.136,0.225-0.226,0.315c-0.09,0.09-0.105,0.196-0.045,0.315c0,0.241-0.031,0.421-0.09,0.54l0.09,0.27
		c0.06,0.061,0.104,0.09,0.135,0.09s0.075,0.031,0.136,0.09c0,0.301-0.091,0.526-0.271,0.675
		C228.684,150.389,228.562,150.614,228.504,150.914z"/>
</g>
</svg>
