<?xml version="1.0" encoding="utf-8"?>
<!-- Generator: Adobe Illustrator 17.0.0, SVG Export Plug-In . SVG Version: 6.00 Build 0)  -->
<!DOCTYPE svg PUBLIC "-//W3C//DTD SVG 1.1//EN" "http://www.w3.org/Graphics/SVG/1.1/DTD/svg11.dtd">
<svg version="1.1" xmlns="http://www.w3.org/2000/svg" xmlns:xlink="http://www.w3.org/1999/xlink" x="0px" y="0px"
	 width="362.83px" height="362.83px" viewBox="0 0 362.83 362.83" enable-background="new 0 0 362.83 362.83" xml:space="preserve">
<g id="Ebene_2" display="none">
	
		<image display="inline" overflow="visible" width="191" height="480" xlink:href="B648A53B.jpg"  transform="matrix(1 0 0 1 97.0816 17.2586)">
	</image>
</g>
<g id="Ebene_1">
	<path fill="#F0F1EF" stroke="#000000" stroke-width="0.7087" stroke-miterlimit="10" d="M145.195,31.118
		c-0.591-9.661,6.598-11.772,8.951-13.723c7.26-6.021,68.176-2.432,77.986,2.634c9.81,5.066-2.043,18.115-2.043,18.115
		s-29.175,33.416-27.134,41.661c2.041,8.245,42.802,215.469,40.871,222.168s-37.741,41.498-53.418,50.694
		c-17.699-4.138-56.82-30.28-59.872-39.121c-3.052-8.841,30.224-218.462,34.455-236.454
		C171.908,61.547,145.785,40.78,145.195,31.118z"/>
	<path fill="#0E94B0" stroke="#000000" stroke-width="1.4173" stroke-miterlimit="10" d="M156.369,33.725
		c-1.443-5.944,2.308-8.973,2.308-8.973c6.549-4.526,57.515-2.238,63.64,2.424s0,13.144,0,13.144s-26.005,30.332-24.731,37.92
		c1.274,7.588,37.261,221.916,37.261,221.916l-45.117,46.494l-54.135-34.293c0,0,31.293-219.81,35.612-234.117
		S157.812,39.668,156.369,33.725z"/>
	<path fill="#0E94B0" stroke="#000000" stroke-width="1.4173" stroke-miterlimit="10" d="M171.954,71.782
		c5.828-9.36,23.777-7.716,26.097,3.363"/>
	<path fill="#F0F1EF" stroke="#000000" stroke-width="0.7087" stroke-miterlimit="10" d="M177.27,78.818
		c-10.257,30.758-23.012,141.215-23.16,150.168c-0.148,8.953-16.683,171.027,1.409,17.294S166.277,142.714,177.27,78.818z"/>
	<path fill="#F0F1EF" stroke="#000000" stroke-width="0.7087" stroke-miterlimit="10" d="M166.558,47.46
		c-7.875-15.019-8.058-19.335-6.058-20.96s32.625-2.5,16.748,4.873C156.634,44.391,175.153,34.46,166.558,47.46z"/>
</g>
<g id="Ebene_3" display="none">
	<path display="inline" stroke="#000000" stroke-width="1.4173" stroke-miterlimit="10" d="M176.777,47.729
		c2.952-1.816,1.589-8.628,1.589-8.628s18.911-0.378,15.666,2.952c-3.245,3.33-6.811,11.806-8.628,8.855
		C183.588,47.956,173.825,49.546,176.777,47.729z"/>
	<path display="inline" stroke="#000000" stroke-width="1.4173" stroke-miterlimit="10" d="M174.658,54.768
		c1.44-2.412,7.038,0,7.038,0l-7.038,12.034C174.658,66.801,171.933,61.806,174.658,54.768z"/>
	<path display="inline" stroke="#000000" stroke-width="1.4173" stroke-miterlimit="10" d="M168.485,76.937
		c-1.925-3.778-1.925,8.709-1.925,8.709l5.449,2.725C172.009,88.371,170.411,80.715,168.485,76.937z"/>
	<path display="inline" stroke="#000000" stroke-width="1.4173" stroke-miterlimit="10" d="M166.56,93.139
		c-2.725,1.589,0,14.304,0,14.304l8.491,3.633l-0.998-13.169C174.052,97.907,169.284,91.55,166.56,93.139z"/>
	<path display="inline" stroke="#000000" stroke-width="1.4173" stroke-miterlimit="10" d="M166.56,116.298
		c-6.357,2.043,1.589,24.975,1.589,24.975l9.423,4.541l-2.521-27.473C175.05,118.341,172.917,114.254,166.56,116.298z"/>
	<path display="inline" stroke="#000000" stroke-width="1.4173" stroke-miterlimit="10" d="M166.56,151.036
		c1.362-4.995,12.034,3.86,12.034,3.86l1.362,19.526l-11.579-5.222C168.376,169.2,165.197,156.031,166.56,151.036z"/>
	<path display="inline" stroke="#000000" stroke-width="1.4173" stroke-miterlimit="10" d="M166.56,179.871
		c4.087-6.584,14.531,3.633,14.531,3.633l3.633,24.748l-15.439-6.584C169.284,201.668,162.473,186.456,166.56,179.871z"/>
	<path display="inline" stroke="#000000" stroke-width="1.4173" stroke-miterlimit="10" d="M168.455,211.125
		c1.51-4.462,16.268,5.301,16.268,5.301l4.211,29.186l-13.884-6.708C175.05,238.904,166.945,215.586,168.455,211.125z"/>
	<path display="inline" stroke="#000000" stroke-width="1.4173" stroke-miterlimit="10" d="M174.449,248.042
		c1.192-5.052,15.042,4.484,15.042,4.484l5.336,32.354l-16.234-7.379C178.593,277.502,173.257,253.094,174.449,248.042z"/>
	<path display="inline" stroke="#000000" stroke-width="1.4173" stroke-miterlimit="10" d="M179.728,289.762
		c0,0,6.357-4.314,13.85,0c1.135,0,4.087,20.661,4.087,20.661L179.728,289.762z"/>
</g>
</svg>
