<?xml version="1.0" encoding="utf-8"?>
<!-- Generator: Adobe Illustrator 17.0.0, SVG Export Plug-In . SVG Version: 6.00 Build 0)  -->
<!DOCTYPE svg PUBLIC "-//W3C//DTD SVG 1.1//EN" "http://www.w3.org/Graphics/SVG/1.1/DTD/svg11.dtd">
<svg version="1.1" id="Ebene_1" xmlns="http://www.w3.org/2000/svg" xmlns:xlink="http://www.w3.org/1999/xlink" x="0px" y="0px"
	 width="362.83px" height="362.83px" viewBox="0 0 362.83 362.83" enable-background="new 0 0 362.83 362.83" xml:space="preserve">
<path fill="#F0F1EF" stroke="#000000" stroke-width="0.7087" stroke-miterlimit="10" d="M351.451,213.207
	c-4.355-11.978-37.133-43.666-49.11-65.444c-11.978-21.777-29.979-61.556-47.673-65.64c-17.694-4.083-37.457,2.411-42.629,0.233
	c-5.172-2.178-11.507-23.737-28.385-24.826C166.776,56.442,70.165,70.705,26.61,79.416c-4.459,4.459-1.529,15.408,2.648,23.645
	c-3.732-0.583-6.388-0.627-7.369,0.074c-5.603,4.002-7.47,11.739-5.336,17.075c2.134,5.336,2.481,7.924,1.947,11.926
	c-0.534,4.002,5.654,46.105,13.925,55.443c7.737,16.008,28.683,52.69,48.693,68.965c9.861-1.722,5.87,2.018,7.47,9.221
	c1.601,7.204,25.613,20.393,53.893,25.729c28.281,5.336,47.757,12.012,127.529-12.534c36.551-16.808,39.486-14.68,44.822-17.348
	c5.336-2.668,11.926-9.151,10.325-22.758c-0.125-1.062-0.676-2.204-1.592-3.407C337.882,233.313,354.96,222.857,351.451,213.207z
	 M159.336,184.463c-13.255-9.941-40.955-36.453-56.807-50.067c10.038,1.497,24.22,2.952,32.099,2.952
	c9.255,0,12.003,20.108,40.858,31.541c28.855,11.433,28.783,6.239,37.349,8.046c3.521,2.658,15.169,12.476,28.78,22.229
	c-1.679-0.265-3.099-0.399-4.196-0.379C190.197,201.453,165.206,192.734,159.336,184.463z"/>
<path fill="#E01F37" stroke="#000000" stroke-width="1.4173" stroke-miterlimit="10" d="M33.852,85.692
	c38.622-7.724,134.854-21.886,149.819-20.92c14.966,0.966,17.138,21.725,21.725,23.656c4.586,1.931,29.208-3.621,44.898,0
	s28.001,35.242,38.622,54.553s46.829,54.553,50.691,65.174c3.862,10.621-19.552,15.207-32.346,12.552s-35.484-9.173-40.553-14
	s-44.173-34.277-44.817-45.783c-4.747-2.012-19.874,5.713-45.461-4.425c-25.587-10.138-30.414-33.311-38.622-33.311
	s-26.15,0.724-34.759-0.805s-12.713-2.897-20.276-4.345c-7.563-1.448-20.115-6.437-15.931-4.989c4.184,1.448-8.207,0-12.793-0.724
	C49.462,111.601,27.254,92.29,33.852,85.692z"/>
<path fill="#E01F37" stroke="#000000" stroke-width="1.4173" stroke-miterlimit="10" d="M27.737,127.532
	c-1.931-4.828-0.241-11.828,4.828-15.449c5.069-3.621,56.001,18.104,60.346,24.621c7.966,4.345,38.622,47.311,54.07,58.898
	c5.31,7.483,52.863,14,95.588,11.586c13.276-0.241,67.105,19.552,68.553,31.863s-8.69,14-13.518,16.414
	c-4.828,2.414-7.483,4.104-40.553,19.311c-72.174,22.207-89.795,12.552-115.382,7.724c-25.587-4.828-47.311-19.552-48.76-26.07
	c-1.448-6.517,21.725-46.587,23.776-51.053c-8.811,1.328-23.776,40.915-30.535,45.501c-18.104-14.724-33.552-51.415-40.553-65.898
	c-7.483-8.448-13.035-46.587-12.552-50.208C33.53,131.153,29.668,132.36,27.737,127.532z"/>
<path fill="#FFFFFF" stroke="#000000" stroke-width="1.4173" stroke-miterlimit="10" d="M101.118,162.292
	c1.69-4.345-1.69-9.897-13.035-12.552s-18.345,5.069-19.311,11.586c-0.966,6.517,3.138,15.207,10.621,15.449
	C86.876,177.016,99.428,166.637,101.118,162.292z"/>
<path fill="#FFFFFF" stroke="#000000" stroke-width="1.4173" stroke-miterlimit="10" d="M85.669,185.465
	c1.931-6.759,13.759-17.862,19.311-20.276s14,6.035,11.586,14.966c-2.414,8.931-8.931,14-16.414,21.242
	C88.807,202.12,83.738,192.223,85.669,185.465z"/>
<path fill="#FFFFFF" stroke="#000000" stroke-width="1.4173" stroke-miterlimit="10" d="M117.532,215.396
	c-0.724-3.862,5.31-9.655,7.242-9.655s4.828-0.241,4.345,2.897s-4.345,12.552-7.242,12.069
	C118.98,220.224,118.256,219.258,117.532,215.396z"/>
<path fill="#FFFFFF" stroke="#000000" stroke-width="1.4173" stroke-miterlimit="10" d="M133.463,220.224
	c0.966-1.207,3.621-2.897,4.345,0s-1.69,14.242-4.828,14.483c-3.138,0.241-4.345,0.483-4.345-2.897
	C128.636,228.431,132.498,221.431,133.463,220.224z"/>
<path fill="#FFFFFF" stroke="#000000" stroke-width="1.4173" stroke-miterlimit="10" d="M185.603,220.224
	c6.517-9.173,25.828-2.414,28.001,2.897c2.172,5.31,3.138,17.138-3.379,23.173c-6.517,6.035-20.518,0.241-24.621-3.379
	C181.499,239.293,179.085,229.397,185.603,220.224z"/>
<path fill="#FFFFFF" stroke="#000000" stroke-width="1.4173" stroke-miterlimit="10" d="M174.016,130.912
	c-1.448-5.552,10.138-28.966,14.483-29.932s13.035,2.655,13.035,7.724c0,5.069-2.897,21-7.242,24.621
	S175.464,136.463,174.016,130.912z"/>
<path fill="#FFFFFF" stroke="#000000" stroke-width="1.4173" stroke-miterlimit="10" d="M204.431,149.257
	c-1.207-3.621,28.483-34.518,32.828-36.208c4.345-1.69,11.586,0.241,11.104,4.345C247.88,121.498,232.19,149.015,204.431,149.257z"
	/>
<path fill="#FFFFFF" stroke="#000000" stroke-width="1.4173" stroke-miterlimit="10" d="M251.742,131.877
	c-2.172-2.897,3.862-13.035,6.276-13.518s4.586,1.448,4.828,5.552c0.241,4.104-3.379,7.966-3.379,7.966
	S253.914,134.774,251.742,131.877z"/>
<path fill="#FFFFFF" stroke="#000000" stroke-width="1.4173" stroke-miterlimit="10" d="M225.672,157.947
	c-0.724-0.724,20.035-14.966,25.104-15.931c5.069-0.966-5.793,10.138-8.207,11.586S226.397,158.671,225.672,157.947z"/>
<path fill="#FFFFFF" stroke="#000000" stroke-width="1.4173" stroke-miterlimit="10" d="M275.398,156.981
	c-2.655-0.966,2.172-5.069,3.379-5.793c1.207-0.724,2.655,3.621,1.448,5.793C279.018,159.154,278.053,157.947,275.398,156.981z"/>
</svg>
