<?xml version="1.0" encoding="utf-8"?>
<!-- Generator: Adobe Illustrator 17.0.0, SVG Export Plug-In . SVG Version: 6.00 Build 0)  -->
<!DOCTYPE svg PUBLIC "-//W3C//DTD SVG 1.1//EN" "http://www.w3.org/Graphics/SVG/1.1/DTD/svg11.dtd">
<svg version="1.1" id="Ebene_1" xmlns="http://www.w3.org/2000/svg" xmlns:xlink="http://www.w3.org/1999/xlink" x="0px" y="0px"
	 width="362.83px" height="362.83px" viewBox="0 0 362.83 362.83" enable-background="new 0 0 362.83 362.83" xml:space="preserve">
<path fill="#F2F1F0" stroke="#000000" stroke-width="0.7087" stroke-miterlimit="10" d="M328.004,250.504l0.132-10.972
	c0,0-0.519-9.043-0.925-13.573c-0.701-7.809-1.39-14.112-1.39-14.112l-0.153-10.992c0,0-0.608-8.799-1.391-11.998
	c4.613-3.559,7.785-10.944,7.785-19.482c0-12.011-6.273-21.747-14.011-21.747h-17.218C290.646,80.681,232.836,29.384,163.043,29.384
	c-76.97,0-139.373,62.403-139.373,139.382c0,76.97,62.404,139.373,139.373,139.373c69.367,0,126.89-50.676,137.589-117.017h10.842
	c-0.879,1.94-2.139,11.878-2.139,11.878l0.046,12.953l1.597,11.464L313,242.612l1.438,8.576l1.312,13.145l0.116,9.806l-1.116,12.36
	l-0.144,12.894l1.019,17.231l1.839,24.411c0,0,1.036,9.214,6.536,9.214s5.279-6.557,6-9.779s-1.125-20.596-1.125-20.596
	l-0.125-15.172L328,293l1.39-13.61l-0.556-17.556L328.004,250.504z M291.264,188.849c-9.654,62.125-63.383,109.678-128.221,109.678
	c-71.66,0-129.76-58.1-129.76-129.76c0-71.669,58.1-129.769,129.76-129.769c65.216,0,119.191,48.112,128.382,110.777
	c-4.695,3.513-7.935,10.97-7.935,19.601C283.49,177.907,286.657,185.287,291.264,188.849z"/>
<path fill="#010202" stroke="#000000" stroke-width="0.7087" stroke-miterlimit="10" d="M163.043,39.287
	c-71.501,0-129.471,57.97-129.471,129.479c0,71.501,57.97,129.471,129.471,129.471c71.51,0,129.479-57.97,129.479-129.471
	C292.523,97.257,234.553,39.287,163.043,39.287z M163.043,289.307c-66.568,0-120.541-53.972-120.541-120.541
	c0-66.577,53.972-120.549,120.541-120.549c66.577,0,120.549,53.972,120.549,120.549C283.592,235.334,229.62,289.307,163.043,289.307
	z"/>
<path fill="#010202" stroke="#000000" stroke-width="0.7087" stroke-miterlimit="10" d="M323.673,169.49
	c0,6.988-5.19,12.653-11.591,12.653h-17.001c-6.402,0-11.591-5.665-11.591-12.653l0,0c0-6.988,5.19-12.653,11.591-12.653h17.001
	C318.484,156.837,323.673,162.502,323.673,169.49L323.673,169.49z"/>
<linearGradient id="SVGID_1_" gradientUnits="userSpaceOnUse" x1="247.4725" y1="255.0575" x2="76.0242" y2="83.6092">
	<stop  offset="0.1043" style="stop-color:#2581C4;stop-opacity:0.7346"/>
	<stop  offset="0.2133" style="stop-color:#2581C4;stop-opacity:0"/>
	<stop  offset="0.5024" style="stop-color:#2581C4"/>
	<stop  offset="0.8246" style="stop-color:#2581C4;stop-opacity:0"/>
</linearGradient>
<circle fill="url(#SVGID_1_)" stroke="#000000" stroke-width="0.7087" stroke-miterlimit="10" cx="161.748" cy="169.333" r="121.232"/>
<path fill="#F2F1F0" stroke="#000000" stroke-width="0.7087" stroke-miterlimit="10" d="M316.67,169.67c0,2.76-2.09,5-4.67,5
	s-4.67-2.24-4.67-5c0-2.77,2.09-5.01,4.67-5.01S316.67,166.9,316.67,169.67z"/>
<path fill="#C2B072" stroke="#000000" stroke-width="0.7087" stroke-miterlimit="10" d="M317.221,179.668
	c0,1.519-1.15,2.752-2.571,2.752s-2.571-1.233-2.571-2.752c0-1.525,1.15-2.758,2.571-2.758S317.221,178.143,317.221,179.668z"/>
<path fill="#C2B072" stroke="#000000" stroke-width="0.7087" stroke-miterlimit="10" d="M318.471,183.168
	c0,1.519-1.15,2.752-2.571,2.752s-2.571-1.233-2.571-2.752c0-1.525,1.15-2.758,2.571-2.758S318.471,181.643,318.471,183.168z"/>
<path fill="#C2B072" stroke="#000000" stroke-width="0.7087" stroke-miterlimit="10" d="M320.471,187.668
	c0,1.519-1.15,2.752-2.571,2.752s-2.571-1.233-2.571-2.752c0-1.525,1.15-2.758,2.571-2.758S320.471,186.143,320.471,187.668z"/>
<path fill="#C2B072" stroke="#000000" stroke-width="0.7087" stroke-miterlimit="10" d="M317.754,178.756
	c1.187,3.917,0.797,7.506-0.874,8.012c-1.671,0.506-3.987-2.263-5.174-6.179c-1.191-3.931-0.801-7.52,0.869-8.026
	C314.247,172.056,316.563,174.825,317.754,178.756z"/>
<path fill="#C2B072" stroke="#000000" stroke-width="0.7087" stroke-miterlimit="10" d="M321.971,192.918
	c0,1.519-1.15,2.752-2.571,2.752s-2.571-1.233-2.571-2.752c0-1.525,1.15-2.758,2.571-2.758S321.971,191.393,321.971,192.918z"/>
<path fill="#C2B072" stroke="#000000" stroke-width="0.7087" stroke-miterlimit="10" d="M320.221,198.168
	c0,1.519-1.15,2.752-2.571,2.752s-2.571-1.233-2.571-2.752c0-1.525,1.15-2.758,2.571-2.758S320.221,196.643,320.221,198.168z"/>
<path fill="#C2B072" stroke="#000000" stroke-width="0.7087" stroke-miterlimit="10" d="M318.221,202.918
	c0,1.519-1.15,2.752-2.571,2.752s-2.571-1.233-2.571-2.752c0-1.525,1.15-2.758,2.571-2.758S318.221,201.393,318.221,202.918z"/>
<path fill="#C2B072" stroke="#000000" stroke-width="0.7087" stroke-miterlimit="10" d="M318.471,207.918
	c0,1.519-1.15,2.752-2.571,2.752s-2.571-1.233-2.571-2.752c0-1.525,1.15-2.758,2.571-2.758S318.471,206.393,318.471,207.918z"/>
<path fill="#C2B072" stroke="#000000" stroke-width="0.7087" stroke-miterlimit="10" d="M319.221,211.918
	c0,1.519-1.15,2.752-2.571,2.752s-2.571-1.233-2.571-2.752c0-1.525,1.15-2.758,2.571-2.758S319.221,210.393,319.221,211.918z"/>
<path fill="#C2B072" stroke="#000000" stroke-width="0.7087" stroke-miterlimit="10" d="M321.971,216.168
	c0,1.519-1.15,2.752-2.571,2.752s-2.571-1.233-2.571-2.752c0-1.525,1.15-2.758,2.571-2.758S321.971,214.643,321.971,216.168z"/>
<path fill="#C2B072" stroke="#000000" stroke-width="0.7087" stroke-miterlimit="10" d="M323.159,220.354
	c0.333,1.482-0.519,2.937-1.905,3.249c-1.386,0.311-2.778-0.64-3.111-2.122c-0.334-1.488,0.518-2.943,1.904-3.254
	C321.433,217.916,322.825,218.867,323.159,220.354z"/>
<path fill="#C2B072" stroke="#000000" stroke-width="0.7087" stroke-miterlimit="10" d="M322.659,225.104
	c0.333,1.482-0.519,2.937-1.905,3.249c-1.386,0.311-2.778-0.64-3.111-2.122c-0.334-1.488,0.518-2.943,1.904-3.254
	C320.933,222.666,322.325,223.617,322.659,225.104z"/>
<path fill="#C2B072" stroke="#000000" stroke-width="0.7087" stroke-miterlimit="10" d="M321.659,229.854
	c0.333,1.482-0.519,2.937-1.905,3.249c-1.386,0.311-2.778-0.64-3.111-2.122c-0.334-1.488,0.518-2.943,1.904-3.254
	C319.933,227.416,321.325,228.367,321.659,229.854z"/>
<path fill="#C2B072" stroke="#000000" stroke-width="0.7087" stroke-miterlimit="10" d="M321.909,234.604
	c0.333,1.482-0.519,2.937-1.905,3.249c-1.386,0.311-2.778-0.64-3.111-2.122c-0.334-1.488,0.518-2.943,1.904-3.254
	C320.183,232.166,321.575,233.117,321.909,234.604z"/>
<path fill="#C2B072" stroke="#000000" stroke-width="0.7087" stroke-miterlimit="10" d="M322.159,239.604
	c0.333,1.482-0.519,2.937-1.905,3.249c-1.386,0.311-2.778-0.64-3.111-2.122c-0.334-1.488,0.518-2.943,1.904-3.254
	C320.433,237.166,321.825,238.117,322.159,239.604z"/>
<path fill="#C2B072" stroke="#000000" stroke-width="0.7087" stroke-miterlimit="10" d="M321.909,244.854
	c0.333,1.482-0.519,2.937-1.905,3.249c-1.386,0.311-2.778-0.64-3.111-2.122c-0.334-1.488,0.518-2.943,1.904-3.254
	C320.183,242.416,321.575,243.367,321.909,244.854z"/>
<path fill="#C2B072" stroke="#000000" stroke-width="0.7087" stroke-miterlimit="10" d="M323.659,250.104
	c0.333,1.482-0.519,2.937-1.905,3.249c-1.386,0.311-2.778-0.64-3.111-2.122c-0.334-1.488,0.518-2.943,1.904-3.254
	C321.933,247.666,323.325,248.617,323.659,250.104z"/>
<path fill="#C2B072" stroke="#000000" stroke-width="0.7087" stroke-miterlimit="10" d="M324.659,255.604
	c0.333,1.482-0.519,2.937-1.905,3.249c-1.386,0.311-2.778-0.64-3.111-2.122c-0.334-1.488,0.518-2.943,1.904-3.254
	C322.933,253.166,324.325,254.117,324.659,255.604z"/>
<path fill="#C2B072" stroke="#000000" stroke-width="0.7087" stroke-miterlimit="10" d="M323.909,260.354
	c0.333,1.482-0.519,2.937-1.905,3.249c-1.386,0.311-2.778-0.64-3.111-2.122c-0.334-1.488,0.518-2.943,1.904-3.254
	C322.183,257.916,323.575,258.867,323.909,260.354z"/>
<path fill="#C2B072" stroke="#000000" stroke-width="0.7087" stroke-miterlimit="10" d="M324.909,266.104
	c0.333,1.482-0.519,2.937-1.905,3.249c-1.386,0.311-2.778-0.64-3.111-2.122c-0.334-1.488,0.518-2.943,1.904-3.254
	C323.183,263.666,324.575,264.617,324.909,266.104z"/>
<path fill="#C2B072" stroke="#000000" stroke-width="0.7087" stroke-miterlimit="10" d="M325.409,270.854
	c0.333,1.482-0.519,2.937-1.905,3.249c-1.386,0.311-2.778-0.64-3.111-2.122c-0.334-1.488,0.518-2.943,1.904-3.254
	C323.683,268.416,325.075,269.367,325.409,270.854z"/>
<path fill="#C2B072" stroke="#000000" stroke-width="0.7087" stroke-miterlimit="10" d="M323.909,275.604
	c0.333,1.482-0.519,2.937-1.905,3.249c-1.386,0.311-2.778-0.64-3.111-2.122c-0.334-1.488,0.518-2.943,1.904-3.254
	C322.183,273.166,323.575,274.117,323.909,275.604z"/>
<path fill="#C2B072" stroke="#000000" stroke-width="0.7087" stroke-miterlimit="10" d="M323.659,281.354
	c0.333,1.482-0.519,2.937-1.905,3.249c-1.386,0.311-2.778-0.64-3.111-2.122c-0.334-1.488,0.518-2.943,1.904-3.254
	C321.933,278.916,323.325,279.867,323.659,281.354z"/>
<path fill="#C2B072" stroke="#000000" stroke-width="0.7087" stroke-miterlimit="10" d="M323.409,286.604
	c0.333,1.482-0.519,2.937-1.905,3.249c-1.386,0.311-2.778-0.64-3.111-2.122c-0.334-1.488,0.518-2.943,1.904-3.254
	C321.683,284.166,323.075,285.117,323.409,286.604z"/>
<path fill="#C2B072" stroke="#000000" stroke-width="0.7087" stroke-miterlimit="10" d="M323.159,291.104
	c0.333,1.482-0.519,2.937-1.905,3.249c-1.386,0.311-2.778-0.64-3.111-2.122c-0.334-1.488,0.518-2.943,1.904-3.254
	C321.433,288.666,322.825,289.617,323.159,291.104z"/>
<path fill="#C2B072" stroke="#000000" stroke-width="0.7087" stroke-miterlimit="10" d="M323.159,295.854
	c0.333,1.482-0.519,2.937-1.905,3.249c-1.386,0.311-2.778-0.64-3.111-2.122c-0.334-1.488,0.518-2.943,1.904-3.254
	C321.433,293.416,322.825,294.367,323.159,295.854z"/>
<path fill="#C2B072" stroke="#000000" stroke-width="0.7087" stroke-miterlimit="10" d="M323.409,300.354
	c0.333,1.482-0.519,2.937-1.905,3.249c-1.386,0.311-2.778-0.64-3.111-2.122c-0.334-1.488,0.518-2.943,1.904-3.254
	C321.683,297.916,323.075,298.867,323.409,300.354z"/>
<path fill="#C2B072" stroke="#000000" stroke-width="0.7087" stroke-miterlimit="10" d="M323.659,305.604
	c0.333,1.482-0.519,2.937-1.905,3.249c-1.386,0.311-2.778-0.64-3.111-2.122c-0.334-1.488,0.518-2.943,1.904-3.254
	C321.933,303.166,323.325,304.117,323.659,305.604z"/>
<path fill="#C2B072" stroke="#000000" stroke-width="0.7087" stroke-miterlimit="10" d="M323.659,310.854
	c0.333,1.482-0.519,2.937-1.905,3.249c-1.386,0.311-2.778-0.64-3.111-2.122c-0.334-1.488,0.518-2.943,1.904-3.254
	C321.933,308.416,323.325,309.367,323.659,310.854z"/>
<path fill="#C2B072" stroke="#000000" stroke-width="0.7087" stroke-miterlimit="10" d="M324.409,315.854
	c0.333,1.482-0.519,2.937-1.905,3.249c-1.386,0.311-2.778-0.64-3.111-2.122c-0.334-1.488,0.518-2.943,1.904-3.254
	C322.683,313.416,324.075,314.367,324.409,315.854z"/>
<path fill="#C2B072" stroke="#000000" stroke-width="0.7087" stroke-miterlimit="10" d="M324.409,320.604
	c0.333,1.482-0.519,2.937-1.905,3.249c-1.386,0.311-2.778-0.64-3.111-2.122c-0.334-1.488,0.518-2.943,1.904-3.254
	C322.683,318.166,324.075,319.117,324.409,320.604z"/>
<path fill="#C2B072" stroke="#000000" stroke-width="0.7087" stroke-miterlimit="10" d="M324.659,325.854
	c0.333,1.482-0.519,2.937-1.905,3.249c-1.386,0.311-2.778-0.64-3.111-2.122c-0.334-1.488,0.518-2.943,1.904-3.254
	C322.933,323.416,324.325,324.367,324.659,325.854z"/>
<path fill="#C2B072" stroke="#000000" stroke-width="0.7087" stroke-miterlimit="10" d="M324.659,331.104
	c0.333,1.482-0.519,2.937-1.905,3.249c-1.386,0.311-2.778-0.64-3.111-2.122c-0.334-1.488,0.518-2.943,1.904-3.254
	C322.933,328.666,324.325,329.617,324.659,331.104z"/>
<path fill="#C2B072" stroke="#000000" stroke-width="0.7087" stroke-miterlimit="10" d="M325.409,336.604
	c0.333,1.482-0.519,2.937-1.905,3.249c-1.386,0.311-2.778-0.64-3.111-2.122c-0.334-1.488,0.518-2.943,1.904-3.254
	C323.683,334.166,325.075,335.117,325.409,336.604z"/>
<path fill="#C2B072" stroke="#000000" stroke-width="0.7087" stroke-miterlimit="10" d="M325.909,342.104
	c0.333,1.482-0.519,2.937-1.905,3.249c-1.386,0.311-2.778-0.64-3.111-2.122c-0.334-1.488,0.518-2.943,1.904-3.254
	C324.183,339.666,325.575,340.617,325.909,342.104z"/>
</svg>
