<?xml version="1.0" encoding="utf-8"?>
<!-- Generator: Adobe Illustrator 17.0.0, SVG Export Plug-In . SVG Version: 6.00 Build 0)  -->
<!DOCTYPE svg PUBLIC "-//W3C//DTD SVG 1.1//EN" "http://www.w3.org/Graphics/SVG/1.1/DTD/svg11.dtd">
<svg version="1.1" xmlns="http://www.w3.org/2000/svg" xmlns:xlink="http://www.w3.org/1999/xlink" x="0px" y="0px"
	 width="362.83px" height="362.83px" viewBox="0 0 362.83 362.83" enable-background="new 0 0 362.83 362.83" xml:space="preserve">
<g id="Ebene_1">
</g>
<g id="Ebene_2">
	<path fill="#F0F1EF" stroke="#000000" stroke-width="0.7087" stroke-miterlimit="10" d="M12.946,309.032
		c-4-18.585-10.026-57.442,22.264-77.987S63.5,177,112.828,149.828C174.326,126.674,230,64.093,230,64.093
		s32.5-50.593,73.888-44.745C323.285,25.5,337.17,0.5,350,13s-2,121.187-29,126.843s-50.47,59.844-75.485,64
		C220.5,208,189.409,245.5,174.205,251.5S108.37,342.29,66.79,338.29S16.946,327.617,12.946,309.032z"/>
	<path fill="#58221F" stroke="#000000" stroke-width="1.4173" stroke-miterlimit="10" d="M338.168,32.114
		c-22.89,53.091-74.645,68.808-82.44,77.694c-41.226,54.756-67.802,55.588-76.446,68.216c-41.94,43.983-30.423,39.403-80.167,66.792
		c-29.933,18.687-46.895,63.221-72.55,60.891c26.868-15.913,42.239-52.838,53.833-60.064c35.791-29.213,45.373-15.141,81.565-67.267
		c54.009-33.996,67.94-60.653,92.306-80.207C275.555,84.503,297.048,86.99,338.168,32.114z"/>
	<path fill="#CB927F" stroke="#000000" stroke-width="0.7087" stroke-miterlimit="10" d="M334.812,39.393
		c0,0-19.632,21.825-27.181,30.499s-46.974,29.205-53.83,34.701c-6.856,5.496-31.503,36.66-36.241,40.132
		c-4.738,3.472-35.878,22.156-45.792,33.557c-18.092,14.131-20.084,27.244-31.582,36.321s-33.178,17.067-46.571,28.427
		s-45.362,48.23-54.254,56.344c-9.16,5.915-11.471,5.711-11.471,5.711s8.394,0.082,12.684-2.731
		c5.126-1.365,37.424-38.142,46.042-46.533c7.772-9.161,29.892-21.615,40.967-26.457c11.074-4.843,35.758-31.545,44.613-43.325
		c7.036-10.499,25.374-20.851,32.934-26.219c16.947-10.615,31.103-26.719,45.609-43.553s47.396-29.945,61.355-46.792
		C322.339,58.183,334.812,39.393,334.812,39.393z"/>
	<path fill="#E5D6CE" stroke="#000000" stroke-width="0.7087" stroke-miterlimit="10" d="M298.707,41.749
		c3.126,1.006,32.589,34.539,36.22,39.299c3.631,4.761-3.081,6.693-4.517,5.032c-1.435-1.661-35.563-39.32-35.487-41.062
		C295.001,43.277,295.581,40.743,298.707,41.749z"/>
	<path fill="#E5D6CE" stroke="#000000" stroke-width="0.7087" stroke-miterlimit="10" d="M256.771,77.925
		c3.197,0.751,35.265,31.802,39.267,36.255c4.002,4.453-2.971,7.817-4.193,6.701s-38.289-35.169-38.581-39.392
		C252.971,77.265,253.574,77.174,256.771,77.925z"/>
	<path fill="#E5D6CE" stroke="#000000" stroke-width="0.7087" stroke-miterlimit="10" d="M255.743,153.743
		c-1.873,0.168-32.953-37.287-36.92-41.142c-3.57-4.806,3.166-6.653,4.58-4.974c1.414,1.679,36.615,37.388,36.513,41.62
		C259.814,153.479,257.616,153.575,255.743,153.743z"/>
	<path fill="#E5D6CE" stroke="#000000" stroke-width="0.7087" stroke-miterlimit="10" d="M206.778,179.272
		c-2.488-1.145-23.533-31.855-26.064-36.16c-2.531-4.305,2.903-8.943,4.243-3.715c1.34,5.228,25.398,36.754,25.28,37.546
		C210.12,177.735,208.949,180.168,206.778,179.272z"/>
	<path fill="#E5D6CE" stroke="#000000" stroke-width="0.7087" stroke-miterlimit="10" d="M180.511,216.022
		c-2.081,0.184-34.464-32.668-38.355-37.219c-1.713-3.755,1.92-4.96,4.229-5.276c0.82-1.099,37.533,34.79,37.721,39.019
		C182.91,215.894,182.592,215.838,180.511,216.022z"/>
	<path fill="#E5D6CE" stroke="#000000" stroke-width="0.7087" stroke-miterlimit="10" d="M139.091,248.522
		c-2.197,0.196-37.445-30.237-42.509-30.582c-5.342-2.464,2.047-9.12,3.743-7.727s40.653,32.753,41.939,34.445
		C143.551,246.35,141.289,248.326,139.091,248.522z"/>
	<path fill="#E5D6CE" stroke="#000000" stroke-width="0.7087" stroke-miterlimit="10" d="M97.088,280.882
		c-0.943-0.826-27.516-38.702-30.456-43.918c-2.94-5.216,3.513-8.246,5.167-4.361c1.654,3.885,30.118,41.376,29.486,45.562
		C99.884,281.992,98.031,281.708,97.088,280.882z"/>
	<path fill="#E5D6CE" stroke="#000000" stroke-width="0.7087" stroke-miterlimit="10" d="M64.1,319.306
		c-2.972-1.396-27.926-38.407-30.921-43.591c-2.995-5.184,3.909-6.246,5.121-4.416c1.212,1.83,31.079,43.618,29.969,45.246
		C67.159,318.172,67.073,320.702,64.1,319.306z"/>
	<path stroke="#000000" stroke-width="0.7087" stroke-miterlimit="10" d="M342.562,86.797c0.788,0.469,2.878,4.517-0.343,7.531
		c-3.221,3.014-7.615,0.38-8.264-0.725C338.967,93.937,342.436,93.175,342.562,86.797z"/>
	<path stroke="#000000" stroke-width="0.7087" stroke-miterlimit="10" d="M303.854,117.687c0.863,0.368,3.055,4.426-0.645,8.341
		c-3.7,3.914-8.513,1.841-9.198,0.748C299.593,126.206,303.491,124.72,303.854,117.687z"/>
	<path stroke="#000000" stroke-width="0.7087" stroke-miterlimit="10" d="M267.073,153.254c0.834,0.445,2.552,4.749-1.724,8.415
		c-4.276,3.666-8.921,1.159-9.481-0.008C261.637,161.548,265.804,160.365,267.073,153.254z"/>
	<path stroke="#000000" stroke-width="0.7087" stroke-miterlimit="10" d="M220.521,100.984c-0.387-0.845-4.177-3.5-7.447-0.779
		c-3.27,2.721-1.09,7.432-0.062,8.233C213.154,103.46,214.229,100.162,220.521,100.984z"/>
	<path stroke="#000000" stroke-width="0.7087" stroke-miterlimit="10" d="M254.553,71.483c-0.644-0.771-5.381-2.353-8.069,1.61
		c-2.688,3.963,0.926,8.257,2.233,8.773C247.477,76.527,247.691,72.669,254.553,71.483z"/>
	<path stroke="#000000" stroke-width="0.7087" stroke-miterlimit="10" d="M182.529,131.197c-0.513-1.008-4.97-4.518-8.314-1.87
		c-3.344,2.648-0.461,8.272,0.755,9.316C174.629,133.025,175.488,129.433,182.529,131.197z"/>
	<path stroke="#000000" stroke-width="0.7087" stroke-miterlimit="10" d="M145.621,166.096c-0.65-0.841-5.676-2.367-8.818,2.304
		c-3.142,4.671,0.507,9.352,1.889,9.863C137.671,172.254,138.133,167.847,145.621,166.096z"/>
	<path stroke="#000000" stroke-width="0.7087" stroke-miterlimit="10" d="M97.288,204.985c-0.729-0.84-5.959-2.677-8.772,1.441
		c-2.814,4.118,1.275,8.796,2.72,9.387C89.71,210.105,89.821,206.017,97.288,204.985z"/>
	<path stroke="#000000" stroke-width="0.7087" stroke-miterlimit="10" d="M69.171,225.683c-0.132-0.803-2.899-3.736-6.606-1.863
		c-3.707,1.873-2.952,6.358-2.223,7.225C61.781,226.693,63.633,223.966,69.171,225.683z"/>
	<path stroke="#000000" stroke-width="0.7087" stroke-miterlimit="10" d="M35.21,264.079c-0.272-0.767-3.516-3.164-6.832-0.663
		s-1.779,6.78-0.908,7.504C28.117,266.382,29.456,263.37,35.21,264.079z"/>
	<path stroke="#000000" stroke-width="0.7087" stroke-miterlimit="10" d="M298.061,36.401c-0.384-1.026-4.411-4.741-8.13-2.3
		c-3.719,2.441-1.558,8.166-0.47,9.265C289.859,37.785,291.2,34.274,298.061,36.401z"/>
	<path stroke="#000000" stroke-width="0.7087" stroke-miterlimit="10" d="M216.438,178.597c0.912,0.542,3.025,5.337-1.235,9.023
		c-4.26,3.685-9.34,0.639-10.012-0.669C211.274,187.23,215.592,186.234,216.438,178.597z"/>
	<path stroke="#000000" stroke-width="0.7087" stroke-miterlimit="10" d="M189.832,213.187c0.976,0.345,4.46,4.167,2.042,7.867
		c-2.418,3.7-7.867,1.755-8.9,0.725C188.338,221.23,191.734,219.82,189.832,213.187z"/>
	<path stroke="#000000" stroke-width="0.7087" stroke-miterlimit="10" d="M149.042,244.956c1.013,0.293,4.361,4.305,1.38,8.787
		s-8.635,2.822-9.638,1.751C146.605,254.31,150.399,252.346,149.042,244.956z"/>
	<path stroke="#000000" stroke-width="0.7087" stroke-miterlimit="10" d="M107.978,280.633c1.008,0.734,3.921,6.255,0.226,9.539
		c-3.695,3.284-9.314-0.833-10.205-2.354C104.18,289.111,108.372,288.74,107.978,280.633z"/>
	<path stroke="#000000" stroke-width="0.7087" stroke-miterlimit="10" d="M74.423,316.535c0.99,0.636,3.491,5.923-0.775,9.645
		c-4.266,3.722-9.785,0.147-10.568-1.3C69.494,325.533,73.977,324.711,74.423,316.535z"/>
</g>
</svg>
