<?xml version="1.0" encoding="utf-8"?>
<!-- Generator: Adobe Illustrator 17.0.0, SVG Export Plug-In . SVG Version: 6.00 Build 0)  -->
<!DOCTYPE svg PUBLIC "-//W3C//DTD SVG 1.1//EN" "http://www.w3.org/Graphics/SVG/1.1/DTD/svg11.dtd">
<svg version="1.1" xmlns="http://www.w3.org/2000/svg" xmlns:xlink="http://www.w3.org/1999/xlink" x="0px" y="0px"
	 width="362.83px" height="362.83px" viewBox="0 0 362.83 362.83" enable-background="new 0 0 362.83 362.83" xml:space="preserve">
<g id="Ebene_1" display="none">
	
		<image display="inline" overflow="visible" width="673" height="720" xlink:href="../Alt/pipe-2022444_960_720.png"  transform="matrix(0.4368 0 0 0.4368 -184.2517 28.4824)">
	</image>
</g>
<g id="Ebene_2">
	<path fill="#F0F1EF" stroke="#000000" stroke-width="0.7087" stroke-miterlimit="10" d="M334.333,22.029
		c-4.585-3.242-12.67-8.13-51.97-5.029c-22.106,0.705-33.296,13.551-58.513,54.995c-2.948,0.423-10.706,2.755-13.326,5.011
		s-23.562,44.416-24.96,47.705s-1.35,10.644-1.323,13.213c-0.096,0.025-0.198,0.052-0.292,0.076
		c-8.837,16.278-20.517,31.548-23.733,35.783C129.667,136,48.636,159,30.483,212.648c-0.097,2.074,0.137,3.942,0.645,5.629
		c1.894,28.386,8.778,141.936,117.872,127.39c19.077-4.822,35.435-26.178,44.95-44.552c0,0,1.255-1.651,2.971-6.115
		c1.901-4.193,3.377-8.083,4.375-11.405c10.46-27.316,30.019-78.749,41.399-110.884c5.604-3.464,15.273-9.668,12.636-26.32
		c6.546-11.128,22.134-37.689,24.424-42.15c2.912-5.67-0.165-5.704-0.784-10.603S298.624,54.059,303.5,50.5
		s11.438-0.713,21.873-1.127C335.809,48.96,340.556,28.373,334.333,22.029z"/>
	<path fill="#220B0C" stroke="#000000" stroke-width="1.4173" stroke-miterlimit="10" d="M160.625,184.375
		c0,0,21.375-30.625,27.625-44.125c14.5-3.25,52.75,4.25,49.25,27.154c0.25,6.346-48.25,119.516-48.25,119.516L160.625,184.375z"/>
	<path fill="#6F1D1F" stroke="#000000" stroke-width="1.4173" stroke-miterlimit="10" d="M192.652,144.336
		c-1.018,1.861-24.67,40.58-23.525,43.019s18.544-10.902,20.194-13.556c1.65-2.654,15.146-24.092,15.031-27.257
		S193.669,142.475,192.652,144.336z"/>
	<path fill="#220B0C" stroke="#000000" stroke-width="1.4173" stroke-miterlimit="10" d="M37.019,213.884
		c12.465-46.976,84.985-73.638,116.28-41.835c5.164,20.657-10.687,33.036-35.326,47.405
		C95.407,234.657,35.799,236.616,37.019,213.884z"/>
	<path fill="#E8A628" stroke="#000000" stroke-width="1.4173" stroke-miterlimit="10" d="M188.25,140.25c0,0-1.5-13.5,9.5-23
		c39.25-4.5,51.75,21.501,53.25,26.126c4.5,17.624-10.25,21.432-13.5,24.028C234,134.5,188.25,140.25,188.25,140.25z"/>
	<path fill="#F0F1EF" stroke="#000000" stroke-width="0.7087" stroke-miterlimit="10" d="M199.663,119.625
		c-5.258,2.707-8.208,12.707-7.861,13.528c0.347,0.821,0.346,1.684,1.792,1.605C195.039,134.679,195.565,125.368,199.663,119.625z"
		/>
	<path fill="#302B4D" stroke="#000000" stroke-width="1.4173" stroke-miterlimit="10" d="M197.75,117.25
		C200.75,105.5,217,79.5,219,77.5s6.25-2.125,8.5-2.5c19.25-36.75,42.625-50.875,59.5-51.5c30-2.75,36,2.375,39.5,5.25
		c4.75,5.625,2.938,10.313-0.563,13.938c-4.563,1.813-21.965-0.343-25.688,2.813s-13.75,8.25-29,46.75
		c0.472,4.344,0.946,7.179,0.598,9.402C271.5,103.875,251,143.376,251,143.376S241.5,112.375,197.75,117.25z"/>
	<path fill="#F8B817" d="M53.336,203.211c8.329-19.876,58.722-46.518,78.713-28.757c4.998,13.11-18.741,24.105-24.572,28.757
		C86.654,215.052,52.503,218.012,53.336,203.211z"/>
	<path fill="#6F1D1F" d="M42.111,208.945c8.581-30.597,67.581-57.93,100.558-37.818c6.385,17.24-11.941,27.852-31.626,40.87
		C91.359,225.015,41.047,228.41,42.111,208.945z"/>
	<path fill="#291114" d="M59.333,198.667C66,183,106.333,162,122.333,176c4,10.333-15,19-19.667,22.667
		C86,208,58.667,210.333,59.333,198.667z"/>
	<path fill="#6F1D1F" stroke="#000000" stroke-width="1.4173" stroke-miterlimit="10" d="M37.433,216.91
		C33.404,225.404,54.333,370,151.909,334c8.787-3.666,33.091-6.333,45.091-64.667c-2.333-20.667-41.665-95.378-43.326-96.659
		C158.011,201.511,76,256,37.433,216.91z"/>
	<path fill="#DDD3D3" stroke="#000000" stroke-width="1.4173" stroke-miterlimit="10" d="M248.026,59.974
		c-6.763,3.611,16.395-27.163,36.542-28.825c31.484-0.231,22.18,3.169,6.973,6.031S254.789,56.364,248.026,59.974z"/>
	<path fill="#302B4D" stroke="#000000" stroke-width="1.4173" stroke-miterlimit="10" d="M227.5,75c24.5-5,43.75,17.25,43.75,17.25"
		/>
	<path fill="#F0F1EF" stroke="#000000" stroke-width="0.7087" stroke-miterlimit="10" d="M42.095,230.927
		c3.655,45.573,35.444,83.752,39.315,87.868s11.788,3.538,14.082,0.963C97.785,317.184,52,272.25,42.095,230.927z"/>
</g>
</svg>
