<?xml version="1.0" encoding="utf-8"?>
<!-- Generator: Adobe Illustrator 17.0.0, SVG Export Plug-In . SVG Version: 6.00 Build 0)  -->
<!DOCTYPE svg PUBLIC "-//W3C//DTD SVG 1.1//EN" "http://www.w3.org/Graphics/SVG/1.1/DTD/svg11.dtd">
<svg version="1.1" xmlns="http://www.w3.org/2000/svg" xmlns:xlink="http://www.w3.org/1999/xlink" x="0px" y="0px"
	 width="362.83px" height="362.83px" viewBox="0 0 362.83 362.83" enable-background="new 0 0 362.83 362.83" xml:space="preserve">
<g id="Ebene_2" display="none">
</g>
<g id="Ebene_1">
	<path fill="#F0F1EF" stroke="#000000" stroke-width="0.7087" stroke-miterlimit="10" d="M290.62,117.288
		c-5.719,3.059,10.63,15.484,10.63,15.484s-20.001-1.348-17.576,3.774c11.957,3.867,37.127,21.845,18.333,34.88
		c-25,7.3-66.199-41.078-89.397-50.66c-11.034-2.24-32.453,9.31-32.453,9.31s-13.27-13.028-23.455-10.787
		c-17.655-1.12-70.928,48.362-87.168,51.657c-16.24,3.296-27.019-17.518,7.658-39.497c-2.288-4.876-14.386-1.781-14.386-1.781
		s14.835-4.986,12.588-13.342c-80.005,1.164-63.496,65.273-59.33,75.355c4.167,10.082,15.731,32.333,71.131,36.378
		c7.407-5.601,8.157-4.851,8.157-4.851s2.159,1.719-1.082,6.199c7.487,1.348,12.948-1.935,16.441-5.34
		c0.262,9.835,1.243,32.45,4.788,38.143c4.566,7.333,59.389,18.985,61.697,17.623c1.762-2.235,2.869-3.469,2.869-3.469
		s1.243,2.856,2.422,3.746c1.179,0.89,62.364-9.897,65.299-19.897c1.428-4.865,1.751-22.74,1.706-39.816
		c2.736,2.077,6.527,4.749,11.775,8.112c0.926-9.521,5.093-3.817,11.574-2.697c59.198,1.348,66.23-20.343,72.884-35.058
		C352.542,177.643,362.449,116.939,290.62,117.288z"/>
	<path fill="#C4C4C4" stroke="#000000" stroke-width="1.4173" stroke-miterlimit="10" d="M240.691,176.999l-62.289-8.135
		l-60.904-1.532v43.885c0,0-1.664,38.782,2.478,46.115c4.142,7.333,49.859,17.126,57.92,15.126
		c1.988-6.58,3.516-82.331,3.516-82.331s-1.274,78.576,1.29,81.746c3.774,4.666,57.398-5.874,60.06-15.874
		C245.425,245.999,240.691,176.999,240.691,176.999z"/>
	<path fill="#442611" stroke="#000000" stroke-width="1.4173" stroke-miterlimit="10" d="M61.91,123.783
		c-17.529,10.338-16.181,15.282-16.181,15.282s12.136-3.146,16.181-3.146c-39.126,17.734-11.686,44.018,5.394,40.437
		s73.712-48.078,90.853-47.179c9.888-1.798,22.772,9.888,22.772,9.888s18.094-11.285,28.807-9.487
		c22.522,7.689,65.221,52.636,89.492,46.778c31.013-11.671,16.63-35.493,0-39.089c3.558-1.547,16.63,3.596,16.63,3.596
		s4.035-9.302-17.979-17.08c63.45,13.186,44.271,57.859,38.654,67.42c-5.617,9.56-13.035,30.564-65.622,28.316
		c-6.293-0.899-10.787-19.777-10.787-19.777s0.449,12.136-0.449,19.777c-19.451-8.436-19.327-24.271-19.327-24.271
		s-2.247,10.787-0.449,16.63c-10.822-1.577-17.979-14.832-17.979-14.832s-0.674,4.719,2.922,10.113
		c-8.989-0.449-23.147-19.552-23.147-19.552s-0.449,7.641,2.247,13.035c-5.843,0.449-23.013-19.777-23.013-19.777
		s-15.986,19.43-24.631,19.327c3.146-4.495,2.697-11.237,2.697-11.237s-8.989,14.383-20.675,17.979l3.146-9.888
		c0,0-10.861,15.15-20.226,16.63c2.247-7.191,0.449-18.428,0.449-18.428s-8.235,26.323-22.024,24.271
		c3.146-3.596,1.348-17.08,1.348-17.08s-3.146,12.585-10.338,17.08c-49.441,3.596-63.375-25.62-67.42-33.71
		C19.21,177.719,7.974,131.424,61.91,123.783z"/>
	<path fill="#F0F1EF" stroke="#000000" stroke-width="0.7087" stroke-miterlimit="10" d="M112.662,162.982
		c8.49-16.816,42.177-27.718,45.026-26.781c2.848,0.937,5.791,0.785,5.727,5.293S131.669,149.246,112.662,162.982z"/>
	<path fill="#F0F1EF" stroke="#000000" stroke-width="0.7087" stroke-miterlimit="10" d="M249.006,164.982
		c-8.49-16.816-42.177-27.718-45.026-26.781c-2.848,0.937-5.791,0.785-5.727,5.293S229.999,151.246,249.006,164.982z"/>
	<path fill="#FFFFFF" stroke="#000000" stroke-width="0.7087" stroke-miterlimit="10" d="M127.676,217.768
		c-5,2.842-4.51,33.176-0.667,34.509c3.843,1.333,19.078,7.333,13.706,2.333c-5.372-5-3.039-32.685-1.706-36.842
		C140.342,213.611,132.676,214.926,127.676,217.768z"/>
	<path fill="#FFFFFF" stroke="#000000" stroke-width="0.7087" stroke-miterlimit="10" d="M193.007,204.742
		c1.789,1.798,6.026,55.549,3.473,57.292s-6.194-0.578-7.78-3.658c-1.586-3.081-0.581-44.509,0.401-47.051
		C190.083,208.782,191.218,202.944,193.007,204.742z"/>
</g>
<g id="Ebene_3">
</g>
</svg>
