<?xml version="1.0" encoding="utf-8"?>
<!-- Generator: Adobe Illustrator 17.0.0, SVG Export Plug-In . SVG Version: 6.00 Build 0)  -->
<!DOCTYPE svg PUBLIC "-//W3C//DTD SVG 1.1//EN" "http://www.w3.org/Graphics/SVG/1.1/DTD/svg11.dtd">
<svg version="1.1" xmlns="http://www.w3.org/2000/svg" xmlns:xlink="http://www.w3.org/1999/xlink" x="0px" y="0px"
	 width="362.83px" height="362.83px" viewBox="0 0 362.83 362.83" enable-background="new 0 0 362.83 362.83" xml:space="preserve">
<g id="Ebene_2" display="none">
	
		<image display="inline" overflow="visible" width="300" height="300" xlink:href="A800B412.jpg"  transform="matrix(1 0 0 1 34.2653 27.2586)">
	</image>
</g>
<g id="Ebene_3" display="none">
	<path display="inline" fill="#C4C4C4" stroke="#000000" stroke-width="1.4173" stroke-miterlimit="10" d="M240.692,177
		l-62.289-8.135l-60.904-1.532v43.885c0,0-1.664,38.782,2.478,46.115c4.142,7.333,49.859,17.126,57.92,15.126
		c1.988-6.58,3.516-82.331,3.516-82.331s-1.274,78.576,1.29,81.746c3.774,4.666,57.398-5.874,60.06-15.874
		C245.426,246,240.692,177,240.692,177z"/>
</g>
<g id="Ebene_1">
	<path fill="#F0F1EF" stroke="#000000" stroke-width="0.7087" stroke-miterlimit="10" d="M75.394,116.326
		c2.247,8.355-12.588,13.342-12.588,13.342s12.098-3.095,14.386,1.781c-34.676,21.979-23.897,42.793-7.658,39.497
		c16.24-3.296,69.513-52.777,87.168-51.657c10.185-2.24,23.455,10.787,23.455,10.787s21.419-11.55,32.453-9.309
		c23.198,9.582,64.398,57.96,89.397,50.66c18.795-13.035-6.375-31.013-18.333-34.88c-2.426-5.122,17.576-3.774,17.576-3.774
		s-16.35-12.425-10.63-15.484c71.829-0.35,61.922,60.355,55.105,73.465c-6.654,14.715-13.686,36.407-72.884,35.058
		c-6.481-1.12-10.648-6.825-11.574,2.697c-16.034-10.276-18.538-14.13-18.538-14.13s-3.684,4.443-1.832,11.724
		c-11.146-1.966-13.135-14.387-13.135-14.387s-4.119,3.745-0.415,10.466c-9.259-0.56-19.066-19.588-19.066-19.588
		s-2.245,2.786,0.533,9.507c-6.018,0.56-27.657-21.999-27.657-21.999s-19.351,23.453-28.255,23.325
		c3.241-5.601-0.692-8.33-0.692-8.33s-3.904,10.366-15.941,14.846l-0.278-6.601c0,0-10.739,16.228-20.385,18.073
		c2.315-8.961-0.209-13.556-0.209-13.556s-6.922,14.106-21.125,11.549c3.241-4.481,1.082-6.199,1.082-6.199s-0.75-0.75-8.157,4.851
		c-55.4-4.045-66.965-26.296-71.131-36.378S-4.611,117.49,75.394,116.326z"/>
	<path fill="#442611" stroke="#000000" stroke-width="1.4173" stroke-miterlimit="10" d="M61.91,123.783
		c-17.529,10.338-16.181,15.282-16.181,15.282s12.136-3.146,16.181-3.146c-39.126,17.734-11.686,44.018,5.394,40.437
		s73.712-48.078,90.853-47.179c9.888-1.798,22.772,9.888,22.772,9.888s18.094-11.285,28.807-9.487
		c22.522,7.689,65.221,52.636,89.492,46.778c31.013-11.671,16.63-35.493,0-39.089c3.558-1.547,16.63,3.596,16.63,3.596
		s4.035-9.302-17.979-17.08c63.45,13.186,44.271,57.859,38.654,67.42c-5.617,9.56-13.035,30.564-65.622,28.316
		c-6.293-0.899-10.787-19.777-10.787-19.777s0.449,12.136-0.449,19.777c-19.451-8.436-19.327-24.271-19.327-24.271
		s-2.247,10.787-0.449,16.63c-10.822-1.577-17.979-14.832-17.979-14.832s-0.674,4.719,2.922,10.113
		c-8.989-0.449-23.147-19.552-23.147-19.552s-0.449,7.641,2.247,13.035c-5.843,0.449-23.013-19.777-23.013-19.777
		s-15.986,19.43-24.631,19.327c3.146-4.495,2.697-11.237,2.697-11.237s-8.989,14.383-20.675,17.979l3.146-9.888
		c0,0-10.861,15.15-20.226,16.63c2.247-7.191,0.449-18.428,0.449-18.428s-8.235,26.323-22.024,24.271
		c3.146-3.596,1.348-17.08,1.348-17.08s-3.146,12.585-10.338,17.08c-49.441,3.596-63.375-25.62-67.42-33.71
		C19.21,177.719,7.974,131.424,61.91,123.783z"/>
	<path fill="#F0F1EF" stroke="#000000" stroke-width="0.7087" stroke-miterlimit="10" d="M112.662,162.982
		c8.49-16.816,42.177-27.718,45.026-26.781c2.848,0.937,5.791,0.785,5.727,5.293S131.669,149.246,112.662,162.982z"/>
	<path fill="#F0F1EF" stroke="#000000" stroke-width="0.7087" stroke-miterlimit="10" d="M249.006,164.982
		c-8.49-16.816-42.177-27.718-45.026-26.781c-2.848,0.937-5.791,0.785-5.727,5.293S229.999,151.246,249.006,164.982z"/>
</g>
</svg>
