<?xml version="1.0" encoding="utf-8"?>
<!-- Generator: Adobe Illustrator 17.0.0, SVG Export Plug-In . SVG Version: 6.00 Build 0)  -->
<!DOCTYPE svg PUBLIC "-//W3C//DTD SVG 1.1//EN" "http://www.w3.org/Graphics/SVG/1.1/DTD/svg11.dtd">
<svg version="1.1" id="Ebene_1" xmlns="http://www.w3.org/2000/svg" xmlns:xlink="http://www.w3.org/1999/xlink" x="0px" y="0px"
	 width="362.83px" height="362.83px" viewBox="0 0 362.83 362.83" enable-background="new 0 0 362.83 362.83" xml:space="preserve">
<path fill="#F0F1EF" stroke="#000000" stroke-width="0.7087" stroke-miterlimit="10" d="M294.855,108.788
	c5.435-5.629,25.053-44.005-35.845-40.437c0.385-57.484-63.211-21.408-63.211-21.408s-10.792-45.987-59.356,1.982
	c0.385-10.704-37.387-24.579-46.252,11.893c-49.721,4.361-19.272,47.573-19.272,47.573s-73.29,54.105,19.657,68.585
	c-46.989,47.351-24.311,45.962,8.822,47.772L67,347.5c0,0,71-111.25,68.75-114.5c0,0-11.111,57.706,63.132,0.271
	c1.768,29.253,101.397,35.095,87.878-22.597c-1.243-11.556,42.556,2.086,17.344-45.195
	C341.357,135.786,289.42,114.418,294.855,108.788z"/>
<path fill="#FFFFFF" stroke="#000000" stroke-width="1.4173" stroke-miterlimit="10" d="M287.226,114.072
	c4.989-5.024,22.997-39.272-32.904-36.088c0.354-51.301-58.024-19.105-58.024-19.105s-9.906-41.041-54.486,1.769
	c0.354-9.553-34.319-21.936-42.456,10.614c-45.64,3.892-17.69,42.456-17.69,42.456S14.39,162.003,99.71,174.926
	c-43.133,42.259-22.316,41.019,8.098,42.634L81.2,312.83l57.321-91.229c0.036,0.01,0.072,0.018,0.107,0.028
	c0,0-7.651,54.795,60.5,3.538c1.623,26.106,93.077,31.32,80.667-20.167c-1.141-10.313,39.064,1.862,15.921-40.334
	C329.912,138.166,282.238,119.097,287.226,114.072z"/>
<rect x="99.915" y="116.357" fill="none" width="198" height="107.058"/>
<g enable-background="new    ">
	<path d="M130.625,174.603v-0.721c0-0.299-0.15-0.509-0.45-0.63c-0.301-0.059-0.33-0.209-0.09-0.45c0.18-0.299,0.149-0.54-0.09-0.72
		l-0.18-0.09l-0.09-0.09c0-0.06,0.014-0.09,0.045-0.09c0.03,0,0.045-0.03,0.045-0.091c0.12-0.238,0.09-0.449-0.09-0.63
		c-0.241-0.059-0.301-0.239-0.18-0.54c0.059-0.119,0.03-0.299-0.09-0.54c-0.18-0.299-0.211-0.54-0.09-0.72
		c0-0.119-0.031-0.209-0.09-0.27c0-0.06-0.031-0.12-0.09-0.181c-0.061-0.059-0.09-0.119-0.09-0.18c0-0.3-0.061-0.585-0.18-0.855
		c-0.121-0.27-0.18-0.554-0.18-0.854c0-1.02-0.18-2.039-0.54-3.061c-0.121-0.299-0.211-0.63-0.27-0.989
		c-0.06-0.36-0.09-0.689-0.09-0.99c0-0.36-0.045-0.72-0.135-1.08c-0.09-0.36-0.196-0.689-0.315-0.99
		c0-0.119-0.016-0.225-0.045-0.314c-0.031-0.09-0.045-0.194-0.045-0.315c-0.061-0.119-0.09-0.27-0.09-0.45s-0.031-0.329-0.09-0.449
		c-0.061-0.12-0.09-0.239-0.09-0.36c0-0.119-0.031-0.239-0.09-0.36c-0.061-0.119-0.09-0.209-0.09-0.27
		c0-0.06-0.031-0.149-0.09-0.271c-0.121-0.238-0.18-0.419-0.18-0.54c0-0.359-0.031-0.72-0.09-1.08c-0.06-0.359-0.15-0.72-0.27-1.079
		c0-0.36-0.031-0.631-0.09-0.811c0-0.239-0.031-0.419-0.09-0.54c-0.121-0.3-0.211-0.614-0.27-0.945
		c-0.061-0.329-0.061-0.644,0-0.944c0-0.12-0.031-0.21-0.09-0.271c-0.121-0.299-0.195-0.585-0.225-0.854
		c-0.031-0.271-0.045-0.555-0.045-0.855c-0.061-0.059-0.076-0.104-0.045-0.135c0.03-0.029,0.014-0.074-0.045-0.135
		c-0.18-0.3-0.27-0.615-0.27-0.945c0-0.329-0.031-0.644-0.09-0.945c-0.061-0.18-0.09-0.374-0.09-0.585
		c0-0.209-0.031-0.435-0.09-0.675l-0.27-0.81c0-0.06-0.015-0.12-0.045-0.181c-0.031-0.059-0.045-0.119-0.045-0.18
		c-0.061-0.36-0.121-0.72-0.18-1.08c-0.06-0.359-0.031-0.72,0.09-1.08c0.059-0.059,0.029-0.209-0.09-0.45
		c-0.24-0.359-0.301-0.899-0.18-1.619c0.12-0.12,0.12-0.239,0-0.36c-0.241-0.36-0.27-0.659-0.09-0.9
		c0.18-0.238,0.149-0.54-0.09-0.899c-0.24-0.3-0.375-0.6-0.405-0.9c-0.031-0.3-0.076-0.599-0.135-0.899
		c-0.121-0.42-0.195-0.84-0.225-1.261c-0.031-0.419-0.105-0.839-0.225-1.26c-0.121-0.18-0.166-0.374-0.135-0.585
		c0.03-0.21,0.014-0.435-0.045-0.675v-0.271c-0.121-0.18-0.18-0.374-0.18-0.585c0-0.209-0.031-0.435-0.09-0.675
		c-0.061-0.119-0.061-0.255,0-0.405c0.059-0.148,0.059-0.284,0-0.404c0-0.12-0.045-0.255-0.135-0.405
		c-0.09-0.149-0.135-0.284-0.135-0.405c0-0.3,0.059-0.63,0.18-0.99c0-0.119,0.014-0.238,0.045-0.359
		c0.029-0.12,0.014-0.239-0.045-0.36c-0.121-0.599-0.121-1.049,0-1.35c0.059-0.419-0.031-0.811-0.27-1.17
		c-0.121-0.181-0.18-0.419-0.18-0.721v-0.989c0-0.479,0.014-0.959,0.045-1.44c0.03-0.479,0.045-0.959,0.045-1.439v-0.271
		c-0.121-0.3-0.135-0.599-0.045-0.9c0.09-0.299,0.135-0.599,0.135-0.899c1.02-0.3,1.89-0.21,2.61,0.27
		c0.36,0.36,0.63,0.661,0.81,0.9c0.059,0.061,0.09,0.211,0.09,0.45c-0.061,0.301-0.031,0.72,0.09,1.26
		c0.059,0.061,0.09,0.18,0.09,0.36c-0.061,0.18-0.076,0.359-0.045,0.54c0.029,0.18,0.045,0.33,0.045,0.449
		c0.12,0.601,0.18,1.051,0.18,1.351c0,0.18,0.09,0.359,0.27,0.54c0.12,0.061,0.18,0.18,0.18,0.359
		c0.059,0.121,0.075,0.256,0.045,0.405c-0.031,0.15-0.015,0.285,0.045,0.405v0.63c0.12,0.301,0.225,0.616,0.315,0.945
		c0.09,0.33,0.194,0.675,0.315,1.034v0.631c0,0.301,0.119,0.54,0.36,0.72c0.059,0.061,0.09,0.18,0.09,0.359
		c0.059,0.181,0.09,0.36,0.09,0.54c0,0.181,0.059,0.36,0.18,0.54c0.18,0.302,0.209,0.601,0.09,0.9c-0.121,0.121-0.09,0.24,0.09,0.36
		c0.12,0.12,0.209,0.27,0.27,0.449c0.059,0.181,0.149,0.331,0.27,0.45c0.059,0.061,0.09,0.15,0.09,0.271
		c0.059,0.24,0.104,0.45,0.135,0.63c0.029,0.18,0.104,0.359,0.225,0.54c0.12,0.121,0.18,0.24,0.18,0.359
		c0,0.121,0.029,0.241,0.09,0.36c0.12,0.601,0.209,1.021,0.27,1.26c0,0.061,0.014,0.105,0.045,0.136
		c0.03,0.03,0.045,0.075,0.045,0.135c0.119,0.24,0.149,0.391,0.09,0.45l-0.09,0.09c0.119,0.18,0.165,0.375,0.135,0.585
		c-0.031,0.211,0.014,0.405,0.135,0.585c0.18,0.18,0.18,0.391,0,0.63c-0.061,0.061-0.031,0.24,0.09,0.54
		c0.299,0.36,0.509,0.751,0.63,1.17l-0.27,0.27c0,0.36,0.09,0.631,0.27,0.811s0.36,0.36,0.54,0.54
		c0.299,0.301,0.45,0.601,0.45,0.899c0,0.121,0.014,0.211,0.045,0.271c0.029,0.061,0.045,0.15,0.045,0.27
		c0.12,0.36,0.12,0.631,0,0.811v0.18c0.059,0.24,0.09,0.466,0.09,0.675c0,0.211,0.03,0.437,0.09,0.676
		c0.059,0.359,0.239,0.6,0.54,0.72c0.239,0.121,0.329,0.27,0.27,0.45c0,0.121,0,0.256,0,0.404c0,0.15-0.09,0.286-0.27,0.405
		c0,0.061-0.031,0.09-0.09,0.09c0,0.36-0.15,0.63-0.45,0.811c-0.061,0.061-0.09,0.105-0.09,0.135c0,0.031-0.031,0.076-0.09,0.135
		c0.18,0.301,0.39,0.45,0.63,0.45c0.3,0,0.479,0.121,0.54,0.36c0,0.12,0.059,0.24,0.18,0.359l0.09,0.09
		c0.12,0.241,0.239,0.601,0.36,1.08c0.059,0.121,0.12,0.241,0.18,0.36c0.059,0.121,0.149,0.24,0.27,0.36
		c0.36,0.42,0.479,0.96,0.36,1.62v0.18c0.12,0.24,0.18,0.465,0.18,0.675c0,0.211,0,0.436,0,0.675
		c0.059,0.301,0.135,0.571,0.225,0.811c0.09,0.24,0.165,0.51,0.225,0.81c0.059,0.061,0.09,0.121,0.09,0.18
		c-0.42,0.241-0.42,0.511,0,0.811c0.18,0.121,0.329,0.33,0.45,0.63c0.12,0.24,0.194,0.466,0.225,0.675
		c0.03,0.211,0.104,0.437,0.225,0.675v0.45c0.239,0.36,0.479,0.751,0.72,1.17c0.059,0.061,0.09,0.181,0.09,0.36
		c-0.121,0.24-0.135,0.45-0.045,0.63c0.09,0.18,0.165,0.36,0.225,0.54c0.059,0.061,0.09,0.211,0.09,0.45v0.45
		c0.239,0.6,0.479,0.989,0.72,1.17c0.239,0.18,0.45,0.121,0.63-0.181c0.299-0.479,0.569-0.959,0.81-1.439
		c0.239-0.479,0.509-0.959,0.81-1.44c0.18-0.299,0.329-0.63,0.45-0.99c0.12-0.359,0.27-0.72,0.45-1.079l1.08-1.891
		c0.12-0.119,0.18-0.239,0.18-0.359c0.12-0.42,0.239-0.824,0.36-1.216c0.12-0.389,0.239-0.794,0.36-1.215
		c0.119-0.299,0.225-0.614,0.315-0.944c0.09-0.329,0.194-0.645,0.315-0.945c0.12-0.3,0.27-0.585,0.45-0.855
		c0.18-0.27,0.329-0.554,0.45-0.854c0.12-0.239,0.225-0.479,0.315-0.72c0.09-0.239,0.194-0.479,0.315-0.721
		c0.059-0.119,0.075-0.254,0.045-0.404c-0.031-0.149-0.045-0.284-0.045-0.405c0-0.239,0.03-0.45,0.09-0.63
		c0.059-0.181,0.09-0.36,0.09-0.54c0-0.181,0.059-0.36,0.18-0.54c0.119-0.12,0.194-0.255,0.225-0.405
		c0.03-0.149,0.104-0.284,0.225-0.405c0.059-0.059,0.09-0.119,0.09-0.18c0.059-0.36,0.21-0.644,0.45-0.854
		c0.239-0.21,0.509-0.435,0.81-0.676c0-0.059,0.209-0.148,0.63-0.27c0.36-0.06,0.509-0.3,0.45-0.72l1.35-0.54
		c0.239-0.12,0.599-0.12,1.08,0c0.059,0.061,0.104,0.09,0.135,0.09c0.029,0,0.075,0.03,0.135,0.09c0.479,0.18,0.9,0,1.26-0.54
		c0.419,0.18,0.66,0.45,0.72,0.81c0.059,0.181,0.104,0.347,0.135,0.495c0.029,0.15,0.075,0.315,0.135,0.495
		c0.059,0.121,0.09,0.301,0.09,0.54c0.059,0.121,0.09,0.226,0.09,0.315s0.03,0.195,0.09,0.314v0.181c0,0.48-0.031,0.841-0.09,1.079
		c0.12,0.121,0.225,0.241,0.315,0.36c0.09,0.121,0.104,0.24,0.045,0.36v0.27c-0.121,0.121-0.166,0.24-0.135,0.36
		c0.029,0.121,0.045,0.24,0.045,0.36c0.12,0.18,0.18,0.48,0.18,0.899c0,0.301,0.029,0.585,0.09,0.855
		c0.059,0.27,0.209,0.525,0.45,0.765c0.059,0.121,0.149,0.24,0.27,0.36c0.119,0.12,0.119,0.301,0,0.54c-0.061,0,0,0.09,0.18,0.27
		c0.059,0.121,0.12,0.24,0.18,0.36c0.059,0.121,0.09,0.27,0.09,0.45v0.18c0.239,0.301,0.3,0.69,0.18,1.17
		c0.239,0,0.419,0.18,0.54,0.54c0.059,0.121,0.09,0.24,0.09,0.36s0.029,0.24,0.09,0.359c0.059,0.18,0.209,0.45,0.45,0.811
		c0.12,0.18,0.27,0.33,0.45,0.449c0.119,0.121,0.239,0.181,0.36,0.181c0.18-0.06,0.27-0.181,0.27-0.36
		c0.059-0.18,0.09-0.45,0.09-0.81v-0.54c0-0.181-0.016-0.345-0.045-0.495c-0.031-0.149-0.045-0.315-0.045-0.495v-0.271
		c0-0.479,0-0.929,0-1.35c0-0.419,0.029-0.869,0.09-1.35c0-0.54,0.014-1.08,0.045-1.62c0.03-0.54,0.075-1.049,0.135-1.53
		c0.059-0.3,0.12-0.569,0.18-0.81c0.059-0.239,0.12-0.51,0.18-0.811v-0.99c0.059-0.299,0.12-0.554,0.18-0.765
		c0.059-0.21,0.119-0.464,0.18-0.765c0-0.3,0.03-0.51,0.09-0.63c0-0.3,0-0.631,0-0.99c0-0.36,0.029-0.72,0.09-1.08
		c0.059-0.419,0.12-0.84,0.18-1.26c0.059-0.419,0.149-0.869,0.27-1.351c0.059-0.18,0.104-0.374,0.135-0.585
		c0.029-0.209,0.104-0.405,0.225-0.585v-0.18c-0.121-0.18-0.166-0.345-0.135-0.495c0.03-0.149,0.045-0.284,0.045-0.405
		c0.059-0.419,0.09-0.81,0.09-1.17c0-0.359,0.029-0.749,0.09-1.17c0-0.36,0.014-0.734,0.045-1.125
		c0.03-0.39,0.075-0.795,0.135-1.215c0.12-0.84,0.254-1.694,0.405-2.565c0.149-0.869,0.315-1.755,0.495-2.654
		c0.12-0.6,0.225-1.17,0.315-1.71s0.225-1.11,0.405-1.71c0.36-1.261,0.81-2.399,1.35-3.421l0.54-0.81
		c0.18-0.18,0.27-0.419,0.27-0.72c0-0.6,0.27-1.08,0.81-1.44c0.12-0.059,0.194-0.119,0.225-0.18c0.029-0.06,0.104-0.12,0.225-0.18
		c0.18-0.181,0.389-0.21,0.63-0.091c0.059,0.061,0.104,0.091,0.135,0.091c0.03,0,0.075,0.03,0.135,0.09l1.08,0.81
		c0.12,0.061,0.194,0.121,0.225,0.18c0.029,0.061,0.104,0.121,0.225,0.181c0.18,0.301,0.45,0.359,0.81,0.18
		c0.3-0.119,0.509-0.059,0.63,0.18c0.059,0.061,0.21,0.091,0.45,0.091c0.239,0.061,0.329,0.211,0.27,0.449
		c-0.121,0.121-0.166,0.226-0.135,0.315c0.029,0.09,0.045,0.195,0.045,0.315c0.119,0.24,0.209,0.449,0.27,0.63
		c0.059,0.18,0.09,0.42,0.09,0.72v0.09c0.239,0.36,0.329,0.751,0.27,1.17c-0.061,0.061-0.031,0.211,0.09,0.45
		c0.12,0.24,0.149,0.511,0.09,0.81c0,0.121,0.014,0.211,0.045,0.271c0.029,0.061,0.045,0.15,0.045,0.27
		c0.059,0.181,0.12,0.347,0.18,0.495c0.059,0.15,0.119,0.315,0.18,0.495c-0.481,0-0.81-0.029-0.99-0.09
		c0,0.48,0.119,0.751,0.36,0.81c0.18,0.121,0.329,0.196,0.45,0.226c0.119,0.03,0.209,0.135,0.27,0.314
		c0,0.121,0.014,0.256,0.045,0.405c0.029,0.15-0.016,0.285-0.135,0.405c-0.121,0.121-0.166,0.225-0.135,0.314
		c0.029,0.091-0.016,0.196-0.135,0.315l-0.36,0.36c-0.36,0.359-0.36,0.66,0,0.899c0.059,0,0.149,0.061,0.27,0.18
		c-0.121,0.241-0.211,0.45-0.27,0.631c-0.061,0.12-0.09,0.195-0.09,0.225c0,0.031-0.031,0.105-0.09,0.225
		c-0.061,0.302-0.09,0.571-0.09,0.811s-0.031,0.511-0.09,0.81c0,0.121-0.061,0.241-0.18,0.36c-0.121,0.48-0.18,0.81-0.18,0.99
		c-0.06,0.18-0.105,0.346-0.135,0.495c-0.031,0.15-0.135,0.285-0.315,0.404c-0.121,0.121-0.241,0.392-0.36,0.811
		c0,0.18,0.014,0.359,0.045,0.54c0.029,0.18,0.045,0.391,0.045,0.63c0,0.121-0.016,0.24-0.045,0.359
		c-0.031,0.121-0.045,0.241-0.045,0.36v0.18c0,0.481-0.15,1.08-0.45,1.801c-0.121,0.12-0.211,0.24-0.27,0.359
		c0,0.061-0.016,0.105-0.045,0.135c-0.031,0.031-0.045,0.076-0.045,0.136c0,0.24-0.031,0.45-0.09,0.63
		c-0.061,0.18-0.121,0.33-0.18,0.45v0.359c0,0.241,0.014,0.466,0.045,0.675c0.029,0.211,0.045,0.437,0.045,0.676
		c0,0.359-0.09,0.57-0.27,0.63l-0.18,0.18c-0.06,0.36-0.15,0.69-0.27,0.99c-0.121,0.301-0.15,0.63-0.09,0.99
		c0.059,0.12,0.059,0.256,0,0.404c-0.061,0.15-0.09,0.315-0.09,0.495c0,0.181,0.029,0.392,0.09,0.63
		c0.059,0.241,0.12,0.481,0.18,0.721c0,0.359,0,0.72,0,1.08c0,0.359-0.031,0.72-0.09,1.079c0,0.121-0.015,0.211-0.045,0.271
		c-0.031,0.061-0.045,0.121-0.045,0.18c0,0.061-0.016,0.105-0.045,0.136c-0.031,0.03-0.045,0.075-0.045,0.135
		c0.12,0.301,0.059,0.78-0.18,1.439c-0.121,0.36-0.211,0.661-0.27,0.9c0,0.18,0.03,0.301,0.09,0.36c0.12,0.301,0.12,0.63,0,0.989
		c-0.121,0.181-0.121,0.36,0,0.54v0.36c0,0.36,0.03,0.661,0.09,0.9v0.72c-0.18,0.42-0.18,0.81,0,1.17v0.36
		c-0.121,0.12-0.18,0.27-0.18,0.449c0,0.181-0.061,0.331-0.18,0.45l-0.09,0.18c0.059,0.302,0.09,0.571,0.09,0.811
		s0.029,0.511,0.09,0.81c-0.061,0.061-0.211,0.15-0.45,0.271c0.18,0.301,0.3,0.796,0.36,1.484c0.059,0.69,0.029,1.186-0.09,1.485
		c0.18,0.18,0.3,0.33,0.36,0.45c0.12,0.36,0.18,0.661,0.18,0.899v0.721c0,0.18,0.03,0.33,0.09,0.45
		c0.12,0.301,0.194,0.615,0.225,0.944c0.03,0.331,0.045,0.675,0.045,1.035c-0.121,0.421-0.06,0.751,0.18,0.99
		c0.059,0.121,0.075,0.211,0.045,0.27c-0.031,0.061-0.045,0.15-0.045,0.271c0.059,0.121,0.09,0.27,0.09,0.45v0.27
		c-0.24,0.661-0.391,1.23-0.45,1.71c-0.061,0.121-0.105,0.226-0.135,0.315c-0.031,0.09-0.105,0.166-0.225,0.225
		c-0.121,0-0.18,0.061-0.18,0.18c0,0.241-0.061,0.421-0.18,0.54c-0.121,0.121-0.24,0.241-0.36,0.36
		c-0.241,0.24-0.36,0.511-0.36,0.81c0.059,0.181,0.029,0.331-0.09,0.45c0,0.061-0.015,0.09-0.045,0.09
		c-0.031,0-0.045,0.031-0.045,0.091v0.09c-0.18,0-0.301,0.061-0.36,0.18c-0.061,0.121-0.15,0.24-0.27,0.36
		c-0.301,0.301-0.69,0.391-1.17,0.27c-0.421-0.059-0.781,0.121-1.08,0.54c-0.061,0.061-0.09,0.121-0.09,0.18
		c-0.24-0.119-0.45-0.254-0.63-0.404c-0.18-0.149-0.391-0.284-0.63-0.405c-0.061,0.121-0.121,0.195-0.18,0.225
		c-0.061,0.031-0.09,0.105-0.09,0.226c-0.301,0.661-0.751,0.899-1.35,0.72v-0.27l-0.09-0.091c-0.301,0.061-0.54,0-0.72-0.18
		c-0.18-0.119-0.42-0.329-0.72-0.63c-0.18-0.059-0.27-0.27-0.27-0.63c0.059-0.239-0.061-0.509-0.36-0.811
		c-0.121-0.059-0.241-0.238-0.36-0.54c0-0.238-0.18-0.419-0.54-0.539c-0.061-0.06-0.121-0.091-0.18-0.091
		c-0.061,0-0.121-0.029-0.18-0.09c-0.18-0.059-0.27-0.148-0.27-0.27c-0.061-0.181-0.09-0.36-0.09-0.54c0-0.181-0.031-0.36-0.09-0.54
		c0-0.3-0.06-0.479-0.18-0.54c-0.301-0.239-0.511-0.63-0.63-1.17c-0.061-0.36-0.18-0.689-0.36-0.99c-0.18-0.3-0.36-0.599-0.54-0.9
		c-0.18-0.299-0.375-0.599-0.585-0.899c-0.211-0.3-0.405-0.6-0.585-0.9c-0.061-0.059-0.09-0.148-0.09-0.27v-0.181
		c-0.36-0.479-0.601-0.839-0.72-1.08c-0.061-0.119-0.09-0.209-0.09-0.27c0-0.059-0.031-0.119-0.09-0.18
		c0-0.239-0.031-0.419-0.09-0.54c-0.121-0.12-0.225-0.271-0.315-0.45c-0.09-0.18-0.195-0.329-0.315-0.45
		c-0.121-0.119-0.18-0.209-0.18-0.27c-0.24-0.6-0.48-0.99-0.72-1.17c0-0.181-0.045-0.329-0.135-0.45
		c-0.09-0.12-0.195-0.239-0.315-0.36c-0.36-0.3-0.481-0.688-0.36-1.17v-0.18c-0.18-0.12-0.346-0.239-0.495-0.36
		c-0.15-0.119-0.285-0.239-0.405-0.36c-0.121-0.119-0.27-0.09-0.45,0.091c-0.301,0.24-0.51,0.57-0.63,0.989
		c-0.121,0.302-0.24,0.54-0.36,0.721c-0.121,0.18-0.27,0.391-0.45,0.63c-0.061,0.121-0.135,0.24-0.225,0.359
		c-0.09,0.121-0.105,0.271-0.045,0.45c0,0.121-0.031,0.181-0.09,0.181c-0.18,0.301-0.301,0.57-0.36,0.81
		c-0.061,0.24-0.151,0.511-0.27,0.81v0.181c-0.241,0.359-0.36,0.735-0.36,1.125c0,0.391-0.031,0.765-0.09,1.125
		c0,0.24-0.061,0.54-0.18,0.899c-0.24,0.421-0.391,0.841-0.45,1.261c-0.061,0.12-0.105,0.24-0.135,0.359
		c-0.031,0.121-0.105,0.24-0.225,0.36c-0.24,0.24-0.301,0.48-0.18,0.72c0.059,0.121,0.059,0.256,0,0.405
		c-0.061,0.15-0.09,0.285-0.09,0.405c-0.061,0.12-0.09,0.24-0.09,0.359v0.181c-0.18,0.18-0.256,0.375-0.225,0.585
		c0.03,0.211-0.015,0.404-0.135,0.585c0.059,0.42-0.121,0.841-0.54,1.26c0,0.061-0.031,0.121-0.09,0.18v0.811
		c0,0.301-0.121,0.51-0.36,0.63c-0.24,0.121-0.42,0.285-0.54,0.495c-0.121,0.211-0.24,0.404-0.36,0.585
		c-0.061,0-0.105,0.03-0.135,0.09c-0.031,0.061-0.076,0.09-0.135,0.09c-0.18,0.121-0.36,0.195-0.54,0.225
		c-0.18,0.031-0.36,0.105-0.54,0.226s-0.36,0.121-0.54,0c-0.48-0.06-0.841,0.061-1.08,0.359c-0.061,0.241-0.27,0.36-0.63,0.36
		c-0.121,0-0.36,0.061-0.72,0.18c-0.481,0-0.841,0.031-1.08,0.091h-0.36c-0.301,0.12-0.585,0.165-0.855,0.135
		c-0.27-0.029-0.556-0.045-0.855-0.045c-0.18,0.061-0.45,0.03-0.81-0.09c-0.18,0-0.27-0.12-0.27-0.36
		c-0.121-0.3-0.27-0.479-0.45-0.54c-0.18-0.06-0.331-0.21-0.45-0.45c-0.121-0.3-0.241-0.585-0.36-0.854
		c-0.121-0.271-0.24-0.555-0.36-0.855c-0.061-0.18-0.121-0.345-0.18-0.495c-0.06-0.148-0.031-0.345,0.09-0.585
		c0.12-0.119,0.135-0.194,0.045-0.225C130.76,174.709,130.684,174.663,130.625,174.603z M133.055,152.283l0.27-0.271
		c0-0.299-0.121-0.39-0.36-0.27c-0.06,0-0.15,0.061-0.27,0.18c0.059,0.061,0.12,0.105,0.18,0.135
		C132.934,152.089,132.995,152.163,133.055,152.283z M163.295,152.013c-0.18,0-0.27,0.15-0.27,0.45c0,0.18,0.09,0.271,0.27,0.271
		c0.18,0,0.27-0.12,0.27-0.36C163.565,152.134,163.475,152.013,163.295,152.013z M166.175,142.653c0.059,0.121,0.18,0.27,0.36,0.45
		c0.239,0.12,0.419,0.12,0.54,0c0.119-0.12,0.119-0.271,0-0.45c-0.121-0.12-0.18-0.21-0.18-0.271
		C166.535,142.504,166.294,142.594,166.175,142.653z M167.525,121.053c0.239,0,0.36-0.09,0.36-0.27
		c0.059-0.239,0.209-0.39,0.45-0.45c0.239-0.18,0.239-0.36,0-0.54c-0.121-0.119-0.211-0.18-0.27-0.18
		c-0.18-0.06-0.346-0.104-0.495-0.135c-0.15-0.03-0.315-0.046-0.495-0.046c-0.36,0-0.54,0.121-0.54,0.36
		c-0.061,0.301,0.014,0.585,0.225,0.855C166.97,120.918,167.224,121.053,167.525,121.053z"/>
	<path d="M180.844,119.793c0.059-0.059,0.12-0.09,0.18-0.09c0.479,0,0.839-0.06,1.08-0.18c0.54-0.181,0.99-0.21,1.35-0.091
		c0.18,0.061,0.48,0.091,0.9,0.091h2.52c0.84,0,1.635,0.061,2.385,0.18c0.75,0.121,1.545,0.24,2.386,0.36
		c0.3,0,0.614,0.03,0.944,0.09c0.33,0.061,0.645,0.121,0.945,0.18c0.3,0.061,0.6,0.105,0.9,0.135c0.299,0.031,0.599,0.076,0.9,0.136
		c0.539,0.12,0.959,0.15,1.26,0.09c0.299,0,0.688,0.061,1.17,0.18c0.359,0,0.72,0.016,1.08,0.045c0.359,0.031,0.72,0.076,1.08,0.135
		h0.09c0.479-0.059,0.914-0.09,1.305-0.09c0.39,0,0.824,0,1.305,0h1.44c0.3,0,0.569,0.016,0.81,0.045
		c0.239,0.031,0.51,0.016,0.811-0.045c0.419-0.059,0.824-0.059,1.215,0c0.39,0.061,0.766,0.15,1.125,0.271
		c0.299,0.061,0.614,0.12,0.945,0.18c0.328,0.061,0.644,0.15,0.945,0.27c0.059,0,0.104,0.016,0.135,0.046
		c0.029,0.03,0.074,0.045,0.135,0.045c0.299,0.12,0.569,0.285,0.81,0.494c0.239,0.211,0.509,0.286,0.81,0.226
		c0.06,0.24,0.015,0.391-0.135,0.45c-0.15,0.061-0.285,0.15-0.404,0.27c0,0.18,0.074,0.315,0.225,0.405
		c0.149,0.09,0.284,0.195,0.405,0.314c0.119,0,0.255,0.016,0.405,0.046c0.148,0.03,0.283,0.045,0.404,0.045
		c0.3-0.12,0.57-0.06,0.811,0.18c0.119,0,0.209,0.031,0.27,0.09c0.119,0.061,0.225,0.09,0.315,0.09s0.194,0.031,0.315,0.09
		c0.18,0.121,0.27,0.331,0.27,0.631c0,0.06,0.09,0.18,0.27,0.359c-0.121,0.301-0.166,0.481-0.135,0.54
		c0.029,0.061,0.194,0.211,0.495,0.45c-0.061,0.36-0.241,0.571-0.54,0.63c-0.121,0-0.24,0.016-0.359,0.045
		c-0.121,0.031-0.241,0.045-0.361,0.045c-0.48,0.24-0.539,0.54-0.18,0.9c0.12,0.121,0.18,0.359,0.18,0.72c0,0.24,0,0.466,0,0.675
		c0,0.211,0.12,0.376,0.361,0.495c0.059,0.421-0.121,0.78-0.541,1.08c-0.18,0.121-0.346,0.24-0.494,0.36
		c-0.15,0.121-0.315,0.211-0.496,0.27c-0.18,0-0.27,0.15-0.27,0.45c0,0.301-0.18,0.571-0.54,0.81c-0.18,0.181-0.36,0.211-0.54,0.091
		s-0.33-0.12-0.449,0c-0.061,0.061-0.15,0.09-0.271,0.09c-0.301,0.061-0.585,0.121-0.854,0.18c-0.271,0.061-0.557,0.031-0.855-0.09
		c-0.301-0.119-0.54-0.119-0.721,0c-0.301,0.24-0.51,0.15-0.629-0.271c-0.061,0.061-0.105,0.091-0.136,0.091s-0.075,0.03-0.135,0.09
		c-0.36,0.359-0.72,0.391-1.08,0.09c-0.18-0.18-0.36-0.21-0.54-0.09c-0.18,0.061-0.42,0-0.72-0.181
		c-0.241-0.119-0.421-0.18-0.54-0.18c-0.24-0.059-0.45-0.119-0.63-0.18c-0.181-0.06-0.36-0.06-0.54,0c-0.061,0-0.09-0.029-0.09-0.09
		c-0.18-0.181-0.391-0.284-0.631-0.315c-0.24-0.029-0.449-0.104-0.629-0.225c-0.121,0-0.211-0.03-0.271-0.09
		c-0.121-0.181-0.392-0.329-0.81-0.45c-0.061-0.12-0.061-0.226,0-0.315c0.059-0.09,0-0.194-0.181-0.314
		c-0.061,0.061-0.09,0.105-0.09,0.135c0,0.031-0.03,0.076-0.09,0.135c-0.241,0.24-0.45,0.24-0.63,0
		c-0.061-0.119-0.24-0.27-0.54-0.45c-0.601-0.119-0.841,0.09-0.72,0.63c0.059,0.121,0.09,0.226,0.09,0.315s0.029,0.195,0.09,0.315
		c0.059,0.12,0.135,0.225,0.225,0.314s0.194,0.195,0.315,0.315c0.18,0.18,0.21,0.42,0.09,0.72c-0.061,0.24,0.029,0.391,0.271,0.45
		c0.238,0.061,0.389,0.211,0.449,0.45c0.059,0.18,0.09,0.346,0.09,0.494c0,0.15,0.029,0.286,0.09,0.405
		c0,0.121,0.03,0.211,0.09,0.271c0.06,0.061,0.15,0.15,0.271,0.27c-0.061,0.18-0.09,0.376-0.09,0.585
		c0,0.211-0.061,0.437-0.181,0.675v0.181c0.12,0.12,0.15,0.256,0.091,0.404c-0.061,0.15-0.091,0.286-0.091,0.405
		c0,0.24-0.12,0.601-0.359,1.08c-0.061,0.301-0.15,0.69-0.27,1.17c-0.061,0.121-0.09,0.24-0.09,0.36c0,0.121-0.031,0.24-0.091,0.359
		c-0.12,0.181-0.18,0.481-0.18,0.9v0.54c-0.181,0.48-0.211,0.96-0.09,1.439c0,0.241-0.031,0.392-0.091,0.45
		c-0.12,0.181-0.18,0.347-0.18,0.495c0,0.15-0.031,0.315-0.09,0.495c0,0.301-0.061,0.69-0.18,1.17c-0.18,0.601-0.24,1.17-0.18,1.71
		c0.059,0.301,0.119,0.63,0.18,0.99c0.059,0.36,0.119,0.69,0.18,0.99c0.059,0.301,0.149,0.601,0.27,0.899
		c0.12,0.301,0.12,0.601,0,0.9c0,0.061,0.03,0.09,0.091,0.09c0.18,0.421,0.119,0.81-0.181,1.17c0.239,0.301,0.3,0.601,0.181,0.9
		c0,0.121,0.059,0.24,0.18,0.359c0.12,0.061,0.181,0.241,0.181,0.54c-0.121,0.301-0.121,0.54,0,0.721v0.18
		c-0.061,0.301-0.105,0.556-0.136,0.765c-0.03,0.211-0.075,0.466-0.135,0.766v0.18c0.12,0.301,0.149,0.556,0.09,0.765
		c-0.061,0.211-0.121,0.466-0.18,0.766c-0.061,0.24-0.121,0.48-0.181,0.72c-0.061,0.24-0.121,0.48-0.18,0.72
		c-0.061,0.181-0.09,0.346-0.09,0.495c0,0.15-0.031,0.315-0.09,0.495c-0.061,0.301-0.09,0.601-0.09,0.9
		c0,0.301-0.061,0.6-0.18,0.899c-0.121,0.36-0.151,0.661-0.091,0.9c0.12,0.301,0.12,0.601,0,0.899
		c-0.061,0.181-0.105,0.36-0.135,0.54c-0.031,0.181-0.105,0.331-0.226,0.45c-0.18,0-0.18,0.09,0,0.271
		c0.06,0.42,0.075,0.81,0.045,1.17c-0.03,0.359-0.075,0.751-0.135,1.17c-0.061,0.121-0.076,0.256-0.045,0.405
		c0.029,0.15,0.014,0.314-0.045,0.494c0,0.241-0.061,0.601-0.18,1.08c-0.061,0.301-0.105,0.616-0.135,0.945
		c-0.031,0.33-0.016,0.646,0.045,0.945c0,0.48-0.031,0.931-0.09,1.35c-0.061,0.421-0.211,0.841-0.45,1.26
		c-0.241,0.601-0.45,1.021-0.63,1.261c-0.121,0.301-0.121,0.51,0,0.63c0.119,0.121,0.193,0.225,0.225,0.314
		c0.029,0.09,0.074,0.195,0.135,0.315c-0.121,0.121-0.24,0.18-0.359,0.18c-0.121,0-0.18,0.061-0.18,0.18
		c-0.121,0.36-0.181,0.571-0.181,0.631c-0.36-0.06-0.72-0.06-1.08,0s-0.69,0.09-0.989,0.09c-0.421,0-0.811-0.015-1.171-0.045
		s-0.72-0.045-1.079-0.045c-0.061,0-0.121,0.03-0.181,0.09c-0.301,0.121-0.556,0.15-0.765,0.09c-0.211-0.06-0.466-0.12-0.766-0.18
		l-0.359-0.181h-0.271c-0.12,0.121-0.225,0.166-0.315,0.135c-0.09-0.029-0.195-0.074-0.314-0.135c-0.24,0-0.391-0.09-0.45-0.27
		c-0.12-0.181-0.12-0.45,0-0.811c0.12-0.359,0.181-0.599,0.181-0.72c0-0.419-0.045-0.824-0.135-1.215
		c-0.091-0.39-0.166-0.795-0.226-1.215c0-0.12-0.016-0.271-0.045-0.45c-0.031-0.18-0.045-0.329-0.045-0.45v-0.18
		c0-0.181-0.031-0.36-0.091-0.54c-0.061-0.18-0.061-0.39,0-0.63c0-0.181-0.015-0.374-0.045-0.585
		c-0.03-0.21-0.045-0.405-0.045-0.585c0-0.3-0.016-0.555-0.045-0.766c-0.031-0.209-0.045-0.464-0.045-0.765
		c0-0.119-0.016-0.21-0.045-0.271c-0.031-0.059-0.045-0.119-0.045-0.18v-0.18c0.059-0.419,0.045-0.824-0.045-1.215
		c-0.09-0.39-0.105-0.795-0.045-1.216c0.059-0.539,0.09-1.064,0.09-1.574s0-1.004,0-1.485c0.119-1.319,0.09-2.489-0.09-3.51v-0.36
		c0.18-0.779,0.209-1.679,0.09-2.7c-0.061-0.299-0.09-0.569-0.09-0.81c0-0.239,0-0.509,0-0.811v-0.81
		c-0.061-0.3-0.09-0.599-0.09-0.9c0-0.299,0-0.599,0-0.899c0-0.12-0.016-0.21-0.045-0.271c-0.031-0.059-0.045-0.148-0.045-0.27
		c0.059-0.3,0.09-0.6,0.09-0.9c0-0.299,0-0.599,0-0.899v-1.53c0.059-0.419,0.074-0.824,0.045-1.215
		c-0.031-0.39-0.016-0.795,0.045-1.215v-0.54c0.059-0.12,0.09-0.239,0.09-0.36c-0.061-0.3-0.061-0.554,0-0.765
		c0.059-0.21,0.119-0.435,0.18-0.676c0.12-0.539,0.239-1.064,0.36-1.574c0.12-0.51,0.181-1.064,0.181-1.665
		c0-0.239,0.014-0.464,0.045-0.675c0.029-0.21,0.074-0.465,0.135-0.766c0.059-0.3,0.104-0.554,0.135-0.765
		c0.029-0.21,0.074-0.464,0.135-0.766c0.119-0.299,0.239-0.749,0.36-1.35c0.119-0.36,0.21-0.704,0.271-1.035
		c0.059-0.329,0.119-0.644,0.18-0.944c0.059-0.3,0.104-0.586,0.135-0.855c0.029-0.27,0.045-0.554,0.045-0.855l0.27-1.35l0.271-1.08
		c0-0.3,0.045-0.554,0.135-0.765c0.091-0.21,0.194-0.435,0.315-0.675c0.059-0.12,0.09-0.226,0.09-0.315s0.029-0.194,0.09-0.315
		c0.119-0.359,0.239-0.599,0.359-0.72c0.361-0.659,0.181-1.08-0.539-1.26c-0.24,0-0.54-0.06-0.9-0.18
		c-0.18-0.12-0.346-0.21-0.495-0.271c-0.15-0.059-0.315-0.148-0.495-0.27c-0.121-0.06-0.27-0.12-0.449-0.181
		c-0.181-0.059-0.36-0.119-0.541-0.18c-0.301-0.119-0.6-0.194-0.899-0.225c-0.301-0.03-0.601-0.104-0.899-0.226
		c-0.302-0.119-0.586-0.239-0.855-0.359s-0.525-0.329-0.766-0.631c-0.121-0.18-0.27-0.27-0.449-0.27
		c-0.121,0-0.195-0.014-0.225-0.045c-0.031-0.029-0.076-0.045-0.136-0.045c-0.301-0.239-0.571-0.435-0.81-0.585
		c-0.24-0.149-0.45-0.374-0.631-0.675c-0.061,0-0.105-0.015-0.135-0.045c-0.031-0.03-0.076-0.046-0.135-0.046l-0.27-0.27
		c-0.122-0.239-0.256-0.419-0.405-0.54c-0.15-0.119-0.286-0.27-0.405-0.45c-0.121-0.119-0.195-0.209-0.225-0.27
		C180.858,120.094,180.844,119.973,180.844,119.793z"/>
	<path d="M227.733,164.253c-0.18-0.059-0.256-0.18-0.225-0.36c0.029-0.18-0.016-0.359-0.135-0.539c-0.061,0.12-0.09,0.27-0.09,0.449
		c-0.24-0.18-0.36-0.449-0.36-0.81v-0.63c0-0.3-0.016-0.63-0.045-0.99c-0.03-0.36-0.076-0.72-0.136-1.08
		c0-0.419,0.181-0.63,0.541-0.63c-0.18-0.18-0.271-0.3-0.271-0.36c0.3-0.54,0.345-1.035,0.136-1.484
		c-0.211-0.45-0.437-0.914-0.676-1.396l0.09-0.09c0.239,0,0.42-0.029,0.541-0.09c0.059,0,0.074-0.12,0.045-0.36
		c-0.031-0.239-0.076-0.39-0.136-0.45c-0.06-0.059-0.09-0.148-0.09-0.27c0.06-0.479,0.12-0.975,0.181-1.485
		c0.059-0.509,0.09-1.035,0.09-1.574c-0.121-0.48-0.09-0.96,0.09-1.44c0-0.36,0.029-0.63,0.09-0.81c0-0.36,0.014-0.705,0.045-1.035
		c0.029-0.329,0.074-0.676,0.135-1.035c0-0.18,0.059-0.329,0.18-0.45c0.06,0.18,0.104,0.346,0.135,0.495
		c0.03,0.15-0.015,0.285-0.135,0.405v0.27c0,0.36,0.015,0.72,0.045,1.08s0.045,0.69,0.045,0.99
		c-0.301,0.301-0.465,0.525-0.494,0.675c-0.031,0.15,0.074,0.405,0.314,0.765c0,0.181,0.029,0.331,0.09,0.45v0.45
		c-0.061,0.121-0.121,0.256-0.18,0.405c-0.061,0.15-0.121,0.285-0.18,0.404c0.119,0.181,0.225,0.331,0.314,0.45
		c0.09,0.121,0.194,0.24,0.315,0.36c0.181,0.18,0.181,0.27,0,0.27c-0.061,0.241-0.03,0.601,0.09,1.08
		c0.06,0.121,0.075,0.256,0.045,0.405c-0.03,0.15-0.045,0.285-0.045,0.405c0.06,0.121,0.075,0.24,0.045,0.359
		c-0.03,0.121,0.015,0.241,0.136,0.36v0.27c0,0.121,0.059,0.302,0.18,0.54c0,0.061,0.014,0.121,0.045,0.181
		c0.029,0.061,0.045,0.15,0.045,0.27v1.62c0,0.36,0.029,0.63,0.09,0.811c0.059,0.12,0.059,0.195,0,0.225
		c-0.061,0.031-0.09,0.076-0.09,0.135c0.119,0.36,0.238,0.63,0.359,0.811h0.09v-1.71c-0.06-0.66-0.105-1.319-0.135-1.98
		c-0.03-0.659-0.045-1.319-0.045-1.979c-0.061-0.48-0.076-0.93-0.045-1.351c0.029-0.419,0.045-0.84,0.045-1.26
		c0-0.3,0.015-0.614,0.045-0.945c0.029-0.329,0.015-0.644-0.045-0.944c0-0.12,0-0.239,0-0.36c0-0.12-0.09-0.21-0.27-0.271
		c-0.18,0-0.211-0.209-0.09-0.63c0.059-0.359,0.119-0.72,0.18-1.08c0.059-0.359,0.09-0.72,0.09-1.08c0-0.18,0.09-0.329,0.27-0.449
		c0.24,0,0.361-0.12,0.361-0.36v-0.9c0-0.059-0.031-0.104-0.091-0.135c-0.06-0.029-0.09-0.074-0.09-0.135
		c-0.121-0.119-0.301-0.36-0.54-0.72c0.059,0,0.09-0.03,0.09-0.091c0.119,0.061,0.27,0.091,0.45,0.091
		c0.06-0.3-0.03-0.465-0.271-0.495c-0.24-0.029-0.42-0.135-0.539-0.315c-0.121,0.24-0.301,0.392-0.541,0.45
		c-0.12-0.419-0.166-0.84-0.135-1.26c0.029-0.419-0.135-0.779-0.494-1.08c0.238-0.06,0.359-0.271,0.359-0.63
		c0-0.12-0.016-0.255-0.045-0.405c-0.031-0.149,0.014-0.284,0.135-0.405v-0.09c0-0.059-0.016-0.09-0.045-0.09
		c-0.031,0-0.045-0.029-0.045-0.09c-0.121-0.239-0.195-0.45-0.225-0.63c-0.031-0.181,0.014-0.419,0.135-0.721
		c0.059-0.119,0.074-0.254,0.045-0.404c-0.031-0.149-0.045-0.284-0.045-0.405c0-0.119,0.014-0.194,0.045-0.225
		c0.029-0.03,0.045-0.075,0.045-0.136h0.18c0,0.061,0.015,0.105,0.045,0.136s0.045,0.075,0.045,0.135
		c0.06,0.18,0.091,0.346,0.091,0.495c0,0.15,0.06,0.285,0.18,0.404c0.12,0,0.12,0.061,0,0.181c-0.18,0.301-0.09,0.63,0.271,0.989
		c-0.24,0.241-0.36,0.481-0.36,0.721c0,0.24,0.181,0.54,0.54,0.899c0-0.119,0.014-0.209,0.045-0.27
		c0.029-0.06,0.045-0.12,0.045-0.18c0-0.12-0.016-0.21-0.045-0.271c-0.031-0.059-0.045-0.149-0.045-0.27
		c0-0.181,0.059-0.45,0.18-0.811h0.09c-0.121-0.239-0.24-0.45-0.359-0.63c0.119-0.059,0.209-0.09,0.27-0.09
		c0.059,0,0.149-0.029,0.27-0.09v-0.181c-0.24-0.299-0.33-0.569-0.27-0.81c0.059-0.239,0.09-0.509,0.09-0.81
		c0.12-0.6,0.18-1.02,0.18-1.261c0.12-0.239,0.181-0.419,0.181-0.54c0-0.059,0.015-0.119,0.045-0.18
		c0.03-0.059,0.045-0.119,0.045-0.18c0-0.419,0.03-0.75,0.091-0.99c0-0.06,0.059-0.149,0.18-0.271
		c-0.301-0.359-0.405-0.733-0.315-1.125c0.091-0.389,0.194-0.794,0.315-1.215c0-0.18,0.029-0.359,0.09-0.54
		c0.059-0.18,0.148-0.39,0.27-0.63c-0.359,0.121-0.6,0.24-0.72,0.36v0.359v0.36c-0.24,0.061-0.301,0.24-0.181,0.54
		c0,0.061-0.06,0.15-0.18,0.271l-0.18-0.091c-0.121-0.18-0.211-0.344-0.27-0.494c-0.061-0.149-0.121-0.315-0.18-0.495
		c-0.121-0.36-0.121-0.689,0-0.99c0.059-0.3,0.104-0.585,0.135-0.855c0.029-0.27,0.164-0.524,0.404-0.765
		c0.059-0.059,0.09-0.135,0.09-0.225c0-0.091,0.029-0.194,0.09-0.315c0.181-0.18,0.33-0.54,0.451-1.08
		c0-0.059,0.045-0.135,0.135-0.225s0.193-0.104,0.314-0.045c0.239,0.18,0.36,0.42,0.36,0.72c-0.061,0.301-0.121,0.63-0.181,0.99
		c-0.061,0.359-0.121,0.69-0.18,0.989c0,0.121,0.059,0.36,0.18,0.721c0.12-0.239,0.194-0.464,0.226-0.675
		c0.029-0.21,0.104-0.405,0.226-0.586c0.119-0.299,0.225-0.554,0.314-0.765c0.09-0.209,0.193-0.435,0.314-0.675
		c0.06-0.239,0.12-0.45,0.18-0.63c0.06-0.181,0.15-0.39,0.271-0.63c0.06-0.12,0.104-0.226,0.136-0.315
		c0.029-0.09,0.074-0.194,0.135-0.314l0.09-0.091c-0.061-0.238-0.031-0.449,0.09-0.63c0.119-0.18,0.239-0.39,0.359-0.63v-0.09
		c-0.24,0.061-0.449,0.195-0.629,0.405c-0.181,0.211-0.421,0.256-0.721,0.135c0.059-0.239,0.09-0.464,0.09-0.675
		c0-0.21,0.029-0.435,0.09-0.675c0.24,0,0.391-0.03,0.451-0.091c0.059-0.059,0.09-0.18,0.09-0.359
		c0.059-0.06,0.074-0.135,0.045-0.226c-0.031-0.09-0.016-0.135,0.045-0.135c0.18-0.059,0.314-0.149,0.404-0.27
		s0.226-0.21,0.405-0.271c0.3-0.059,0.569-0.359,0.81-0.899c-0.42-0.479-0.301-0.811,0.36-0.99c0.3-0.12,0.569-0.226,0.81-0.315
		s0.51-0.193,0.811-0.314c0.239-0.12,0.479-0.194,0.721-0.226c0.238-0.029,0.479-0.074,0.719-0.135c0.361,0,0.631,0.031,0.811,0.09
		h0.359c0.301,0,0.615-0.014,0.945-0.045c0.33-0.029,0.645-0.074,0.945-0.135c0.359,0,0.721,0,1.08,0s0.721,0.031,1.08,0.09h0.72
		c0-0.18,0.03-0.3,0.091-0.36c0.059,0,0.09,0.031,0.09,0.091c0.119,0.12,0.238,0.195,0.359,0.225
		c0.119,0.031,0.239,0.076,0.36,0.135c0.3,0,0.749,0.061,1.35,0.181c1.02,0.12,1.994,0.24,2.925,0.359
		c0.93,0.121,1.904,0.24,2.926,0.36c0.539,0.121,1.064,0.256,1.574,0.405c0.51,0.15,1.035,0.285,1.575,0.404
		c0.06,0.061,0.12,0.105,0.181,0.135c0.059,0.031,0.119,0.076,0.18,0.136c0.359,0.48,0.659,1.141,0.9,1.979
		c0.059,0.181,0.135,0.36,0.225,0.54c0.09,0.181,0.074,0.36-0.045,0.54c0.238,0.24,0.314,0.481,0.225,0.72
		c-0.09,0.241-0.076,0.481,0.045,0.721c0.18,0.301,0.149,0.69-0.09,1.17c-0.121,0.121-0.256,0.24-0.404,0.359
		c-0.15,0.121-0.315,0.241-0.496,0.36c-0.061,0-0.15,0.061-0.27,0.18c0,0.121,0.074,0.226,0.225,0.315
		c0.149,0.09,0.104,0.195-0.135,0.315c0.119,0.06,0.239,0.105,0.36,0.135c0.119,0.03,0.239,0.105,0.36,0.225
		c-0.121,0.121-0.256,0.226-0.406,0.315s-0.285,0.135-0.404,0.135c-0.301,0.061-0.54,0.166-0.721,0.315
		c-0.18,0.15-0.359,0.285-0.539,0.404c-0.421,0.301-0.826,0.421-1.215,0.36c-0.391-0.06-0.797-0.149-1.215-0.271
		c-0.121,0-0.301-0.119-0.541-0.359c-0.359-0.06-0.734-0.104-1.125-0.135s-0.795-0.075-1.215-0.136
		c-0.18-0.059-0.359-0.119-0.539-0.18c-0.181-0.06-0.361-0.029-0.541,0.09h-0.18c-0.121-0.18-0.285-0.27-0.495-0.27
		c-0.211,0-0.405,0-0.585,0c-0.061,0-0.105-0.015-0.135-0.045c-0.031-0.03-0.076-0.046-0.135-0.046
		c-0.121-0.059-0.225-0.119-0.315-0.18c-0.09-0.059-0.195-0.09-0.315-0.09c-0.18-0.059-0.346-0.104-0.494-0.135
		c-0.15-0.029-0.285-0.135-0.405-0.315c-0.121,0.301-0.256,0.466-0.405,0.495c-0.15,0.031-0.346,0.045-0.585,0.045h-0.45
		c-0.18,0.121-0.359,0.121-0.539,0c-0.241,0-0.481-0.059-0.721-0.18c-0.301,0-0.465,0.016-0.494,0.045
		c-0.031,0.031-0.076,0.195-0.136,0.495c0,0.24-0.03,0.45-0.09,0.63c-0.061,0.18-0.121,0.36-0.181,0.54
		c-0.121,0.301-0.24,0.601-0.359,0.899c-0.121,0.302-0.18,0.601-0.18,0.9c0.059,0.121,0.059,0.256,0,0.405
		c-0.061,0.15-0.121,0.285-0.18,0.405c-0.121,0.18-0.241,0.359-0.361,0.539c-0.12,0.181-0.24,0.392-0.359,0.631
		c-0.061,0.061-0.09,0.12-0.09,0.18c0.119,0.301,0.119,0.571,0,0.81c-0.121,0.241-0.121,0.511,0,0.811
		c0.059,0.121,0.074,0.211,0.045,0.27c-0.031,0.061-0.045,0.15-0.045,0.271s0.014,0.24,0.045,0.359
		c0.029,0.121,0.045,0.241,0.045,0.36c0.119,0.36,0.18,0.63,0.18,0.81l0.271,2.971c0.06,0.301,0.074,0.601,0.045,0.899
		c-0.031,0.302-0.076,0.601-0.136,0.9c0.12,0.061,0.271,0.09,0.451,0.09c0.479,0.121,0.93,0.195,1.35,0.226
		c0.419,0.03,0.869,0.075,1.35,0.135c0.66,0.121,1.335,0.256,2.025,0.404c0.689,0.151,1.395,0.166,2.115,0.046
		c0.119,0,0.209-0.015,0.27-0.046c0.059-0.029,0.148-0.045,0.27-0.045c0.42-0.119,0.541-0.029,0.36,0.271
		c0,0.24-0.06,0.48-0.18,0.72c-0.121,0.301-0.256,0.556-0.405,0.766c-0.15,0.211-0.285,0.465-0.404,0.765
		c-0.181,0.36-0.271,0.81-0.271,1.35c0,0.241,0.12,0.54,0.36,0.9c0.299,0.301,0.418,0.601,0.359,0.899
		c-0.24,0.302-0.57,0.421-0.99,0.36l0.181,0.36c0.419,0.42,0.39,0.87-0.091,1.35c-0.42,0.421-0.869,0.63-1.35,0.63
		c-0.061,0-0.211,0.061-0.449,0.181c-0.061-0.3-0.301-0.39-0.721-0.271c-0.18,0.061-0.51,0.15-0.99,0.271h-0.09
		c-0.301,0-0.585-0.015-0.855-0.045c-0.27-0.03-0.555-0.046-0.854-0.046c-0.12,0-0.211-0.014-0.271-0.045
		c-0.06-0.029-0.15-0.014-0.27,0.045c-0.66,0.181-1.291,0.181-1.89,0h-0.271c-0.121,0.421-0.211,0.811-0.27,1.171
		c-0.061,0.359-0.031,0.75,0.09,1.17c0.059,0.24,0.074,0.465,0.045,0.675c-0.031,0.211-0.045,0.465-0.045,0.765
		c-0.121,0-0.225,0.016-0.314,0.045c-0.09,0.031-0.195,0.045-0.315,0.045c-0.121,0.36-0.09,0.661,0.09,0.9
		c0.06,0.301,0.03,0.511-0.09,0.63c-0.421,0.421-0.54,0.87-0.36,1.35c0.119,0.181,0.09,0.36-0.09,0.54
		c-0.18,0.36-0.24,0.661-0.18,0.9c0.119,0.36,0.148,0.735,0.09,1.125c-0.061,0.391-0.15,0.735-0.27,1.035
		c-0.121,0.48-0.181,0.915-0.181,1.305c0,0.391,0,0.796,0,1.215c0.06,0.241,0.091,0.63,0.091,1.17
		c-0.241,0.181-0.271,0.45-0.091,0.811c0.06,0.18,0.091,0.511,0.091,0.99c0.059,0.301,0.09,0.615,0.09,0.944
		c0,0.331,0,0.646,0,0.945v0.18c-0.121,0.241-0.166,0.481-0.135,0.721c0.029,0.24,0.014,0.51-0.046,0.81
		c-0.12,0.301-0.18,0.63-0.18,0.99c0,0.359-0.031,0.69-0.091,0.99v0.359c-0.24,0.121-0.314,0.285-0.225,0.495
		c0.09,0.211,0.074,0.376-0.045,0.495c0.119,0.301,0.149,0.585,0.09,0.854c-0.061,0.271-0.061,0.556,0,0.855
		c0.06,0.48-0.09,0.9-0.449,1.26c-0.541,0.6-1.26,0.9-2.16,0.9h-1.44c-0.12,0-0.211-0.031-0.271-0.09
		c-0.301-0.121-0.584-0.196-0.854-0.226c-0.271-0.03-0.556-0.105-0.854-0.225c-0.061-0.3-0.105-0.585-0.135-0.855
		c-0.031-0.27-0.076-0.554-0.136-0.854c-0.12-0.3-0.211-0.585-0.271-0.855c-0.06-0.27-0.12-0.554-0.18-0.854h0.18
		c0,0.121,0.06,0.24,0.181,0.359l0.36,0.181c-0.061-0.239-0.09-0.51-0.09-0.811c-0.301,0-0.571-0.029-0.811-0.09
		c0-0.119,0-0.255,0-0.405c0-0.148-0.031-0.283-0.09-0.404c0.059-0.06,0.104-0.09,0.135-0.09c0.029,0,0.074-0.03,0.135-0.091
		c0.3-0.18,0.33-0.419,0.09-0.72c-0.121-0.119-0.18-0.239-0.18-0.36c0-0.359-0.18-0.509-0.539-0.449
		c-0.121-0.3-0.196-0.645-0.226-1.035c-0.031-0.39,0.015-0.705,0.135-0.945c-0.18-0.119-0.271-0.3-0.271-0.54
		c0-0.239-0.061-0.45-0.18-0.63c0-0.36-0.031-0.63-0.09-0.81c0.3-0.12,0.479-0.271,0.54-0.45c0.06-0.12,0.075-0.21,0.045-0.271
		c-0.03-0.059-0.045-0.148-0.045-0.27c-0.36-0.12-0.601-0.21-0.72-0.271c-0.121-0.059-0.18-0.238-0.18-0.54
		c0.119,0.061,0.238,0.105,0.359,0.136c0.119,0.03,0.27,0.075,0.45,0.135l-0.271-1.351h-0.359c-0.18,0-0.27-0.09-0.27-0.27
		c0-0.239-0.061-0.599-0.181-1.08c0.239,0.121,0.45,0.18,0.63,0.18C227.554,164.853,227.612,164.613,227.733,164.253
		c0.12,0.121,0.24,0.301,0.36,0.54c0-0.119,0.06-0.27,0.181-0.45c0.119-0.18,0.059-0.359-0.181-0.54
		C227.974,164.044,227.853,164.194,227.733,164.253z M226.924,140.853c0.239,0.24,0.3,0.63,0.181,1.17
		c-0.302-0.181-0.421-0.36-0.361-0.54C226.803,141.303,226.863,141.094,226.924,140.853z M228.004,136.083
		c0.239,0.301,0.3,0.63,0.181,0.99c-0.061,0.18-0.091,0.42-0.091,0.72c0,0.301-0.12,0.481-0.36,0.54c0-0.36,0-0.704,0-1.035
		c0-0.329-0.03-0.644-0.09-0.944C227.644,136.173,227.763,136.083,228.004,136.083z M228.004,136.083
		c-0.061-0.119-0.09-0.225-0.09-0.315s-0.031-0.193-0.091-0.314c0.12-0.06,0.24-0.09,0.361-0.09c0.119,0,0.238-0.029,0.359-0.09
		C228.423,135.633,228.243,135.903,228.004,136.083z M228.454,143.373c-0.121-0.119-0.225-0.194-0.315-0.225
		c-0.09-0.03-0.195-0.104-0.315-0.226c0,0.421,0.091,0.69,0.271,0.811C228.274,143.674,228.394,143.553,228.454,143.373z
		 M228.993,143.823h0.091v-0.63h-0.091l-0.18-0.09c-0.121,0.12-0.15,0.211-0.09,0.27c0,0.121,0.029,0.195,0.09,0.225
		C228.873,143.629,228.934,143.703,228.993,143.823z M231.243,126.273c-0.06,0.12-0.09,0.211-0.09,0.27
		c0,0.061-0.03,0.121-0.09,0.18c-0.121,0.121-0.211,0.181-0.27,0.181l-0.18-0.09c0-0.181,0.029-0.3,0.09-0.36
		c0.059-0.06,0.209-0.149,0.449-0.271C231.213,126.183,231.243,126.214,231.243,126.273z M231.604,125.373
		c0.479-0.239,0.989-0.63,1.529-1.17c-0.18-0.06-0.301-0.06-0.359,0c-0.241,0.18-0.481,0.346-0.721,0.495
		C231.813,124.849,231.663,125.073,231.604,125.373z M239.974,121.863v0.09c0.119,0,0.194,0.016,0.225,0.045
		c0.03,0.031,0.075,0.045,0.136,0.045h0.899c0.3,0,0.631,0,0.99,0c0.36,0,0.689,0.031,0.99,0.09c0.721,0,1.409,0.09,2.07,0.271
		c0.599,0.121,1.199,0.211,1.8,0.27c0.599,0.061,1.199,0.09,1.8,0.09h0.721c0.299,0.121,0.568,0.121,0.81,0
		c-0.36-0.18-0.735-0.27-1.125-0.27c-0.392,0-0.735-0.12-1.035-0.36c0-0.119,0.015-0.209,0.045-0.27
		c0.03-0.06,0.045-0.12,0.045-0.181c-0.24-0.119-0.421-0.029-0.54,0.271c-0.301,0-0.615,0.016-0.945,0.045
		c-0.33,0.031-0.645,0.045-0.944,0.045h-0.54c-0.301-0.119-0.601-0.209-0.9-0.27c-0.301-0.06-0.6-0.12-0.9-0.181
		c-0.18-0.059-0.359-0.09-0.539-0.09s-0.36,0.09-0.541,0.271c-0.06,0.061-0.12,0.09-0.18,0.09c-0.24,0-0.48,0-0.72,0
		s-0.481-0.029-0.72-0.09c-0.18-0.06-0.33-0.075-0.45-0.045C240.303,121.759,240.153,121.804,239.974,121.863z"/>
</g>
</svg>
