<?xml version="1.0" encoding="utf-8"?>
<!-- Generator: Adobe Illustrator 17.0.0, SVG Export Plug-In . SVG Version: 6.00 Build 0)  -->
<!DOCTYPE svg PUBLIC "-//W3C//DTD SVG 1.1//EN" "http://www.w3.org/Graphics/SVG/1.1/DTD/svg11.dtd">
<svg version="1.1" id="Ebene_1" xmlns="http://www.w3.org/2000/svg" xmlns:xlink="http://www.w3.org/1999/xlink" x="0px" y="0px"
	 width="362.83px" height="362.83px" viewBox="0 0 362.83 362.83" enable-background="new 0 0 362.83 362.83" xml:space="preserve">
<path fill="#F0F1EF" stroke="#000000" stroke-width="0.7087" stroke-miterlimit="10" d="M294.855,108.788
	c5.435-5.629,25.053-44.005-35.845-40.437c0.385-57.484-63.211-21.408-63.211-21.408s-10.792-45.987-59.356,1.982
	c0.385-10.704-37.387-24.579-46.252,11.893c-49.721,4.361-19.272,47.573-19.272,47.573s-73.29,54.105,19.657,68.585
	c-46.989,47.351-24.311,45.962,8.822,47.772L67,347.5c0,0,71-111.25,68.75-114.5c0,0-11.111,57.706,63.132,0.271
	c1.768,29.253,101.397,35.095,87.878-22.597c-1.243-11.556,42.556,2.086,17.344-45.195
	C341.357,135.786,289.42,114.418,294.855,108.788z"/>
<path fill="#FFFFFF" stroke="#000000" stroke-width="1.4173" stroke-miterlimit="10" d="M287.226,114.072
	c4.989-5.024,22.997-39.272-32.904-36.088c0.354-51.301-58.024-19.105-58.024-19.105s-9.906-41.041-54.486,1.769
	c0.354-9.553-34.319-21.936-42.456,10.614c-45.64,3.892-17.69,42.456-17.69,42.456S14.39,162.003,99.71,174.926
	c-43.133,42.259-22.316,41.019,8.098,42.634L81.2,312.83l57.321-91.229c0.036,0.01,0.072,0.018,0.107,0.028
	c0,0-7.651,54.795,60.5,3.538c1.623,26.106,93.077,31.32,80.667-20.167c-1.141-10.313,39.064,1.862,15.921-40.334
	C329.912,138.166,282.238,119.097,287.226,114.072z"/>
<rect x="94.915" y="105.357" fill="none" width="198" height="107.058"/>
<g enable-background="new    ">
	<path d="M129.615,174.943c0.18-0.12,0.299-0.136,0.36-0.045c0.059,0.09,0.149,0.166,0.27,0.225c0.18,0.18,0.39,0.211,0.63,0.09
		c0-0.119-0.031-0.209-0.09-0.27c-0.36-0.3-0.706-0.63-1.035-0.99c-0.331-0.36-0.706-0.689-1.125-0.99
		c-0.18-0.119-0.346-0.27-0.495-0.45c-0.15-0.18-0.315-0.359-0.495-0.54l-0.63-0.63l-0.36,0.36c-0.301-0.06-0.51-0.255-0.63-0.585
		c-0.121-0.329-0.09-0.645,0.09-0.945c0.18,0.061,0.329,0.166,0.45,0.315c0.12,0.15,0.299,0.166,0.54,0.045
		c0.059-0.239-0.031-0.479-0.27-0.72c-0.18-0.181-0.346-0.36-0.495-0.54c-0.15-0.181-0.315-0.36-0.495-0.54
		c-0.18-0.181-0.301-0.271-0.36-0.271c-0.061,0-0.241,0.061-0.54,0.18c-0.241-0.299-0.42-0.569-0.54-0.81
		c-0.121-0.239-0.27-0.509-0.45-0.81c-0.121-0.3-0.27-0.585-0.45-0.855c-0.18-0.27-0.36-0.554-0.54-0.854
		c0.299-0.42,0.209-0.869-0.27-1.351c-0.18-0.059-0.211-0.209-0.09-0.45c0.119-0.119,0.194-0.27,0.225-0.449
		c0.03-0.181,0.104-0.329,0.225-0.45c-0.061-0.181-0.18-0.3-0.36-0.36c0-0.059,0.029-0.119,0.09-0.18
		c0.18-0.239,0.209-0.509,0.09-0.811c-0.061-0.059-0.121-0.135-0.18-0.225c-0.061-0.09-0.121-0.135-0.18-0.135
		c-0.301-0.12-0.495-0.284-0.585-0.495c-0.09-0.21-0.195-0.435-0.315-0.675c0-0.12,0.014-0.21,0.045-0.271
		c0.03-0.059,0.014-0.148-0.045-0.27c-0.18-0.3-0.256-0.615-0.225-0.945c0.03-0.329,0.075-0.675,0.135-1.035v-0.27
		c-0.061-0.3-0.09-0.63-0.09-0.99s0-0.689,0-0.99c0-0.18,0.03-0.359,0.09-0.54c0.059-0.18,0.12-0.359,0.18-0.54
		c0.059-0.18,0.09-0.419,0.09-0.72c-0.061-0.3-0.09-0.554-0.09-0.765c0-0.21,0-0.465,0-0.766c0.12-0.659,0.194-1.334,0.225-2.024
		c0.03-0.689,0.104-1.364,0.225-2.025c0-0.18,0.059-0.45,0.18-0.81c0-0.12,0.029-0.239,0.09-0.36c0-0.239,0.059-0.659,0.18-1.26
		c0.059-0.12,0.09-0.239,0.09-0.36c0-0.119,0.029-0.239,0.09-0.36c0-0.059-0.015-0.104-0.045-0.135
		c-0.031-0.029-0.016-0.104,0.045-0.225c0.059-0.36,0.12-0.734,0.18-1.125c0.059-0.39,0.149-0.795,0.27-1.215
		c0.059-0.239,0.12-0.465,0.18-0.676c0.059-0.209,0.059-0.464,0-0.765c0-0.18,0.029-0.374,0.09-0.585
		c0.059-0.21,0.12-0.405,0.18-0.585c0.059-0.3,0.104-0.614,0.135-0.945c0.029-0.329,0.104-0.644,0.225-0.944l0.27-0.811
		c0.12-0.3,0.194-0.585,0.225-0.854c0.029-0.271,0.135-0.555,0.315-0.855c0.059-0.119,0.074-0.254,0.045-0.405
		c-0.031-0.148-0.016-0.283,0.045-0.404c0.12-0.3,0.209-0.569,0.27-0.811c0.059-0.239,0.149-0.479,0.27-0.72
		c0-0.119,0.12-0.3,0.36-0.54c0.239-0.36,0.329-0.659,0.27-0.9c0-0.18,0.03-0.299,0.09-0.359c0.239-0.419,0.45-0.855,0.63-1.306
		c0.18-0.449,0.45-0.854,0.81-1.215c0.059-0.059,0.09-0.148,0.09-0.27c0.059-0.12,0.09-0.226,0.09-0.315s0.03-0.164,0.09-0.225
		c0.119-0.18,0.254-0.345,0.405-0.495c0.149-0.149,0.194-0.345,0.135-0.585c0.36-0.36,0.63-0.659,0.81-0.9
		c-0.18-0.238-0.211-0.464-0.09-0.675c0.12-0.209,0.239-0.405,0.36-0.585c0.3-0.419,0.615-0.824,0.945-1.215
		c0.329-0.39,0.644-0.795,0.945-1.215c0.239-0.3,0.45-0.569,0.63-0.811c0.18-0.238,0.39-0.509,0.63-0.81
		c0.3-0.479,0.72-0.9,1.26-1.26c0.059,0,0.09-0.03,0.09-0.09c0.18-0.42,0.599-0.631,1.26-0.631c0.12,0,0.239-0.014,0.36-0.045
		c0.12-0.029,0.239-0.045,0.36-0.045c1.08-0.18,2.01,0.031,2.79,0.63c0.54,0.36,1.17,0.45,1.89,0.271h0.18
		c0.72,0,1.454,0.016,2.205,0.045c0.75,0.031,1.454,0.166,2.115,0.405c0.12,0,0.209,0.015,0.27,0.045
		c0.059,0.03,0.149,0.045,0.27,0.045c0.479,0.061,0.9,0.18,1.26,0.359c0.36,0.181,0.75,0.392,1.17,0.631
		c0.36,0.12,0.63,0.24,0.81,0.359c0.18,0.121,0.36,0.226,0.54,0.315c0.18,0.09,0.39,0.195,0.63,0.314
		c0.36,0.241,0.569,0.511,0.63,0.811c0.18,0.301,0.299,0.48,0.36,0.54c0.3,0.18,0.509,0.391,0.63,0.63
		c0.12,0.24,0.239,0.511,0.36,0.81l0.54,1.08c0,0.061,0.014,0.121,0.045,0.181c0.029,0.06,0.045,0.15,0.045,0.27
		c0.059,0.301,0.104,0.616,0.135,0.945c0.03,0.33,0.104,0.646,0.225,0.944v0.271c-0.061,1.021,0.149,2.07,0.63,3.149
		c0.12,0.241,0.18,0.631,0.18,1.171c-0.121,0.42-0.09,0.78,0.09,1.079c0.12,0.121,0.18,0.211,0.18,0.271
		c0,0.36,0.075,0.706,0.225,1.035c0.149,0.33,0.194,0.706,0.135,1.125c-0.061,0.121-0.076,0.211-0.045,0.27
		c0.03,0.061,0.045,0.15,0.045,0.271c0.059,0.061,0.09,0.15,0.09,0.27c-0.121,0.72,0,1.291,0.36,1.71v0.271
		c-0.121,0.661-0.135,1.275-0.045,1.845c0.09,0.571,0.165,1.186,0.225,1.845c0.059,0.301,0.12,0.616,0.18,0.945
		c0.059,0.33,0.03,0.646-0.09,0.945c-0.061,0.12-0.076,0.211-0.045,0.27c0.029,0.061,0.045,0.15,0.045,0.271
		c0.059,0.6,0.104,1.186,0.135,1.755c0.03,0.57,0.045,1.155,0.045,1.755c0,0.301-0.031,0.54-0.09,0.72c0,0.301-0.031,0.601-0.09,0.9
		c-0.061,0.301-0.09,0.601-0.09,0.899c0,0.241,0.03,0.392,0.09,0.45c0.18,0.301,0.239,0.54,0.18,0.72
		c-0.121,0.302-0.09,0.54,0.09,0.721c0.12,0.24,0.12,0.449,0,0.63c-0.121,0.48-0.241,0.841-0.36,1.08c0,0.18-0.06,0.45-0.18,0.81
		c0,0.301,0,0.585,0,0.855c0,0.27-0.031,0.555-0.09,0.854c0,0.121-0.016,0.256-0.045,0.405c-0.031,0.15-0.045,0.314-0.045,0.495
		c-0.061,0.24-0.076,0.48-0.045,0.72c0.03,0.24,0.194,0.45,0.495,0.63c0.059,0.061,0.104,0.15,0.135,0.271
		c0.03,0.121,0.075,0.24,0.135,0.359c0.12,0.721,0,1.291-0.36,1.71c-0.24,0.36-0.27,0.721-0.09,1.08c0.18,0.241,0.209,0.54,0.09,0.9
		c-0.06,0.301-0.105,0.571-0.135,0.81c-0.031,0.241-0.076,0.481-0.135,0.721c-0.061,0.18-0.09,0.42-0.09,0.72
		c0.12,0.42,0.03,0.72-0.27,0.899c-0.18,0.121-0.346,0.271-0.495,0.45c-0.15,0.181-0.315,0.331-0.495,0.45
		c-0.061,0.121-0.121,0.211-0.18,0.271c-0.061,0.06-0.121,0.15-0.18,0.27c-0.06,0-0.09,0.031-0.09,0.09
		c-0.42,0.421-0.661,0.871-0.72,1.351c0,0.12-0.121,0.301-0.36,0.54c-0.54,0.54-1.066,1.079-1.575,1.619
		c-0.511,0.54-0.976,1.141-1.395,1.801c0,0.061-0.016,0.09-0.045,0.09c-0.031,0-0.045,0.03-0.045,0.09
		c-0.301,0.18-0.571,0.391-0.81,0.63c-0.241,0.24-0.481,0.511-0.72,0.811c-0.241,0.24-0.495,0.404-0.765,0.494
		c-0.27,0.091-0.555,0.196-0.855,0.315c-0.121,0.121-0.24,0.195-0.36,0.225c-0.121,0.031-0.241,0.105-0.36,0.226
		c-0.481,0.301-0.96,0.48-1.44,0.54c-0.36,0-0.706,0.061-1.035,0.18c-0.331,0.121-0.675,0.211-1.035,0.271
		c-0.36,0.12-0.69,0.18-0.99,0.18c-0.42,0-0.841,0-1.26,0c-0.42,0-0.871-0.06-1.35-0.18c-0.42-0.06-0.825-0.075-1.215-0.046
		c-0.391,0.031-0.796,0.046-1.215,0.046c-1.44-0.06-2.851-0.45-4.23-1.171c-0.241-0.119-0.466-0.238-0.675-0.359
		c-0.211-0.12-0.436-0.239-0.675-0.36C129.915,175.213,129.795,175.123,129.615,174.943z M144.285,132.913
		c-0.061-0.119-0.09-0.329-0.09-0.63c0-0.72-0.211-1.499-0.63-2.34c-0.121-0.181-0.256-0.374-0.405-0.585
		c-0.15-0.21-0.286-0.405-0.405-0.585c-0.24-0.36-0.481-0.689-0.72-0.99c-0.241-0.3-0.511-0.6-0.81-0.9
		c-0.301-0.18-0.54-0.39-0.72-0.63c-0.18-0.239-0.391-0.509-0.63-0.81c-0.18-0.181-0.346-0.374-0.495-0.585
		c-0.15-0.21-0.315-0.405-0.495-0.585c-0.36-0.239-0.63-0.239-0.81,0c-0.241,0.301-0.45,0.63-0.63,0.989
		c-0.18,0.36-0.301,0.781-0.36,1.261c0,0.48-0.121,0.931-0.36,1.35c-0.121,0.24-0.241,0.466-0.36,0.675
		c-0.121,0.211-0.18,0.466-0.18,0.766c-0.061,0.24-0.15,0.66-0.27,1.26c-0.061,0.301-0.105,0.601-0.135,0.899
		c-0.031,0.302-0.076,0.601-0.135,0.9c0,0.061-0.016,0.105-0.045,0.135c-0.031,0.031-0.045,0.076-0.045,0.135
		c-0.18,0.481-0.315,0.945-0.405,1.396c-0.09,0.45-0.195,0.915-0.315,1.395c-0.121,0.601-0.24,1.051-0.36,1.351
		c-0.061,0.301-0.121,0.616-0.18,0.945c-0.061,0.33-0.15,0.675-0.27,1.034c-0.121,0.421-0.195,0.826-0.225,1.216
		c-0.031,0.391-0.105,0.796-0.225,1.215c-0.061,0.359-0.121,0.72-0.18,1.08c-0.061,0.359-0.121,0.72-0.18,1.08l-0.27,2.159
		c0,0.36-0.045,0.721-0.135,1.08c-0.09,0.36-0.076,0.721,0.045,1.08c0.12,0.301,0.194,0.601,0.225,0.9
		c0.029,0.301,0.075,0.601,0.135,0.899c0,0.36,0.03,0.631,0.09,0.811c0.12,0.359,0.209,0.751,0.27,1.17
		c0.059,0.42,0.149,0.81,0.27,1.17c0.059,0.121,0.09,0.27,0.09,0.45c0.059,0.48,0.104,0.96,0.135,1.439
		c0.03,0.481,0.104,0.961,0.225,1.44c0.059,0.36,0.059,0.706,0,1.035c-0.061,0.33-0.061,0.675,0,1.035
		c0.059,0.18,0.075,0.346,0.045,0.494c-0.031,0.151,0.014,0.315,0.135,0.495c0.12,0.061,0.18,0.241,0.18,0.54
		c-0.121,0.481-0.105,0.945,0.045,1.396c0.149,0.45,0.284,0.915,0.405,1.395c0.239,1.021,0.66,2.131,1.26,3.33
		c0.299,0.661,0.63,1.336,0.99,2.025c0.36,0.69,0.839,1.305,1.44,1.845c0.479,0.54,1.02,0.69,1.62,0.45
		c0.419-0.18,0.779-0.419,1.08-0.72c0.299-0.239,0.554-0.479,0.765-0.721c0.209-0.238,0.434-0.479,0.675-0.72
		c0.599-0.479,0.99-1.17,1.17-2.07c0-0.119,0.014-0.225,0.045-0.314c0.03-0.09,0.045-0.194,0.045-0.315
		c0.12-0.54,0.239-1.064,0.36-1.575c0.12-0.509,0.239-1.034,0.36-1.574c0.12-0.6,0.18-1.02,0.18-1.261
		c0.059-0.299,0.119-0.599,0.18-0.899c0.059-0.3,0.09-0.6,0.09-0.9c0.059-0.359,0.09-0.733,0.09-1.125c0-0.39,0-0.765,0-1.125
		c0.12-0.659,0.194-1.273,0.225-1.845c0.029-0.569,0.104-1.154,0.225-1.755c0.119-0.479,0.164-0.93,0.135-1.351
		c-0.031-0.419-0.045-0.839-0.045-1.26c-0.061-1.499-0.061-2.999,0-4.5v-2.34c-0.061-0.54-0.105-1.064-0.135-1.575
		c-0.031-0.509-0.076-1.004-0.135-1.484c0-0.3,0-0.585,0-0.855c0-0.27-0.031-0.554-0.09-0.854c0-0.3-0.016-0.57-0.045-0.811
		c-0.031-0.239-0.076-0.509-0.135-0.81l-0.09-0.181c-0.121-0.419-0.256-0.81-0.405-1.17c-0.15-0.359-0.285-0.749-0.405-1.17
		c-0.121-0.239-0.18-0.599-0.18-1.08C144.314,133.514,144.285,133.273,144.285,132.913z"/>
	<path d="M203.415,177.193l-0.541-2.16c-0.061-0.12-0.105-0.271-0.135-0.45c-0.031-0.18-0.076-0.329-0.135-0.45
		c-0.061-0.119-0.09-0.209-0.09-0.27c0-0.06-0.031-0.149-0.09-0.271c-0.061-0.599-0.105-1.17-0.135-1.71
		c-0.031-0.54-0.076-1.109-0.135-1.71c-0.061-0.359-0.076-0.72-0.046-1.08c0.03-0.359,0.015-0.72-0.045-1.08
		c0-0.419-0.03-0.72-0.09-0.899c-0.061-0.721-0.061-1.425,0-2.115c0.06-0.689,0.149-1.395,0.271-2.115
		c0.059-0.72,0.119-1.424,0.18-2.115c0.059-0.688,0.119-1.395,0.18-2.114c0.059-0.36,0.104-0.721,0.135-1.08
		c0.029-0.36,0.045-0.75,0.045-1.17v-0.271c-0.061-0.359-0.09-0.733-0.09-1.125c0-0.39-0.031-0.765-0.09-1.125
		c-0.061-0.18-0.076-0.374-0.045-0.585c0.029-0.209,0.045-0.435,0.045-0.675v-0.9c0-0.119-0.016-0.193-0.045-0.225
		c-0.031-0.029-0.045-0.104-0.045-0.225c-0.061-0.479-0.09-0.914-0.09-1.306c0-0.39,0-0.824,0-1.305c0-0.18-0.016-0.345-0.045-0.495
		c-0.031-0.149-0.045-0.314-0.045-0.495c-0.061-0.54-0.105-1.094-0.135-1.665c-0.031-0.569-0.045-1.125-0.045-1.665
		c-0.061-0.479-0.105-0.989-0.136-1.529s-0.075-1.05-0.135-1.53c-0.061-0.72-0.181-1.425-0.36-2.115
		c-0.18-0.689-0.359-1.395-0.54-2.115c-0.24-0.599-0.391-1.229-0.45-1.89c-0.121-0.3-0.195-0.599-0.225-0.9
		c-0.031-0.299-0.076-0.599-0.135-0.899l-0.27-0.54h-0.271c-0.181,0.18-0.36,0.346-0.54,0.495c-0.18,0.15-0.33,0.314-0.45,0.495
		c-0.24,0.42-0.466,0.81-0.675,1.17c-0.211,0.359-0.436,0.751-0.676,1.17l-0.27,0.27c-0.359,0.301-0.66,0.72-0.9,1.26
		c-0.301,0.54-0.779,0.811-1.439,0.811c-0.121-0.06-0.195-0.074-0.225-0.045c-0.031,0.03-0.076,0.016-0.135-0.045
		c-0.302-0.12-0.586-0.149-0.855-0.09s-0.556,0.12-0.855,0.18c-0.48,0-0.915,0-1.305,0c-0.391,0-0.796-0.029-1.215-0.09h-0.09
		c-0.601-0.3-1.186-0.555-1.756-0.766c-0.57-0.209-1.095-0.495-1.574-0.854c-0.54-0.36-1.051-0.72-1.53-1.08
		c-0.481-0.36-0.931-0.779-1.351-1.26c-0.18-0.239-0.359-0.465-0.539-0.676c-0.18-0.209-0.33-0.404-0.45-0.585
		c-0.302-0.419-0.571-0.823-0.81-1.215c-0.241-0.39-0.511-0.824-0.811-1.305c0-0.06-0.061-0.149-0.18-0.271
		c-0.42,0-0.72,0.136-0.9,0.405c-0.18,0.271-0.36,0.495-0.54,0.675c-0.121,0.302-0.211,0.571-0.27,0.811
		c-0.061,0.24-0.15,0.511-0.27,0.81l-0.27,0.811v0.45c0.059,0.301,0.059,0.57,0,0.81c-0.061,0.24-0.15,0.511-0.27,0.81
		c-0.06,0.241-0.09,0.45-0.09,0.631c0,0.18-0.031,0.391-0.09,0.63c0,0.301-0.031,0.51-0.09,0.63c-0.121,0.601-0.15,1.021-0.09,1.26
		c0,0.301-0.031,0.48-0.09,0.54c-0.18,0.301-0.211,0.661-0.09,1.08v0.81c-0.06,0.301-0.09,0.556-0.09,0.766c0,0.211,0,0.465,0,0.765
		c-0.061,0.24-0.09,0.481-0.09,0.72c0,0.241,0,0.511,0,0.811c0,0.301,0.014,0.585,0.045,0.854c0.029,0.271,0.014,0.556-0.045,0.855
		c0,0.301-0.061,0.69-0.18,1.17c-0.061,0.301,0,0.601,0.18,0.899c0.12,0.302,0.18,0.556,0.18,0.766c0,0.211,0,0.436,0,0.675
		c-0.06,0.481,0.059,0.931,0.36,1.35c-0.061,0.302-0.105,0.631-0.135,0.99c-0.031,0.36-0.076,0.72-0.135,1.08
		c0,0.18-0.061,0.391-0.18,0.63c-0.061,0.121-0.09,0.271-0.09,0.45s-0.031,0.33-0.09,0.45c-0.06,0.18-0.09,0.346-0.09,0.495
		c0,0.15-0.031,0.314-0.09,0.495c-0.121,0.301-0.18,0.585-0.18,0.854c0,0.271-0.031,0.556-0.09,0.855c0,0.18-0.016,0.359-0.045,0.54
		c-0.031,0.18-0.045,0.359-0.045,0.54c0.119,0.54,0.149,1.065,0.09,1.574c-0.061,0.511-0.061,1.035,0,1.575
		c0,0.301-0.045,0.601-0.135,0.9c-0.09,0.301-0.166,0.601-0.225,0.899c-0.061,0.302-0.105,0.556-0.135,0.766
		c-0.031,0.211-0.076,0.436-0.135,0.675c-0.121,0.601-0.241,1.08-0.36,1.439c-0.121,0.241-0.211,0.45-0.27,0.631
		c-0.06,0.18-0.031,0.391,0.09,0.63c0.12,0.359,0.059,0.69-0.18,0.989c-0.061,0.121-0.09,0.271-0.09,0.45l-0.72,0.721
		c-0.301,0.12-0.72,0.06-1.26-0.181c-0.781-0.419-1.53-0.54-2.25-0.359c-0.121-0.12-0.211-0.194-0.27-0.226
		c-0.061-0.029-0.121-0.104-0.18-0.225c-0.24-0.3-0.601-0.509-1.08-0.63c-0.24-0.06-0.45-0.165-0.63-0.315
		c-0.18-0.149-0.391-0.284-0.63-0.405v-0.18c0.12-0.239,0.165-0.479,0.135-0.72c-0.031-0.239-0.015-0.479,0.045-0.72v-1.261
		c0-0.419,0-0.824,0-1.215c0-0.39,0.03-0.824,0.09-1.305c0-0.419,0.014-0.824,0.045-1.215c0.029-0.39,0.075-0.795,0.135-1.216
		c0.059-0.599,0.12-1.184,0.18-1.755c0.059-0.569,0.059-1.154,0-1.755c-0.061-0.359-0.076-0.704-0.045-1.035
		c0.029-0.329,0.045-0.675,0.045-1.034c0-0.12-0.016-0.226-0.045-0.315c-0.031-0.09-0.045-0.194-0.045-0.315l-0.27-4.59
		c-0.061-0.72-0.076-1.424-0.045-2.114c0.029-0.689,0.104-1.364,0.225-2.025l0.27-3.51c0.059-0.721,0.104-1.44,0.135-2.16
		c0.029-0.72,0.104-1.44,0.225-2.16c0.119-0.599,0.254-1.199,0.405-1.8c0.149-0.6,0.284-1.2,0.405-1.8
		c0.119-0.479,0.18-0.84,0.18-1.08c0.18-0.9,0.36-1.801,0.54-2.7c0.18-0.9,0.419-1.77,0.72-2.61c0.119-0.239,0.18-0.419,0.18-0.54
		c0.12-0.239,0.239-0.54,0.36-0.899c0.059-0.12,0.09-0.226,0.09-0.315s0.059-0.194,0.18-0.314c0.119-0.239,0.239-0.465,0.36-0.676
		c0.12-0.209,0.239-0.435,0.36-0.675c0.12-0.239,0.239-0.464,0.36-0.675c0.12-0.21,0.239-0.435,0.36-0.675
		c0.119-0.181,0.239-0.345,0.36-0.495c0.12-0.149,0.239-0.315,0.36-0.495c0.12-0.239,0.225-0.479,0.315-0.72
		c0.09-0.239,0.194-0.479,0.315-0.721c0.12-0.299,0.284-0.599,0.495-0.899c0.209-0.3,0.495-0.509,0.855-0.63
		c0.12,0,0.225-0.03,0.315-0.09s0.194-0.12,0.315-0.181c0-0.299,0.03-0.54,0.09-0.72c0.12,0,0.225-0.014,0.315-0.045
		c0.09-0.029,0.194-0.045,0.315-0.045c0.299,0,0.615-0.015,0.945-0.045c0.329-0.03,0.644-0.015,0.945,0.045
		c0.299,0.121,0.614,0.166,0.945,0.135c0.329-0.029,0.644-0.014,0.945,0.045c0.238,0,0.479,0.031,0.72,0.09
		c0.239,0.061,0.45,0.09,0.63,0.09c0.239,0.302,0.465,0.556,0.676,0.766c0.209,0.211,0.463,0.436,0.764,0.675
		c0.24,0.121,0.451,0.285,0.631,0.495c0.18,0.211,0.389,0.405,0.63,0.585l0.271,0.27c0.418,0.302,0.749,0.646,0.989,1.035
		c0.239,0.392,0.509,0.766,0.81,1.125c0.301,0.36,0.57,0.735,0.811,1.125c0.239,0.392,0.51,0.735,0.811,1.035
		c0.18,0.18,0.328,0.391,0.449,0.63c0.119,0.24,0.239,0.481,0.36,0.72c0.181,0.241,0.39,0.601,0.63,1.08
		c0.3,0.121,0.6,0.031,0.9-0.27c0.479-0.54,0.945-1.08,1.395-1.62s0.914-1.08,1.395-1.62c0.24-0.239,0.496-0.45,0.766-0.63
		s0.555-0.39,0.855-0.63c0.599-0.6,1.289-1.08,2.069-1.44c0.06-0.059,0.12-0.104,0.181-0.135c0.059-0.029,0.148-0.104,0.27-0.225
		c0.119-0.06,0.193-0.12,0.225-0.181c0.029-0.059,0.104-0.148,0.226-0.27c0.239-0.119,0.45-0.18,0.63-0.18c0.419,0,0.84,0,1.26,0
		s0.84,0.061,1.26,0.18c0.239,0.121,0.465,0.18,0.676,0.18c0.209,0,0.434,0.031,0.675,0.09c0.479,0.121,0.959,0.256,1.44,0.405
		c0.479,0.15,0.959,0.376,1.439,0.675c0.119,0.36,0.238,0.63,0.359,0.811c0.06,0.121,0.104,0.225,0.136,0.314
		c0.029,0.09,0.104,0.195,0.225,0.315c0.3,0.301,0.54,0.646,0.72,1.035c0.181,0.391,0.391,0.765,0.631,1.125
		c0.18,0.301,0.328,0.615,0.449,0.944c0.12,0.331,0.239,0.646,0.36,0.945c0,0.061,0.015,0.105,0.045,0.135
		c0.03,0.031,0.045,0.076,0.045,0.136c-0.12,0.18-0.15,0.359-0.09,0.54c0.06,0.18,0.12,0.359,0.181,0.539v0.36
		c0.059,0.24,0.09,0.466,0.09,0.675c0,0.211,0.029,0.405,0.09,0.585v1.17v0.45c0.119,0.36,0.225,0.721,0.314,1.08
		c0.09,0.36,0.194,0.72,0.315,1.08c0,0.061,0.014,0.121,0.045,0.18c0.029,0.061,0.045,0.121,0.045,0.181
		c0,0.601,0.12,1.141,0.36,1.62v1.529c0.059,0.181,0.104,0.376,0.135,0.585c0.029,0.211,0.104,0.437,0.225,0.676
		c0,0.12,0.059,0.301,0.18,0.54c0.36,0.301,0.48,0.78,0.36,1.439c0,0.421,0.091,0.751,0.271,0.99c0.119,0.121,0.18,0.27,0.18,0.45
		c0.059,0.061,0.09,0.15,0.09,0.27c0.18,0.18,0.284,0.376,0.314,0.585c0.03,0.211,0.046,0.437,0.046,0.675
		c0,0.241,0.014,0.481,0.045,0.721c0.029,0.24,0.045,0.48,0.045,0.72c0,0.42-0.03,0.72-0.09,0.9c0,0.12,0.029,0.211,0.09,0.27
		c0.12,0.301,0.194,0.616,0.226,0.945c0.029,0.33,0.074,0.646,0.135,0.944c0,0.302,0.029,0.63,0.09,0.99
		c0.059,0.36,0.029,0.69-0.09,0.99v0.09c0.18,0.481,0.254,0.976,0.225,1.485c-0.031,0.51,0.074,1.005,0.314,1.484
		c0.181,0.481,0.24,0.932,0.181,1.351v0.18c0.12,0.301,0.12,0.72,0,1.26c0,0.301,0.029,0.54,0.09,0.721
		c0.181,0.6,0.21,1.079,0.09,1.439c0.06,0.301,0.104,0.556,0.136,0.765c0.029,0.211,0.074,0.437,0.135,0.676
		c0.059,0.24,0.104,0.449,0.135,0.63c0.029,0.18,0.045,0.391,0.045,0.63c0.059,0.18,0.074,0.36,0.045,0.54
		c-0.031,0.18-0.045,0.391-0.045,0.63c-0.061,0.121-0.105,0.27-0.135,0.45c-0.031,0.18-0.076,0.33-0.135,0.45v0.449
		c-0.061,0.121-0.181,0.271-0.36,0.45c0.12,0.24,0.21,0.45,0.271,0.63c-0.181,0.181-0.271,0.392-0.271,0.63
		c0,0.241,0.029,0.481,0.09,0.721c0.12,0.301,0.09,0.661-0.09,1.08c-0.061,0.12-0.105,0.24-0.136,0.359
		c-0.03,0.121-0.015,0.271,0.045,0.45c0,0.121-0.015,0.211-0.045,0.271s-0.045,0.15-0.045,0.27c-0.301,0.121-0.51,0.24-0.629,0.36
		c-0.121,0.121-0.181,0.27-0.181,0.449c-0.12,0.061-0.271,0.181-0.45,0.36c0,0.061-0.016,0.105-0.045,0.135
		c-0.031,0.031-0.045,0.105-0.045,0.226c0,0.24-0.031,0.391-0.09,0.45c-0.24,0.301-0.404,0.63-0.495,0.989
		c-0.09,0.36-0.195,0.721-0.315,1.08c-0.121,0.301-0.33,0.54-0.629,0.721c-0.301,0.12-0.571,0.301-0.811,0.539
		c-0.24,0-0.48,0-0.721,0s-0.48,0.091-0.719,0.271c-0.121,0.36-0.241,0.63-0.36,0.81c-0.121-0.059-0.196-0.104-0.226-0.135
		c-0.031-0.029-0.105-0.074-0.225-0.135c-0.359,0.061-0.601,0.301-0.721,0.72c-0.12,0.24-0.359,0.54-0.719,0.9
		c-0.121,0.061-0.195,0.121-0.226,0.18c-0.03,0.061-0.105,0.15-0.226,0.271c-0.301,0.359-0.689,0.69-1.17,0.989
		c-0.301,0.061-0.584,0.091-0.854,0.091S203.714,177.134,203.415,177.193z"/>
	<path d="M249.493,177.373c-0.24-0.119-0.449-0.225-0.629-0.315s-0.421-0.074-0.721,0.046c-0.121,0-0.24,0.015-0.359,0.045
		c-0.121,0.03-0.24-0.015-0.36-0.136c-0.24-0.119-0.45-0.164-0.63-0.135c-0.18,0.031-0.359,0.045-0.54,0.045l-0.181,0.09
		c-0.301-0.238-0.645-0.359-1.034-0.359c-0.392,0-0.765-0.03-1.125-0.09c-0.061-0.06-0.121-0.091-0.181-0.091
		c-0.061,0-0.09-0.014-0.09-0.045c0-0.029-0.031-0.045-0.09-0.045c-0.061,0-0.09-0.029-0.09-0.09
		c-0.121,0.121-0.211,0.135-0.27,0.045c-0.061-0.09-0.15-0.194-0.271-0.314c-0.181,0.18-0.346,0.18-0.495,0
		c-0.15-0.181-0.285-0.21-0.404-0.091c-0.121-0.119-0.181-0.238-0.181-0.359c-0.061,0.061-0.15,0.09-0.271,0.09
		c-0.061,0-0.15-0.06-0.27-0.18c-0.24,0.24-0.449,0.27-0.63,0.09c0-0.06-0.061-0.09-0.181-0.09c-0.24,0-0.48-0.091-0.719-0.271
		c-0.121-0.059-0.226-0.104-0.315-0.135c-0.091-0.029-0.196-0.074-0.315-0.135c-0.301,0-0.689-0.181-1.17-0.54
		c-0.121-0.12-0.24-0.181-0.359-0.181c-0.421-0.059-0.752-0.27-0.99-0.63c-0.121-0.18-0.285-0.345-0.495-0.495
		c-0.211-0.148-0.405-0.314-0.585-0.494c-0.301-0.3-0.57-0.6-0.811-0.9c-0.24-0.3-0.51-0.6-0.81-0.9l-0.54-0.54
		c-0.359-0.359-0.57-0.659-0.63-0.899c-0.121-0.3-0.256-0.524-0.405-0.675c-0.15-0.149-0.285-0.315-0.404-0.495
		c-0.121-0.181-0.226-0.345-0.315-0.495c-0.09-0.149-0.136-0.345-0.136-0.585c0-0.12-0.03-0.226-0.09-0.315
		c-0.061-0.09-0.121-0.194-0.18-0.314c-0.24-0.239-0.404-0.51-0.494-0.811c-0.091-0.3-0.196-0.599-0.315-0.899
		c-0.061-0.06-0.105-0.12-0.136-0.181c-0.03-0.059-0.075-0.119-0.135-0.18c-0.061-0.06-0.09-0.104-0.09-0.135
		s-0.031-0.075-0.09-0.136c-0.121-0.359-0.211-0.599-0.27-0.72l-0.09-0.18c0.059-0.3,0.029-0.6-0.091-0.9
		c-0.12-0.299-0.211-0.599-0.271-0.899v-0.271c0.06-0.239,0.06-0.54,0-0.899c-0.12-0.36-0.211-0.734-0.27-1.125
		c-0.061-0.39-0.061-0.795,0-1.216c0-0.299,0-0.554,0-0.765c0-0.209-0.031-0.464-0.09-0.765c0-0.12,0.014-0.271,0.045-0.45
		c0.029-0.18,0.045-0.36,0.045-0.54v-0.81v-1.261v-0.27c0.119-0.3,0.164-0.6,0.135-0.9c-0.03-0.3-0.016-0.599,0.045-0.899
		c0.06-0.239,0.09-0.45,0.09-0.631c0-0.18,0.03-0.389,0.091-0.63l0.54-2.43c0.119-0.3,0.209-0.63,0.27-0.99
		c0.06-0.359,0.149-0.72,0.271-1.08v-0.27c0.239-0.3,0.39-0.645,0.45-1.035c0.059-0.39,0.148-0.734,0.27-1.035l0.54-1.62l0.271-1.08
		c0.059-0.238,0.119-0.464,0.18-0.675c0.059-0.209,0.119-0.435,0.18-0.675c0.059-0.119,0.119-0.21,0.18-0.27
		c0.06-0.06,0.12-0.149,0.181-0.271c0.06-0.239,0.119-0.464,0.18-0.675c0.06-0.21,0.12-0.435,0.181-0.675
		c0.059-0.181,0.135-0.345,0.225-0.495c0.09-0.149,0.164-0.284,0.225-0.405l0.27-0.54v-0.27c0.12-0.12,0.226-0.255,0.316-0.405
		c0.09-0.149,0.164-0.315,0.225-0.495c0.119-0.18,0.209-0.345,0.27-0.495c0.059-0.149,0.149-0.314,0.27-0.495
		c0.12-0.119,0.181-0.254,0.181-0.404c0-0.149,0.06-0.284,0.181-0.405c0.119-0.181,0.238-0.36,0.359-0.54
		c0.119-0.18,0.238-0.329,0.359-0.45c0.12-0.18,0.226-0.36,0.315-0.54c0.091-0.18,0.194-0.39,0.315-0.63
		c0.119-0.119,0.209-0.225,0.27-0.315c0.059-0.09,0.149-0.164,0.27-0.225c0.24-0.18,0.42-0.419,0.541-0.72
		c0.119-0.181,0.225-0.374,0.314-0.585c0.09-0.21,0.255-0.374,0.495-0.495c0.06-0.239,0.165-0.405,0.315-0.495
		c0.148-0.09,0.283-0.225,0.404-0.405c0.119-0.119,0.225-0.239,0.315-0.359s0.194-0.239,0.315-0.36
		c0.059-0.18,0.148-0.271,0.27-0.271l0.18-0.18c0.3-0.479,0.631-0.84,0.99-1.08c0.18-0.119,0.329-0.27,0.45-0.45
		c0.119-0.18,0.271-0.329,0.45-0.449c0.119-0.12,0.359-0.3,0.72-0.54c0.239-0.12,0.39-0.239,0.45-0.36
		c0.479-0.3,1.049-0.599,1.709-0.9c0.12,0,0.195-0.029,0.226-0.09c0.03-0.059,0.104-0.119,0.226-0.18
		c0.059-0.06,0.119-0.09,0.18-0.09c0.479-0.12,0.84-0.239,1.08-0.36l0.18-0.18c0.059,0,0.104-0.015,0.135-0.045
		c0.029-0.03,0.074-0.045,0.135-0.045c0.12,0,0.226-0.03,0.315-0.091c0.091-0.059,0.194-0.119,0.315-0.18
		c0.238-0.18,0.479-0.3,0.72-0.359c0.181-0.12,0.345-0.181,0.495-0.181c0.148,0,0.283-0.059,0.404-0.18
		c0.06-0.06,0.149-0.09,0.271-0.09c0.3-0.12,0.614-0.239,0.944-0.36c0.33-0.119,0.645-0.239,0.945-0.36l1.08-0.54
		c0-0.059,0.06-0.09,0.18-0.09c0.42,0.061,0.824,0.136,1.216,0.226c0.39,0.09,0.733,0.314,1.034,0.675
		c0.12,0.121,0.226,0.211,0.315,0.27c0.091,0.061,0.165,0.15,0.226,0.271c0.119,0,0.193,0.061,0.225,0.18
		c0.029,0.121,0.104,0.211,0.225,0.271c-0.061,0.18-0.045,0.314,0.045,0.404c0.09,0.091,0.135,0.196,0.135,0.315
		c0.12,0.061,0.211,0.09,0.271,0.09s0.12,0.031,0.181,0.09c0.059,0,0.09,0.121,0.09,0.36c0,0.18,0.029,0.301,0.09,0.36
		c0.299,0.18,0.509,0.48,0.63,0.899c0.06,0.24,0.165,0.391,0.315,0.45c0.148,0.061,0.314,0.15,0.494,0.27
		c0.06,0.061,0.12,0.091,0.18,0.091s0.12,0.03,0.181,0.09c0.12,0.18,0.36,0.27,0.72,0.27c0,0.121,0.029,0.181,0.09,0.181
		c0.12,0.12,0.181,0.24,0.181,0.359c0,0.121,0.029,0.24,0.09,0.36c0,0.24-0.09,0.45-0.271,0.63c-0.121-0.06-0.24-0.239-0.359-0.54
		c0-0.119-0.121-0.239-0.36-0.36c-0.24-0.18-0.45-0.27-0.63-0.27c0.059,0.24,0.209,0.36,0.45,0.36c0.479,0.539,0.599,1.11,0.36,1.71
		c0.359,0.301,0.418,0.66,0.18,1.079c0,0.061-0.016,0.121-0.045,0.181c-0.031,0.061-0.045,0.121-0.045,0.18
		c0.059,0.24-0.061,0.511-0.36,0.811c-0.24,0.24-0.481,0.301-0.72,0.18c-0.24,0-0.466-0.06-0.676-0.18
		c-0.211-0.12-0.436-0.149-0.674-0.091c-0.061,0-0.121-0.029-0.181-0.09c-0.121-0.119-0.271-0.209-0.45-0.27
		c-0.18-0.06-0.33-0.149-0.449-0.271c-0.301,0.121-0.451,0.211-0.451,0.271c-0.18,0.18-0.391,0.27-0.629,0.27
		c-0.121,0-0.211,0.045-0.271,0.135c-0.061,0.091-0.15,0.166-0.271,0.226c-0.121-0.12-0.27-0.06-0.449,0.18
		c-0.061,0.061-0.15,0.09-0.27,0.09c-0.121-0.059-0.331,0-0.631,0.181c-0.121,0.061-0.211,0.09-0.27,0.09
		c-0.061,0-0.15,0.031-0.271,0.09c-0.12,0-0.271,0.031-0.45,0.09c-0.18,0.061-0.33,0.121-0.449,0.18c0,0.121-0.031,0.181-0.09,0.181
		h-0.451c-0.061,0.061-0.105,0.121-0.135,0.18c-0.031,0.061-0.076,0.121-0.135,0.18c-0.061,0.061-0.121,0.061-0.18,0
		c-0.061-0.059-0.121,0-0.18,0.181c-0.301,0.121-0.541,0.301-0.721,0.54c-0.18,0.24-0.391,0.48-0.63,0.72
		c-0.12,0.18-0.301,0.27-0.54,0.27c-0.18,0-0.33,0.121-0.449,0.36l0.27,0.271c0,0.061-0.031,0.12-0.09,0.18
		c-0.481,0.121-0.871,0.211-1.17,0.27c-0.121,0.061-0.211,0.091-0.271,0.091c-0.061,0-0.15,0.06-0.271,0.18l-0.09,0.18
		c-0.18,0-0.27,0.031-0.27,0.09c0,0.121,0.09,0.181,0.27,0.181l0.09,0.09c0.12,0.301,0.03,0.45-0.27,0.45
		c-0.24-0.06-0.449-0.06-0.63,0c-0.181,0.061-0.36,0.12-0.54,0.18c-0.061,0.061-0.105,0.121-0.135,0.18
		c-0.031,0.061-0.076,0.121-0.135,0.181c-0.121,0.061-0.271,0.09-0.45,0.09c0,0.18-0.031,0.33-0.091,0.45l-0.539,0.81
		c0,0.061-0.031,0.09-0.09,0.09c-0.24,0.121-0.421,0.301-0.541,0.54c-0.121,0.24-0.301,0.421-0.539,0.54
		c-0.121,0.121-0.18,0.211-0.18,0.271c-0.181,0.18-0.241,0.27-0.181,0.27c-0.121,0.121-0.211,0.256-0.271,0.405
		c-0.061,0.15-0.15,0.314-0.27,0.495c-0.061,0.061-0.105,0.12-0.135,0.18c-0.031,0.061-0.076,0.121-0.135,0.18
		c-0.181,0.181-0.315,0.392-0.405,0.63c-0.091,0.241-0.226,0.421-0.405,0.54c-0.061,0-0.09,0.061-0.09,0.181
		c0,0.121-0.045,0.211-0.135,0.27c-0.09,0.061-0.105,0.15-0.045,0.271c-0.061,0.061-0.105,0.12-0.135,0.18
		c-0.031,0.061-0.105,0.15-0.226,0.27c-0.061,0.061-0.15,0.211-0.271,0.45c-0.061,0-0.09,0.061-0.09,0.181
		c0.06,0.12,0.045,0.256-0.045,0.404c-0.09,0.15-0.195,0.286-0.314,0.405c-0.121,0.24-0.18,0.421-0.18,0.54v0.09
		c-0.181,0.121-0.286,0.301-0.315,0.54c-0.031,0.24-0.076,0.45-0.136,0.63c-0.061,0.061-0.09,0.24-0.09,0.54
		c-0.121,0.121-0.24,0.36-0.359,0.72c-0.121,0.121-0.166,0.271-0.135,0.45c0.029,0.181-0.016,0.331-0.135,0.45
		c-0.061,0.18-0.091,0.346-0.091,0.495c0,0.15-0.03,0.314-0.09,0.495c0.181,0.061,0.3,0.15,0.36,0.27
		c0.059,0.121,0.148,0.271,0.27,0.45c0.119,0.24,0.029,0.45-0.27,0.63c-0.121,0-0.18,0.031-0.18,0.09
		c0,0.061-0.031,0.121-0.091,0.181c0.06,0.061,0.12,0.09,0.181,0.09c0.059,0,0.119,0.031,0.18,0.09v0.09
		c-0.061,0.121-0.09,0.24-0.09,0.36c0,0.121-0.061,0.24-0.18,0.359v0.36c0,0.18-0.031,0.301-0.091,0.36
		c-0.061,0-0.09,0.016-0.09,0.045c0,0.03,0.029,0.045,0.09,0.045c0.12,0.121,0.149,0.195,0.091,0.225
		c-0.061,0.031-0.091,0.105-0.091,0.226c0,0.18-0.045,0.346-0.135,0.495c-0.091,0.15-0.076,0.314,0.045,0.494l-0.09,0.091
		c-0.121,0.12-0.181,0.211-0.181,0.27c0.06,0.061,0.09,0.18,0.09,0.36c-0.061,0.24-0.105,0.45-0.135,0.63
		c-0.031,0.18-0.045,0.391-0.045,0.63c0,0.421-0.031,0.72-0.09,0.9c0,0.18,0.029,0.33,0.09,0.449c-0.24,0.181-0.33,0.421-0.27,0.721
		c0.119,0.301,0.119,0.601,0,0.899c-0.061,0.24,0,0.45,0.18,0.63c-0.121,0.181-0.195,0.347-0.225,0.495
		c-0.031,0.15-0.105,0.315-0.225,0.495c0.18,0.18,0.238,0.331,0.18,0.45c-0.121,0.18-0.15,0.36-0.09,0.54
		c0.059,0.18,0.119,0.36,0.18,0.54c0.059,0.18,0.119,0.346,0.18,0.495c0.059,0.15,0.149,0.346,0.27,0.585
		c-0.061,0-0.09,0.121-0.09,0.359c0.12-0.059,0.226-0.045,0.315,0.045c0.09,0.091,0.194,0.196,0.315,0.315
		c0.119,0.121,0.18,0.24,0.18,0.36c0,0.121,0.029,0.24,0.09,0.359c0.239,0.241,0.419,0.45,0.54,0.63
		c-0.121,0.121-0.181,0.211-0.181,0.271c0.12,0.121,0.256,0.24,0.406,0.36c0.148,0.12,0.283,0.24,0.404,0.359
		c0.119,0.121,0.239,0.211,0.36,0.271c0.119,0.061,0.271,0.09,0.45,0.09c0.059,0,0.09,0.031,0.09,0.09
		c0.059,0.18,0.18,0.27,0.359,0.27s0.33,0.061,0.45,0.181c0.239,0.121,0.45,0.24,0.63,0.359c0.18,0.121,0.39,0.241,0.631,0.36
		c0.238,0.121,0.479,0.211,0.719,0.271s0.48,0.15,0.721,0.27c0.059,0.061,0.18,0.09,0.359,0.09c0.42,0,0.75,0.031,0.99,0.09h0.09
		c0.301-0.119,0.57-0.135,0.811-0.045c0.239,0.09,0.51,0.076,0.811-0.045c0.119,0,0.225,0.016,0.314,0.045
		c0.09,0.031,0.193,0.045,0.314,0.045c0.301,0,0.555-0.029,0.766-0.09c0.209-0.059,0.435-0.119,0.675-0.18
		c0.06,0,0.149-0.06,0.271-0.18c0.119-0.12,0.238-0.271,0.359-0.45c0.119-0.181,0.239-0.36,0.36-0.54
		c0.06-0.181,0.149-0.271,0.271-0.271c0.299-0.18,0.449-0.479,0.449-0.899c0-0.419,0-0.811,0-1.17c0-0.36-0.031-0.721-0.09-1.08
		c0-0.3,0.029-0.585,0.09-0.855c0.059-0.27,0.119-0.554,0.18-0.854c0.06-0.181,0.09-0.345,0.09-0.495
		c0-0.149,0.03-0.315,0.091-0.495v-0.09c-0.121-0.6-0.241-1.049-0.36-1.351c-0.18-0.238-0.211-0.569-0.09-0.989
		c0.059-0.12,0.029-0.3-0.09-0.54c-0.121-0.239-0.24-0.39-0.36-0.45c-0.12,0-0.18-0.06-0.18-0.18c-0.241-0.36-0.421-0.57-0.54-0.631
		c-0.121-0.119-0.195-0.225-0.225-0.314c-0.031-0.09-0.105-0.194-0.226-0.315c-0.061,0-0.09-0.014-0.09-0.045
		c0-0.029-0.03-0.045-0.09-0.045c-0.181-0.059-0.36-0.149-0.54-0.27s-0.36-0.21-0.54-0.271c-0.421,0-0.63-0.148-0.63-0.45
		c-0.121-0.059-0.211-0.119-0.27-0.18c-0.061-0.059-0.151-0.119-0.271-0.18l-0.091-0.09c-0.42-0.06-0.81-0.239-1.17-0.54h-0.18
		c-0.18,0-0.301-0.091-0.359-0.271c-0.24-0.36-0.481-0.54-0.721-0.54c-0.121,0-0.24-0.18-0.359-0.54c0-0.059,0.014-0.09,0.045-0.09
		c0.029,0,0.045-0.029,0.045-0.09c0.119-0.239,0.238-0.6,0.359-1.08c0-0.239,0.09-0.45,0.271-0.63s0.239-0.36,0.181-0.54
		c0.059,0,0.09-0.029,0.09-0.09c0-0.12,0.029-0.181,0.09-0.181c0.418-0.18,0.659-0.449,0.72-0.81v-0.09
		c0.18-0.06,0.315-0.165,0.405-0.315c0.09-0.148,0.193-0.284,0.314-0.404c0.119-0.12,0.209-0.181,0.27-0.181l0.181-0.18
		c0.06-0.12,0.149-0.194,0.271-0.226c0.119-0.029,0.209-0.104,0.27-0.225c0.18-0.18,0.359-0.27,0.54-0.27
		c0.06,0,0.09-0.015,0.09-0.045s0.03-0.046,0.09-0.046c0.54-0.54,1.11-0.54,1.71,0c0.059,0,0.09,0.016,0.09,0.046
		s0.029,0.045,0.09,0.045c0.24,0.061,0.451,0.166,0.631,0.314c0.18,0.15,0.359,0.315,0.539,0.495c0.06,0,0.104,0.016,0.136,0.045
		c0.029,0.031,0.074,0.045,0.135,0.045l0.181,0.181c0.059,0.18,0.164,0.33,0.314,0.449c0.148,0.121,0.284,0.271,0.404,0.45
		c0.361,0.36,0.6,0.661,0.721,0.9c0.119,0,0.18,0.03,0.18,0.09h0.18c0.12,0.18,0.271,0.27,0.451,0.27
		c0.18,0,0.328,0.061,0.449,0.181c0.721,0.42,1.26,0.81,1.62,1.17c0.181,0.18,0.329,0.301,0.45,0.359
		c0.238,0.181,0.449,0.392,0.63,0.631c0.419,0.42,0.869,0.75,1.351,0.989c0.119,0.061,0.225,0.136,0.314,0.226
		s0.193,0.195,0.314,0.314l0.271,0.271c0.3,0.18,0.509,0.48,0.63,0.899c0,0.061,0.029,0.105,0.09,0.136
		c0.06,0.03,0.09,0.075,0.09,0.135c0.06,0.061,0.09,0.121,0.09,0.18c0,0.061,0.03,0.121,0.091,0.18
		c0.06,0.121,0.119,0.241,0.18,0.36c0.06,0.121,0.149,0.24,0.271,0.36c0.119,0.121,0.193,0.24,0.225,0.359
		c0.029,0.121,0.104,0.241,0.225,0.36v0.27c0,0.121,0.029,0.181,0.09,0.181c0.12,0.121,0.181,0.301,0.181,0.54
		c0,0.301,0.06,0.63,0.18,0.99c0.12,0.301,0.21,0.63,0.271,0.989c0.059,0.36,0.148,0.69,0.27,0.99c0,0.121-0.061,0.301-0.18,0.54
		c0.059,0.121,0.119,0.225,0.18,0.315c0.059,0.09,0.029,0.225-0.09,0.404c0.119,0.121,0.135,0.286,0.045,0.495
		c-0.09,0.211-0.076,0.405,0.045,0.585c0.059,0.061,0.09,0.211,0.09,0.45c0,0.24,0.029,0.421,0.09,0.54
		c0.12,0.121,0.149,0.24,0.09,0.36c-0.061,0.12-0.12,0.24-0.18,0.359c0,0.061-0.016,0.121-0.045,0.181
		c-0.031,0.06-0.045,0.12-0.045,0.18c0,0.301-0.121,0.48-0.359,0.54c-0.061,0.061-0.09,0.121-0.09,0.18
		c0,0.061-0.031,0.15-0.091,0.271c-0.12,0.18-0.225,0.375-0.315,0.585c-0.09,0.211-0.195,0.404-0.314,0.585
		c-0.121,0.18-0.195,0.375-0.225,0.585c-0.031,0.211-0.105,0.404-0.225,0.585c0,0.121,0.029,0.225,0.09,0.314
		c0.059,0.091,0.119,0.196,0.18,0.315v0.18c0,0.301-0.045,0.601-0.135,0.9c-0.09,0.301-0.195,0.601-0.315,0.899h-0.09
		c0,0.241-0.046,0.45-0.136,0.631c-0.09,0.18-0.195,0.391-0.314,0.63c-0.24,0.359-0.391,0.66-0.45,0.899
		c-0.12,0.241-0.271,0.405-0.45,0.495s-0.359,0.226-0.539,0.405c-0.181,0.18-0.36,0.211-0.541,0.09c0,0.121-0.03,0.211-0.09,0.271
		c-0.121,0.12-0.256,0.225-0.404,0.314c-0.15,0.09-0.285,0.195-0.405,0.315c-0.302,0.12-0.601,0.27-0.899,0.449
		c-0.302,0.181-0.602,0.331-0.9,0.45l-0.09,0.09c-0.24-0.119-0.466-0.119-0.676,0c-0.211,0.121-0.436,0.181-0.675,0.181h-0.18
		c-0.302,0.24-0.601,0.211-0.9-0.09c-0.06,0.06-0.12,0.09-0.18,0.09c-0.481,0.54-1.051,0.72-1.71,0.54
		C249.884,177.193,249.674,177.254,249.493,177.373z M233.924,156.493c0.239,0.061,0.36,0.24,0.36,0.54
		c0,0.121,0.029,0.18,0.09,0.18c0.059,0.18,0.059,0.331,0,0.45c0,0.48,0.119,0.931,0.359,1.35c0.12-0.18,0.149-0.329,0.09-0.449
		c0-0.239,0.03-0.39,0.091-0.45c0.18-0.181,0.149-0.51-0.091-0.99v-0.27c0-0.12,0.015-0.271,0.045-0.45
		c0.03-0.181-0.015-0.329-0.135-0.45c0.12-0.06,0.24-0.149,0.36-0.271c-0.18-0.659-0.09-1.139,0.271-1.439v-0.36
		c0.119-0.119,0.148-0.239,0.09-0.359c-0.061-0.12-0.09-0.239-0.09-0.36c0.18-0.18,0.27-0.419,0.27-0.72
		c0-0.06,0.014-0.104,0.045-0.136c0.029-0.029,0.045-0.074,0.045-0.135c0-0.3,0.029-0.569,0.09-0.81
		c0.06-0.239,0.12-0.479,0.18-0.721c0.06-0.119,0.075-0.225,0.046-0.314c-0.031-0.09-0.016-0.194,0.045-0.315
		c0.12-0.299,0.226-0.585,0.315-0.854c0.09-0.271,0.254-0.555,0.494-0.855c0.06-0.059,0.06-0.119,0-0.18
		c0-0.239,0.045-0.464,0.135-0.675c0.09-0.21,0.136-0.435,0.136-0.675c0.06-0.239,0.119-0.479,0.18-0.721
		c0.06-0.238,0.149-0.449,0.271-0.63c-0.061-0.239,0.029-0.479,0.27-0.72c0.059-0.119,0.09-0.255,0.09-0.405
		c0-0.148,0.059-0.284,0.18-0.405c0.301-0.299,0.391-0.599,0.271-0.899c0-0.18,0.06-0.271,0.181-0.271
		c0.299-0.059,0.449-0.27,0.449-0.63c-0.061-0.299,0.059-0.569,0.36-0.81c0.18-0.18,0.271-0.39,0.271-0.63
		c0-0.181,0.045-0.329,0.135-0.45c0.09-0.119,0.164-0.239,0.225-0.36c0.059-0.059,0.119-0.104,0.18-0.135
		c0.059-0.029,0.119-0.104,0.18-0.225c0.24-0.419,0.21-0.811-0.09-1.17c-0.121,0.48-0.27,0.78-0.449,0.899
		c-0.18,0.301-0.346,0.585-0.496,0.855c-0.15,0.27-0.285,0.555-0.404,0.854c-0.061,0.24-0.18,0.481-0.359,0.72
		c-0.061,0.061-0.091,0.121-0.091,0.181c0,0.061-0.03,0.121-0.09,0.18c-0.121,0.121-0.24,0.24-0.36,0.36
		c-0.121,0.121-0.211,0.301-0.27,0.54l-0.18,0.18c-0.36,0.061-0.481,0.36-0.36,0.9c0.12,0.12,0.12,0.24,0,0.359
		c-0.121,0.121-0.195,0.226-0.226,0.315s-0.075,0.195-0.135,0.314c0,0.121,0.06,0.241,0.18,0.36c-0.12,0.121-0.18,0.211-0.18,0.271
		s-0.031,0.15-0.09,0.27c-0.061,0.121-0.09,0.24-0.09,0.36s-0.061,0.24-0.18,0.359c-0.301,0.181-0.391,0.45-0.271,0.811
		c0,0.24-0.045,0.465-0.135,0.675c-0.09,0.211-0.136,0.436-0.136,0.675c0,0.121-0.03,0.195-0.09,0.226
		c-0.061,0.03-0.09,0.075-0.09,0.135l-0.18,0.18c0.119,0.121,0.135,0.24,0.045,0.36c-0.09,0.121-0.166,0.24-0.225,0.359
		c0.119,0,0.18,0.061,0.18,0.181c0,0.601-0.15,1.05-0.449,1.35v0.811c0,0.359-0.031,0.63-0.091,0.81
		c-0.12,0-0.211-0.074-0.271-0.225c-0.061-0.149-0.18-0.136-0.359,0.045c0,0.12,0.014,0.211,0.045,0.27
		c0.029,0.061,0.045,0.15,0.045,0.271c-0.061,0.12-0.135,0.225-0.225,0.314s-0.105,0.195-0.045,0.315c0,0.24-0.031,0.42-0.09,0.54
		l0.09,0.27c0.059,0.061,0.104,0.09,0.135,0.09c0.029,0,0.074,0.031,0.135,0.09c0,0.302-0.09,0.526-0.27,0.676
		C234.104,155.969,233.983,156.193,233.924,156.493z"/>
</g>
</svg>
