<?xml version="1.0" encoding="utf-8"?>
<!-- Generator: Adobe Illustrator 17.0.0, SVG Export Plug-In . SVG Version: 6.00 Build 0)  -->
<!DOCTYPE svg PUBLIC "-//W3C//DTD SVG 1.1//EN" "http://www.w3.org/Graphics/SVG/1.1/DTD/svg11.dtd">
<svg version="1.1" id="Ebene_1" xmlns="http://www.w3.org/2000/svg" xmlns:xlink="http://www.w3.org/1999/xlink" x="0px" y="0px"
	 width="362.83px" height="362.83px" viewBox="0 0 362.83 362.83" enable-background="new 0 0 362.83 362.83" xml:space="preserve">
<path fill="#F0F1EF" stroke="#000000" stroke-width="0.7087" stroke-miterlimit="10" d="M294.855,108.788
	c5.435-5.629,25.053-44.005-35.845-40.437c0.385-57.484-63.211-21.408-63.211-21.408s-10.792-45.987-59.356,1.982
	c0.385-10.704-37.387-24.579-46.252,11.893c-49.721,4.361-19.272,47.573-19.272,47.573s-73.29,54.105,19.657,68.585
	c-46.989,47.351-24.311,45.962,8.822,47.772L67,347.5c0,0,71-111.25,68.75-114.5c0,0-11.111,57.706,63.132,0.271
	c1.768,29.253,101.397,35.095,87.878-22.597c-1.243-11.556,42.556,2.086,17.344-45.195
	C341.357,135.786,289.42,114.418,294.855,108.788z"/>
<path fill="#FFFFFF" stroke="#000000" stroke-width="1.4173" stroke-miterlimit="10" d="M287.226,114.072
	c4.989-5.024,22.997-39.272-32.904-36.088c0.354-51.301-58.024-19.105-58.024-19.105s-9.906-41.041-54.486,1.769
	c0.354-9.553-34.319-21.936-42.456,10.614c-45.64,3.892-17.69,42.456-17.69,42.456S14.39,162.003,99.71,174.926
	c-43.133,42.259-22.316,41.019,8.098,42.634L81.2,312.83l57.321-91.229c0.036,0.01,0.072,0.018,0.107,0.028
	c0,0-7.651,54.795,60.5,3.538c1.623,26.106,93.077,31.32,80.667-20.167c-1.141-10.313,39.064,1.862,15.921-40.334
	C329.912,138.166,282.238,119.097,287.226,114.072z"/>
<image overflow="visible" enable-background="new    " width="800" height="500" xlink:href="FDED2A54.jpg"  transform="matrix(0.2463 0 0 0.2463 -320 1.33)">
</image>
</svg>
