<?xml version="1.0" encoding="utf-8"?>
<!-- Generator: Adobe Illustrator 17.0.0, SVG Export Plug-In . SVG Version: 6.00 Build 0)  -->
<!DOCTYPE svg PUBLIC "-//W3C//DTD SVG 1.1//EN" "http://www.w3.org/Graphics/SVG/1.1/DTD/svg11.dtd">
<svg version="1.1" xmlns="http://www.w3.org/2000/svg" xmlns:xlink="http://www.w3.org/1999/xlink" x="0px" y="0px"
	 width="362.83px" height="362.83px" viewBox="0 0 362.83 362.83" enable-background="new 0 0 362.83 362.83" xml:space="preserve">
<g id="Ebene_2">
	<path fill="#F0F1EF" stroke="#000000" stroke-width="0.7087" stroke-miterlimit="10" d="M314.44,146.659
		c-7.787-4.958,2.348-40.98,2.348-52.114c0-11.134-7.564-17.537-10.788-25.431c-3.224-7.895,4.333-57.114-15.667-58.508
		c-13.971-3.34-21.208,64.085-23,72.322c-1.792,8.238-5.12,7.928-17.785,22.524c-9.109,0-10.229-29.267-28.221-29.785
		C210.58,74.553,182.924,77,182.924,77s-29.852-5.23-36.94-2s-15.045,2.612-27.942,29.333c0,0-12.782,6.697-29.019-28.31
		C77.175,59.657,87.175,2.159,67.483,5.816C54.587,10.27,55.926,60.939,56.785,68c0.86,7.061-13.308,16.237-17.195,30.061
		s1.952,27.064,4.299,33.401s9.502,22.525,0,28.537s-10.326,48.249-8.597,60.534c1.728,12.284,4.43,42.161,11.402,44.8
		c6.972,2.639,6.445,14.037,12.01,22.962s17.164,38.907,30.589,37.664c13.425-1.243,37.239,12.706,31.036,9.369
		c12.564,5.838,50.925,19.634,61.656,18.81c14.508-1.113,41.07-19.048,55.346-18.139c14.275,0.909,34.174-5.279,42.255-11.806
		s21.139-37.295,30.11-45.078c8.971-7.783,3.523-30.729,15.971-50.789C338.115,208.268,322.227,151.617,314.44,146.659z
		 M203.5,141.25c-7.257-3.329-15.443-19.25-24.305-18.583c-8.862,0.667-10.173,11.69-18.695,17.333
		c-10.439,1.591-17.376-5.626-17.376-5.626c-5.749-7.082,36.88-25.366,36.88-25.366s37.779,16.877,37.83,21.826
		C217.884,135.782,213.871,141.687,203.5,141.25z"/>
	<path fill="#25160E" stroke="#000000" stroke-width="1.4173" stroke-miterlimit="10" d="M322.572,184.821l-279.773,4.418
		c0,0-2.505,27.031-0.885,38.141c1.619,11.11,3.895,31.887,12.728,36.402c8.833,4.516,6.203,18.939,11.417,27.012
		c5.214,8.072,15.636,31.353,28.214,30.228s35.254,11.141,29.442,8.123c11.772,5.28,45.587,19.808,55.642,19.063
		c13.593-1.007,38.481-18.854,51.856-18.032c13.375,0.822,26.129-3.709,39.59-9.049c13.461-5.341,24.768-41.101,31.758-44.19
		c6.99-3.089,9.457-21.591,14.239-42.509C328.462,216.287,322.572,184.821,322.572,184.821z"/>
	<path fill="#432714" stroke="#000000" stroke-width="1.4173" stroke-miterlimit="10" d="M311.764,153.415
		c-12.083-9.532,0-47.325,0-57.394c0-10.069-8.055-19.04-11.076-26.18c-3.021-7.14,3.474-49.892-9.616-52.913
		c-13.09-3.021-16.898,61.574-18.577,69.024c-1.679,7.45-10.032,11.215-21.898,24.415c-12.337-0.249-17.523-29.802-34.38-30.27
		c-10.069-1.007-33.337,1.828-33.337,1.828s-28.193-7.048-37.256-2.014s-14.097,6.041-26.18,30.207c0,0-17.706,3.162-32.919-28.497
		C75.425,66.82,81.182,11.441,69.1,15.469c-12.083,4.028-7.854,46.981-7.048,53.366c0.806,6.386-12.469,14.684-16.11,27.187
		c-3.642,12.502,1.829,24.476,4.028,30.207c2.198,5.731,8.903,29.804,0,35.242s-9.675,34.201-8.055,45.311
		c1.619,11.11,15.004,18.326,19.82,29.31c4.816,10.984-0.889,26.032,4.325,34.104c5.214,8.072,15.636,31.353,28.214,30.228
		c12.578-1.124,35.254,11.141,29.442,8.123c11.772,5.28,45.587,19.808,55.642,19.063c13.593-1.007,38.481-18.854,51.856-18.032
		c13.375,0.822,33.731-9.769,39.59-9.049c5.859,0.72,24.768-41.101,31.758-44.19c6.99-3.089,2.576-24.368,14.239-42.509
		S323.847,162.947,311.764,153.415z M200.182,144.089c-8.634-3.084-7.401-15.007-20.629-18.331
		c-11.441,2.09-9.559,16.892-19.34,18.331c-9.781,1.439-20.265-3.084-20.265-12.335c-0.617-12.335,43.74-28.14,40.15-25.833
		c10.851,6.214,41.875,15.966,41.875,25.833S208.816,147.173,200.182,144.089z"/>
	<path fill="#F0F1EF" stroke="#000000" stroke-width="0.7087" stroke-miterlimit="10" d="M130.283,107.321
		c3.542-11.622,23.749-22.262,25.662-21.98c1.913,0.282,3.767-0.139,4.223,2.732C160.623,90.945,140.848,96.498,130.283,107.321z"/>
	<path fill="#F0F1EF" stroke="#000000" stroke-width="0.7087" stroke-miterlimit="10" d="M232.005,107.321
		c-3.542-11.622-23.749-22.262-25.662-21.98c-1.913,0.282-3.767-0.139-4.223,2.732C201.665,90.945,221.44,96.498,232.005,107.321z"
		/>
	<path fill="#F0F1EF" stroke="#000000" stroke-width="0.7087" stroke-miterlimit="10" d="M73.355,72.386
		c-22.841,25.076-9.44,51.298-8.741,54.454c0.699,3.156,3.028,5.973,3.028,5.973S58.848,92.838,73.355,72.386z"/>
	<path fill="#F0F1EF" stroke="#000000" stroke-width="0.7087" stroke-miterlimit="10" d="M58.219,159.27
		c-19.749,27.577,6.021,72.337,10.061,70.301s-9.481-20.105-3.157-22.946C54.839,188.94,46.205,181.28,58.219,159.27z"/>
	<path fill="#F0F1EF" stroke="#000000" stroke-width="0.7087" stroke-miterlimit="10" d="M293.319,74.542
		c23.147,18.343,10.089,37.049,9.431,39.312s-2.95,4.261-2.95,4.261S308.079,89.45,293.319,74.542z"/>
</g>
</svg>
