<?xml version="1.0" encoding="utf-8"?>
<!-- Generator: Adobe Illustrator 17.0.0, SVG Export Plug-In . SVG Version: 6.00 Build 0)  -->
<!DOCTYPE svg PUBLIC "-//W3C//DTD SVG 1.1//EN" "http://www.w3.org/Graphics/SVG/1.1/DTD/svg11.dtd">
<svg version="1.1" xmlns="http://www.w3.org/2000/svg" xmlns:xlink="http://www.w3.org/1999/xlink" x="0px" y="0px"
	 width="362.83px" height="362.83px" viewBox="0 0 362.83 362.83" enable-background="new 0 0 362.83 362.83" xml:space="preserve">
<g id="Ebene_1" display="none">
	<polygon display="inline" fill="none" points="68.837,136.939 181.49,136.939 115.776,148.367 	"/>
	<polygon display="inline" fill="none" points="68.02,138.571 68.429,166.735 182.714,166.735 181.859,145.92 181.49,136.939 
		221.898,145.102 204.347,178.98 122.714,192.449 37.408,174.898 30.469,144.286 65.571,145.918 	"/>
	
		<image display="inline" overflow="visible" width="235" height="235" xlink:href="../Alt/825bb7de-40c1-4fb6-a088-bc063bb0cdbd.jpg"  transform="matrix(1 0 0 1 61.949 63.915)">
	</image>
</g>
<g id="Ebene_2">
	<path fill="#FFFFFF" d="M82.702,219.173c0,0,4.04-124.033,5.235-132.621c43.625-51.769,194.279-20.94,207.657,6.98
		c-3.49,4.072-12.797,117.498-12.797,117.498l2.327,7.562l4.456,24.558l3.106,15.578L82.702,219.173z"/>
	<path fill="#F0F1EF" stroke="#000000" stroke-width="0.7087" stroke-miterlimit="10" d="M302.869,247.515
		c-0.345,0.024-0.731,0.032-1.149,0.027c-20.229-24.842-0.522-132.526,5.061-162.075C301.173,54.5,105.552,24.179,75.025,80.306
		c1.769,60.443,1.863,63.695,0.284,115.376c-11.459-0.847-19.814-0.408-22.902,1.955c-71.503,23.273-28.68,100.113,4.81,100.113
		c13.407-65.806,50.947-51.66,56.572-54.378c38.553-5.12,168.438,43.533,184.982,41.196
		C378.221,267.11,357.735,236.471,302.869,247.515z"/>
	<path stroke="#000000" stroke-width="1.4173" stroke-miterlimit="10" d="M53.036,286.647c-20.94,1.745-57.586-65.729,7.562-82.598
		c13.378-8.143,134.05,19.718,154.725,25.594s78.251,25.552,87.932,25.012c32.474-8.143,67.375,5.817-3.794,21.522
		c-15.073,1.694-148.704-44.789-191.166-38.39C79.793,242.44,65.252,238.95,53.036,286.647z"/>
	<path stroke="#000000" stroke-width="1.4173" stroke-miterlimit="10" d="M109.503,202.886c0,0,109.369-7.077,175.621,15.705
		c4.072,5.235,8.143,33.454,0,26.034C213.578,215.102,109.503,202.886,109.503,202.886z"/>
	<path stroke="#000000" stroke-width="1.4173" stroke-miterlimit="10" d="M82.702,198.35c1.745-54.794,1.745-54.794,0-112.38
		c28.502-50.606,211.147-23.267,216.382,4.653c-5.235,26.757-15.705,87.833-16.287,120.406c-5.167-1.833-21.522-2.959-23.849-8.459
		c-2.327-5.501,18.976-118.723,15.123-121.254c-3.852-2.531-8.725-6.398-12.797-5.817s-15.124,127.386-15.124,127.386
		c-8.143-4.189-87.833-12.215-117.498-8.725c1.745-14.542,1.745-122.733,0-125.641c-2.908,2.327-22.371-0.937-28.502,9.888
		c-1.13,5.87,2.908,119.942-3.49,119.942C90.264,198.35,82.702,198.35,82.702,198.35z"/>
</g>
</svg>
